G04 #@! TF.GenerationSoftware,KiCad,Pcbnew,(5.1.4)-1*
G04 #@! TF.CreationDate,2021-10-09T11:26:26+08:00*
G04 #@! TF.ProjectId,ConnectInterface,436f6e6e-6563-4744-996e-746572666163,rev?*
G04 #@! TF.SameCoordinates,Original*
G04 #@! TF.FileFunction,Copper,L2,Bot*
G04 #@! TF.FilePolarity,Positive*
%FSLAX46Y46*%
G04 Gerber Fmt 4.6, Leading zero omitted, Abs format (unit mm)*
G04 Created by KiCad (PCBNEW (5.1.4)-1) date 2021-10-09 11:26:26*
%MOMM*%
%LPD*%
G04 APERTURE LIST*
%ADD10C,5.000000*%
%ADD11R,1.700000X1.700000*%
%ADD12O,1.700000X1.700000*%
%ADD13C,0.800000*%
%ADD14C,0.250000*%
%ADD15C,0.600000*%
%ADD16C,0.254000*%
G04 APERTURE END LIST*
D10*
X132576288Y-56166680D03*
X132523394Y-82166680D03*
X179344320Y-82120740D03*
X179289428Y-56331780D03*
D11*
X180586380Y-74769980D03*
D12*
X178046380Y-74769980D03*
X180586380Y-72229980D03*
X178046380Y-72229980D03*
X180586380Y-69689980D03*
X178046380Y-69689980D03*
X180586380Y-67149980D03*
X178046380Y-67149980D03*
X180586380Y-64609980D03*
X178046380Y-64609980D03*
D13*
X171480480Y-67162680D03*
X161119820Y-65768220D03*
D14*
X171480480Y-67162680D02*
X174498000Y-67162680D01*
X174498000Y-67162680D02*
X175813720Y-65846960D01*
X179349400Y-65846960D02*
X180586380Y-64609980D01*
X175813720Y-65846960D02*
X179349400Y-65846960D01*
D15*
X178046380Y-64609980D02*
X162278060Y-64609980D01*
X162278060Y-64609980D02*
X161119820Y-65768220D01*
D16*
G36*
X180203322Y-52912819D02*
G01*
X180820420Y-53096991D01*
X181389999Y-53397522D01*
X181890352Y-53802955D01*
X182302428Y-54297855D01*
X182610531Y-54863371D01*
X182802923Y-55477961D01*
X182875696Y-56149776D01*
X182837840Y-82120647D01*
X182773707Y-82796870D01*
X182589534Y-83413970D01*
X182289007Y-83983544D01*
X181883570Y-84483900D01*
X181388669Y-84895978D01*
X180823155Y-85204079D01*
X180208565Y-85396471D01*
X179536586Y-85469262D01*
X132581407Y-85476394D01*
X131901568Y-85412344D01*
X131280592Y-85227434D01*
X130707355Y-84925429D01*
X130203698Y-84517835D01*
X129788798Y-84020171D01*
X129478468Y-83451407D01*
X129284518Y-82833187D01*
X129209051Y-82140504D01*
X129209591Y-81857909D01*
X129388394Y-81857909D01*
X129388394Y-82475451D01*
X129508870Y-83081126D01*
X129745193Y-83651659D01*
X130088280Y-84165126D01*
X130524948Y-84601794D01*
X131038415Y-84944881D01*
X131608948Y-85181204D01*
X132214623Y-85301680D01*
X132832165Y-85301680D01*
X133437840Y-85181204D01*
X134008373Y-84944881D01*
X134521840Y-84601794D01*
X134958508Y-84165126D01*
X135301595Y-83651659D01*
X135537918Y-83081126D01*
X135658394Y-82475451D01*
X135658394Y-81857909D01*
X135649256Y-81811969D01*
X176209320Y-81811969D01*
X176209320Y-82429511D01*
X176329796Y-83035186D01*
X176566119Y-83605719D01*
X176909206Y-84119186D01*
X177345874Y-84555854D01*
X177859341Y-84898941D01*
X178429874Y-85135264D01*
X179035549Y-85255740D01*
X179653091Y-85255740D01*
X180258766Y-85135264D01*
X180829299Y-84898941D01*
X181342766Y-84555854D01*
X181779434Y-84119186D01*
X182122521Y-83605719D01*
X182358844Y-83035186D01*
X182479320Y-82429511D01*
X182479320Y-81811969D01*
X182358844Y-81206294D01*
X182122521Y-80635761D01*
X181779434Y-80122294D01*
X181342766Y-79685626D01*
X180829299Y-79342539D01*
X180258766Y-79106216D01*
X179653091Y-78985740D01*
X179035549Y-78985740D01*
X178429874Y-79106216D01*
X177859341Y-79342539D01*
X177345874Y-79685626D01*
X176909206Y-80122294D01*
X176566119Y-80635761D01*
X176329796Y-81206294D01*
X176209320Y-81811969D01*
X135649256Y-81811969D01*
X135537918Y-81252234D01*
X135301595Y-80681701D01*
X134958508Y-80168234D01*
X134521840Y-79731566D01*
X134008373Y-79388479D01*
X133437840Y-79152156D01*
X132832165Y-79031680D01*
X132214623Y-79031680D01*
X131608948Y-79152156D01*
X131038415Y-79388479D01*
X130524948Y-79731566D01*
X130088280Y-80168234D01*
X129745193Y-80681701D01*
X129508870Y-81252234D01*
X129388394Y-81857909D01*
X129209591Y-81857909D01*
X129228011Y-72229980D01*
X176554195Y-72229980D01*
X176582867Y-72521091D01*
X176667781Y-72801014D01*
X176805674Y-73058994D01*
X176991246Y-73285114D01*
X177217366Y-73470686D01*
X177272171Y-73499980D01*
X177217366Y-73529274D01*
X176991246Y-73714846D01*
X176805674Y-73940966D01*
X176667781Y-74198946D01*
X176582867Y-74478869D01*
X176554195Y-74769980D01*
X176582867Y-75061091D01*
X176667781Y-75341014D01*
X176805674Y-75598994D01*
X176991246Y-75825114D01*
X177217366Y-76010686D01*
X177475346Y-76148579D01*
X177755269Y-76233493D01*
X177973430Y-76254980D01*
X178119330Y-76254980D01*
X178337491Y-76233493D01*
X178617414Y-76148579D01*
X178875394Y-76010686D01*
X179101514Y-75825114D01*
X179125987Y-75795293D01*
X179146878Y-75864160D01*
X179205843Y-75974474D01*
X179285195Y-76071165D01*
X179381886Y-76150517D01*
X179492200Y-76209482D01*
X179611898Y-76245792D01*
X179736380Y-76258052D01*
X181436380Y-76258052D01*
X181560862Y-76245792D01*
X181680560Y-76209482D01*
X181790874Y-76150517D01*
X181887565Y-76071165D01*
X181966917Y-75974474D01*
X182025882Y-75864160D01*
X182062192Y-75744462D01*
X182074452Y-75619980D01*
X182074452Y-73919980D01*
X182062192Y-73795498D01*
X182025882Y-73675800D01*
X181966917Y-73565486D01*
X181887565Y-73468795D01*
X181790874Y-73389443D01*
X181680560Y-73330478D01*
X181611693Y-73309587D01*
X181641514Y-73285114D01*
X181827086Y-73058994D01*
X181964979Y-72801014D01*
X182049893Y-72521091D01*
X182078565Y-72229980D01*
X182049893Y-71938869D01*
X181964979Y-71658946D01*
X181827086Y-71400966D01*
X181641514Y-71174846D01*
X181415394Y-70989274D01*
X181350857Y-70954779D01*
X181467735Y-70885158D01*
X181683968Y-70690249D01*
X181858021Y-70456900D01*
X181983205Y-70194079D01*
X182027856Y-70046870D01*
X181906535Y-69816980D01*
X180713380Y-69816980D01*
X180713380Y-69836980D01*
X180459380Y-69836980D01*
X180459380Y-69816980D01*
X178173380Y-69816980D01*
X178173380Y-69836980D01*
X177919380Y-69836980D01*
X177919380Y-69816980D01*
X176726225Y-69816980D01*
X176604904Y-70046870D01*
X176649555Y-70194079D01*
X176774739Y-70456900D01*
X176948792Y-70690249D01*
X177165025Y-70885158D01*
X177281903Y-70954779D01*
X177217366Y-70989274D01*
X176991246Y-71174846D01*
X176805674Y-71400966D01*
X176667781Y-71658946D01*
X176582867Y-71938869D01*
X176554195Y-72229980D01*
X129228011Y-72229980D01*
X129240570Y-65666281D01*
X160084820Y-65666281D01*
X160084820Y-65870159D01*
X160124594Y-66070118D01*
X160202615Y-66258476D01*
X160315883Y-66427994D01*
X160460046Y-66572157D01*
X160629564Y-66685425D01*
X160817922Y-66763446D01*
X161017881Y-66803220D01*
X161221759Y-66803220D01*
X161421718Y-66763446D01*
X161610076Y-66685425D01*
X161779594Y-66572157D01*
X161923757Y-66427994D01*
X162037025Y-66258476D01*
X162097251Y-66113078D01*
X162665349Y-65544980D01*
X175040898Y-65544980D01*
X174183199Y-66402680D01*
X172184191Y-66402680D01*
X172140254Y-66358743D01*
X171970736Y-66245475D01*
X171782378Y-66167454D01*
X171582419Y-66127680D01*
X171378541Y-66127680D01*
X171178582Y-66167454D01*
X170990224Y-66245475D01*
X170820706Y-66358743D01*
X170676543Y-66502906D01*
X170563275Y-66672424D01*
X170485254Y-66860782D01*
X170445480Y-67060741D01*
X170445480Y-67264619D01*
X170485254Y-67464578D01*
X170563275Y-67652936D01*
X170676543Y-67822454D01*
X170820706Y-67966617D01*
X170990224Y-68079885D01*
X171178582Y-68157906D01*
X171378541Y-68197680D01*
X171582419Y-68197680D01*
X171782378Y-68157906D01*
X171970736Y-68079885D01*
X172140254Y-67966617D01*
X172184191Y-67922680D01*
X174460678Y-67922680D01*
X174498000Y-67926356D01*
X174535322Y-67922680D01*
X174535333Y-67922680D01*
X174646986Y-67911683D01*
X174790247Y-67868226D01*
X174922276Y-67797654D01*
X175038001Y-67702681D01*
X175061804Y-67673677D01*
X176128522Y-66606960D01*
X176659283Y-66606960D01*
X176582867Y-66858869D01*
X176554195Y-67149980D01*
X176582867Y-67441091D01*
X176667781Y-67721014D01*
X176805674Y-67978994D01*
X176991246Y-68205114D01*
X177217366Y-68390686D01*
X177281903Y-68425181D01*
X177165025Y-68494802D01*
X176948792Y-68689711D01*
X176774739Y-68923060D01*
X176649555Y-69185881D01*
X176604904Y-69333090D01*
X176726225Y-69562980D01*
X177919380Y-69562980D01*
X177919380Y-69542980D01*
X178173380Y-69542980D01*
X178173380Y-69562980D01*
X180459380Y-69562980D01*
X180459380Y-69542980D01*
X180713380Y-69542980D01*
X180713380Y-69562980D01*
X181906535Y-69562980D01*
X182027856Y-69333090D01*
X181983205Y-69185881D01*
X181858021Y-68923060D01*
X181683968Y-68689711D01*
X181467735Y-68494802D01*
X181350857Y-68425181D01*
X181415394Y-68390686D01*
X181641514Y-68205114D01*
X181827086Y-67978994D01*
X181964979Y-67721014D01*
X182049893Y-67441091D01*
X182078565Y-67149980D01*
X182049893Y-66858869D01*
X181964979Y-66578946D01*
X181827086Y-66320966D01*
X181641514Y-66094846D01*
X181415394Y-65909274D01*
X181360589Y-65879980D01*
X181415394Y-65850686D01*
X181641514Y-65665114D01*
X181827086Y-65438994D01*
X181964979Y-65181014D01*
X182049893Y-64901091D01*
X182078565Y-64609980D01*
X182049893Y-64318869D01*
X181964979Y-64038946D01*
X181827086Y-63780966D01*
X181641514Y-63554846D01*
X181415394Y-63369274D01*
X181157414Y-63231381D01*
X180877491Y-63146467D01*
X180659330Y-63124980D01*
X180513430Y-63124980D01*
X180295269Y-63146467D01*
X180015346Y-63231381D01*
X179757366Y-63369274D01*
X179531246Y-63554846D01*
X179345674Y-63780966D01*
X179316380Y-63835771D01*
X179287086Y-63780966D01*
X179101514Y-63554846D01*
X178875394Y-63369274D01*
X178617414Y-63231381D01*
X178337491Y-63146467D01*
X178119330Y-63124980D01*
X177973430Y-63124980D01*
X177755269Y-63146467D01*
X177475346Y-63231381D01*
X177217366Y-63369274D01*
X176991246Y-63554846D01*
X176892655Y-63674980D01*
X162323995Y-63674980D01*
X162278060Y-63670456D01*
X162094768Y-63688508D01*
X161918519Y-63741973D01*
X161861940Y-63772215D01*
X161756088Y-63828794D01*
X161613716Y-63945636D01*
X161584430Y-63981321D01*
X160774962Y-64790789D01*
X160629564Y-64851015D01*
X160460046Y-64964283D01*
X160315883Y-65108446D01*
X160202615Y-65277964D01*
X160124594Y-65466322D01*
X160084820Y-65666281D01*
X129240570Y-65666281D01*
X129258686Y-56197704D01*
X129290911Y-55857909D01*
X129441288Y-55857909D01*
X129441288Y-56475451D01*
X129561764Y-57081126D01*
X129798087Y-57651659D01*
X130141174Y-58165126D01*
X130577842Y-58601794D01*
X131091309Y-58944881D01*
X131661842Y-59181204D01*
X132267517Y-59301680D01*
X132885059Y-59301680D01*
X133490734Y-59181204D01*
X134061267Y-58944881D01*
X134574734Y-58601794D01*
X135011402Y-58165126D01*
X135354489Y-57651659D01*
X135590812Y-57081126D01*
X135711288Y-56475451D01*
X135711288Y-56023009D01*
X176154428Y-56023009D01*
X176154428Y-56640551D01*
X176274904Y-57246226D01*
X176511227Y-57816759D01*
X176854314Y-58330226D01*
X177290982Y-58766894D01*
X177804449Y-59109981D01*
X178374982Y-59346304D01*
X178980657Y-59466780D01*
X179598199Y-59466780D01*
X180203874Y-59346304D01*
X180774407Y-59109981D01*
X181287874Y-58766894D01*
X181724542Y-58330226D01*
X182067629Y-57816759D01*
X182303952Y-57246226D01*
X182424428Y-56640551D01*
X182424428Y-56023009D01*
X182303952Y-55417334D01*
X182067629Y-54846801D01*
X181724542Y-54333334D01*
X181287874Y-53896666D01*
X180774407Y-53553579D01*
X180203874Y-53317256D01*
X179598199Y-53196780D01*
X178980657Y-53196780D01*
X178374982Y-53317256D01*
X177804449Y-53553579D01*
X177290982Y-53896666D01*
X176854314Y-54333334D01*
X176511227Y-54846801D01*
X176274904Y-55417334D01*
X176154428Y-56023009D01*
X135711288Y-56023009D01*
X135711288Y-55857909D01*
X135590812Y-55252234D01*
X135354489Y-54681701D01*
X135011402Y-54168234D01*
X134574734Y-53731566D01*
X134061267Y-53388479D01*
X133490734Y-53152156D01*
X132885059Y-53031680D01*
X132267517Y-53031680D01*
X131661842Y-53152156D01*
X131091309Y-53388479D01*
X130577842Y-53731566D01*
X130141174Y-54168234D01*
X129798087Y-54681701D01*
X129561764Y-55252234D01*
X129441288Y-55857909D01*
X129290911Y-55857909D01*
X129322833Y-55521328D01*
X129507005Y-54904230D01*
X129807536Y-54334651D01*
X130212969Y-53834298D01*
X130707869Y-53422222D01*
X131273385Y-53114119D01*
X131887975Y-52921727D01*
X132559941Y-52848938D01*
X179527594Y-52848733D01*
X180203322Y-52912819D01*
X180203322Y-52912819D01*
G37*
X180203322Y-52912819D02*
X180820420Y-53096991D01*
X181389999Y-53397522D01*
X181890352Y-53802955D01*
X182302428Y-54297855D01*
X182610531Y-54863371D01*
X182802923Y-55477961D01*
X182875696Y-56149776D01*
X182837840Y-82120647D01*
X182773707Y-82796870D01*
X182589534Y-83413970D01*
X182289007Y-83983544D01*
X181883570Y-84483900D01*
X181388669Y-84895978D01*
X180823155Y-85204079D01*
X180208565Y-85396471D01*
X179536586Y-85469262D01*
X132581407Y-85476394D01*
X131901568Y-85412344D01*
X131280592Y-85227434D01*
X130707355Y-84925429D01*
X130203698Y-84517835D01*
X129788798Y-84020171D01*
X129478468Y-83451407D01*
X129284518Y-82833187D01*
X129209051Y-82140504D01*
X129209591Y-81857909D01*
X129388394Y-81857909D01*
X129388394Y-82475451D01*
X129508870Y-83081126D01*
X129745193Y-83651659D01*
X130088280Y-84165126D01*
X130524948Y-84601794D01*
X131038415Y-84944881D01*
X131608948Y-85181204D01*
X132214623Y-85301680D01*
X132832165Y-85301680D01*
X133437840Y-85181204D01*
X134008373Y-84944881D01*
X134521840Y-84601794D01*
X134958508Y-84165126D01*
X135301595Y-83651659D01*
X135537918Y-83081126D01*
X135658394Y-82475451D01*
X135658394Y-81857909D01*
X135649256Y-81811969D01*
X176209320Y-81811969D01*
X176209320Y-82429511D01*
X176329796Y-83035186D01*
X176566119Y-83605719D01*
X176909206Y-84119186D01*
X177345874Y-84555854D01*
X177859341Y-84898941D01*
X178429874Y-85135264D01*
X179035549Y-85255740D01*
X179653091Y-85255740D01*
X180258766Y-85135264D01*
X180829299Y-84898941D01*
X181342766Y-84555854D01*
X181779434Y-84119186D01*
X182122521Y-83605719D01*
X182358844Y-83035186D01*
X182479320Y-82429511D01*
X182479320Y-81811969D01*
X182358844Y-81206294D01*
X182122521Y-80635761D01*
X181779434Y-80122294D01*
X181342766Y-79685626D01*
X180829299Y-79342539D01*
X180258766Y-79106216D01*
X179653091Y-78985740D01*
X179035549Y-78985740D01*
X178429874Y-79106216D01*
X177859341Y-79342539D01*
X177345874Y-79685626D01*
X176909206Y-80122294D01*
X176566119Y-80635761D01*
X176329796Y-81206294D01*
X176209320Y-81811969D01*
X135649256Y-81811969D01*
X135537918Y-81252234D01*
X135301595Y-80681701D01*
X134958508Y-80168234D01*
X134521840Y-79731566D01*
X134008373Y-79388479D01*
X133437840Y-79152156D01*
X132832165Y-79031680D01*
X132214623Y-79031680D01*
X131608948Y-79152156D01*
X131038415Y-79388479D01*
X130524948Y-79731566D01*
X130088280Y-80168234D01*
X129745193Y-80681701D01*
X129508870Y-81252234D01*
X129388394Y-81857909D01*
X129209591Y-81857909D01*
X129228011Y-72229980D01*
X176554195Y-72229980D01*
X176582867Y-72521091D01*
X176667781Y-72801014D01*
X176805674Y-73058994D01*
X176991246Y-73285114D01*
X177217366Y-73470686D01*
X177272171Y-73499980D01*
X177217366Y-73529274D01*
X176991246Y-73714846D01*
X176805674Y-73940966D01*
X176667781Y-74198946D01*
X176582867Y-74478869D01*
X176554195Y-74769980D01*
X176582867Y-75061091D01*
X176667781Y-75341014D01*
X176805674Y-75598994D01*
X176991246Y-75825114D01*
X177217366Y-76010686D01*
X177475346Y-76148579D01*
X177755269Y-76233493D01*
X177973430Y-76254980D01*
X178119330Y-76254980D01*
X178337491Y-76233493D01*
X178617414Y-76148579D01*
X178875394Y-76010686D01*
X179101514Y-75825114D01*
X179125987Y-75795293D01*
X179146878Y-75864160D01*
X179205843Y-75974474D01*
X179285195Y-76071165D01*
X179381886Y-76150517D01*
X179492200Y-76209482D01*
X179611898Y-76245792D01*
X179736380Y-76258052D01*
X181436380Y-76258052D01*
X181560862Y-76245792D01*
X181680560Y-76209482D01*
X181790874Y-76150517D01*
X181887565Y-76071165D01*
X181966917Y-75974474D01*
X182025882Y-75864160D01*
X182062192Y-75744462D01*
X182074452Y-75619980D01*
X182074452Y-73919980D01*
X182062192Y-73795498D01*
X182025882Y-73675800D01*
X181966917Y-73565486D01*
X181887565Y-73468795D01*
X181790874Y-73389443D01*
X181680560Y-73330478D01*
X181611693Y-73309587D01*
X181641514Y-73285114D01*
X181827086Y-73058994D01*
X181964979Y-72801014D01*
X182049893Y-72521091D01*
X182078565Y-72229980D01*
X182049893Y-71938869D01*
X181964979Y-71658946D01*
X181827086Y-71400966D01*
X181641514Y-71174846D01*
X181415394Y-70989274D01*
X181350857Y-70954779D01*
X181467735Y-70885158D01*
X181683968Y-70690249D01*
X181858021Y-70456900D01*
X181983205Y-70194079D01*
X182027856Y-70046870D01*
X181906535Y-69816980D01*
X180713380Y-69816980D01*
X180713380Y-69836980D01*
X180459380Y-69836980D01*
X180459380Y-69816980D01*
X178173380Y-69816980D01*
X178173380Y-69836980D01*
X177919380Y-69836980D01*
X177919380Y-69816980D01*
X176726225Y-69816980D01*
X176604904Y-70046870D01*
X176649555Y-70194079D01*
X176774739Y-70456900D01*
X176948792Y-70690249D01*
X177165025Y-70885158D01*
X177281903Y-70954779D01*
X177217366Y-70989274D01*
X176991246Y-71174846D01*
X176805674Y-71400966D01*
X176667781Y-71658946D01*
X176582867Y-71938869D01*
X176554195Y-72229980D01*
X129228011Y-72229980D01*
X129240570Y-65666281D01*
X160084820Y-65666281D01*
X160084820Y-65870159D01*
X160124594Y-66070118D01*
X160202615Y-66258476D01*
X160315883Y-66427994D01*
X160460046Y-66572157D01*
X160629564Y-66685425D01*
X160817922Y-66763446D01*
X161017881Y-66803220D01*
X161221759Y-66803220D01*
X161421718Y-66763446D01*
X161610076Y-66685425D01*
X161779594Y-66572157D01*
X161923757Y-66427994D01*
X162037025Y-66258476D01*
X162097251Y-66113078D01*
X162665349Y-65544980D01*
X175040898Y-65544980D01*
X174183199Y-66402680D01*
X172184191Y-66402680D01*
X172140254Y-66358743D01*
X171970736Y-66245475D01*
X171782378Y-66167454D01*
X171582419Y-66127680D01*
X171378541Y-66127680D01*
X171178582Y-66167454D01*
X170990224Y-66245475D01*
X170820706Y-66358743D01*
X170676543Y-66502906D01*
X170563275Y-66672424D01*
X170485254Y-66860782D01*
X170445480Y-67060741D01*
X170445480Y-67264619D01*
X170485254Y-67464578D01*
X170563275Y-67652936D01*
X170676543Y-67822454D01*
X170820706Y-67966617D01*
X170990224Y-68079885D01*
X171178582Y-68157906D01*
X171378541Y-68197680D01*
X171582419Y-68197680D01*
X171782378Y-68157906D01*
X171970736Y-68079885D01*
X172140254Y-67966617D01*
X172184191Y-67922680D01*
X174460678Y-67922680D01*
X174498000Y-67926356D01*
X174535322Y-67922680D01*
X174535333Y-67922680D01*
X174646986Y-67911683D01*
X174790247Y-67868226D01*
X174922276Y-67797654D01*
X175038001Y-67702681D01*
X175061804Y-67673677D01*
X176128522Y-66606960D01*
X176659283Y-66606960D01*
X176582867Y-66858869D01*
X176554195Y-67149980D01*
X176582867Y-67441091D01*
X176667781Y-67721014D01*
X176805674Y-67978994D01*
X176991246Y-68205114D01*
X177217366Y-68390686D01*
X177281903Y-68425181D01*
X177165025Y-68494802D01*
X176948792Y-68689711D01*
X176774739Y-68923060D01*
X176649555Y-69185881D01*
X176604904Y-69333090D01*
X176726225Y-69562980D01*
X177919380Y-69562980D01*
X177919380Y-69542980D01*
X178173380Y-69542980D01*
X178173380Y-69562980D01*
X180459380Y-69562980D01*
X180459380Y-69542980D01*
X180713380Y-69542980D01*
X180713380Y-69562980D01*
X181906535Y-69562980D01*
X182027856Y-69333090D01*
X181983205Y-69185881D01*
X181858021Y-68923060D01*
X181683968Y-68689711D01*
X181467735Y-68494802D01*
X181350857Y-68425181D01*
X181415394Y-68390686D01*
X181641514Y-68205114D01*
X181827086Y-67978994D01*
X181964979Y-67721014D01*
X182049893Y-67441091D01*
X182078565Y-67149980D01*
X182049893Y-66858869D01*
X181964979Y-66578946D01*
X181827086Y-66320966D01*
X181641514Y-66094846D01*
X181415394Y-65909274D01*
X181360589Y-65879980D01*
X181415394Y-65850686D01*
X181641514Y-65665114D01*
X181827086Y-65438994D01*
X181964979Y-65181014D01*
X182049893Y-64901091D01*
X182078565Y-64609980D01*
X182049893Y-64318869D01*
X181964979Y-64038946D01*
X181827086Y-63780966D01*
X181641514Y-63554846D01*
X181415394Y-63369274D01*
X181157414Y-63231381D01*
X180877491Y-63146467D01*
X180659330Y-63124980D01*
X180513430Y-63124980D01*
X180295269Y-63146467D01*
X180015346Y-63231381D01*
X179757366Y-63369274D01*
X179531246Y-63554846D01*
X179345674Y-63780966D01*
X179316380Y-63835771D01*
X179287086Y-63780966D01*
X179101514Y-63554846D01*
X178875394Y-63369274D01*
X178617414Y-63231381D01*
X178337491Y-63146467D01*
X178119330Y-63124980D01*
X177973430Y-63124980D01*
X177755269Y-63146467D01*
X177475346Y-63231381D01*
X177217366Y-63369274D01*
X176991246Y-63554846D01*
X176892655Y-63674980D01*
X162323995Y-63674980D01*
X162278060Y-63670456D01*
X162094768Y-63688508D01*
X161918519Y-63741973D01*
X161861940Y-63772215D01*
X161756088Y-63828794D01*
X161613716Y-63945636D01*
X161584430Y-63981321D01*
X160774962Y-64790789D01*
X160629564Y-64851015D01*
X160460046Y-64964283D01*
X160315883Y-65108446D01*
X160202615Y-65277964D01*
X160124594Y-65466322D01*
X160084820Y-65666281D01*
X129240570Y-65666281D01*
X129258686Y-56197704D01*
X129290911Y-55857909D01*
X129441288Y-55857909D01*
X129441288Y-56475451D01*
X129561764Y-57081126D01*
X129798087Y-57651659D01*
X130141174Y-58165126D01*
X130577842Y-58601794D01*
X131091309Y-58944881D01*
X131661842Y-59181204D01*
X132267517Y-59301680D01*
X132885059Y-59301680D01*
X133490734Y-59181204D01*
X134061267Y-58944881D01*
X134574734Y-58601794D01*
X135011402Y-58165126D01*
X135354489Y-57651659D01*
X135590812Y-57081126D01*
X135711288Y-56475451D01*
X135711288Y-56023009D01*
X176154428Y-56023009D01*
X176154428Y-56640551D01*
X176274904Y-57246226D01*
X176511227Y-57816759D01*
X176854314Y-58330226D01*
X177290982Y-58766894D01*
X177804449Y-59109981D01*
X178374982Y-59346304D01*
X178980657Y-59466780D01*
X179598199Y-59466780D01*
X180203874Y-59346304D01*
X180774407Y-59109981D01*
X181287874Y-58766894D01*
X181724542Y-58330226D01*
X182067629Y-57816759D01*
X182303952Y-57246226D01*
X182424428Y-56640551D01*
X182424428Y-56023009D01*
X182303952Y-55417334D01*
X182067629Y-54846801D01*
X181724542Y-54333334D01*
X181287874Y-53896666D01*
X180774407Y-53553579D01*
X180203874Y-53317256D01*
X179598199Y-53196780D01*
X178980657Y-53196780D01*
X178374982Y-53317256D01*
X177804449Y-53553579D01*
X177290982Y-53896666D01*
X176854314Y-54333334D01*
X176511227Y-54846801D01*
X176274904Y-55417334D01*
X176154428Y-56023009D01*
X135711288Y-56023009D01*
X135711288Y-55857909D01*
X135590812Y-55252234D01*
X135354489Y-54681701D01*
X135011402Y-54168234D01*
X134574734Y-53731566D01*
X134061267Y-53388479D01*
X133490734Y-53152156D01*
X132885059Y-53031680D01*
X132267517Y-53031680D01*
X131661842Y-53152156D01*
X131091309Y-53388479D01*
X130577842Y-53731566D01*
X130141174Y-54168234D01*
X129798087Y-54681701D01*
X129561764Y-55252234D01*
X129441288Y-55857909D01*
X129290911Y-55857909D01*
X129322833Y-55521328D01*
X129507005Y-54904230D01*
X129807536Y-54334651D01*
X130212969Y-53834298D01*
X130707869Y-53422222D01*
X131273385Y-53114119D01*
X131887975Y-52921727D01*
X132559941Y-52848938D01*
X179527594Y-52848733D01*
X180203322Y-52912819D01*
M02*
