G04 #@! TF.GenerationSoftware,KiCad,Pcbnew,(5.1.4)-1*
G04 #@! TF.CreationDate,2021-10-09T11:26:26+08:00*
G04 #@! TF.ProjectId,ConnectInterface,436f6e6e-6563-4744-996e-746572666163,rev?*
G04 #@! TF.SameCoordinates,Original*
G04 #@! TF.FileFunction,Copper,L1,Top*
G04 #@! TF.FilePolarity,Positive*
%FSLAX46Y46*%
G04 Gerber Fmt 4.6, Leading zero omitted, Abs format (unit mm)*
G04 Created by KiCad (PCBNEW (5.1.4)-1) date 2021-10-09 11:26:26*
%MOMM*%
%LPD*%
G04 APERTURE LIST*
%ADD10C,5.000000*%
%ADD11R,1.700000X1.700000*%
%ADD12O,1.700000X1.700000*%
%ADD13R,2.000000X0.610000*%
%ADD14R,3.600000X2.680000*%
%ADD15C,0.100000*%
%ADD16C,0.875000*%
%ADD17C,0.800000*%
%ADD18C,0.250000*%
%ADD19C,0.600000*%
%ADD20C,0.254000*%
G04 APERTURE END LIST*
D10*
X132576288Y-56166680D03*
X132523394Y-82166680D03*
X179344320Y-82120740D03*
X179289428Y-56331780D03*
D11*
X180586380Y-74769980D03*
D12*
X178046380Y-74769980D03*
X180586380Y-72229980D03*
X178046380Y-72229980D03*
X180586380Y-69689980D03*
X178046380Y-69689980D03*
X180586380Y-67149980D03*
X178046380Y-67149980D03*
X180586380Y-64609980D03*
X178046380Y-64609980D03*
D13*
X166957600Y-65164580D03*
X166957600Y-77164580D03*
X166957600Y-67164580D03*
X166957600Y-75164580D03*
X166957600Y-63164580D03*
X166957600Y-74164580D03*
D14*
X169816780Y-80208120D03*
D13*
X166957600Y-68164580D03*
X166957600Y-72164580D03*
X166957600Y-64164580D03*
D14*
X169819320Y-59151520D03*
D13*
X166957600Y-70164580D03*
X166957600Y-76164580D03*
X166957600Y-69164580D03*
X166957600Y-66164580D03*
X166957600Y-71164580D03*
X166957600Y-62164580D03*
X166957600Y-73164580D03*
X166957600Y-78164580D03*
X166957600Y-61164580D03*
D15*
G36*
X159441711Y-63756873D02*
G01*
X159462946Y-63760023D01*
X159483770Y-63765239D01*
X159503982Y-63772471D01*
X159523388Y-63781650D01*
X159541801Y-63792686D01*
X159559044Y-63805474D01*
X159574950Y-63819890D01*
X159589366Y-63835796D01*
X159602154Y-63853039D01*
X159613190Y-63871452D01*
X159622369Y-63890858D01*
X159629601Y-63911070D01*
X159634817Y-63931894D01*
X159637967Y-63953129D01*
X159639020Y-63974570D01*
X159639020Y-64412070D01*
X159637967Y-64433511D01*
X159634817Y-64454746D01*
X159629601Y-64475570D01*
X159622369Y-64495782D01*
X159613190Y-64515188D01*
X159602154Y-64533601D01*
X159589366Y-64550844D01*
X159574950Y-64566750D01*
X159559044Y-64581166D01*
X159541801Y-64593954D01*
X159523388Y-64604990D01*
X159503982Y-64614169D01*
X159483770Y-64621401D01*
X159462946Y-64626617D01*
X159441711Y-64629767D01*
X159420270Y-64630820D01*
X158907770Y-64630820D01*
X158886329Y-64629767D01*
X158865094Y-64626617D01*
X158844270Y-64621401D01*
X158824058Y-64614169D01*
X158804652Y-64604990D01*
X158786239Y-64593954D01*
X158768996Y-64581166D01*
X158753090Y-64566750D01*
X158738674Y-64550844D01*
X158725886Y-64533601D01*
X158714850Y-64515188D01*
X158705671Y-64495782D01*
X158698439Y-64475570D01*
X158693223Y-64454746D01*
X158690073Y-64433511D01*
X158689020Y-64412070D01*
X158689020Y-63974570D01*
X158690073Y-63953129D01*
X158693223Y-63931894D01*
X158698439Y-63911070D01*
X158705671Y-63890858D01*
X158714850Y-63871452D01*
X158725886Y-63853039D01*
X158738674Y-63835796D01*
X158753090Y-63819890D01*
X158768996Y-63805474D01*
X158786239Y-63792686D01*
X158804652Y-63781650D01*
X158824058Y-63772471D01*
X158844270Y-63765239D01*
X158865094Y-63760023D01*
X158886329Y-63756873D01*
X158907770Y-63755820D01*
X159420270Y-63755820D01*
X159441711Y-63756873D01*
X159441711Y-63756873D01*
G37*
D16*
X159164020Y-64193320D03*
D15*
G36*
X159441711Y-65331873D02*
G01*
X159462946Y-65335023D01*
X159483770Y-65340239D01*
X159503982Y-65347471D01*
X159523388Y-65356650D01*
X159541801Y-65367686D01*
X159559044Y-65380474D01*
X159574950Y-65394890D01*
X159589366Y-65410796D01*
X159602154Y-65428039D01*
X159613190Y-65446452D01*
X159622369Y-65465858D01*
X159629601Y-65486070D01*
X159634817Y-65506894D01*
X159637967Y-65528129D01*
X159639020Y-65549570D01*
X159639020Y-65987070D01*
X159637967Y-66008511D01*
X159634817Y-66029746D01*
X159629601Y-66050570D01*
X159622369Y-66070782D01*
X159613190Y-66090188D01*
X159602154Y-66108601D01*
X159589366Y-66125844D01*
X159574950Y-66141750D01*
X159559044Y-66156166D01*
X159541801Y-66168954D01*
X159523388Y-66179990D01*
X159503982Y-66189169D01*
X159483770Y-66196401D01*
X159462946Y-66201617D01*
X159441711Y-66204767D01*
X159420270Y-66205820D01*
X158907770Y-66205820D01*
X158886329Y-66204767D01*
X158865094Y-66201617D01*
X158844270Y-66196401D01*
X158824058Y-66189169D01*
X158804652Y-66179990D01*
X158786239Y-66168954D01*
X158768996Y-66156166D01*
X158753090Y-66141750D01*
X158738674Y-66125844D01*
X158725886Y-66108601D01*
X158714850Y-66090188D01*
X158705671Y-66070782D01*
X158698439Y-66050570D01*
X158693223Y-66029746D01*
X158690073Y-66008511D01*
X158689020Y-65987070D01*
X158689020Y-65549570D01*
X158690073Y-65528129D01*
X158693223Y-65506894D01*
X158698439Y-65486070D01*
X158705671Y-65465858D01*
X158714850Y-65446452D01*
X158725886Y-65428039D01*
X158738674Y-65410796D01*
X158753090Y-65394890D01*
X158768996Y-65380474D01*
X158786239Y-65367686D01*
X158804652Y-65356650D01*
X158824058Y-65347471D01*
X158844270Y-65340239D01*
X158865094Y-65335023D01*
X158886329Y-65331873D01*
X158907770Y-65330820D01*
X159420270Y-65330820D01*
X159441711Y-65331873D01*
X159441711Y-65331873D01*
G37*
D16*
X159164020Y-65768320D03*
D17*
X171480480Y-67162680D03*
X161119820Y-65768220D03*
D18*
X166928860Y-64193320D02*
X166957600Y-64164580D01*
X166957600Y-63164580D02*
X163042460Y-63164580D01*
X162138260Y-64068780D02*
X162138260Y-64193320D01*
X163042460Y-63164580D02*
X162138260Y-64068780D01*
X159164020Y-64193320D02*
X162138260Y-64193320D01*
X162138260Y-64193320D02*
X166928860Y-64193320D01*
X166957600Y-78164580D02*
X170379500Y-78164580D01*
X170379500Y-78164580D02*
X172120560Y-76423520D01*
X172120560Y-76423520D02*
X180350160Y-76423520D01*
X180586380Y-76187300D02*
X180586380Y-74769980D01*
X180350160Y-76423520D02*
X180586380Y-76187300D01*
X166957600Y-77164580D02*
X168745520Y-77164580D01*
X171140120Y-74769980D02*
X178046380Y-74769980D01*
X168745520Y-77164580D02*
X171140120Y-74769980D01*
X179411379Y-73404981D02*
X180586380Y-72229980D01*
X170967199Y-73404981D02*
X179411379Y-73404981D01*
X166957600Y-76164580D02*
X168207600Y-76164580D01*
X168207600Y-76164580D02*
X170967199Y-73404981D01*
X168207600Y-75164580D02*
X171152360Y-72219820D01*
X166957600Y-75164580D02*
X168207600Y-75164580D01*
X171162520Y-72229980D02*
X178046380Y-72229980D01*
X171152360Y-72219820D02*
X171162520Y-72229980D01*
X168207600Y-62164580D02*
X168294580Y-62077600D01*
X166957600Y-62164580D02*
X168207600Y-62164580D01*
X169819320Y-60741520D02*
X169819320Y-59151520D01*
X168294580Y-62077600D02*
X168483240Y-62077600D01*
X168414480Y-61371460D02*
X169189380Y-61371460D01*
X168207600Y-61164580D02*
X168414480Y-61371460D01*
X166957600Y-61164580D02*
X168207600Y-61164580D01*
X168483240Y-62077600D02*
X169189380Y-61371460D01*
X169189380Y-61371460D02*
X169819320Y-60741520D01*
X166957600Y-65164580D02*
X170090220Y-65164580D01*
X170090220Y-65164580D02*
X173362620Y-61892180D01*
X173362620Y-61892180D02*
X181221380Y-61892180D01*
X181221380Y-61892180D02*
X182252620Y-62923420D01*
X182252620Y-65483740D02*
X180586380Y-67149980D01*
X182252620Y-62923420D02*
X182252620Y-65483740D01*
X177060980Y-66164580D02*
X178046380Y-67149980D01*
X166957600Y-66164580D02*
X177060980Y-66164580D01*
X168209500Y-67162680D02*
X171480480Y-67162680D01*
X166957600Y-67164580D02*
X168207600Y-67164580D01*
X168207600Y-67164580D02*
X168209500Y-67162680D01*
D19*
X159164120Y-65768220D02*
X159164020Y-65768320D01*
X161119820Y-65768220D02*
X159164120Y-65768220D01*
D20*
G36*
X180203322Y-52912819D02*
G01*
X180820420Y-53096991D01*
X181389999Y-53397522D01*
X181890352Y-53802955D01*
X182302428Y-54297855D01*
X182610531Y-54863371D01*
X182802923Y-55477961D01*
X182875696Y-56149776D01*
X182866478Y-62473414D01*
X182816419Y-62412417D01*
X182792621Y-62383419D01*
X182763624Y-62359622D01*
X181785184Y-61381182D01*
X181761381Y-61352179D01*
X181645656Y-61257206D01*
X181513627Y-61186634D01*
X181370366Y-61143177D01*
X181258713Y-61132180D01*
X181258702Y-61132180D01*
X181221380Y-61128504D01*
X181184058Y-61132180D01*
X173399942Y-61132180D01*
X173362619Y-61128504D01*
X173325296Y-61132180D01*
X173325287Y-61132180D01*
X173213634Y-61143177D01*
X173070373Y-61186634D01*
X172938344Y-61257206D01*
X172938342Y-61257207D01*
X172938343Y-61257207D01*
X172851616Y-61328381D01*
X172851612Y-61328385D01*
X172822619Y-61352179D01*
X172798825Y-61381172D01*
X169775419Y-64404580D01*
X168595672Y-64404580D01*
X168595672Y-63859580D01*
X168583412Y-63735098D01*
X168562021Y-63664580D01*
X168583412Y-63594062D01*
X168595672Y-63469580D01*
X168595672Y-62859580D01*
X168583412Y-62735098D01*
X168562021Y-62664580D01*
X168583412Y-62594062D01*
X168595672Y-62469580D01*
X168592600Y-62450330D01*
X168433850Y-62291580D01*
X168242007Y-62291580D01*
X168201780Y-62270078D01*
X168082082Y-62233768D01*
X167957600Y-62221508D01*
X165957600Y-62221508D01*
X165833118Y-62233768D01*
X165713420Y-62270078D01*
X165673193Y-62291580D01*
X165481350Y-62291580D01*
X165368350Y-62404580D01*
X163079783Y-62404580D01*
X163042460Y-62400904D01*
X163005137Y-62404580D01*
X163005127Y-62404580D01*
X162893474Y-62415577D01*
X162778907Y-62450330D01*
X162750213Y-62459034D01*
X162618183Y-62529606D01*
X162539644Y-62594062D01*
X162502459Y-62624579D01*
X162478661Y-62653577D01*
X161698919Y-63433320D01*
X160079163Y-63433320D01*
X160026135Y-63368705D01*
X159896295Y-63262149D01*
X159748162Y-63182970D01*
X159587428Y-63134212D01*
X159420270Y-63117748D01*
X158907770Y-63117748D01*
X158740612Y-63134212D01*
X158579878Y-63182970D01*
X158431745Y-63262149D01*
X158301905Y-63368705D01*
X158195349Y-63498545D01*
X158116170Y-63646678D01*
X158067412Y-63807412D01*
X158050948Y-63974570D01*
X158050948Y-64412070D01*
X158067412Y-64579228D01*
X158116170Y-64739962D01*
X158195349Y-64888095D01*
X158271446Y-64980820D01*
X158195349Y-65073545D01*
X158116170Y-65221678D01*
X158067412Y-65382412D01*
X158050948Y-65549570D01*
X158050948Y-65987070D01*
X158067412Y-66154228D01*
X158116170Y-66314962D01*
X158195349Y-66463095D01*
X158301905Y-66592935D01*
X158431745Y-66699491D01*
X158579878Y-66778670D01*
X158740612Y-66827428D01*
X158907770Y-66843892D01*
X159420270Y-66843892D01*
X159587428Y-66827428D01*
X159748162Y-66778670D01*
X159889319Y-66703220D01*
X160672525Y-66703220D01*
X160817922Y-66763446D01*
X161017881Y-66803220D01*
X161221759Y-66803220D01*
X161421718Y-66763446D01*
X161610076Y-66685425D01*
X161779594Y-66572157D01*
X161923757Y-66427994D01*
X162037025Y-66258476D01*
X162115046Y-66070118D01*
X162154820Y-65870159D01*
X162154820Y-65666281D01*
X162115046Y-65466322D01*
X162037025Y-65277964D01*
X161923757Y-65108446D01*
X161779594Y-64964283D01*
X161763187Y-64953320D01*
X162100927Y-64953320D01*
X162138260Y-64956997D01*
X162175593Y-64953320D01*
X165319528Y-64953320D01*
X165319528Y-65469580D01*
X165331788Y-65594062D01*
X165353179Y-65664580D01*
X165331788Y-65735098D01*
X165319528Y-65859580D01*
X165319528Y-66469580D01*
X165331788Y-66594062D01*
X165353179Y-66664580D01*
X165331788Y-66735098D01*
X165319528Y-66859580D01*
X165319528Y-67469580D01*
X165331788Y-67594062D01*
X165353179Y-67664580D01*
X165331788Y-67735098D01*
X165319528Y-67859580D01*
X165319528Y-68469580D01*
X165331788Y-68594062D01*
X165353179Y-68664580D01*
X165331788Y-68735098D01*
X165319528Y-68859580D01*
X165319528Y-69469580D01*
X165331788Y-69594062D01*
X165353179Y-69664580D01*
X165331788Y-69735098D01*
X165319528Y-69859580D01*
X165319528Y-70469580D01*
X165331788Y-70594062D01*
X165353179Y-70664580D01*
X165331788Y-70735098D01*
X165319528Y-70859580D01*
X165319528Y-71469580D01*
X165331788Y-71594062D01*
X165353179Y-71664580D01*
X165331788Y-71735098D01*
X165319528Y-71859580D01*
X165319528Y-72469580D01*
X165331788Y-72594062D01*
X165353179Y-72664580D01*
X165331788Y-72735098D01*
X165319528Y-72859580D01*
X165319528Y-73469580D01*
X165331788Y-73594062D01*
X165353179Y-73664580D01*
X165331788Y-73735098D01*
X165319528Y-73859580D01*
X165319528Y-74469580D01*
X165331788Y-74594062D01*
X165353179Y-74664580D01*
X165331788Y-74735098D01*
X165319528Y-74859580D01*
X165319528Y-75469580D01*
X165331788Y-75594062D01*
X165353179Y-75664580D01*
X165331788Y-75735098D01*
X165319528Y-75859580D01*
X165319528Y-76469580D01*
X165331788Y-76594062D01*
X165353179Y-76664580D01*
X165331788Y-76735098D01*
X165319528Y-76859580D01*
X165319528Y-77469580D01*
X165331788Y-77594062D01*
X165353179Y-77664580D01*
X165331788Y-77735098D01*
X165319528Y-77859580D01*
X165319528Y-78469580D01*
X165331788Y-78594062D01*
X165368098Y-78713760D01*
X165427063Y-78824074D01*
X165506415Y-78920765D01*
X165603106Y-79000117D01*
X165713420Y-79059082D01*
X165833118Y-79095392D01*
X165957600Y-79107652D01*
X167379406Y-79107652D01*
X167381780Y-79922370D01*
X167540530Y-80081120D01*
X169689780Y-80081120D01*
X169689780Y-80061120D01*
X169943780Y-80061120D01*
X169943780Y-80081120D01*
X172093030Y-80081120D01*
X172251780Y-79922370D01*
X172254852Y-78868120D01*
X172242592Y-78743638D01*
X172206282Y-78623940D01*
X172147317Y-78513626D01*
X172067965Y-78416935D01*
X171971274Y-78337583D01*
X171860960Y-78278618D01*
X171741262Y-78242308D01*
X171616780Y-78230048D01*
X171388370Y-78230511D01*
X172435362Y-77183520D01*
X180312838Y-77183520D01*
X180350160Y-77187196D01*
X180387482Y-77183520D01*
X180387493Y-77183520D01*
X180499146Y-77172523D01*
X180642407Y-77129066D01*
X180774436Y-77058494D01*
X180890161Y-76963521D01*
X180913964Y-76934517D01*
X181097378Y-76751103D01*
X181126381Y-76727301D01*
X181221354Y-76611576D01*
X181291926Y-76479547D01*
X181335383Y-76336286D01*
X181343088Y-76258052D01*
X181436380Y-76258052D01*
X181560862Y-76245792D01*
X181680560Y-76209482D01*
X181790874Y-76150517D01*
X181887565Y-76071165D01*
X181966917Y-75974474D01*
X182025882Y-75864160D01*
X182062192Y-75744462D01*
X182074452Y-75619980D01*
X182074452Y-73919980D01*
X182062192Y-73795498D01*
X182025882Y-73675800D01*
X181966917Y-73565486D01*
X181887565Y-73468795D01*
X181790874Y-73389443D01*
X181680560Y-73330478D01*
X181611693Y-73309587D01*
X181641514Y-73285114D01*
X181827086Y-73058994D01*
X181964979Y-72801014D01*
X182049893Y-72521091D01*
X182078565Y-72229980D01*
X182049893Y-71938869D01*
X181964979Y-71658946D01*
X181827086Y-71400966D01*
X181641514Y-71174846D01*
X181415394Y-70989274D01*
X181350857Y-70954779D01*
X181467735Y-70885158D01*
X181683968Y-70690249D01*
X181858021Y-70456900D01*
X181983205Y-70194079D01*
X182027856Y-70046870D01*
X181906535Y-69816980D01*
X180713380Y-69816980D01*
X180713380Y-69836980D01*
X180459380Y-69836980D01*
X180459380Y-69816980D01*
X178173380Y-69816980D01*
X178173380Y-69836980D01*
X177919380Y-69836980D01*
X177919380Y-69816980D01*
X176726225Y-69816980D01*
X176604904Y-70046870D01*
X176649555Y-70194079D01*
X176774739Y-70456900D01*
X176948792Y-70690249D01*
X177165025Y-70885158D01*
X177281903Y-70954779D01*
X177217366Y-70989274D01*
X176991246Y-71174846D01*
X176805674Y-71400966D01*
X176768785Y-71469980D01*
X171292848Y-71469980D01*
X171152360Y-71456143D01*
X171003374Y-71470817D01*
X170860113Y-71514274D01*
X170728084Y-71584846D01*
X170612359Y-71679819D01*
X170588561Y-71708817D01*
X168578494Y-73718885D01*
X168562021Y-73664580D01*
X168583412Y-73594062D01*
X168595672Y-73469580D01*
X168595672Y-72859580D01*
X168583412Y-72735098D01*
X168562021Y-72664580D01*
X168583412Y-72594062D01*
X168595672Y-72469580D01*
X168595672Y-71859580D01*
X168583412Y-71735098D01*
X168562021Y-71664580D01*
X168583412Y-71594062D01*
X168595672Y-71469580D01*
X168595672Y-70859580D01*
X168583412Y-70735098D01*
X168562021Y-70664580D01*
X168583412Y-70594062D01*
X168595672Y-70469580D01*
X168595672Y-69859580D01*
X168583412Y-69735098D01*
X168562021Y-69664580D01*
X168583412Y-69594062D01*
X168595672Y-69469580D01*
X168595672Y-68859580D01*
X168583412Y-68735098D01*
X168562021Y-68664580D01*
X168583412Y-68594062D01*
X168595672Y-68469580D01*
X168595672Y-67922680D01*
X170776769Y-67922680D01*
X170820706Y-67966617D01*
X170990224Y-68079885D01*
X171178582Y-68157906D01*
X171378541Y-68197680D01*
X171582419Y-68197680D01*
X171782378Y-68157906D01*
X171970736Y-68079885D01*
X172140254Y-67966617D01*
X172284417Y-67822454D01*
X172397685Y-67652936D01*
X172475706Y-67464578D01*
X172515480Y-67264619D01*
X172515480Y-67060741D01*
X172488396Y-66924580D01*
X176576395Y-66924580D01*
X176554195Y-67149980D01*
X176582867Y-67441091D01*
X176667781Y-67721014D01*
X176805674Y-67978994D01*
X176991246Y-68205114D01*
X177217366Y-68390686D01*
X177281903Y-68425181D01*
X177165025Y-68494802D01*
X176948792Y-68689711D01*
X176774739Y-68923060D01*
X176649555Y-69185881D01*
X176604904Y-69333090D01*
X176726225Y-69562980D01*
X177919380Y-69562980D01*
X177919380Y-69542980D01*
X178173380Y-69542980D01*
X178173380Y-69562980D01*
X180459380Y-69562980D01*
X180459380Y-69542980D01*
X180713380Y-69542980D01*
X180713380Y-69562980D01*
X181906535Y-69562980D01*
X182027856Y-69333090D01*
X181983205Y-69185881D01*
X181858021Y-68923060D01*
X181683968Y-68689711D01*
X181467735Y-68494802D01*
X181350857Y-68425181D01*
X181415394Y-68390686D01*
X181641514Y-68205114D01*
X181827086Y-67978994D01*
X181964979Y-67721014D01*
X182049893Y-67441091D01*
X182078565Y-67149980D01*
X182049893Y-66858869D01*
X182027177Y-66783985D01*
X182763623Y-66047539D01*
X182792621Y-66023741D01*
X182861425Y-65939903D01*
X182837840Y-82120647D01*
X182773707Y-82796870D01*
X182589534Y-83413970D01*
X182289007Y-83983544D01*
X181883570Y-84483900D01*
X181388669Y-84895978D01*
X180823155Y-85204079D01*
X180208565Y-85396471D01*
X179536586Y-85469262D01*
X132581407Y-85476394D01*
X131901568Y-85412344D01*
X131280592Y-85227434D01*
X130707355Y-84925429D01*
X130203698Y-84517835D01*
X129788798Y-84020171D01*
X129478468Y-83451407D01*
X129284518Y-82833187D01*
X129209051Y-82140504D01*
X129209591Y-81857909D01*
X129388394Y-81857909D01*
X129388394Y-82475451D01*
X129508870Y-83081126D01*
X129745193Y-83651659D01*
X130088280Y-84165126D01*
X130524948Y-84601794D01*
X131038415Y-84944881D01*
X131608948Y-85181204D01*
X132214623Y-85301680D01*
X132832165Y-85301680D01*
X133437840Y-85181204D01*
X134008373Y-84944881D01*
X134521840Y-84601794D01*
X134958508Y-84165126D01*
X135301595Y-83651659D01*
X135537918Y-83081126D01*
X135658394Y-82475451D01*
X135658394Y-81857909D01*
X135596774Y-81548120D01*
X167378708Y-81548120D01*
X167390968Y-81672602D01*
X167427278Y-81792300D01*
X167486243Y-81902614D01*
X167565595Y-81999305D01*
X167662286Y-82078657D01*
X167772600Y-82137622D01*
X167892298Y-82173932D01*
X168016780Y-82186192D01*
X169531030Y-82183120D01*
X169689780Y-82024370D01*
X169689780Y-80335120D01*
X169943780Y-80335120D01*
X169943780Y-82024370D01*
X170102530Y-82183120D01*
X171616780Y-82186192D01*
X171741262Y-82173932D01*
X171860960Y-82137622D01*
X171971274Y-82078657D01*
X172067965Y-81999305D01*
X172147317Y-81902614D01*
X172195768Y-81811969D01*
X176209320Y-81811969D01*
X176209320Y-82429511D01*
X176329796Y-83035186D01*
X176566119Y-83605719D01*
X176909206Y-84119186D01*
X177345874Y-84555854D01*
X177859341Y-84898941D01*
X178429874Y-85135264D01*
X179035549Y-85255740D01*
X179653091Y-85255740D01*
X180258766Y-85135264D01*
X180829299Y-84898941D01*
X181342766Y-84555854D01*
X181779434Y-84119186D01*
X182122521Y-83605719D01*
X182358844Y-83035186D01*
X182479320Y-82429511D01*
X182479320Y-81811969D01*
X182358844Y-81206294D01*
X182122521Y-80635761D01*
X181779434Y-80122294D01*
X181342766Y-79685626D01*
X180829299Y-79342539D01*
X180258766Y-79106216D01*
X179653091Y-78985740D01*
X179035549Y-78985740D01*
X178429874Y-79106216D01*
X177859341Y-79342539D01*
X177345874Y-79685626D01*
X176909206Y-80122294D01*
X176566119Y-80635761D01*
X176329796Y-81206294D01*
X176209320Y-81811969D01*
X172195768Y-81811969D01*
X172206282Y-81792300D01*
X172242592Y-81672602D01*
X172254852Y-81548120D01*
X172251780Y-80493870D01*
X172093030Y-80335120D01*
X169943780Y-80335120D01*
X169689780Y-80335120D01*
X167540530Y-80335120D01*
X167381780Y-80493870D01*
X167378708Y-81548120D01*
X135596774Y-81548120D01*
X135537918Y-81252234D01*
X135301595Y-80681701D01*
X134958508Y-80168234D01*
X134521840Y-79731566D01*
X134008373Y-79388479D01*
X133437840Y-79152156D01*
X132832165Y-79031680D01*
X132214623Y-79031680D01*
X131608948Y-79152156D01*
X131038415Y-79388479D01*
X130524948Y-79731566D01*
X130088280Y-80168234D01*
X129745193Y-80681701D01*
X129508870Y-81252234D01*
X129388394Y-81857909D01*
X129209591Y-81857909D01*
X129248599Y-61469580D01*
X165319528Y-61469580D01*
X165331788Y-61594062D01*
X165353179Y-61664580D01*
X165331788Y-61735098D01*
X165319528Y-61859580D01*
X165322600Y-61878830D01*
X165481350Y-62037580D01*
X165673193Y-62037580D01*
X165713420Y-62059082D01*
X165833118Y-62095392D01*
X165957600Y-62107652D01*
X166671850Y-62104580D01*
X166738850Y-62037580D01*
X166830600Y-62037580D01*
X166830600Y-61291580D01*
X167084600Y-61291580D01*
X167084600Y-62037580D01*
X167176350Y-62037580D01*
X167243350Y-62104580D01*
X167957600Y-62107652D01*
X168082082Y-62095392D01*
X168201780Y-62059082D01*
X168242007Y-62037580D01*
X168433850Y-62037580D01*
X168592600Y-61878830D01*
X168595672Y-61859580D01*
X168583412Y-61735098D01*
X168562021Y-61664580D01*
X168583412Y-61594062D01*
X168595672Y-61469580D01*
X168592600Y-61450330D01*
X168433850Y-61291580D01*
X168242007Y-61291580D01*
X168201780Y-61270078D01*
X168082082Y-61233768D01*
X167957600Y-61221508D01*
X167243350Y-61224580D01*
X167176350Y-61291580D01*
X167084600Y-61291580D01*
X166830600Y-61291580D01*
X166738850Y-61291580D01*
X166671850Y-61224580D01*
X165957600Y-61221508D01*
X165833118Y-61233768D01*
X165713420Y-61270078D01*
X165673193Y-61291580D01*
X165481350Y-61291580D01*
X165322600Y-61450330D01*
X165319528Y-61469580D01*
X129248599Y-61469580D01*
X129249766Y-60859580D01*
X165319528Y-60859580D01*
X165322600Y-60878830D01*
X165481350Y-61037580D01*
X166830600Y-61037580D01*
X166830600Y-60383330D01*
X167084600Y-60383330D01*
X167084600Y-61037580D01*
X167693867Y-61037580D01*
X167775140Y-61081022D01*
X167894838Y-61117332D01*
X168019320Y-61129592D01*
X169533570Y-61126520D01*
X169692320Y-60967770D01*
X169692320Y-59278520D01*
X169946320Y-59278520D01*
X169946320Y-60967770D01*
X170105070Y-61126520D01*
X171619320Y-61129592D01*
X171743802Y-61117332D01*
X171863500Y-61081022D01*
X171973814Y-61022057D01*
X172070505Y-60942705D01*
X172149857Y-60846014D01*
X172208822Y-60735700D01*
X172245132Y-60616002D01*
X172257392Y-60491520D01*
X172254320Y-59437270D01*
X172095570Y-59278520D01*
X169946320Y-59278520D01*
X169692320Y-59278520D01*
X167543070Y-59278520D01*
X167384320Y-59437270D01*
X167382028Y-60223984D01*
X167243350Y-60224580D01*
X167084600Y-60383330D01*
X166830600Y-60383330D01*
X166671850Y-60224580D01*
X165957600Y-60221508D01*
X165833118Y-60233768D01*
X165713420Y-60270078D01*
X165603106Y-60329043D01*
X165506415Y-60408395D01*
X165427063Y-60505086D01*
X165368098Y-60615400D01*
X165331788Y-60735098D01*
X165319528Y-60859580D01*
X129249766Y-60859580D01*
X129258686Y-56197704D01*
X129290911Y-55857909D01*
X129441288Y-55857909D01*
X129441288Y-56475451D01*
X129561764Y-57081126D01*
X129798087Y-57651659D01*
X130141174Y-58165126D01*
X130577842Y-58601794D01*
X131091309Y-58944881D01*
X131661842Y-59181204D01*
X132267517Y-59301680D01*
X132885059Y-59301680D01*
X133490734Y-59181204D01*
X134061267Y-58944881D01*
X134574734Y-58601794D01*
X135011402Y-58165126D01*
X135247673Y-57811520D01*
X167381248Y-57811520D01*
X167384320Y-58865770D01*
X167543070Y-59024520D01*
X169692320Y-59024520D01*
X169692320Y-57335270D01*
X169946320Y-57335270D01*
X169946320Y-59024520D01*
X172095570Y-59024520D01*
X172254320Y-58865770D01*
X172257392Y-57811520D01*
X172245132Y-57687038D01*
X172208822Y-57567340D01*
X172149857Y-57457026D01*
X172070505Y-57360335D01*
X171973814Y-57280983D01*
X171863500Y-57222018D01*
X171743802Y-57185708D01*
X171619320Y-57173448D01*
X170105070Y-57176520D01*
X169946320Y-57335270D01*
X169692320Y-57335270D01*
X169533570Y-57176520D01*
X168019320Y-57173448D01*
X167894838Y-57185708D01*
X167775140Y-57222018D01*
X167664826Y-57280983D01*
X167568135Y-57360335D01*
X167488783Y-57457026D01*
X167429818Y-57567340D01*
X167393508Y-57687038D01*
X167381248Y-57811520D01*
X135247673Y-57811520D01*
X135354489Y-57651659D01*
X135590812Y-57081126D01*
X135711288Y-56475451D01*
X135711288Y-56023009D01*
X176154428Y-56023009D01*
X176154428Y-56640551D01*
X176274904Y-57246226D01*
X176511227Y-57816759D01*
X176854314Y-58330226D01*
X177290982Y-58766894D01*
X177804449Y-59109981D01*
X178374982Y-59346304D01*
X178980657Y-59466780D01*
X179598199Y-59466780D01*
X180203874Y-59346304D01*
X180774407Y-59109981D01*
X181287874Y-58766894D01*
X181724542Y-58330226D01*
X182067629Y-57816759D01*
X182303952Y-57246226D01*
X182424428Y-56640551D01*
X182424428Y-56023009D01*
X182303952Y-55417334D01*
X182067629Y-54846801D01*
X181724542Y-54333334D01*
X181287874Y-53896666D01*
X180774407Y-53553579D01*
X180203874Y-53317256D01*
X179598199Y-53196780D01*
X178980657Y-53196780D01*
X178374982Y-53317256D01*
X177804449Y-53553579D01*
X177290982Y-53896666D01*
X176854314Y-54333334D01*
X176511227Y-54846801D01*
X176274904Y-55417334D01*
X176154428Y-56023009D01*
X135711288Y-56023009D01*
X135711288Y-55857909D01*
X135590812Y-55252234D01*
X135354489Y-54681701D01*
X135011402Y-54168234D01*
X134574734Y-53731566D01*
X134061267Y-53388479D01*
X133490734Y-53152156D01*
X132885059Y-53031680D01*
X132267517Y-53031680D01*
X131661842Y-53152156D01*
X131091309Y-53388479D01*
X130577842Y-53731566D01*
X130141174Y-54168234D01*
X129798087Y-54681701D01*
X129561764Y-55252234D01*
X129441288Y-55857909D01*
X129290911Y-55857909D01*
X129322833Y-55521328D01*
X129507005Y-54904230D01*
X129807536Y-54334651D01*
X130212969Y-53834298D01*
X130707869Y-53422222D01*
X131273385Y-53114119D01*
X131887975Y-52921727D01*
X132559941Y-52848938D01*
X179527594Y-52848733D01*
X180203322Y-52912819D01*
X180203322Y-52912819D01*
G37*
X180203322Y-52912819D02*
X180820420Y-53096991D01*
X181389999Y-53397522D01*
X181890352Y-53802955D01*
X182302428Y-54297855D01*
X182610531Y-54863371D01*
X182802923Y-55477961D01*
X182875696Y-56149776D01*
X182866478Y-62473414D01*
X182816419Y-62412417D01*
X182792621Y-62383419D01*
X182763624Y-62359622D01*
X181785184Y-61381182D01*
X181761381Y-61352179D01*
X181645656Y-61257206D01*
X181513627Y-61186634D01*
X181370366Y-61143177D01*
X181258713Y-61132180D01*
X181258702Y-61132180D01*
X181221380Y-61128504D01*
X181184058Y-61132180D01*
X173399942Y-61132180D01*
X173362619Y-61128504D01*
X173325296Y-61132180D01*
X173325287Y-61132180D01*
X173213634Y-61143177D01*
X173070373Y-61186634D01*
X172938344Y-61257206D01*
X172938342Y-61257207D01*
X172938343Y-61257207D01*
X172851616Y-61328381D01*
X172851612Y-61328385D01*
X172822619Y-61352179D01*
X172798825Y-61381172D01*
X169775419Y-64404580D01*
X168595672Y-64404580D01*
X168595672Y-63859580D01*
X168583412Y-63735098D01*
X168562021Y-63664580D01*
X168583412Y-63594062D01*
X168595672Y-63469580D01*
X168595672Y-62859580D01*
X168583412Y-62735098D01*
X168562021Y-62664580D01*
X168583412Y-62594062D01*
X168595672Y-62469580D01*
X168592600Y-62450330D01*
X168433850Y-62291580D01*
X168242007Y-62291580D01*
X168201780Y-62270078D01*
X168082082Y-62233768D01*
X167957600Y-62221508D01*
X165957600Y-62221508D01*
X165833118Y-62233768D01*
X165713420Y-62270078D01*
X165673193Y-62291580D01*
X165481350Y-62291580D01*
X165368350Y-62404580D01*
X163079783Y-62404580D01*
X163042460Y-62400904D01*
X163005137Y-62404580D01*
X163005127Y-62404580D01*
X162893474Y-62415577D01*
X162778907Y-62450330D01*
X162750213Y-62459034D01*
X162618183Y-62529606D01*
X162539644Y-62594062D01*
X162502459Y-62624579D01*
X162478661Y-62653577D01*
X161698919Y-63433320D01*
X160079163Y-63433320D01*
X160026135Y-63368705D01*
X159896295Y-63262149D01*
X159748162Y-63182970D01*
X159587428Y-63134212D01*
X159420270Y-63117748D01*
X158907770Y-63117748D01*
X158740612Y-63134212D01*
X158579878Y-63182970D01*
X158431745Y-63262149D01*
X158301905Y-63368705D01*
X158195349Y-63498545D01*
X158116170Y-63646678D01*
X158067412Y-63807412D01*
X158050948Y-63974570D01*
X158050948Y-64412070D01*
X158067412Y-64579228D01*
X158116170Y-64739962D01*
X158195349Y-64888095D01*
X158271446Y-64980820D01*
X158195349Y-65073545D01*
X158116170Y-65221678D01*
X158067412Y-65382412D01*
X158050948Y-65549570D01*
X158050948Y-65987070D01*
X158067412Y-66154228D01*
X158116170Y-66314962D01*
X158195349Y-66463095D01*
X158301905Y-66592935D01*
X158431745Y-66699491D01*
X158579878Y-66778670D01*
X158740612Y-66827428D01*
X158907770Y-66843892D01*
X159420270Y-66843892D01*
X159587428Y-66827428D01*
X159748162Y-66778670D01*
X159889319Y-66703220D01*
X160672525Y-66703220D01*
X160817922Y-66763446D01*
X161017881Y-66803220D01*
X161221759Y-66803220D01*
X161421718Y-66763446D01*
X161610076Y-66685425D01*
X161779594Y-66572157D01*
X161923757Y-66427994D01*
X162037025Y-66258476D01*
X162115046Y-66070118D01*
X162154820Y-65870159D01*
X162154820Y-65666281D01*
X162115046Y-65466322D01*
X162037025Y-65277964D01*
X161923757Y-65108446D01*
X161779594Y-64964283D01*
X161763187Y-64953320D01*
X162100927Y-64953320D01*
X162138260Y-64956997D01*
X162175593Y-64953320D01*
X165319528Y-64953320D01*
X165319528Y-65469580D01*
X165331788Y-65594062D01*
X165353179Y-65664580D01*
X165331788Y-65735098D01*
X165319528Y-65859580D01*
X165319528Y-66469580D01*
X165331788Y-66594062D01*
X165353179Y-66664580D01*
X165331788Y-66735098D01*
X165319528Y-66859580D01*
X165319528Y-67469580D01*
X165331788Y-67594062D01*
X165353179Y-67664580D01*
X165331788Y-67735098D01*
X165319528Y-67859580D01*
X165319528Y-68469580D01*
X165331788Y-68594062D01*
X165353179Y-68664580D01*
X165331788Y-68735098D01*
X165319528Y-68859580D01*
X165319528Y-69469580D01*
X165331788Y-69594062D01*
X165353179Y-69664580D01*
X165331788Y-69735098D01*
X165319528Y-69859580D01*
X165319528Y-70469580D01*
X165331788Y-70594062D01*
X165353179Y-70664580D01*
X165331788Y-70735098D01*
X165319528Y-70859580D01*
X165319528Y-71469580D01*
X165331788Y-71594062D01*
X165353179Y-71664580D01*
X165331788Y-71735098D01*
X165319528Y-71859580D01*
X165319528Y-72469580D01*
X165331788Y-72594062D01*
X165353179Y-72664580D01*
X165331788Y-72735098D01*
X165319528Y-72859580D01*
X165319528Y-73469580D01*
X165331788Y-73594062D01*
X165353179Y-73664580D01*
X165331788Y-73735098D01*
X165319528Y-73859580D01*
X165319528Y-74469580D01*
X165331788Y-74594062D01*
X165353179Y-74664580D01*
X165331788Y-74735098D01*
X165319528Y-74859580D01*
X165319528Y-75469580D01*
X165331788Y-75594062D01*
X165353179Y-75664580D01*
X165331788Y-75735098D01*
X165319528Y-75859580D01*
X165319528Y-76469580D01*
X165331788Y-76594062D01*
X165353179Y-76664580D01*
X165331788Y-76735098D01*
X165319528Y-76859580D01*
X165319528Y-77469580D01*
X165331788Y-77594062D01*
X165353179Y-77664580D01*
X165331788Y-77735098D01*
X165319528Y-77859580D01*
X165319528Y-78469580D01*
X165331788Y-78594062D01*
X165368098Y-78713760D01*
X165427063Y-78824074D01*
X165506415Y-78920765D01*
X165603106Y-79000117D01*
X165713420Y-79059082D01*
X165833118Y-79095392D01*
X165957600Y-79107652D01*
X167379406Y-79107652D01*
X167381780Y-79922370D01*
X167540530Y-80081120D01*
X169689780Y-80081120D01*
X169689780Y-80061120D01*
X169943780Y-80061120D01*
X169943780Y-80081120D01*
X172093030Y-80081120D01*
X172251780Y-79922370D01*
X172254852Y-78868120D01*
X172242592Y-78743638D01*
X172206282Y-78623940D01*
X172147317Y-78513626D01*
X172067965Y-78416935D01*
X171971274Y-78337583D01*
X171860960Y-78278618D01*
X171741262Y-78242308D01*
X171616780Y-78230048D01*
X171388370Y-78230511D01*
X172435362Y-77183520D01*
X180312838Y-77183520D01*
X180350160Y-77187196D01*
X180387482Y-77183520D01*
X180387493Y-77183520D01*
X180499146Y-77172523D01*
X180642407Y-77129066D01*
X180774436Y-77058494D01*
X180890161Y-76963521D01*
X180913964Y-76934517D01*
X181097378Y-76751103D01*
X181126381Y-76727301D01*
X181221354Y-76611576D01*
X181291926Y-76479547D01*
X181335383Y-76336286D01*
X181343088Y-76258052D01*
X181436380Y-76258052D01*
X181560862Y-76245792D01*
X181680560Y-76209482D01*
X181790874Y-76150517D01*
X181887565Y-76071165D01*
X181966917Y-75974474D01*
X182025882Y-75864160D01*
X182062192Y-75744462D01*
X182074452Y-75619980D01*
X182074452Y-73919980D01*
X182062192Y-73795498D01*
X182025882Y-73675800D01*
X181966917Y-73565486D01*
X181887565Y-73468795D01*
X181790874Y-73389443D01*
X181680560Y-73330478D01*
X181611693Y-73309587D01*
X181641514Y-73285114D01*
X181827086Y-73058994D01*
X181964979Y-72801014D01*
X182049893Y-72521091D01*
X182078565Y-72229980D01*
X182049893Y-71938869D01*
X181964979Y-71658946D01*
X181827086Y-71400966D01*
X181641514Y-71174846D01*
X181415394Y-70989274D01*
X181350857Y-70954779D01*
X181467735Y-70885158D01*
X181683968Y-70690249D01*
X181858021Y-70456900D01*
X181983205Y-70194079D01*
X182027856Y-70046870D01*
X181906535Y-69816980D01*
X180713380Y-69816980D01*
X180713380Y-69836980D01*
X180459380Y-69836980D01*
X180459380Y-69816980D01*
X178173380Y-69816980D01*
X178173380Y-69836980D01*
X177919380Y-69836980D01*
X177919380Y-69816980D01*
X176726225Y-69816980D01*
X176604904Y-70046870D01*
X176649555Y-70194079D01*
X176774739Y-70456900D01*
X176948792Y-70690249D01*
X177165025Y-70885158D01*
X177281903Y-70954779D01*
X177217366Y-70989274D01*
X176991246Y-71174846D01*
X176805674Y-71400966D01*
X176768785Y-71469980D01*
X171292848Y-71469980D01*
X171152360Y-71456143D01*
X171003374Y-71470817D01*
X170860113Y-71514274D01*
X170728084Y-71584846D01*
X170612359Y-71679819D01*
X170588561Y-71708817D01*
X168578494Y-73718885D01*
X168562021Y-73664580D01*
X168583412Y-73594062D01*
X168595672Y-73469580D01*
X168595672Y-72859580D01*
X168583412Y-72735098D01*
X168562021Y-72664580D01*
X168583412Y-72594062D01*
X168595672Y-72469580D01*
X168595672Y-71859580D01*
X168583412Y-71735098D01*
X168562021Y-71664580D01*
X168583412Y-71594062D01*
X168595672Y-71469580D01*
X168595672Y-70859580D01*
X168583412Y-70735098D01*
X168562021Y-70664580D01*
X168583412Y-70594062D01*
X168595672Y-70469580D01*
X168595672Y-69859580D01*
X168583412Y-69735098D01*
X168562021Y-69664580D01*
X168583412Y-69594062D01*
X168595672Y-69469580D01*
X168595672Y-68859580D01*
X168583412Y-68735098D01*
X168562021Y-68664580D01*
X168583412Y-68594062D01*
X168595672Y-68469580D01*
X168595672Y-67922680D01*
X170776769Y-67922680D01*
X170820706Y-67966617D01*
X170990224Y-68079885D01*
X171178582Y-68157906D01*
X171378541Y-68197680D01*
X171582419Y-68197680D01*
X171782378Y-68157906D01*
X171970736Y-68079885D01*
X172140254Y-67966617D01*
X172284417Y-67822454D01*
X172397685Y-67652936D01*
X172475706Y-67464578D01*
X172515480Y-67264619D01*
X172515480Y-67060741D01*
X172488396Y-66924580D01*
X176576395Y-66924580D01*
X176554195Y-67149980D01*
X176582867Y-67441091D01*
X176667781Y-67721014D01*
X176805674Y-67978994D01*
X176991246Y-68205114D01*
X177217366Y-68390686D01*
X177281903Y-68425181D01*
X177165025Y-68494802D01*
X176948792Y-68689711D01*
X176774739Y-68923060D01*
X176649555Y-69185881D01*
X176604904Y-69333090D01*
X176726225Y-69562980D01*
X177919380Y-69562980D01*
X177919380Y-69542980D01*
X178173380Y-69542980D01*
X178173380Y-69562980D01*
X180459380Y-69562980D01*
X180459380Y-69542980D01*
X180713380Y-69542980D01*
X180713380Y-69562980D01*
X181906535Y-69562980D01*
X182027856Y-69333090D01*
X181983205Y-69185881D01*
X181858021Y-68923060D01*
X181683968Y-68689711D01*
X181467735Y-68494802D01*
X181350857Y-68425181D01*
X181415394Y-68390686D01*
X181641514Y-68205114D01*
X181827086Y-67978994D01*
X181964979Y-67721014D01*
X182049893Y-67441091D01*
X182078565Y-67149980D01*
X182049893Y-66858869D01*
X182027177Y-66783985D01*
X182763623Y-66047539D01*
X182792621Y-66023741D01*
X182861425Y-65939903D01*
X182837840Y-82120647D01*
X182773707Y-82796870D01*
X182589534Y-83413970D01*
X182289007Y-83983544D01*
X181883570Y-84483900D01*
X181388669Y-84895978D01*
X180823155Y-85204079D01*
X180208565Y-85396471D01*
X179536586Y-85469262D01*
X132581407Y-85476394D01*
X131901568Y-85412344D01*
X131280592Y-85227434D01*
X130707355Y-84925429D01*
X130203698Y-84517835D01*
X129788798Y-84020171D01*
X129478468Y-83451407D01*
X129284518Y-82833187D01*
X129209051Y-82140504D01*
X129209591Y-81857909D01*
X129388394Y-81857909D01*
X129388394Y-82475451D01*
X129508870Y-83081126D01*
X129745193Y-83651659D01*
X130088280Y-84165126D01*
X130524948Y-84601794D01*
X131038415Y-84944881D01*
X131608948Y-85181204D01*
X132214623Y-85301680D01*
X132832165Y-85301680D01*
X133437840Y-85181204D01*
X134008373Y-84944881D01*
X134521840Y-84601794D01*
X134958508Y-84165126D01*
X135301595Y-83651659D01*
X135537918Y-83081126D01*
X135658394Y-82475451D01*
X135658394Y-81857909D01*
X135596774Y-81548120D01*
X167378708Y-81548120D01*
X167390968Y-81672602D01*
X167427278Y-81792300D01*
X167486243Y-81902614D01*
X167565595Y-81999305D01*
X167662286Y-82078657D01*
X167772600Y-82137622D01*
X167892298Y-82173932D01*
X168016780Y-82186192D01*
X169531030Y-82183120D01*
X169689780Y-82024370D01*
X169689780Y-80335120D01*
X169943780Y-80335120D01*
X169943780Y-82024370D01*
X170102530Y-82183120D01*
X171616780Y-82186192D01*
X171741262Y-82173932D01*
X171860960Y-82137622D01*
X171971274Y-82078657D01*
X172067965Y-81999305D01*
X172147317Y-81902614D01*
X172195768Y-81811969D01*
X176209320Y-81811969D01*
X176209320Y-82429511D01*
X176329796Y-83035186D01*
X176566119Y-83605719D01*
X176909206Y-84119186D01*
X177345874Y-84555854D01*
X177859341Y-84898941D01*
X178429874Y-85135264D01*
X179035549Y-85255740D01*
X179653091Y-85255740D01*
X180258766Y-85135264D01*
X180829299Y-84898941D01*
X181342766Y-84555854D01*
X181779434Y-84119186D01*
X182122521Y-83605719D01*
X182358844Y-83035186D01*
X182479320Y-82429511D01*
X182479320Y-81811969D01*
X182358844Y-81206294D01*
X182122521Y-80635761D01*
X181779434Y-80122294D01*
X181342766Y-79685626D01*
X180829299Y-79342539D01*
X180258766Y-79106216D01*
X179653091Y-78985740D01*
X179035549Y-78985740D01*
X178429874Y-79106216D01*
X177859341Y-79342539D01*
X177345874Y-79685626D01*
X176909206Y-80122294D01*
X176566119Y-80635761D01*
X176329796Y-81206294D01*
X176209320Y-81811969D01*
X172195768Y-81811969D01*
X172206282Y-81792300D01*
X172242592Y-81672602D01*
X172254852Y-81548120D01*
X172251780Y-80493870D01*
X172093030Y-80335120D01*
X169943780Y-80335120D01*
X169689780Y-80335120D01*
X167540530Y-80335120D01*
X167381780Y-80493870D01*
X167378708Y-81548120D01*
X135596774Y-81548120D01*
X135537918Y-81252234D01*
X135301595Y-80681701D01*
X134958508Y-80168234D01*
X134521840Y-79731566D01*
X134008373Y-79388479D01*
X133437840Y-79152156D01*
X132832165Y-79031680D01*
X132214623Y-79031680D01*
X131608948Y-79152156D01*
X131038415Y-79388479D01*
X130524948Y-79731566D01*
X130088280Y-80168234D01*
X129745193Y-80681701D01*
X129508870Y-81252234D01*
X129388394Y-81857909D01*
X129209591Y-81857909D01*
X129248599Y-61469580D01*
X165319528Y-61469580D01*
X165331788Y-61594062D01*
X165353179Y-61664580D01*
X165331788Y-61735098D01*
X165319528Y-61859580D01*
X165322600Y-61878830D01*
X165481350Y-62037580D01*
X165673193Y-62037580D01*
X165713420Y-62059082D01*
X165833118Y-62095392D01*
X165957600Y-62107652D01*
X166671850Y-62104580D01*
X166738850Y-62037580D01*
X166830600Y-62037580D01*
X166830600Y-61291580D01*
X167084600Y-61291580D01*
X167084600Y-62037580D01*
X167176350Y-62037580D01*
X167243350Y-62104580D01*
X167957600Y-62107652D01*
X168082082Y-62095392D01*
X168201780Y-62059082D01*
X168242007Y-62037580D01*
X168433850Y-62037580D01*
X168592600Y-61878830D01*
X168595672Y-61859580D01*
X168583412Y-61735098D01*
X168562021Y-61664580D01*
X168583412Y-61594062D01*
X168595672Y-61469580D01*
X168592600Y-61450330D01*
X168433850Y-61291580D01*
X168242007Y-61291580D01*
X168201780Y-61270078D01*
X168082082Y-61233768D01*
X167957600Y-61221508D01*
X167243350Y-61224580D01*
X167176350Y-61291580D01*
X167084600Y-61291580D01*
X166830600Y-61291580D01*
X166738850Y-61291580D01*
X166671850Y-61224580D01*
X165957600Y-61221508D01*
X165833118Y-61233768D01*
X165713420Y-61270078D01*
X165673193Y-61291580D01*
X165481350Y-61291580D01*
X165322600Y-61450330D01*
X165319528Y-61469580D01*
X129248599Y-61469580D01*
X129249766Y-60859580D01*
X165319528Y-60859580D01*
X165322600Y-60878830D01*
X165481350Y-61037580D01*
X166830600Y-61037580D01*
X166830600Y-60383330D01*
X167084600Y-60383330D01*
X167084600Y-61037580D01*
X167693867Y-61037580D01*
X167775140Y-61081022D01*
X167894838Y-61117332D01*
X168019320Y-61129592D01*
X169533570Y-61126520D01*
X169692320Y-60967770D01*
X169692320Y-59278520D01*
X169946320Y-59278520D01*
X169946320Y-60967770D01*
X170105070Y-61126520D01*
X171619320Y-61129592D01*
X171743802Y-61117332D01*
X171863500Y-61081022D01*
X171973814Y-61022057D01*
X172070505Y-60942705D01*
X172149857Y-60846014D01*
X172208822Y-60735700D01*
X172245132Y-60616002D01*
X172257392Y-60491520D01*
X172254320Y-59437270D01*
X172095570Y-59278520D01*
X169946320Y-59278520D01*
X169692320Y-59278520D01*
X167543070Y-59278520D01*
X167384320Y-59437270D01*
X167382028Y-60223984D01*
X167243350Y-60224580D01*
X167084600Y-60383330D01*
X166830600Y-60383330D01*
X166671850Y-60224580D01*
X165957600Y-60221508D01*
X165833118Y-60233768D01*
X165713420Y-60270078D01*
X165603106Y-60329043D01*
X165506415Y-60408395D01*
X165427063Y-60505086D01*
X165368098Y-60615400D01*
X165331788Y-60735098D01*
X165319528Y-60859580D01*
X129249766Y-60859580D01*
X129258686Y-56197704D01*
X129290911Y-55857909D01*
X129441288Y-55857909D01*
X129441288Y-56475451D01*
X129561764Y-57081126D01*
X129798087Y-57651659D01*
X130141174Y-58165126D01*
X130577842Y-58601794D01*
X131091309Y-58944881D01*
X131661842Y-59181204D01*
X132267517Y-59301680D01*
X132885059Y-59301680D01*
X133490734Y-59181204D01*
X134061267Y-58944881D01*
X134574734Y-58601794D01*
X135011402Y-58165126D01*
X135247673Y-57811520D01*
X167381248Y-57811520D01*
X167384320Y-58865770D01*
X167543070Y-59024520D01*
X169692320Y-59024520D01*
X169692320Y-57335270D01*
X169946320Y-57335270D01*
X169946320Y-59024520D01*
X172095570Y-59024520D01*
X172254320Y-58865770D01*
X172257392Y-57811520D01*
X172245132Y-57687038D01*
X172208822Y-57567340D01*
X172149857Y-57457026D01*
X172070505Y-57360335D01*
X171973814Y-57280983D01*
X171863500Y-57222018D01*
X171743802Y-57185708D01*
X171619320Y-57173448D01*
X170105070Y-57176520D01*
X169946320Y-57335270D01*
X169692320Y-57335270D01*
X169533570Y-57176520D01*
X168019320Y-57173448D01*
X167894838Y-57185708D01*
X167775140Y-57222018D01*
X167664826Y-57280983D01*
X167568135Y-57360335D01*
X167488783Y-57457026D01*
X167429818Y-57567340D01*
X167393508Y-57687038D01*
X167381248Y-57811520D01*
X135247673Y-57811520D01*
X135354489Y-57651659D01*
X135590812Y-57081126D01*
X135711288Y-56475451D01*
X135711288Y-56023009D01*
X176154428Y-56023009D01*
X176154428Y-56640551D01*
X176274904Y-57246226D01*
X176511227Y-57816759D01*
X176854314Y-58330226D01*
X177290982Y-58766894D01*
X177804449Y-59109981D01*
X178374982Y-59346304D01*
X178980657Y-59466780D01*
X179598199Y-59466780D01*
X180203874Y-59346304D01*
X180774407Y-59109981D01*
X181287874Y-58766894D01*
X181724542Y-58330226D01*
X182067629Y-57816759D01*
X182303952Y-57246226D01*
X182424428Y-56640551D01*
X182424428Y-56023009D01*
X182303952Y-55417334D01*
X182067629Y-54846801D01*
X181724542Y-54333334D01*
X181287874Y-53896666D01*
X180774407Y-53553579D01*
X180203874Y-53317256D01*
X179598199Y-53196780D01*
X178980657Y-53196780D01*
X178374982Y-53317256D01*
X177804449Y-53553579D01*
X177290982Y-53896666D01*
X176854314Y-54333334D01*
X176511227Y-54846801D01*
X176274904Y-55417334D01*
X176154428Y-56023009D01*
X135711288Y-56023009D01*
X135711288Y-55857909D01*
X135590812Y-55252234D01*
X135354489Y-54681701D01*
X135011402Y-54168234D01*
X134574734Y-53731566D01*
X134061267Y-53388479D01*
X133490734Y-53152156D01*
X132885059Y-53031680D01*
X132267517Y-53031680D01*
X131661842Y-53152156D01*
X131091309Y-53388479D01*
X130577842Y-53731566D01*
X130141174Y-54168234D01*
X129798087Y-54681701D01*
X129561764Y-55252234D01*
X129441288Y-55857909D01*
X129290911Y-55857909D01*
X129322833Y-55521328D01*
X129507005Y-54904230D01*
X129807536Y-54334651D01*
X130212969Y-53834298D01*
X130707869Y-53422222D01*
X131273385Y-53114119D01*
X131887975Y-52921727D01*
X132559941Y-52848938D01*
X179527594Y-52848733D01*
X180203322Y-52912819D01*
M02*
