G04 #@! TF.GenerationSoftware,KiCad,Pcbnew,(5.1.9)-1*
G04 #@! TF.CreationDate,2022-02-28T19:05:45+08:00*
G04 #@! TF.ProjectId,matrix_display16_32,6d617472-6978-45f6-9469-73706c617931,rev?*
G04 #@! TF.SameCoordinates,Original*
G04 #@! TF.FileFunction,Soldermask,Top*
G04 #@! TF.FilePolarity,Negative*
%FSLAX46Y46*%
G04 Gerber Fmt 4.6, Leading zero omitted, Abs format (unit mm)*
G04 Created by KiCad (PCBNEW (5.1.9)-1) date 2022-02-28 19:05:45*
%MOMM*%
%LPD*%
G01*
G04 APERTURE LIST*
%ADD10C,5.102000*%
%ADD11C,1.602000*%
%ADD12O,1.802000X1.802000*%
G04 APERTURE END LIST*
D10*
X186500000Y-87820000D03*
X186500000Y-125540000D03*
X97980000Y-125540000D03*
X97980000Y-87820000D03*
G36*
G01*
X179529500Y-100094000D02*
X179880500Y-100094000D01*
G75*
G02*
X180056000Y-100269500I0J-175500D01*
G01*
X180056000Y-102070500D01*
G75*
G02*
X179880500Y-102246000I-175500J0D01*
G01*
X179529500Y-102246000D01*
G75*
G02*
X179354000Y-102070500I0J175500D01*
G01*
X179354000Y-100269500D01*
G75*
G02*
X179529500Y-100094000I175500J0D01*
G01*
G37*
G36*
G01*
X178259500Y-100094000D02*
X178610500Y-100094000D01*
G75*
G02*
X178786000Y-100269500I0J-175500D01*
G01*
X178786000Y-102070500D01*
G75*
G02*
X178610500Y-102246000I-175500J0D01*
G01*
X178259500Y-102246000D01*
G75*
G02*
X178084000Y-102070500I0J175500D01*
G01*
X178084000Y-100269500D01*
G75*
G02*
X178259500Y-100094000I175500J0D01*
G01*
G37*
G36*
G01*
X176989500Y-100094000D02*
X177340500Y-100094000D01*
G75*
G02*
X177516000Y-100269500I0J-175500D01*
G01*
X177516000Y-102070500D01*
G75*
G02*
X177340500Y-102246000I-175500J0D01*
G01*
X176989500Y-102246000D01*
G75*
G02*
X176814000Y-102070500I0J175500D01*
G01*
X176814000Y-100269500D01*
G75*
G02*
X176989500Y-100094000I175500J0D01*
G01*
G37*
G36*
G01*
X175719500Y-100094000D02*
X176070500Y-100094000D01*
G75*
G02*
X176246000Y-100269500I0J-175500D01*
G01*
X176246000Y-102070500D01*
G75*
G02*
X176070500Y-102246000I-175500J0D01*
G01*
X175719500Y-102246000D01*
G75*
G02*
X175544000Y-102070500I0J175500D01*
G01*
X175544000Y-100269500D01*
G75*
G02*
X175719500Y-100094000I175500J0D01*
G01*
G37*
G36*
G01*
X174449500Y-100094000D02*
X174800500Y-100094000D01*
G75*
G02*
X174976000Y-100269500I0J-175500D01*
G01*
X174976000Y-102070500D01*
G75*
G02*
X174800500Y-102246000I-175500J0D01*
G01*
X174449500Y-102246000D01*
G75*
G02*
X174274000Y-102070500I0J175500D01*
G01*
X174274000Y-100269500D01*
G75*
G02*
X174449500Y-100094000I175500J0D01*
G01*
G37*
G36*
G01*
X173179500Y-100094000D02*
X173530500Y-100094000D01*
G75*
G02*
X173706000Y-100269500I0J-175500D01*
G01*
X173706000Y-102070500D01*
G75*
G02*
X173530500Y-102246000I-175500J0D01*
G01*
X173179500Y-102246000D01*
G75*
G02*
X173004000Y-102070500I0J175500D01*
G01*
X173004000Y-100269500D01*
G75*
G02*
X173179500Y-100094000I175500J0D01*
G01*
G37*
G36*
G01*
X171909500Y-100094000D02*
X172260500Y-100094000D01*
G75*
G02*
X172436000Y-100269500I0J-175500D01*
G01*
X172436000Y-102070500D01*
G75*
G02*
X172260500Y-102246000I-175500J0D01*
G01*
X171909500Y-102246000D01*
G75*
G02*
X171734000Y-102070500I0J175500D01*
G01*
X171734000Y-100269500D01*
G75*
G02*
X171909500Y-100094000I175500J0D01*
G01*
G37*
G36*
G01*
X170639500Y-100094000D02*
X170990500Y-100094000D01*
G75*
G02*
X171166000Y-100269500I0J-175500D01*
G01*
X171166000Y-102070500D01*
G75*
G02*
X170990500Y-102246000I-175500J0D01*
G01*
X170639500Y-102246000D01*
G75*
G02*
X170464000Y-102070500I0J175500D01*
G01*
X170464000Y-100269500D01*
G75*
G02*
X170639500Y-100094000I175500J0D01*
G01*
G37*
G36*
G01*
X169369500Y-100094000D02*
X169720500Y-100094000D01*
G75*
G02*
X169896000Y-100269500I0J-175500D01*
G01*
X169896000Y-102070500D01*
G75*
G02*
X169720500Y-102246000I-175500J0D01*
G01*
X169369500Y-102246000D01*
G75*
G02*
X169194000Y-102070500I0J175500D01*
G01*
X169194000Y-100269500D01*
G75*
G02*
X169369500Y-100094000I175500J0D01*
G01*
G37*
G36*
G01*
X168099500Y-100094000D02*
X168450500Y-100094000D01*
G75*
G02*
X168626000Y-100269500I0J-175500D01*
G01*
X168626000Y-102070500D01*
G75*
G02*
X168450500Y-102246000I-175500J0D01*
G01*
X168099500Y-102246000D01*
G75*
G02*
X167924000Y-102070500I0J175500D01*
G01*
X167924000Y-100269500D01*
G75*
G02*
X168099500Y-100094000I175500J0D01*
G01*
G37*
G36*
G01*
X166829500Y-100094000D02*
X167180500Y-100094000D01*
G75*
G02*
X167356000Y-100269500I0J-175500D01*
G01*
X167356000Y-102070500D01*
G75*
G02*
X167180500Y-102246000I-175500J0D01*
G01*
X166829500Y-102246000D01*
G75*
G02*
X166654000Y-102070500I0J175500D01*
G01*
X166654000Y-100269500D01*
G75*
G02*
X166829500Y-100094000I175500J0D01*
G01*
G37*
G36*
G01*
X165559500Y-100094000D02*
X165910500Y-100094000D01*
G75*
G02*
X166086000Y-100269500I0J-175500D01*
G01*
X166086000Y-102070500D01*
G75*
G02*
X165910500Y-102246000I-175500J0D01*
G01*
X165559500Y-102246000D01*
G75*
G02*
X165384000Y-102070500I0J175500D01*
G01*
X165384000Y-100269500D01*
G75*
G02*
X165559500Y-100094000I175500J0D01*
G01*
G37*
G36*
G01*
X165559500Y-90794000D02*
X165910500Y-90794000D01*
G75*
G02*
X166086000Y-90969500I0J-175500D01*
G01*
X166086000Y-92770500D01*
G75*
G02*
X165910500Y-92946000I-175500J0D01*
G01*
X165559500Y-92946000D01*
G75*
G02*
X165384000Y-92770500I0J175500D01*
G01*
X165384000Y-90969500D01*
G75*
G02*
X165559500Y-90794000I175500J0D01*
G01*
G37*
G36*
G01*
X166829500Y-90794000D02*
X167180500Y-90794000D01*
G75*
G02*
X167356000Y-90969500I0J-175500D01*
G01*
X167356000Y-92770500D01*
G75*
G02*
X167180500Y-92946000I-175500J0D01*
G01*
X166829500Y-92946000D01*
G75*
G02*
X166654000Y-92770500I0J175500D01*
G01*
X166654000Y-90969500D01*
G75*
G02*
X166829500Y-90794000I175500J0D01*
G01*
G37*
G36*
G01*
X168099500Y-90794000D02*
X168450500Y-90794000D01*
G75*
G02*
X168626000Y-90969500I0J-175500D01*
G01*
X168626000Y-92770500D01*
G75*
G02*
X168450500Y-92946000I-175500J0D01*
G01*
X168099500Y-92946000D01*
G75*
G02*
X167924000Y-92770500I0J175500D01*
G01*
X167924000Y-90969500D01*
G75*
G02*
X168099500Y-90794000I175500J0D01*
G01*
G37*
G36*
G01*
X169369500Y-90794000D02*
X169720500Y-90794000D01*
G75*
G02*
X169896000Y-90969500I0J-175500D01*
G01*
X169896000Y-92770500D01*
G75*
G02*
X169720500Y-92946000I-175500J0D01*
G01*
X169369500Y-92946000D01*
G75*
G02*
X169194000Y-92770500I0J175500D01*
G01*
X169194000Y-90969500D01*
G75*
G02*
X169369500Y-90794000I175500J0D01*
G01*
G37*
G36*
G01*
X170639500Y-90794000D02*
X170990500Y-90794000D01*
G75*
G02*
X171166000Y-90969500I0J-175500D01*
G01*
X171166000Y-92770500D01*
G75*
G02*
X170990500Y-92946000I-175500J0D01*
G01*
X170639500Y-92946000D01*
G75*
G02*
X170464000Y-92770500I0J175500D01*
G01*
X170464000Y-90969500D01*
G75*
G02*
X170639500Y-90794000I175500J0D01*
G01*
G37*
G36*
G01*
X171909500Y-90794000D02*
X172260500Y-90794000D01*
G75*
G02*
X172436000Y-90969500I0J-175500D01*
G01*
X172436000Y-92770500D01*
G75*
G02*
X172260500Y-92946000I-175500J0D01*
G01*
X171909500Y-92946000D01*
G75*
G02*
X171734000Y-92770500I0J175500D01*
G01*
X171734000Y-90969500D01*
G75*
G02*
X171909500Y-90794000I175500J0D01*
G01*
G37*
G36*
G01*
X173179500Y-90794000D02*
X173530500Y-90794000D01*
G75*
G02*
X173706000Y-90969500I0J-175500D01*
G01*
X173706000Y-92770500D01*
G75*
G02*
X173530500Y-92946000I-175500J0D01*
G01*
X173179500Y-92946000D01*
G75*
G02*
X173004000Y-92770500I0J175500D01*
G01*
X173004000Y-90969500D01*
G75*
G02*
X173179500Y-90794000I175500J0D01*
G01*
G37*
G36*
G01*
X174449500Y-90794000D02*
X174800500Y-90794000D01*
G75*
G02*
X174976000Y-90969500I0J-175500D01*
G01*
X174976000Y-92770500D01*
G75*
G02*
X174800500Y-92946000I-175500J0D01*
G01*
X174449500Y-92946000D01*
G75*
G02*
X174274000Y-92770500I0J175500D01*
G01*
X174274000Y-90969500D01*
G75*
G02*
X174449500Y-90794000I175500J0D01*
G01*
G37*
G36*
G01*
X175719500Y-90794000D02*
X176070500Y-90794000D01*
G75*
G02*
X176246000Y-90969500I0J-175500D01*
G01*
X176246000Y-92770500D01*
G75*
G02*
X176070500Y-92946000I-175500J0D01*
G01*
X175719500Y-92946000D01*
G75*
G02*
X175544000Y-92770500I0J175500D01*
G01*
X175544000Y-90969500D01*
G75*
G02*
X175719500Y-90794000I175500J0D01*
G01*
G37*
G36*
G01*
X176989500Y-90794000D02*
X177340500Y-90794000D01*
G75*
G02*
X177516000Y-90969500I0J-175500D01*
G01*
X177516000Y-92770500D01*
G75*
G02*
X177340500Y-92946000I-175500J0D01*
G01*
X176989500Y-92946000D01*
G75*
G02*
X176814000Y-92770500I0J175500D01*
G01*
X176814000Y-90969500D01*
G75*
G02*
X176989500Y-90794000I175500J0D01*
G01*
G37*
G36*
G01*
X178259500Y-90794000D02*
X178610500Y-90794000D01*
G75*
G02*
X178786000Y-90969500I0J-175500D01*
G01*
X178786000Y-92770500D01*
G75*
G02*
X178610500Y-92946000I-175500J0D01*
G01*
X178259500Y-92946000D01*
G75*
G02*
X178084000Y-92770500I0J175500D01*
G01*
X178084000Y-90969500D01*
G75*
G02*
X178259500Y-90794000I175500J0D01*
G01*
G37*
G36*
G01*
X179529500Y-90794000D02*
X179880500Y-90794000D01*
G75*
G02*
X180056000Y-90969500I0J-175500D01*
G01*
X180056000Y-92770500D01*
G75*
G02*
X179880500Y-92946000I-175500J0D01*
G01*
X179529500Y-92946000D01*
G75*
G02*
X179354000Y-92770500I0J175500D01*
G01*
X179354000Y-90969500D01*
G75*
G02*
X179529500Y-90794000I175500J0D01*
G01*
G37*
D11*
X113030000Y-109340000D03*
X120650000Y-109340000D03*
X110490000Y-109340000D03*
X115570000Y-109340000D03*
X118110000Y-109340000D03*
X102870000Y-109340000D03*
X105410000Y-109340000D03*
X107950000Y-109340000D03*
X102870000Y-124340000D03*
X105410000Y-124340000D03*
X107950000Y-124340000D03*
X110490000Y-124340000D03*
X113030000Y-124340000D03*
X115570000Y-124340000D03*
X118110000Y-124340000D03*
X120650000Y-124340000D03*
X173990000Y-109220000D03*
X181610000Y-109220000D03*
X171450000Y-109220000D03*
X176530000Y-109220000D03*
X179070000Y-109220000D03*
X163830000Y-109220000D03*
X166370000Y-109220000D03*
X168910000Y-109220000D03*
X163830000Y-124220000D03*
X166370000Y-124220000D03*
X168910000Y-124220000D03*
X171450000Y-124220000D03*
X173990000Y-124220000D03*
X176530000Y-124220000D03*
X179070000Y-124220000D03*
X181610000Y-124220000D03*
X153670000Y-89020000D03*
X161290000Y-89020000D03*
X151130000Y-89020000D03*
X156210000Y-89020000D03*
X158750000Y-89020000D03*
X143510000Y-89020000D03*
X146050000Y-89020000D03*
X148590000Y-89020000D03*
X143510000Y-104020000D03*
X146050000Y-104020000D03*
X148590000Y-104020000D03*
X151130000Y-104020000D03*
X153670000Y-104020000D03*
X156210000Y-104020000D03*
X158750000Y-104020000D03*
X161290000Y-104020000D03*
X173990000Y-89020000D03*
X181610000Y-89020000D03*
X171450000Y-89020000D03*
X176530000Y-89020000D03*
X179070000Y-89020000D03*
X163830000Y-89020000D03*
X166370000Y-89020000D03*
X168910000Y-89020000D03*
X163830000Y-104020000D03*
X166370000Y-104020000D03*
X168910000Y-104020000D03*
X171450000Y-104020000D03*
X173990000Y-104020000D03*
X176530000Y-104020000D03*
X179070000Y-104020000D03*
X181610000Y-104020000D03*
X133350000Y-88900000D03*
X140970000Y-88900000D03*
X130810000Y-88900000D03*
X135890000Y-88900000D03*
X138430000Y-88900000D03*
X123190000Y-88900000D03*
X125730000Y-88900000D03*
X128270000Y-88900000D03*
X123190000Y-103900000D03*
X125730000Y-103900000D03*
X128270000Y-103900000D03*
X130810000Y-103900000D03*
X133350000Y-103900000D03*
X135890000Y-103900000D03*
X138430000Y-103900000D03*
X140970000Y-103900000D03*
G36*
G01*
X159209500Y-120294000D02*
X159560500Y-120294000D01*
G75*
G02*
X159736000Y-120469500I0J-175500D01*
G01*
X159736000Y-122270500D01*
G75*
G02*
X159560500Y-122446000I-175500J0D01*
G01*
X159209500Y-122446000D01*
G75*
G02*
X159034000Y-122270500I0J175500D01*
G01*
X159034000Y-120469500D01*
G75*
G02*
X159209500Y-120294000I175500J0D01*
G01*
G37*
G36*
G01*
X157939500Y-120294000D02*
X158290500Y-120294000D01*
G75*
G02*
X158466000Y-120469500I0J-175500D01*
G01*
X158466000Y-122270500D01*
G75*
G02*
X158290500Y-122446000I-175500J0D01*
G01*
X157939500Y-122446000D01*
G75*
G02*
X157764000Y-122270500I0J175500D01*
G01*
X157764000Y-120469500D01*
G75*
G02*
X157939500Y-120294000I175500J0D01*
G01*
G37*
G36*
G01*
X156669500Y-120294000D02*
X157020500Y-120294000D01*
G75*
G02*
X157196000Y-120469500I0J-175500D01*
G01*
X157196000Y-122270500D01*
G75*
G02*
X157020500Y-122446000I-175500J0D01*
G01*
X156669500Y-122446000D01*
G75*
G02*
X156494000Y-122270500I0J175500D01*
G01*
X156494000Y-120469500D01*
G75*
G02*
X156669500Y-120294000I175500J0D01*
G01*
G37*
G36*
G01*
X155399500Y-120294000D02*
X155750500Y-120294000D01*
G75*
G02*
X155926000Y-120469500I0J-175500D01*
G01*
X155926000Y-122270500D01*
G75*
G02*
X155750500Y-122446000I-175500J0D01*
G01*
X155399500Y-122446000D01*
G75*
G02*
X155224000Y-122270500I0J175500D01*
G01*
X155224000Y-120469500D01*
G75*
G02*
X155399500Y-120294000I175500J0D01*
G01*
G37*
G36*
G01*
X154129500Y-120294000D02*
X154480500Y-120294000D01*
G75*
G02*
X154656000Y-120469500I0J-175500D01*
G01*
X154656000Y-122270500D01*
G75*
G02*
X154480500Y-122446000I-175500J0D01*
G01*
X154129500Y-122446000D01*
G75*
G02*
X153954000Y-122270500I0J175500D01*
G01*
X153954000Y-120469500D01*
G75*
G02*
X154129500Y-120294000I175500J0D01*
G01*
G37*
G36*
G01*
X152859500Y-120294000D02*
X153210500Y-120294000D01*
G75*
G02*
X153386000Y-120469500I0J-175500D01*
G01*
X153386000Y-122270500D01*
G75*
G02*
X153210500Y-122446000I-175500J0D01*
G01*
X152859500Y-122446000D01*
G75*
G02*
X152684000Y-122270500I0J175500D01*
G01*
X152684000Y-120469500D01*
G75*
G02*
X152859500Y-120294000I175500J0D01*
G01*
G37*
G36*
G01*
X151589500Y-120294000D02*
X151940500Y-120294000D01*
G75*
G02*
X152116000Y-120469500I0J-175500D01*
G01*
X152116000Y-122270500D01*
G75*
G02*
X151940500Y-122446000I-175500J0D01*
G01*
X151589500Y-122446000D01*
G75*
G02*
X151414000Y-122270500I0J175500D01*
G01*
X151414000Y-120469500D01*
G75*
G02*
X151589500Y-120294000I175500J0D01*
G01*
G37*
G36*
G01*
X150319500Y-120294000D02*
X150670500Y-120294000D01*
G75*
G02*
X150846000Y-120469500I0J-175500D01*
G01*
X150846000Y-122270500D01*
G75*
G02*
X150670500Y-122446000I-175500J0D01*
G01*
X150319500Y-122446000D01*
G75*
G02*
X150144000Y-122270500I0J175500D01*
G01*
X150144000Y-120469500D01*
G75*
G02*
X150319500Y-120294000I175500J0D01*
G01*
G37*
G36*
G01*
X149049500Y-120294000D02*
X149400500Y-120294000D01*
G75*
G02*
X149576000Y-120469500I0J-175500D01*
G01*
X149576000Y-122270500D01*
G75*
G02*
X149400500Y-122446000I-175500J0D01*
G01*
X149049500Y-122446000D01*
G75*
G02*
X148874000Y-122270500I0J175500D01*
G01*
X148874000Y-120469500D01*
G75*
G02*
X149049500Y-120294000I175500J0D01*
G01*
G37*
G36*
G01*
X147779500Y-120294000D02*
X148130500Y-120294000D01*
G75*
G02*
X148306000Y-120469500I0J-175500D01*
G01*
X148306000Y-122270500D01*
G75*
G02*
X148130500Y-122446000I-175500J0D01*
G01*
X147779500Y-122446000D01*
G75*
G02*
X147604000Y-122270500I0J175500D01*
G01*
X147604000Y-120469500D01*
G75*
G02*
X147779500Y-120294000I175500J0D01*
G01*
G37*
G36*
G01*
X146509500Y-120294000D02*
X146860500Y-120294000D01*
G75*
G02*
X147036000Y-120469500I0J-175500D01*
G01*
X147036000Y-122270500D01*
G75*
G02*
X146860500Y-122446000I-175500J0D01*
G01*
X146509500Y-122446000D01*
G75*
G02*
X146334000Y-122270500I0J175500D01*
G01*
X146334000Y-120469500D01*
G75*
G02*
X146509500Y-120294000I175500J0D01*
G01*
G37*
G36*
G01*
X145239500Y-120294000D02*
X145590500Y-120294000D01*
G75*
G02*
X145766000Y-120469500I0J-175500D01*
G01*
X145766000Y-122270500D01*
G75*
G02*
X145590500Y-122446000I-175500J0D01*
G01*
X145239500Y-122446000D01*
G75*
G02*
X145064000Y-122270500I0J175500D01*
G01*
X145064000Y-120469500D01*
G75*
G02*
X145239500Y-120294000I175500J0D01*
G01*
G37*
G36*
G01*
X145239500Y-110994000D02*
X145590500Y-110994000D01*
G75*
G02*
X145766000Y-111169500I0J-175500D01*
G01*
X145766000Y-112970500D01*
G75*
G02*
X145590500Y-113146000I-175500J0D01*
G01*
X145239500Y-113146000D01*
G75*
G02*
X145064000Y-112970500I0J175500D01*
G01*
X145064000Y-111169500D01*
G75*
G02*
X145239500Y-110994000I175500J0D01*
G01*
G37*
G36*
G01*
X146509500Y-110994000D02*
X146860500Y-110994000D01*
G75*
G02*
X147036000Y-111169500I0J-175500D01*
G01*
X147036000Y-112970500D01*
G75*
G02*
X146860500Y-113146000I-175500J0D01*
G01*
X146509500Y-113146000D01*
G75*
G02*
X146334000Y-112970500I0J175500D01*
G01*
X146334000Y-111169500D01*
G75*
G02*
X146509500Y-110994000I175500J0D01*
G01*
G37*
G36*
G01*
X147779500Y-110994000D02*
X148130500Y-110994000D01*
G75*
G02*
X148306000Y-111169500I0J-175500D01*
G01*
X148306000Y-112970500D01*
G75*
G02*
X148130500Y-113146000I-175500J0D01*
G01*
X147779500Y-113146000D01*
G75*
G02*
X147604000Y-112970500I0J175500D01*
G01*
X147604000Y-111169500D01*
G75*
G02*
X147779500Y-110994000I175500J0D01*
G01*
G37*
G36*
G01*
X149049500Y-110994000D02*
X149400500Y-110994000D01*
G75*
G02*
X149576000Y-111169500I0J-175500D01*
G01*
X149576000Y-112970500D01*
G75*
G02*
X149400500Y-113146000I-175500J0D01*
G01*
X149049500Y-113146000D01*
G75*
G02*
X148874000Y-112970500I0J175500D01*
G01*
X148874000Y-111169500D01*
G75*
G02*
X149049500Y-110994000I175500J0D01*
G01*
G37*
G36*
G01*
X150319500Y-110994000D02*
X150670500Y-110994000D01*
G75*
G02*
X150846000Y-111169500I0J-175500D01*
G01*
X150846000Y-112970500D01*
G75*
G02*
X150670500Y-113146000I-175500J0D01*
G01*
X150319500Y-113146000D01*
G75*
G02*
X150144000Y-112970500I0J175500D01*
G01*
X150144000Y-111169500D01*
G75*
G02*
X150319500Y-110994000I175500J0D01*
G01*
G37*
G36*
G01*
X151589500Y-110994000D02*
X151940500Y-110994000D01*
G75*
G02*
X152116000Y-111169500I0J-175500D01*
G01*
X152116000Y-112970500D01*
G75*
G02*
X151940500Y-113146000I-175500J0D01*
G01*
X151589500Y-113146000D01*
G75*
G02*
X151414000Y-112970500I0J175500D01*
G01*
X151414000Y-111169500D01*
G75*
G02*
X151589500Y-110994000I175500J0D01*
G01*
G37*
G36*
G01*
X152859500Y-110994000D02*
X153210500Y-110994000D01*
G75*
G02*
X153386000Y-111169500I0J-175500D01*
G01*
X153386000Y-112970500D01*
G75*
G02*
X153210500Y-113146000I-175500J0D01*
G01*
X152859500Y-113146000D01*
G75*
G02*
X152684000Y-112970500I0J175500D01*
G01*
X152684000Y-111169500D01*
G75*
G02*
X152859500Y-110994000I175500J0D01*
G01*
G37*
G36*
G01*
X154129500Y-110994000D02*
X154480500Y-110994000D01*
G75*
G02*
X154656000Y-111169500I0J-175500D01*
G01*
X154656000Y-112970500D01*
G75*
G02*
X154480500Y-113146000I-175500J0D01*
G01*
X154129500Y-113146000D01*
G75*
G02*
X153954000Y-112970500I0J175500D01*
G01*
X153954000Y-111169500D01*
G75*
G02*
X154129500Y-110994000I175500J0D01*
G01*
G37*
G36*
G01*
X155399500Y-110994000D02*
X155750500Y-110994000D01*
G75*
G02*
X155926000Y-111169500I0J-175500D01*
G01*
X155926000Y-112970500D01*
G75*
G02*
X155750500Y-113146000I-175500J0D01*
G01*
X155399500Y-113146000D01*
G75*
G02*
X155224000Y-112970500I0J175500D01*
G01*
X155224000Y-111169500D01*
G75*
G02*
X155399500Y-110994000I175500J0D01*
G01*
G37*
G36*
G01*
X156669500Y-110994000D02*
X157020500Y-110994000D01*
G75*
G02*
X157196000Y-111169500I0J-175500D01*
G01*
X157196000Y-112970500D01*
G75*
G02*
X157020500Y-113146000I-175500J0D01*
G01*
X156669500Y-113146000D01*
G75*
G02*
X156494000Y-112970500I0J175500D01*
G01*
X156494000Y-111169500D01*
G75*
G02*
X156669500Y-110994000I175500J0D01*
G01*
G37*
G36*
G01*
X157939500Y-110994000D02*
X158290500Y-110994000D01*
G75*
G02*
X158466000Y-111169500I0J-175500D01*
G01*
X158466000Y-112970500D01*
G75*
G02*
X158290500Y-113146000I-175500J0D01*
G01*
X157939500Y-113146000D01*
G75*
G02*
X157764000Y-112970500I0J175500D01*
G01*
X157764000Y-111169500D01*
G75*
G02*
X157939500Y-110994000I175500J0D01*
G01*
G37*
G36*
G01*
X159209500Y-110994000D02*
X159560500Y-110994000D01*
G75*
G02*
X159736000Y-111169500I0J-175500D01*
G01*
X159736000Y-112970500D01*
G75*
G02*
X159560500Y-113146000I-175500J0D01*
G01*
X159209500Y-113146000D01*
G75*
G02*
X159034000Y-112970500I0J175500D01*
G01*
X159034000Y-111169500D01*
G75*
G02*
X159209500Y-110994000I175500J0D01*
G01*
G37*
X153670000Y-109220000D03*
X161290000Y-109220000D03*
X151130000Y-109220000D03*
X156210000Y-109220000D03*
X158750000Y-109220000D03*
X143510000Y-109220000D03*
X146050000Y-109220000D03*
X148590000Y-109220000D03*
X143510000Y-124220000D03*
X146050000Y-124220000D03*
X148590000Y-124220000D03*
X151130000Y-124220000D03*
X153670000Y-124220000D03*
X156210000Y-124220000D03*
X158750000Y-124220000D03*
X161290000Y-124220000D03*
X133350000Y-109220000D03*
X140970000Y-109220000D03*
X130810000Y-109220000D03*
X135890000Y-109220000D03*
X138430000Y-109220000D03*
X123190000Y-109220000D03*
X125730000Y-109220000D03*
X128270000Y-109220000D03*
X123190000Y-124220000D03*
X125730000Y-124220000D03*
X128270000Y-124220000D03*
X130810000Y-124220000D03*
X133350000Y-124220000D03*
X135890000Y-124220000D03*
X138430000Y-124220000D03*
X140970000Y-124220000D03*
X113030000Y-89020000D03*
X120650000Y-89020000D03*
X110490000Y-89020000D03*
X115570000Y-89020000D03*
X118110000Y-89020000D03*
X102870000Y-89020000D03*
X105410000Y-89020000D03*
X107950000Y-89020000D03*
X102870000Y-104020000D03*
X105410000Y-104020000D03*
X107950000Y-104020000D03*
X110490000Y-104020000D03*
X113030000Y-104020000D03*
X115570000Y-104020000D03*
X118110000Y-104020000D03*
X120650000Y-104020000D03*
G36*
G01*
X179529500Y-120294000D02*
X179880500Y-120294000D01*
G75*
G02*
X180056000Y-120469500I0J-175500D01*
G01*
X180056000Y-122270500D01*
G75*
G02*
X179880500Y-122446000I-175500J0D01*
G01*
X179529500Y-122446000D01*
G75*
G02*
X179354000Y-122270500I0J175500D01*
G01*
X179354000Y-120469500D01*
G75*
G02*
X179529500Y-120294000I175500J0D01*
G01*
G37*
G36*
G01*
X178259500Y-120294000D02*
X178610500Y-120294000D01*
G75*
G02*
X178786000Y-120469500I0J-175500D01*
G01*
X178786000Y-122270500D01*
G75*
G02*
X178610500Y-122446000I-175500J0D01*
G01*
X178259500Y-122446000D01*
G75*
G02*
X178084000Y-122270500I0J175500D01*
G01*
X178084000Y-120469500D01*
G75*
G02*
X178259500Y-120294000I175500J0D01*
G01*
G37*
G36*
G01*
X176989500Y-120294000D02*
X177340500Y-120294000D01*
G75*
G02*
X177516000Y-120469500I0J-175500D01*
G01*
X177516000Y-122270500D01*
G75*
G02*
X177340500Y-122446000I-175500J0D01*
G01*
X176989500Y-122446000D01*
G75*
G02*
X176814000Y-122270500I0J175500D01*
G01*
X176814000Y-120469500D01*
G75*
G02*
X176989500Y-120294000I175500J0D01*
G01*
G37*
G36*
G01*
X175719500Y-120294000D02*
X176070500Y-120294000D01*
G75*
G02*
X176246000Y-120469500I0J-175500D01*
G01*
X176246000Y-122270500D01*
G75*
G02*
X176070500Y-122446000I-175500J0D01*
G01*
X175719500Y-122446000D01*
G75*
G02*
X175544000Y-122270500I0J175500D01*
G01*
X175544000Y-120469500D01*
G75*
G02*
X175719500Y-120294000I175500J0D01*
G01*
G37*
G36*
G01*
X174449500Y-120294000D02*
X174800500Y-120294000D01*
G75*
G02*
X174976000Y-120469500I0J-175500D01*
G01*
X174976000Y-122270500D01*
G75*
G02*
X174800500Y-122446000I-175500J0D01*
G01*
X174449500Y-122446000D01*
G75*
G02*
X174274000Y-122270500I0J175500D01*
G01*
X174274000Y-120469500D01*
G75*
G02*
X174449500Y-120294000I175500J0D01*
G01*
G37*
G36*
G01*
X173179500Y-120294000D02*
X173530500Y-120294000D01*
G75*
G02*
X173706000Y-120469500I0J-175500D01*
G01*
X173706000Y-122270500D01*
G75*
G02*
X173530500Y-122446000I-175500J0D01*
G01*
X173179500Y-122446000D01*
G75*
G02*
X173004000Y-122270500I0J175500D01*
G01*
X173004000Y-120469500D01*
G75*
G02*
X173179500Y-120294000I175500J0D01*
G01*
G37*
G36*
G01*
X171909500Y-120294000D02*
X172260500Y-120294000D01*
G75*
G02*
X172436000Y-120469500I0J-175500D01*
G01*
X172436000Y-122270500D01*
G75*
G02*
X172260500Y-122446000I-175500J0D01*
G01*
X171909500Y-122446000D01*
G75*
G02*
X171734000Y-122270500I0J175500D01*
G01*
X171734000Y-120469500D01*
G75*
G02*
X171909500Y-120294000I175500J0D01*
G01*
G37*
G36*
G01*
X170639500Y-120294000D02*
X170990500Y-120294000D01*
G75*
G02*
X171166000Y-120469500I0J-175500D01*
G01*
X171166000Y-122270500D01*
G75*
G02*
X170990500Y-122446000I-175500J0D01*
G01*
X170639500Y-122446000D01*
G75*
G02*
X170464000Y-122270500I0J175500D01*
G01*
X170464000Y-120469500D01*
G75*
G02*
X170639500Y-120294000I175500J0D01*
G01*
G37*
G36*
G01*
X169369500Y-120294000D02*
X169720500Y-120294000D01*
G75*
G02*
X169896000Y-120469500I0J-175500D01*
G01*
X169896000Y-122270500D01*
G75*
G02*
X169720500Y-122446000I-175500J0D01*
G01*
X169369500Y-122446000D01*
G75*
G02*
X169194000Y-122270500I0J175500D01*
G01*
X169194000Y-120469500D01*
G75*
G02*
X169369500Y-120294000I175500J0D01*
G01*
G37*
G36*
G01*
X168099500Y-120294000D02*
X168450500Y-120294000D01*
G75*
G02*
X168626000Y-120469500I0J-175500D01*
G01*
X168626000Y-122270500D01*
G75*
G02*
X168450500Y-122446000I-175500J0D01*
G01*
X168099500Y-122446000D01*
G75*
G02*
X167924000Y-122270500I0J175500D01*
G01*
X167924000Y-120469500D01*
G75*
G02*
X168099500Y-120294000I175500J0D01*
G01*
G37*
G36*
G01*
X166829500Y-120294000D02*
X167180500Y-120294000D01*
G75*
G02*
X167356000Y-120469500I0J-175500D01*
G01*
X167356000Y-122270500D01*
G75*
G02*
X167180500Y-122446000I-175500J0D01*
G01*
X166829500Y-122446000D01*
G75*
G02*
X166654000Y-122270500I0J175500D01*
G01*
X166654000Y-120469500D01*
G75*
G02*
X166829500Y-120294000I175500J0D01*
G01*
G37*
G36*
G01*
X165559500Y-120294000D02*
X165910500Y-120294000D01*
G75*
G02*
X166086000Y-120469500I0J-175500D01*
G01*
X166086000Y-122270500D01*
G75*
G02*
X165910500Y-122446000I-175500J0D01*
G01*
X165559500Y-122446000D01*
G75*
G02*
X165384000Y-122270500I0J175500D01*
G01*
X165384000Y-120469500D01*
G75*
G02*
X165559500Y-120294000I175500J0D01*
G01*
G37*
G36*
G01*
X165559500Y-110994000D02*
X165910500Y-110994000D01*
G75*
G02*
X166086000Y-111169500I0J-175500D01*
G01*
X166086000Y-112970500D01*
G75*
G02*
X165910500Y-113146000I-175500J0D01*
G01*
X165559500Y-113146000D01*
G75*
G02*
X165384000Y-112970500I0J175500D01*
G01*
X165384000Y-111169500D01*
G75*
G02*
X165559500Y-110994000I175500J0D01*
G01*
G37*
G36*
G01*
X166829500Y-110994000D02*
X167180500Y-110994000D01*
G75*
G02*
X167356000Y-111169500I0J-175500D01*
G01*
X167356000Y-112970500D01*
G75*
G02*
X167180500Y-113146000I-175500J0D01*
G01*
X166829500Y-113146000D01*
G75*
G02*
X166654000Y-112970500I0J175500D01*
G01*
X166654000Y-111169500D01*
G75*
G02*
X166829500Y-110994000I175500J0D01*
G01*
G37*
G36*
G01*
X168099500Y-110994000D02*
X168450500Y-110994000D01*
G75*
G02*
X168626000Y-111169500I0J-175500D01*
G01*
X168626000Y-112970500D01*
G75*
G02*
X168450500Y-113146000I-175500J0D01*
G01*
X168099500Y-113146000D01*
G75*
G02*
X167924000Y-112970500I0J175500D01*
G01*
X167924000Y-111169500D01*
G75*
G02*
X168099500Y-110994000I175500J0D01*
G01*
G37*
G36*
G01*
X169369500Y-110994000D02*
X169720500Y-110994000D01*
G75*
G02*
X169896000Y-111169500I0J-175500D01*
G01*
X169896000Y-112970500D01*
G75*
G02*
X169720500Y-113146000I-175500J0D01*
G01*
X169369500Y-113146000D01*
G75*
G02*
X169194000Y-112970500I0J175500D01*
G01*
X169194000Y-111169500D01*
G75*
G02*
X169369500Y-110994000I175500J0D01*
G01*
G37*
G36*
G01*
X170639500Y-110994000D02*
X170990500Y-110994000D01*
G75*
G02*
X171166000Y-111169500I0J-175500D01*
G01*
X171166000Y-112970500D01*
G75*
G02*
X170990500Y-113146000I-175500J0D01*
G01*
X170639500Y-113146000D01*
G75*
G02*
X170464000Y-112970500I0J175500D01*
G01*
X170464000Y-111169500D01*
G75*
G02*
X170639500Y-110994000I175500J0D01*
G01*
G37*
G36*
G01*
X171909500Y-110994000D02*
X172260500Y-110994000D01*
G75*
G02*
X172436000Y-111169500I0J-175500D01*
G01*
X172436000Y-112970500D01*
G75*
G02*
X172260500Y-113146000I-175500J0D01*
G01*
X171909500Y-113146000D01*
G75*
G02*
X171734000Y-112970500I0J175500D01*
G01*
X171734000Y-111169500D01*
G75*
G02*
X171909500Y-110994000I175500J0D01*
G01*
G37*
G36*
G01*
X173179500Y-110994000D02*
X173530500Y-110994000D01*
G75*
G02*
X173706000Y-111169500I0J-175500D01*
G01*
X173706000Y-112970500D01*
G75*
G02*
X173530500Y-113146000I-175500J0D01*
G01*
X173179500Y-113146000D01*
G75*
G02*
X173004000Y-112970500I0J175500D01*
G01*
X173004000Y-111169500D01*
G75*
G02*
X173179500Y-110994000I175500J0D01*
G01*
G37*
G36*
G01*
X174449500Y-110994000D02*
X174800500Y-110994000D01*
G75*
G02*
X174976000Y-111169500I0J-175500D01*
G01*
X174976000Y-112970500D01*
G75*
G02*
X174800500Y-113146000I-175500J0D01*
G01*
X174449500Y-113146000D01*
G75*
G02*
X174274000Y-112970500I0J175500D01*
G01*
X174274000Y-111169500D01*
G75*
G02*
X174449500Y-110994000I175500J0D01*
G01*
G37*
G36*
G01*
X175719500Y-110994000D02*
X176070500Y-110994000D01*
G75*
G02*
X176246000Y-111169500I0J-175500D01*
G01*
X176246000Y-112970500D01*
G75*
G02*
X176070500Y-113146000I-175500J0D01*
G01*
X175719500Y-113146000D01*
G75*
G02*
X175544000Y-112970500I0J175500D01*
G01*
X175544000Y-111169500D01*
G75*
G02*
X175719500Y-110994000I175500J0D01*
G01*
G37*
G36*
G01*
X176989500Y-110994000D02*
X177340500Y-110994000D01*
G75*
G02*
X177516000Y-111169500I0J-175500D01*
G01*
X177516000Y-112970500D01*
G75*
G02*
X177340500Y-113146000I-175500J0D01*
G01*
X176989500Y-113146000D01*
G75*
G02*
X176814000Y-112970500I0J175500D01*
G01*
X176814000Y-111169500D01*
G75*
G02*
X176989500Y-110994000I175500J0D01*
G01*
G37*
G36*
G01*
X178259500Y-110994000D02*
X178610500Y-110994000D01*
G75*
G02*
X178786000Y-111169500I0J-175500D01*
G01*
X178786000Y-112970500D01*
G75*
G02*
X178610500Y-113146000I-175500J0D01*
G01*
X178259500Y-113146000D01*
G75*
G02*
X178084000Y-112970500I0J175500D01*
G01*
X178084000Y-111169500D01*
G75*
G02*
X178259500Y-110994000I175500J0D01*
G01*
G37*
G36*
G01*
X179529500Y-110994000D02*
X179880500Y-110994000D01*
G75*
G02*
X180056000Y-111169500I0J-175500D01*
G01*
X180056000Y-112970500D01*
G75*
G02*
X179880500Y-113146000I-175500J0D01*
G01*
X179529500Y-113146000D01*
G75*
G02*
X179354000Y-112970500I0J175500D01*
G01*
X179354000Y-111169500D01*
G75*
G02*
X179529500Y-110994000I175500J0D01*
G01*
G37*
G36*
G01*
X138889500Y-120294000D02*
X139240500Y-120294000D01*
G75*
G02*
X139416000Y-120469500I0J-175500D01*
G01*
X139416000Y-122270500D01*
G75*
G02*
X139240500Y-122446000I-175500J0D01*
G01*
X138889500Y-122446000D01*
G75*
G02*
X138714000Y-122270500I0J175500D01*
G01*
X138714000Y-120469500D01*
G75*
G02*
X138889500Y-120294000I175500J0D01*
G01*
G37*
G36*
G01*
X137619500Y-120294000D02*
X137970500Y-120294000D01*
G75*
G02*
X138146000Y-120469500I0J-175500D01*
G01*
X138146000Y-122270500D01*
G75*
G02*
X137970500Y-122446000I-175500J0D01*
G01*
X137619500Y-122446000D01*
G75*
G02*
X137444000Y-122270500I0J175500D01*
G01*
X137444000Y-120469500D01*
G75*
G02*
X137619500Y-120294000I175500J0D01*
G01*
G37*
G36*
G01*
X136349500Y-120294000D02*
X136700500Y-120294000D01*
G75*
G02*
X136876000Y-120469500I0J-175500D01*
G01*
X136876000Y-122270500D01*
G75*
G02*
X136700500Y-122446000I-175500J0D01*
G01*
X136349500Y-122446000D01*
G75*
G02*
X136174000Y-122270500I0J175500D01*
G01*
X136174000Y-120469500D01*
G75*
G02*
X136349500Y-120294000I175500J0D01*
G01*
G37*
G36*
G01*
X135079500Y-120294000D02*
X135430500Y-120294000D01*
G75*
G02*
X135606000Y-120469500I0J-175500D01*
G01*
X135606000Y-122270500D01*
G75*
G02*
X135430500Y-122446000I-175500J0D01*
G01*
X135079500Y-122446000D01*
G75*
G02*
X134904000Y-122270500I0J175500D01*
G01*
X134904000Y-120469500D01*
G75*
G02*
X135079500Y-120294000I175500J0D01*
G01*
G37*
G36*
G01*
X133809500Y-120294000D02*
X134160500Y-120294000D01*
G75*
G02*
X134336000Y-120469500I0J-175500D01*
G01*
X134336000Y-122270500D01*
G75*
G02*
X134160500Y-122446000I-175500J0D01*
G01*
X133809500Y-122446000D01*
G75*
G02*
X133634000Y-122270500I0J175500D01*
G01*
X133634000Y-120469500D01*
G75*
G02*
X133809500Y-120294000I175500J0D01*
G01*
G37*
G36*
G01*
X132539500Y-120294000D02*
X132890500Y-120294000D01*
G75*
G02*
X133066000Y-120469500I0J-175500D01*
G01*
X133066000Y-122270500D01*
G75*
G02*
X132890500Y-122446000I-175500J0D01*
G01*
X132539500Y-122446000D01*
G75*
G02*
X132364000Y-122270500I0J175500D01*
G01*
X132364000Y-120469500D01*
G75*
G02*
X132539500Y-120294000I175500J0D01*
G01*
G37*
G36*
G01*
X131269500Y-120294000D02*
X131620500Y-120294000D01*
G75*
G02*
X131796000Y-120469500I0J-175500D01*
G01*
X131796000Y-122270500D01*
G75*
G02*
X131620500Y-122446000I-175500J0D01*
G01*
X131269500Y-122446000D01*
G75*
G02*
X131094000Y-122270500I0J175500D01*
G01*
X131094000Y-120469500D01*
G75*
G02*
X131269500Y-120294000I175500J0D01*
G01*
G37*
G36*
G01*
X129999500Y-120294000D02*
X130350500Y-120294000D01*
G75*
G02*
X130526000Y-120469500I0J-175500D01*
G01*
X130526000Y-122270500D01*
G75*
G02*
X130350500Y-122446000I-175500J0D01*
G01*
X129999500Y-122446000D01*
G75*
G02*
X129824000Y-122270500I0J175500D01*
G01*
X129824000Y-120469500D01*
G75*
G02*
X129999500Y-120294000I175500J0D01*
G01*
G37*
G36*
G01*
X128729500Y-120294000D02*
X129080500Y-120294000D01*
G75*
G02*
X129256000Y-120469500I0J-175500D01*
G01*
X129256000Y-122270500D01*
G75*
G02*
X129080500Y-122446000I-175500J0D01*
G01*
X128729500Y-122446000D01*
G75*
G02*
X128554000Y-122270500I0J175500D01*
G01*
X128554000Y-120469500D01*
G75*
G02*
X128729500Y-120294000I175500J0D01*
G01*
G37*
G36*
G01*
X127459500Y-120294000D02*
X127810500Y-120294000D01*
G75*
G02*
X127986000Y-120469500I0J-175500D01*
G01*
X127986000Y-122270500D01*
G75*
G02*
X127810500Y-122446000I-175500J0D01*
G01*
X127459500Y-122446000D01*
G75*
G02*
X127284000Y-122270500I0J175500D01*
G01*
X127284000Y-120469500D01*
G75*
G02*
X127459500Y-120294000I175500J0D01*
G01*
G37*
G36*
G01*
X126189500Y-120294000D02*
X126540500Y-120294000D01*
G75*
G02*
X126716000Y-120469500I0J-175500D01*
G01*
X126716000Y-122270500D01*
G75*
G02*
X126540500Y-122446000I-175500J0D01*
G01*
X126189500Y-122446000D01*
G75*
G02*
X126014000Y-122270500I0J175500D01*
G01*
X126014000Y-120469500D01*
G75*
G02*
X126189500Y-120294000I175500J0D01*
G01*
G37*
G36*
G01*
X124919500Y-120294000D02*
X125270500Y-120294000D01*
G75*
G02*
X125446000Y-120469500I0J-175500D01*
G01*
X125446000Y-122270500D01*
G75*
G02*
X125270500Y-122446000I-175500J0D01*
G01*
X124919500Y-122446000D01*
G75*
G02*
X124744000Y-122270500I0J175500D01*
G01*
X124744000Y-120469500D01*
G75*
G02*
X124919500Y-120294000I175500J0D01*
G01*
G37*
G36*
G01*
X124919500Y-110994000D02*
X125270500Y-110994000D01*
G75*
G02*
X125446000Y-111169500I0J-175500D01*
G01*
X125446000Y-112970500D01*
G75*
G02*
X125270500Y-113146000I-175500J0D01*
G01*
X124919500Y-113146000D01*
G75*
G02*
X124744000Y-112970500I0J175500D01*
G01*
X124744000Y-111169500D01*
G75*
G02*
X124919500Y-110994000I175500J0D01*
G01*
G37*
G36*
G01*
X126189500Y-110994000D02*
X126540500Y-110994000D01*
G75*
G02*
X126716000Y-111169500I0J-175500D01*
G01*
X126716000Y-112970500D01*
G75*
G02*
X126540500Y-113146000I-175500J0D01*
G01*
X126189500Y-113146000D01*
G75*
G02*
X126014000Y-112970500I0J175500D01*
G01*
X126014000Y-111169500D01*
G75*
G02*
X126189500Y-110994000I175500J0D01*
G01*
G37*
G36*
G01*
X127459500Y-110994000D02*
X127810500Y-110994000D01*
G75*
G02*
X127986000Y-111169500I0J-175500D01*
G01*
X127986000Y-112970500D01*
G75*
G02*
X127810500Y-113146000I-175500J0D01*
G01*
X127459500Y-113146000D01*
G75*
G02*
X127284000Y-112970500I0J175500D01*
G01*
X127284000Y-111169500D01*
G75*
G02*
X127459500Y-110994000I175500J0D01*
G01*
G37*
G36*
G01*
X128729500Y-110994000D02*
X129080500Y-110994000D01*
G75*
G02*
X129256000Y-111169500I0J-175500D01*
G01*
X129256000Y-112970500D01*
G75*
G02*
X129080500Y-113146000I-175500J0D01*
G01*
X128729500Y-113146000D01*
G75*
G02*
X128554000Y-112970500I0J175500D01*
G01*
X128554000Y-111169500D01*
G75*
G02*
X128729500Y-110994000I175500J0D01*
G01*
G37*
G36*
G01*
X129999500Y-110994000D02*
X130350500Y-110994000D01*
G75*
G02*
X130526000Y-111169500I0J-175500D01*
G01*
X130526000Y-112970500D01*
G75*
G02*
X130350500Y-113146000I-175500J0D01*
G01*
X129999500Y-113146000D01*
G75*
G02*
X129824000Y-112970500I0J175500D01*
G01*
X129824000Y-111169500D01*
G75*
G02*
X129999500Y-110994000I175500J0D01*
G01*
G37*
G36*
G01*
X131269500Y-110994000D02*
X131620500Y-110994000D01*
G75*
G02*
X131796000Y-111169500I0J-175500D01*
G01*
X131796000Y-112970500D01*
G75*
G02*
X131620500Y-113146000I-175500J0D01*
G01*
X131269500Y-113146000D01*
G75*
G02*
X131094000Y-112970500I0J175500D01*
G01*
X131094000Y-111169500D01*
G75*
G02*
X131269500Y-110994000I175500J0D01*
G01*
G37*
G36*
G01*
X132539500Y-110994000D02*
X132890500Y-110994000D01*
G75*
G02*
X133066000Y-111169500I0J-175500D01*
G01*
X133066000Y-112970500D01*
G75*
G02*
X132890500Y-113146000I-175500J0D01*
G01*
X132539500Y-113146000D01*
G75*
G02*
X132364000Y-112970500I0J175500D01*
G01*
X132364000Y-111169500D01*
G75*
G02*
X132539500Y-110994000I175500J0D01*
G01*
G37*
G36*
G01*
X133809500Y-110994000D02*
X134160500Y-110994000D01*
G75*
G02*
X134336000Y-111169500I0J-175500D01*
G01*
X134336000Y-112970500D01*
G75*
G02*
X134160500Y-113146000I-175500J0D01*
G01*
X133809500Y-113146000D01*
G75*
G02*
X133634000Y-112970500I0J175500D01*
G01*
X133634000Y-111169500D01*
G75*
G02*
X133809500Y-110994000I175500J0D01*
G01*
G37*
G36*
G01*
X135079500Y-110994000D02*
X135430500Y-110994000D01*
G75*
G02*
X135606000Y-111169500I0J-175500D01*
G01*
X135606000Y-112970500D01*
G75*
G02*
X135430500Y-113146000I-175500J0D01*
G01*
X135079500Y-113146000D01*
G75*
G02*
X134904000Y-112970500I0J175500D01*
G01*
X134904000Y-111169500D01*
G75*
G02*
X135079500Y-110994000I175500J0D01*
G01*
G37*
G36*
G01*
X136349500Y-110994000D02*
X136700500Y-110994000D01*
G75*
G02*
X136876000Y-111169500I0J-175500D01*
G01*
X136876000Y-112970500D01*
G75*
G02*
X136700500Y-113146000I-175500J0D01*
G01*
X136349500Y-113146000D01*
G75*
G02*
X136174000Y-112970500I0J175500D01*
G01*
X136174000Y-111169500D01*
G75*
G02*
X136349500Y-110994000I175500J0D01*
G01*
G37*
G36*
G01*
X137619500Y-110994000D02*
X137970500Y-110994000D01*
G75*
G02*
X138146000Y-111169500I0J-175500D01*
G01*
X138146000Y-112970500D01*
G75*
G02*
X137970500Y-113146000I-175500J0D01*
G01*
X137619500Y-113146000D01*
G75*
G02*
X137444000Y-112970500I0J175500D01*
G01*
X137444000Y-111169500D01*
G75*
G02*
X137619500Y-110994000I175500J0D01*
G01*
G37*
G36*
G01*
X138889500Y-110994000D02*
X139240500Y-110994000D01*
G75*
G02*
X139416000Y-111169500I0J-175500D01*
G01*
X139416000Y-112970500D01*
G75*
G02*
X139240500Y-113146000I-175500J0D01*
G01*
X138889500Y-113146000D01*
G75*
G02*
X138714000Y-112970500I0J175500D01*
G01*
X138714000Y-111169500D01*
G75*
G02*
X138889500Y-110994000I175500J0D01*
G01*
G37*
G36*
G01*
X118569500Y-120414000D02*
X118920500Y-120414000D01*
G75*
G02*
X119096000Y-120589500I0J-175500D01*
G01*
X119096000Y-122390500D01*
G75*
G02*
X118920500Y-122566000I-175500J0D01*
G01*
X118569500Y-122566000D01*
G75*
G02*
X118394000Y-122390500I0J175500D01*
G01*
X118394000Y-120589500D01*
G75*
G02*
X118569500Y-120414000I175500J0D01*
G01*
G37*
G36*
G01*
X117299500Y-120414000D02*
X117650500Y-120414000D01*
G75*
G02*
X117826000Y-120589500I0J-175500D01*
G01*
X117826000Y-122390500D01*
G75*
G02*
X117650500Y-122566000I-175500J0D01*
G01*
X117299500Y-122566000D01*
G75*
G02*
X117124000Y-122390500I0J175500D01*
G01*
X117124000Y-120589500D01*
G75*
G02*
X117299500Y-120414000I175500J0D01*
G01*
G37*
G36*
G01*
X116029500Y-120414000D02*
X116380500Y-120414000D01*
G75*
G02*
X116556000Y-120589500I0J-175500D01*
G01*
X116556000Y-122390500D01*
G75*
G02*
X116380500Y-122566000I-175500J0D01*
G01*
X116029500Y-122566000D01*
G75*
G02*
X115854000Y-122390500I0J175500D01*
G01*
X115854000Y-120589500D01*
G75*
G02*
X116029500Y-120414000I175500J0D01*
G01*
G37*
G36*
G01*
X114759500Y-120414000D02*
X115110500Y-120414000D01*
G75*
G02*
X115286000Y-120589500I0J-175500D01*
G01*
X115286000Y-122390500D01*
G75*
G02*
X115110500Y-122566000I-175500J0D01*
G01*
X114759500Y-122566000D01*
G75*
G02*
X114584000Y-122390500I0J175500D01*
G01*
X114584000Y-120589500D01*
G75*
G02*
X114759500Y-120414000I175500J0D01*
G01*
G37*
G36*
G01*
X113489500Y-120414000D02*
X113840500Y-120414000D01*
G75*
G02*
X114016000Y-120589500I0J-175500D01*
G01*
X114016000Y-122390500D01*
G75*
G02*
X113840500Y-122566000I-175500J0D01*
G01*
X113489500Y-122566000D01*
G75*
G02*
X113314000Y-122390500I0J175500D01*
G01*
X113314000Y-120589500D01*
G75*
G02*
X113489500Y-120414000I175500J0D01*
G01*
G37*
G36*
G01*
X112219500Y-120414000D02*
X112570500Y-120414000D01*
G75*
G02*
X112746000Y-120589500I0J-175500D01*
G01*
X112746000Y-122390500D01*
G75*
G02*
X112570500Y-122566000I-175500J0D01*
G01*
X112219500Y-122566000D01*
G75*
G02*
X112044000Y-122390500I0J175500D01*
G01*
X112044000Y-120589500D01*
G75*
G02*
X112219500Y-120414000I175500J0D01*
G01*
G37*
G36*
G01*
X110949500Y-120414000D02*
X111300500Y-120414000D01*
G75*
G02*
X111476000Y-120589500I0J-175500D01*
G01*
X111476000Y-122390500D01*
G75*
G02*
X111300500Y-122566000I-175500J0D01*
G01*
X110949500Y-122566000D01*
G75*
G02*
X110774000Y-122390500I0J175500D01*
G01*
X110774000Y-120589500D01*
G75*
G02*
X110949500Y-120414000I175500J0D01*
G01*
G37*
G36*
G01*
X109679500Y-120414000D02*
X110030500Y-120414000D01*
G75*
G02*
X110206000Y-120589500I0J-175500D01*
G01*
X110206000Y-122390500D01*
G75*
G02*
X110030500Y-122566000I-175500J0D01*
G01*
X109679500Y-122566000D01*
G75*
G02*
X109504000Y-122390500I0J175500D01*
G01*
X109504000Y-120589500D01*
G75*
G02*
X109679500Y-120414000I175500J0D01*
G01*
G37*
G36*
G01*
X108409500Y-120414000D02*
X108760500Y-120414000D01*
G75*
G02*
X108936000Y-120589500I0J-175500D01*
G01*
X108936000Y-122390500D01*
G75*
G02*
X108760500Y-122566000I-175500J0D01*
G01*
X108409500Y-122566000D01*
G75*
G02*
X108234000Y-122390500I0J175500D01*
G01*
X108234000Y-120589500D01*
G75*
G02*
X108409500Y-120414000I175500J0D01*
G01*
G37*
G36*
G01*
X107139500Y-120414000D02*
X107490500Y-120414000D01*
G75*
G02*
X107666000Y-120589500I0J-175500D01*
G01*
X107666000Y-122390500D01*
G75*
G02*
X107490500Y-122566000I-175500J0D01*
G01*
X107139500Y-122566000D01*
G75*
G02*
X106964000Y-122390500I0J175500D01*
G01*
X106964000Y-120589500D01*
G75*
G02*
X107139500Y-120414000I175500J0D01*
G01*
G37*
G36*
G01*
X105869500Y-120414000D02*
X106220500Y-120414000D01*
G75*
G02*
X106396000Y-120589500I0J-175500D01*
G01*
X106396000Y-122390500D01*
G75*
G02*
X106220500Y-122566000I-175500J0D01*
G01*
X105869500Y-122566000D01*
G75*
G02*
X105694000Y-122390500I0J175500D01*
G01*
X105694000Y-120589500D01*
G75*
G02*
X105869500Y-120414000I175500J0D01*
G01*
G37*
G36*
G01*
X104599500Y-120414000D02*
X104950500Y-120414000D01*
G75*
G02*
X105126000Y-120589500I0J-175500D01*
G01*
X105126000Y-122390500D01*
G75*
G02*
X104950500Y-122566000I-175500J0D01*
G01*
X104599500Y-122566000D01*
G75*
G02*
X104424000Y-122390500I0J175500D01*
G01*
X104424000Y-120589500D01*
G75*
G02*
X104599500Y-120414000I175500J0D01*
G01*
G37*
G36*
G01*
X104599500Y-111114000D02*
X104950500Y-111114000D01*
G75*
G02*
X105126000Y-111289500I0J-175500D01*
G01*
X105126000Y-113090500D01*
G75*
G02*
X104950500Y-113266000I-175500J0D01*
G01*
X104599500Y-113266000D01*
G75*
G02*
X104424000Y-113090500I0J175500D01*
G01*
X104424000Y-111289500D01*
G75*
G02*
X104599500Y-111114000I175500J0D01*
G01*
G37*
G36*
G01*
X105869500Y-111114000D02*
X106220500Y-111114000D01*
G75*
G02*
X106396000Y-111289500I0J-175500D01*
G01*
X106396000Y-113090500D01*
G75*
G02*
X106220500Y-113266000I-175500J0D01*
G01*
X105869500Y-113266000D01*
G75*
G02*
X105694000Y-113090500I0J175500D01*
G01*
X105694000Y-111289500D01*
G75*
G02*
X105869500Y-111114000I175500J0D01*
G01*
G37*
G36*
G01*
X107139500Y-111114000D02*
X107490500Y-111114000D01*
G75*
G02*
X107666000Y-111289500I0J-175500D01*
G01*
X107666000Y-113090500D01*
G75*
G02*
X107490500Y-113266000I-175500J0D01*
G01*
X107139500Y-113266000D01*
G75*
G02*
X106964000Y-113090500I0J175500D01*
G01*
X106964000Y-111289500D01*
G75*
G02*
X107139500Y-111114000I175500J0D01*
G01*
G37*
G36*
G01*
X108409500Y-111114000D02*
X108760500Y-111114000D01*
G75*
G02*
X108936000Y-111289500I0J-175500D01*
G01*
X108936000Y-113090500D01*
G75*
G02*
X108760500Y-113266000I-175500J0D01*
G01*
X108409500Y-113266000D01*
G75*
G02*
X108234000Y-113090500I0J175500D01*
G01*
X108234000Y-111289500D01*
G75*
G02*
X108409500Y-111114000I175500J0D01*
G01*
G37*
G36*
G01*
X109679500Y-111114000D02*
X110030500Y-111114000D01*
G75*
G02*
X110206000Y-111289500I0J-175500D01*
G01*
X110206000Y-113090500D01*
G75*
G02*
X110030500Y-113266000I-175500J0D01*
G01*
X109679500Y-113266000D01*
G75*
G02*
X109504000Y-113090500I0J175500D01*
G01*
X109504000Y-111289500D01*
G75*
G02*
X109679500Y-111114000I175500J0D01*
G01*
G37*
G36*
G01*
X110949500Y-111114000D02*
X111300500Y-111114000D01*
G75*
G02*
X111476000Y-111289500I0J-175500D01*
G01*
X111476000Y-113090500D01*
G75*
G02*
X111300500Y-113266000I-175500J0D01*
G01*
X110949500Y-113266000D01*
G75*
G02*
X110774000Y-113090500I0J175500D01*
G01*
X110774000Y-111289500D01*
G75*
G02*
X110949500Y-111114000I175500J0D01*
G01*
G37*
G36*
G01*
X112219500Y-111114000D02*
X112570500Y-111114000D01*
G75*
G02*
X112746000Y-111289500I0J-175500D01*
G01*
X112746000Y-113090500D01*
G75*
G02*
X112570500Y-113266000I-175500J0D01*
G01*
X112219500Y-113266000D01*
G75*
G02*
X112044000Y-113090500I0J175500D01*
G01*
X112044000Y-111289500D01*
G75*
G02*
X112219500Y-111114000I175500J0D01*
G01*
G37*
G36*
G01*
X113489500Y-111114000D02*
X113840500Y-111114000D01*
G75*
G02*
X114016000Y-111289500I0J-175500D01*
G01*
X114016000Y-113090500D01*
G75*
G02*
X113840500Y-113266000I-175500J0D01*
G01*
X113489500Y-113266000D01*
G75*
G02*
X113314000Y-113090500I0J175500D01*
G01*
X113314000Y-111289500D01*
G75*
G02*
X113489500Y-111114000I175500J0D01*
G01*
G37*
G36*
G01*
X114759500Y-111114000D02*
X115110500Y-111114000D01*
G75*
G02*
X115286000Y-111289500I0J-175500D01*
G01*
X115286000Y-113090500D01*
G75*
G02*
X115110500Y-113266000I-175500J0D01*
G01*
X114759500Y-113266000D01*
G75*
G02*
X114584000Y-113090500I0J175500D01*
G01*
X114584000Y-111289500D01*
G75*
G02*
X114759500Y-111114000I175500J0D01*
G01*
G37*
G36*
G01*
X116029500Y-111114000D02*
X116380500Y-111114000D01*
G75*
G02*
X116556000Y-111289500I0J-175500D01*
G01*
X116556000Y-113090500D01*
G75*
G02*
X116380500Y-113266000I-175500J0D01*
G01*
X116029500Y-113266000D01*
G75*
G02*
X115854000Y-113090500I0J175500D01*
G01*
X115854000Y-111289500D01*
G75*
G02*
X116029500Y-111114000I175500J0D01*
G01*
G37*
G36*
G01*
X117299500Y-111114000D02*
X117650500Y-111114000D01*
G75*
G02*
X117826000Y-111289500I0J-175500D01*
G01*
X117826000Y-113090500D01*
G75*
G02*
X117650500Y-113266000I-175500J0D01*
G01*
X117299500Y-113266000D01*
G75*
G02*
X117124000Y-113090500I0J175500D01*
G01*
X117124000Y-111289500D01*
G75*
G02*
X117299500Y-111114000I175500J0D01*
G01*
G37*
G36*
G01*
X118569500Y-111114000D02*
X118920500Y-111114000D01*
G75*
G02*
X119096000Y-111289500I0J-175500D01*
G01*
X119096000Y-113090500D01*
G75*
G02*
X118920500Y-113266000I-175500J0D01*
G01*
X118569500Y-113266000D01*
G75*
G02*
X118394000Y-113090500I0J175500D01*
G01*
X118394000Y-111289500D01*
G75*
G02*
X118569500Y-111114000I175500J0D01*
G01*
G37*
G36*
G01*
X159209500Y-100094000D02*
X159560500Y-100094000D01*
G75*
G02*
X159736000Y-100269500I0J-175500D01*
G01*
X159736000Y-102070500D01*
G75*
G02*
X159560500Y-102246000I-175500J0D01*
G01*
X159209500Y-102246000D01*
G75*
G02*
X159034000Y-102070500I0J175500D01*
G01*
X159034000Y-100269500D01*
G75*
G02*
X159209500Y-100094000I175500J0D01*
G01*
G37*
G36*
G01*
X157939500Y-100094000D02*
X158290500Y-100094000D01*
G75*
G02*
X158466000Y-100269500I0J-175500D01*
G01*
X158466000Y-102070500D01*
G75*
G02*
X158290500Y-102246000I-175500J0D01*
G01*
X157939500Y-102246000D01*
G75*
G02*
X157764000Y-102070500I0J175500D01*
G01*
X157764000Y-100269500D01*
G75*
G02*
X157939500Y-100094000I175500J0D01*
G01*
G37*
G36*
G01*
X156669500Y-100094000D02*
X157020500Y-100094000D01*
G75*
G02*
X157196000Y-100269500I0J-175500D01*
G01*
X157196000Y-102070500D01*
G75*
G02*
X157020500Y-102246000I-175500J0D01*
G01*
X156669500Y-102246000D01*
G75*
G02*
X156494000Y-102070500I0J175500D01*
G01*
X156494000Y-100269500D01*
G75*
G02*
X156669500Y-100094000I175500J0D01*
G01*
G37*
G36*
G01*
X155399500Y-100094000D02*
X155750500Y-100094000D01*
G75*
G02*
X155926000Y-100269500I0J-175500D01*
G01*
X155926000Y-102070500D01*
G75*
G02*
X155750500Y-102246000I-175500J0D01*
G01*
X155399500Y-102246000D01*
G75*
G02*
X155224000Y-102070500I0J175500D01*
G01*
X155224000Y-100269500D01*
G75*
G02*
X155399500Y-100094000I175500J0D01*
G01*
G37*
G36*
G01*
X154129500Y-100094000D02*
X154480500Y-100094000D01*
G75*
G02*
X154656000Y-100269500I0J-175500D01*
G01*
X154656000Y-102070500D01*
G75*
G02*
X154480500Y-102246000I-175500J0D01*
G01*
X154129500Y-102246000D01*
G75*
G02*
X153954000Y-102070500I0J175500D01*
G01*
X153954000Y-100269500D01*
G75*
G02*
X154129500Y-100094000I175500J0D01*
G01*
G37*
G36*
G01*
X152859500Y-100094000D02*
X153210500Y-100094000D01*
G75*
G02*
X153386000Y-100269500I0J-175500D01*
G01*
X153386000Y-102070500D01*
G75*
G02*
X153210500Y-102246000I-175500J0D01*
G01*
X152859500Y-102246000D01*
G75*
G02*
X152684000Y-102070500I0J175500D01*
G01*
X152684000Y-100269500D01*
G75*
G02*
X152859500Y-100094000I175500J0D01*
G01*
G37*
G36*
G01*
X151589500Y-100094000D02*
X151940500Y-100094000D01*
G75*
G02*
X152116000Y-100269500I0J-175500D01*
G01*
X152116000Y-102070500D01*
G75*
G02*
X151940500Y-102246000I-175500J0D01*
G01*
X151589500Y-102246000D01*
G75*
G02*
X151414000Y-102070500I0J175500D01*
G01*
X151414000Y-100269500D01*
G75*
G02*
X151589500Y-100094000I175500J0D01*
G01*
G37*
G36*
G01*
X150319500Y-100094000D02*
X150670500Y-100094000D01*
G75*
G02*
X150846000Y-100269500I0J-175500D01*
G01*
X150846000Y-102070500D01*
G75*
G02*
X150670500Y-102246000I-175500J0D01*
G01*
X150319500Y-102246000D01*
G75*
G02*
X150144000Y-102070500I0J175500D01*
G01*
X150144000Y-100269500D01*
G75*
G02*
X150319500Y-100094000I175500J0D01*
G01*
G37*
G36*
G01*
X149049500Y-100094000D02*
X149400500Y-100094000D01*
G75*
G02*
X149576000Y-100269500I0J-175500D01*
G01*
X149576000Y-102070500D01*
G75*
G02*
X149400500Y-102246000I-175500J0D01*
G01*
X149049500Y-102246000D01*
G75*
G02*
X148874000Y-102070500I0J175500D01*
G01*
X148874000Y-100269500D01*
G75*
G02*
X149049500Y-100094000I175500J0D01*
G01*
G37*
G36*
G01*
X147779500Y-100094000D02*
X148130500Y-100094000D01*
G75*
G02*
X148306000Y-100269500I0J-175500D01*
G01*
X148306000Y-102070500D01*
G75*
G02*
X148130500Y-102246000I-175500J0D01*
G01*
X147779500Y-102246000D01*
G75*
G02*
X147604000Y-102070500I0J175500D01*
G01*
X147604000Y-100269500D01*
G75*
G02*
X147779500Y-100094000I175500J0D01*
G01*
G37*
G36*
G01*
X146509500Y-100094000D02*
X146860500Y-100094000D01*
G75*
G02*
X147036000Y-100269500I0J-175500D01*
G01*
X147036000Y-102070500D01*
G75*
G02*
X146860500Y-102246000I-175500J0D01*
G01*
X146509500Y-102246000D01*
G75*
G02*
X146334000Y-102070500I0J175500D01*
G01*
X146334000Y-100269500D01*
G75*
G02*
X146509500Y-100094000I175500J0D01*
G01*
G37*
G36*
G01*
X145239500Y-100094000D02*
X145590500Y-100094000D01*
G75*
G02*
X145766000Y-100269500I0J-175500D01*
G01*
X145766000Y-102070500D01*
G75*
G02*
X145590500Y-102246000I-175500J0D01*
G01*
X145239500Y-102246000D01*
G75*
G02*
X145064000Y-102070500I0J175500D01*
G01*
X145064000Y-100269500D01*
G75*
G02*
X145239500Y-100094000I175500J0D01*
G01*
G37*
G36*
G01*
X145239500Y-90794000D02*
X145590500Y-90794000D01*
G75*
G02*
X145766000Y-90969500I0J-175500D01*
G01*
X145766000Y-92770500D01*
G75*
G02*
X145590500Y-92946000I-175500J0D01*
G01*
X145239500Y-92946000D01*
G75*
G02*
X145064000Y-92770500I0J175500D01*
G01*
X145064000Y-90969500D01*
G75*
G02*
X145239500Y-90794000I175500J0D01*
G01*
G37*
G36*
G01*
X146509500Y-90794000D02*
X146860500Y-90794000D01*
G75*
G02*
X147036000Y-90969500I0J-175500D01*
G01*
X147036000Y-92770500D01*
G75*
G02*
X146860500Y-92946000I-175500J0D01*
G01*
X146509500Y-92946000D01*
G75*
G02*
X146334000Y-92770500I0J175500D01*
G01*
X146334000Y-90969500D01*
G75*
G02*
X146509500Y-90794000I175500J0D01*
G01*
G37*
G36*
G01*
X147779500Y-90794000D02*
X148130500Y-90794000D01*
G75*
G02*
X148306000Y-90969500I0J-175500D01*
G01*
X148306000Y-92770500D01*
G75*
G02*
X148130500Y-92946000I-175500J0D01*
G01*
X147779500Y-92946000D01*
G75*
G02*
X147604000Y-92770500I0J175500D01*
G01*
X147604000Y-90969500D01*
G75*
G02*
X147779500Y-90794000I175500J0D01*
G01*
G37*
G36*
G01*
X149049500Y-90794000D02*
X149400500Y-90794000D01*
G75*
G02*
X149576000Y-90969500I0J-175500D01*
G01*
X149576000Y-92770500D01*
G75*
G02*
X149400500Y-92946000I-175500J0D01*
G01*
X149049500Y-92946000D01*
G75*
G02*
X148874000Y-92770500I0J175500D01*
G01*
X148874000Y-90969500D01*
G75*
G02*
X149049500Y-90794000I175500J0D01*
G01*
G37*
G36*
G01*
X150319500Y-90794000D02*
X150670500Y-90794000D01*
G75*
G02*
X150846000Y-90969500I0J-175500D01*
G01*
X150846000Y-92770500D01*
G75*
G02*
X150670500Y-92946000I-175500J0D01*
G01*
X150319500Y-92946000D01*
G75*
G02*
X150144000Y-92770500I0J175500D01*
G01*
X150144000Y-90969500D01*
G75*
G02*
X150319500Y-90794000I175500J0D01*
G01*
G37*
G36*
G01*
X151589500Y-90794000D02*
X151940500Y-90794000D01*
G75*
G02*
X152116000Y-90969500I0J-175500D01*
G01*
X152116000Y-92770500D01*
G75*
G02*
X151940500Y-92946000I-175500J0D01*
G01*
X151589500Y-92946000D01*
G75*
G02*
X151414000Y-92770500I0J175500D01*
G01*
X151414000Y-90969500D01*
G75*
G02*
X151589500Y-90794000I175500J0D01*
G01*
G37*
G36*
G01*
X152859500Y-90794000D02*
X153210500Y-90794000D01*
G75*
G02*
X153386000Y-90969500I0J-175500D01*
G01*
X153386000Y-92770500D01*
G75*
G02*
X153210500Y-92946000I-175500J0D01*
G01*
X152859500Y-92946000D01*
G75*
G02*
X152684000Y-92770500I0J175500D01*
G01*
X152684000Y-90969500D01*
G75*
G02*
X152859500Y-90794000I175500J0D01*
G01*
G37*
G36*
G01*
X154129500Y-90794000D02*
X154480500Y-90794000D01*
G75*
G02*
X154656000Y-90969500I0J-175500D01*
G01*
X154656000Y-92770500D01*
G75*
G02*
X154480500Y-92946000I-175500J0D01*
G01*
X154129500Y-92946000D01*
G75*
G02*
X153954000Y-92770500I0J175500D01*
G01*
X153954000Y-90969500D01*
G75*
G02*
X154129500Y-90794000I175500J0D01*
G01*
G37*
G36*
G01*
X155399500Y-90794000D02*
X155750500Y-90794000D01*
G75*
G02*
X155926000Y-90969500I0J-175500D01*
G01*
X155926000Y-92770500D01*
G75*
G02*
X155750500Y-92946000I-175500J0D01*
G01*
X155399500Y-92946000D01*
G75*
G02*
X155224000Y-92770500I0J175500D01*
G01*
X155224000Y-90969500D01*
G75*
G02*
X155399500Y-90794000I175500J0D01*
G01*
G37*
G36*
G01*
X156669500Y-90794000D02*
X157020500Y-90794000D01*
G75*
G02*
X157196000Y-90969500I0J-175500D01*
G01*
X157196000Y-92770500D01*
G75*
G02*
X157020500Y-92946000I-175500J0D01*
G01*
X156669500Y-92946000D01*
G75*
G02*
X156494000Y-92770500I0J175500D01*
G01*
X156494000Y-90969500D01*
G75*
G02*
X156669500Y-90794000I175500J0D01*
G01*
G37*
G36*
G01*
X157939500Y-90794000D02*
X158290500Y-90794000D01*
G75*
G02*
X158466000Y-90969500I0J-175500D01*
G01*
X158466000Y-92770500D01*
G75*
G02*
X158290500Y-92946000I-175500J0D01*
G01*
X157939500Y-92946000D01*
G75*
G02*
X157764000Y-92770500I0J175500D01*
G01*
X157764000Y-90969500D01*
G75*
G02*
X157939500Y-90794000I175500J0D01*
G01*
G37*
G36*
G01*
X159209500Y-90794000D02*
X159560500Y-90794000D01*
G75*
G02*
X159736000Y-90969500I0J-175500D01*
G01*
X159736000Y-92770500D01*
G75*
G02*
X159560500Y-92946000I-175500J0D01*
G01*
X159209500Y-92946000D01*
G75*
G02*
X159034000Y-92770500I0J175500D01*
G01*
X159034000Y-90969500D01*
G75*
G02*
X159209500Y-90794000I175500J0D01*
G01*
G37*
G36*
G01*
X138889500Y-100094000D02*
X139240500Y-100094000D01*
G75*
G02*
X139416000Y-100269500I0J-175500D01*
G01*
X139416000Y-102070500D01*
G75*
G02*
X139240500Y-102246000I-175500J0D01*
G01*
X138889500Y-102246000D01*
G75*
G02*
X138714000Y-102070500I0J175500D01*
G01*
X138714000Y-100269500D01*
G75*
G02*
X138889500Y-100094000I175500J0D01*
G01*
G37*
G36*
G01*
X137619500Y-100094000D02*
X137970500Y-100094000D01*
G75*
G02*
X138146000Y-100269500I0J-175500D01*
G01*
X138146000Y-102070500D01*
G75*
G02*
X137970500Y-102246000I-175500J0D01*
G01*
X137619500Y-102246000D01*
G75*
G02*
X137444000Y-102070500I0J175500D01*
G01*
X137444000Y-100269500D01*
G75*
G02*
X137619500Y-100094000I175500J0D01*
G01*
G37*
G36*
G01*
X136349500Y-100094000D02*
X136700500Y-100094000D01*
G75*
G02*
X136876000Y-100269500I0J-175500D01*
G01*
X136876000Y-102070500D01*
G75*
G02*
X136700500Y-102246000I-175500J0D01*
G01*
X136349500Y-102246000D01*
G75*
G02*
X136174000Y-102070500I0J175500D01*
G01*
X136174000Y-100269500D01*
G75*
G02*
X136349500Y-100094000I175500J0D01*
G01*
G37*
G36*
G01*
X135079500Y-100094000D02*
X135430500Y-100094000D01*
G75*
G02*
X135606000Y-100269500I0J-175500D01*
G01*
X135606000Y-102070500D01*
G75*
G02*
X135430500Y-102246000I-175500J0D01*
G01*
X135079500Y-102246000D01*
G75*
G02*
X134904000Y-102070500I0J175500D01*
G01*
X134904000Y-100269500D01*
G75*
G02*
X135079500Y-100094000I175500J0D01*
G01*
G37*
G36*
G01*
X133809500Y-100094000D02*
X134160500Y-100094000D01*
G75*
G02*
X134336000Y-100269500I0J-175500D01*
G01*
X134336000Y-102070500D01*
G75*
G02*
X134160500Y-102246000I-175500J0D01*
G01*
X133809500Y-102246000D01*
G75*
G02*
X133634000Y-102070500I0J175500D01*
G01*
X133634000Y-100269500D01*
G75*
G02*
X133809500Y-100094000I175500J0D01*
G01*
G37*
G36*
G01*
X132539500Y-100094000D02*
X132890500Y-100094000D01*
G75*
G02*
X133066000Y-100269500I0J-175500D01*
G01*
X133066000Y-102070500D01*
G75*
G02*
X132890500Y-102246000I-175500J0D01*
G01*
X132539500Y-102246000D01*
G75*
G02*
X132364000Y-102070500I0J175500D01*
G01*
X132364000Y-100269500D01*
G75*
G02*
X132539500Y-100094000I175500J0D01*
G01*
G37*
G36*
G01*
X131269500Y-100094000D02*
X131620500Y-100094000D01*
G75*
G02*
X131796000Y-100269500I0J-175500D01*
G01*
X131796000Y-102070500D01*
G75*
G02*
X131620500Y-102246000I-175500J0D01*
G01*
X131269500Y-102246000D01*
G75*
G02*
X131094000Y-102070500I0J175500D01*
G01*
X131094000Y-100269500D01*
G75*
G02*
X131269500Y-100094000I175500J0D01*
G01*
G37*
G36*
G01*
X129999500Y-100094000D02*
X130350500Y-100094000D01*
G75*
G02*
X130526000Y-100269500I0J-175500D01*
G01*
X130526000Y-102070500D01*
G75*
G02*
X130350500Y-102246000I-175500J0D01*
G01*
X129999500Y-102246000D01*
G75*
G02*
X129824000Y-102070500I0J175500D01*
G01*
X129824000Y-100269500D01*
G75*
G02*
X129999500Y-100094000I175500J0D01*
G01*
G37*
G36*
G01*
X128729500Y-100094000D02*
X129080500Y-100094000D01*
G75*
G02*
X129256000Y-100269500I0J-175500D01*
G01*
X129256000Y-102070500D01*
G75*
G02*
X129080500Y-102246000I-175500J0D01*
G01*
X128729500Y-102246000D01*
G75*
G02*
X128554000Y-102070500I0J175500D01*
G01*
X128554000Y-100269500D01*
G75*
G02*
X128729500Y-100094000I175500J0D01*
G01*
G37*
G36*
G01*
X127459500Y-100094000D02*
X127810500Y-100094000D01*
G75*
G02*
X127986000Y-100269500I0J-175500D01*
G01*
X127986000Y-102070500D01*
G75*
G02*
X127810500Y-102246000I-175500J0D01*
G01*
X127459500Y-102246000D01*
G75*
G02*
X127284000Y-102070500I0J175500D01*
G01*
X127284000Y-100269500D01*
G75*
G02*
X127459500Y-100094000I175500J0D01*
G01*
G37*
G36*
G01*
X126189500Y-100094000D02*
X126540500Y-100094000D01*
G75*
G02*
X126716000Y-100269500I0J-175500D01*
G01*
X126716000Y-102070500D01*
G75*
G02*
X126540500Y-102246000I-175500J0D01*
G01*
X126189500Y-102246000D01*
G75*
G02*
X126014000Y-102070500I0J175500D01*
G01*
X126014000Y-100269500D01*
G75*
G02*
X126189500Y-100094000I175500J0D01*
G01*
G37*
G36*
G01*
X124919500Y-100094000D02*
X125270500Y-100094000D01*
G75*
G02*
X125446000Y-100269500I0J-175500D01*
G01*
X125446000Y-102070500D01*
G75*
G02*
X125270500Y-102246000I-175500J0D01*
G01*
X124919500Y-102246000D01*
G75*
G02*
X124744000Y-102070500I0J175500D01*
G01*
X124744000Y-100269500D01*
G75*
G02*
X124919500Y-100094000I175500J0D01*
G01*
G37*
G36*
G01*
X124919500Y-90794000D02*
X125270500Y-90794000D01*
G75*
G02*
X125446000Y-90969500I0J-175500D01*
G01*
X125446000Y-92770500D01*
G75*
G02*
X125270500Y-92946000I-175500J0D01*
G01*
X124919500Y-92946000D01*
G75*
G02*
X124744000Y-92770500I0J175500D01*
G01*
X124744000Y-90969500D01*
G75*
G02*
X124919500Y-90794000I175500J0D01*
G01*
G37*
G36*
G01*
X126189500Y-90794000D02*
X126540500Y-90794000D01*
G75*
G02*
X126716000Y-90969500I0J-175500D01*
G01*
X126716000Y-92770500D01*
G75*
G02*
X126540500Y-92946000I-175500J0D01*
G01*
X126189500Y-92946000D01*
G75*
G02*
X126014000Y-92770500I0J175500D01*
G01*
X126014000Y-90969500D01*
G75*
G02*
X126189500Y-90794000I175500J0D01*
G01*
G37*
G36*
G01*
X127459500Y-90794000D02*
X127810500Y-90794000D01*
G75*
G02*
X127986000Y-90969500I0J-175500D01*
G01*
X127986000Y-92770500D01*
G75*
G02*
X127810500Y-92946000I-175500J0D01*
G01*
X127459500Y-92946000D01*
G75*
G02*
X127284000Y-92770500I0J175500D01*
G01*
X127284000Y-90969500D01*
G75*
G02*
X127459500Y-90794000I175500J0D01*
G01*
G37*
G36*
G01*
X128729500Y-90794000D02*
X129080500Y-90794000D01*
G75*
G02*
X129256000Y-90969500I0J-175500D01*
G01*
X129256000Y-92770500D01*
G75*
G02*
X129080500Y-92946000I-175500J0D01*
G01*
X128729500Y-92946000D01*
G75*
G02*
X128554000Y-92770500I0J175500D01*
G01*
X128554000Y-90969500D01*
G75*
G02*
X128729500Y-90794000I175500J0D01*
G01*
G37*
G36*
G01*
X129999500Y-90794000D02*
X130350500Y-90794000D01*
G75*
G02*
X130526000Y-90969500I0J-175500D01*
G01*
X130526000Y-92770500D01*
G75*
G02*
X130350500Y-92946000I-175500J0D01*
G01*
X129999500Y-92946000D01*
G75*
G02*
X129824000Y-92770500I0J175500D01*
G01*
X129824000Y-90969500D01*
G75*
G02*
X129999500Y-90794000I175500J0D01*
G01*
G37*
G36*
G01*
X131269500Y-90794000D02*
X131620500Y-90794000D01*
G75*
G02*
X131796000Y-90969500I0J-175500D01*
G01*
X131796000Y-92770500D01*
G75*
G02*
X131620500Y-92946000I-175500J0D01*
G01*
X131269500Y-92946000D01*
G75*
G02*
X131094000Y-92770500I0J175500D01*
G01*
X131094000Y-90969500D01*
G75*
G02*
X131269500Y-90794000I175500J0D01*
G01*
G37*
G36*
G01*
X132539500Y-90794000D02*
X132890500Y-90794000D01*
G75*
G02*
X133066000Y-90969500I0J-175500D01*
G01*
X133066000Y-92770500D01*
G75*
G02*
X132890500Y-92946000I-175500J0D01*
G01*
X132539500Y-92946000D01*
G75*
G02*
X132364000Y-92770500I0J175500D01*
G01*
X132364000Y-90969500D01*
G75*
G02*
X132539500Y-90794000I175500J0D01*
G01*
G37*
G36*
G01*
X133809500Y-90794000D02*
X134160500Y-90794000D01*
G75*
G02*
X134336000Y-90969500I0J-175500D01*
G01*
X134336000Y-92770500D01*
G75*
G02*
X134160500Y-92946000I-175500J0D01*
G01*
X133809500Y-92946000D01*
G75*
G02*
X133634000Y-92770500I0J175500D01*
G01*
X133634000Y-90969500D01*
G75*
G02*
X133809500Y-90794000I175500J0D01*
G01*
G37*
G36*
G01*
X135079500Y-90794000D02*
X135430500Y-90794000D01*
G75*
G02*
X135606000Y-90969500I0J-175500D01*
G01*
X135606000Y-92770500D01*
G75*
G02*
X135430500Y-92946000I-175500J0D01*
G01*
X135079500Y-92946000D01*
G75*
G02*
X134904000Y-92770500I0J175500D01*
G01*
X134904000Y-90969500D01*
G75*
G02*
X135079500Y-90794000I175500J0D01*
G01*
G37*
G36*
G01*
X136349500Y-90794000D02*
X136700500Y-90794000D01*
G75*
G02*
X136876000Y-90969500I0J-175500D01*
G01*
X136876000Y-92770500D01*
G75*
G02*
X136700500Y-92946000I-175500J0D01*
G01*
X136349500Y-92946000D01*
G75*
G02*
X136174000Y-92770500I0J175500D01*
G01*
X136174000Y-90969500D01*
G75*
G02*
X136349500Y-90794000I175500J0D01*
G01*
G37*
G36*
G01*
X137619500Y-90794000D02*
X137970500Y-90794000D01*
G75*
G02*
X138146000Y-90969500I0J-175500D01*
G01*
X138146000Y-92770500D01*
G75*
G02*
X137970500Y-92946000I-175500J0D01*
G01*
X137619500Y-92946000D01*
G75*
G02*
X137444000Y-92770500I0J175500D01*
G01*
X137444000Y-90969500D01*
G75*
G02*
X137619500Y-90794000I175500J0D01*
G01*
G37*
G36*
G01*
X138889500Y-90794000D02*
X139240500Y-90794000D01*
G75*
G02*
X139416000Y-90969500I0J-175500D01*
G01*
X139416000Y-92770500D01*
G75*
G02*
X139240500Y-92946000I-175500J0D01*
G01*
X138889500Y-92946000D01*
G75*
G02*
X138714000Y-92770500I0J175500D01*
G01*
X138714000Y-90969500D01*
G75*
G02*
X138889500Y-90794000I175500J0D01*
G01*
G37*
G36*
G01*
X118569500Y-100094000D02*
X118920500Y-100094000D01*
G75*
G02*
X119096000Y-100269500I0J-175500D01*
G01*
X119096000Y-102070500D01*
G75*
G02*
X118920500Y-102246000I-175500J0D01*
G01*
X118569500Y-102246000D01*
G75*
G02*
X118394000Y-102070500I0J175500D01*
G01*
X118394000Y-100269500D01*
G75*
G02*
X118569500Y-100094000I175500J0D01*
G01*
G37*
G36*
G01*
X117299500Y-100094000D02*
X117650500Y-100094000D01*
G75*
G02*
X117826000Y-100269500I0J-175500D01*
G01*
X117826000Y-102070500D01*
G75*
G02*
X117650500Y-102246000I-175500J0D01*
G01*
X117299500Y-102246000D01*
G75*
G02*
X117124000Y-102070500I0J175500D01*
G01*
X117124000Y-100269500D01*
G75*
G02*
X117299500Y-100094000I175500J0D01*
G01*
G37*
G36*
G01*
X116029500Y-100094000D02*
X116380500Y-100094000D01*
G75*
G02*
X116556000Y-100269500I0J-175500D01*
G01*
X116556000Y-102070500D01*
G75*
G02*
X116380500Y-102246000I-175500J0D01*
G01*
X116029500Y-102246000D01*
G75*
G02*
X115854000Y-102070500I0J175500D01*
G01*
X115854000Y-100269500D01*
G75*
G02*
X116029500Y-100094000I175500J0D01*
G01*
G37*
G36*
G01*
X114759500Y-100094000D02*
X115110500Y-100094000D01*
G75*
G02*
X115286000Y-100269500I0J-175500D01*
G01*
X115286000Y-102070500D01*
G75*
G02*
X115110500Y-102246000I-175500J0D01*
G01*
X114759500Y-102246000D01*
G75*
G02*
X114584000Y-102070500I0J175500D01*
G01*
X114584000Y-100269500D01*
G75*
G02*
X114759500Y-100094000I175500J0D01*
G01*
G37*
G36*
G01*
X113489500Y-100094000D02*
X113840500Y-100094000D01*
G75*
G02*
X114016000Y-100269500I0J-175500D01*
G01*
X114016000Y-102070500D01*
G75*
G02*
X113840500Y-102246000I-175500J0D01*
G01*
X113489500Y-102246000D01*
G75*
G02*
X113314000Y-102070500I0J175500D01*
G01*
X113314000Y-100269500D01*
G75*
G02*
X113489500Y-100094000I175500J0D01*
G01*
G37*
G36*
G01*
X112219500Y-100094000D02*
X112570500Y-100094000D01*
G75*
G02*
X112746000Y-100269500I0J-175500D01*
G01*
X112746000Y-102070500D01*
G75*
G02*
X112570500Y-102246000I-175500J0D01*
G01*
X112219500Y-102246000D01*
G75*
G02*
X112044000Y-102070500I0J175500D01*
G01*
X112044000Y-100269500D01*
G75*
G02*
X112219500Y-100094000I175500J0D01*
G01*
G37*
G36*
G01*
X110949500Y-100094000D02*
X111300500Y-100094000D01*
G75*
G02*
X111476000Y-100269500I0J-175500D01*
G01*
X111476000Y-102070500D01*
G75*
G02*
X111300500Y-102246000I-175500J0D01*
G01*
X110949500Y-102246000D01*
G75*
G02*
X110774000Y-102070500I0J175500D01*
G01*
X110774000Y-100269500D01*
G75*
G02*
X110949500Y-100094000I175500J0D01*
G01*
G37*
G36*
G01*
X109679500Y-100094000D02*
X110030500Y-100094000D01*
G75*
G02*
X110206000Y-100269500I0J-175500D01*
G01*
X110206000Y-102070500D01*
G75*
G02*
X110030500Y-102246000I-175500J0D01*
G01*
X109679500Y-102246000D01*
G75*
G02*
X109504000Y-102070500I0J175500D01*
G01*
X109504000Y-100269500D01*
G75*
G02*
X109679500Y-100094000I175500J0D01*
G01*
G37*
G36*
G01*
X108409500Y-100094000D02*
X108760500Y-100094000D01*
G75*
G02*
X108936000Y-100269500I0J-175500D01*
G01*
X108936000Y-102070500D01*
G75*
G02*
X108760500Y-102246000I-175500J0D01*
G01*
X108409500Y-102246000D01*
G75*
G02*
X108234000Y-102070500I0J175500D01*
G01*
X108234000Y-100269500D01*
G75*
G02*
X108409500Y-100094000I175500J0D01*
G01*
G37*
G36*
G01*
X107139500Y-100094000D02*
X107490500Y-100094000D01*
G75*
G02*
X107666000Y-100269500I0J-175500D01*
G01*
X107666000Y-102070500D01*
G75*
G02*
X107490500Y-102246000I-175500J0D01*
G01*
X107139500Y-102246000D01*
G75*
G02*
X106964000Y-102070500I0J175500D01*
G01*
X106964000Y-100269500D01*
G75*
G02*
X107139500Y-100094000I175500J0D01*
G01*
G37*
G36*
G01*
X105869500Y-100094000D02*
X106220500Y-100094000D01*
G75*
G02*
X106396000Y-100269500I0J-175500D01*
G01*
X106396000Y-102070500D01*
G75*
G02*
X106220500Y-102246000I-175500J0D01*
G01*
X105869500Y-102246000D01*
G75*
G02*
X105694000Y-102070500I0J175500D01*
G01*
X105694000Y-100269500D01*
G75*
G02*
X105869500Y-100094000I175500J0D01*
G01*
G37*
G36*
G01*
X104599500Y-100094000D02*
X104950500Y-100094000D01*
G75*
G02*
X105126000Y-100269500I0J-175500D01*
G01*
X105126000Y-102070500D01*
G75*
G02*
X104950500Y-102246000I-175500J0D01*
G01*
X104599500Y-102246000D01*
G75*
G02*
X104424000Y-102070500I0J175500D01*
G01*
X104424000Y-100269500D01*
G75*
G02*
X104599500Y-100094000I175500J0D01*
G01*
G37*
G36*
G01*
X104599500Y-90794000D02*
X104950500Y-90794000D01*
G75*
G02*
X105126000Y-90969500I0J-175500D01*
G01*
X105126000Y-92770500D01*
G75*
G02*
X104950500Y-92946000I-175500J0D01*
G01*
X104599500Y-92946000D01*
G75*
G02*
X104424000Y-92770500I0J175500D01*
G01*
X104424000Y-90969500D01*
G75*
G02*
X104599500Y-90794000I175500J0D01*
G01*
G37*
G36*
G01*
X105869500Y-90794000D02*
X106220500Y-90794000D01*
G75*
G02*
X106396000Y-90969500I0J-175500D01*
G01*
X106396000Y-92770500D01*
G75*
G02*
X106220500Y-92946000I-175500J0D01*
G01*
X105869500Y-92946000D01*
G75*
G02*
X105694000Y-92770500I0J175500D01*
G01*
X105694000Y-90969500D01*
G75*
G02*
X105869500Y-90794000I175500J0D01*
G01*
G37*
G36*
G01*
X107139500Y-90794000D02*
X107490500Y-90794000D01*
G75*
G02*
X107666000Y-90969500I0J-175500D01*
G01*
X107666000Y-92770500D01*
G75*
G02*
X107490500Y-92946000I-175500J0D01*
G01*
X107139500Y-92946000D01*
G75*
G02*
X106964000Y-92770500I0J175500D01*
G01*
X106964000Y-90969500D01*
G75*
G02*
X107139500Y-90794000I175500J0D01*
G01*
G37*
G36*
G01*
X108409500Y-90794000D02*
X108760500Y-90794000D01*
G75*
G02*
X108936000Y-90969500I0J-175500D01*
G01*
X108936000Y-92770500D01*
G75*
G02*
X108760500Y-92946000I-175500J0D01*
G01*
X108409500Y-92946000D01*
G75*
G02*
X108234000Y-92770500I0J175500D01*
G01*
X108234000Y-90969500D01*
G75*
G02*
X108409500Y-90794000I175500J0D01*
G01*
G37*
G36*
G01*
X109679500Y-90794000D02*
X110030500Y-90794000D01*
G75*
G02*
X110206000Y-90969500I0J-175500D01*
G01*
X110206000Y-92770500D01*
G75*
G02*
X110030500Y-92946000I-175500J0D01*
G01*
X109679500Y-92946000D01*
G75*
G02*
X109504000Y-92770500I0J175500D01*
G01*
X109504000Y-90969500D01*
G75*
G02*
X109679500Y-90794000I175500J0D01*
G01*
G37*
G36*
G01*
X110949500Y-90794000D02*
X111300500Y-90794000D01*
G75*
G02*
X111476000Y-90969500I0J-175500D01*
G01*
X111476000Y-92770500D01*
G75*
G02*
X111300500Y-92946000I-175500J0D01*
G01*
X110949500Y-92946000D01*
G75*
G02*
X110774000Y-92770500I0J175500D01*
G01*
X110774000Y-90969500D01*
G75*
G02*
X110949500Y-90794000I175500J0D01*
G01*
G37*
G36*
G01*
X112219500Y-90794000D02*
X112570500Y-90794000D01*
G75*
G02*
X112746000Y-90969500I0J-175500D01*
G01*
X112746000Y-92770500D01*
G75*
G02*
X112570500Y-92946000I-175500J0D01*
G01*
X112219500Y-92946000D01*
G75*
G02*
X112044000Y-92770500I0J175500D01*
G01*
X112044000Y-90969500D01*
G75*
G02*
X112219500Y-90794000I175500J0D01*
G01*
G37*
G36*
G01*
X113489500Y-90794000D02*
X113840500Y-90794000D01*
G75*
G02*
X114016000Y-90969500I0J-175500D01*
G01*
X114016000Y-92770500D01*
G75*
G02*
X113840500Y-92946000I-175500J0D01*
G01*
X113489500Y-92946000D01*
G75*
G02*
X113314000Y-92770500I0J175500D01*
G01*
X113314000Y-90969500D01*
G75*
G02*
X113489500Y-90794000I175500J0D01*
G01*
G37*
G36*
G01*
X114759500Y-90794000D02*
X115110500Y-90794000D01*
G75*
G02*
X115286000Y-90969500I0J-175500D01*
G01*
X115286000Y-92770500D01*
G75*
G02*
X115110500Y-92946000I-175500J0D01*
G01*
X114759500Y-92946000D01*
G75*
G02*
X114584000Y-92770500I0J175500D01*
G01*
X114584000Y-90969500D01*
G75*
G02*
X114759500Y-90794000I175500J0D01*
G01*
G37*
G36*
G01*
X116029500Y-90794000D02*
X116380500Y-90794000D01*
G75*
G02*
X116556000Y-90969500I0J-175500D01*
G01*
X116556000Y-92770500D01*
G75*
G02*
X116380500Y-92946000I-175500J0D01*
G01*
X116029500Y-92946000D01*
G75*
G02*
X115854000Y-92770500I0J175500D01*
G01*
X115854000Y-90969500D01*
G75*
G02*
X116029500Y-90794000I175500J0D01*
G01*
G37*
G36*
G01*
X117299500Y-90794000D02*
X117650500Y-90794000D01*
G75*
G02*
X117826000Y-90969500I0J-175500D01*
G01*
X117826000Y-92770500D01*
G75*
G02*
X117650500Y-92946000I-175500J0D01*
G01*
X117299500Y-92946000D01*
G75*
G02*
X117124000Y-92770500I0J175500D01*
G01*
X117124000Y-90969500D01*
G75*
G02*
X117299500Y-90794000I175500J0D01*
G01*
G37*
G36*
G01*
X118569500Y-90794000D02*
X118920500Y-90794000D01*
G75*
G02*
X119096000Y-90969500I0J-175500D01*
G01*
X119096000Y-92770500D01*
G75*
G02*
X118920500Y-92946000I-175500J0D01*
G01*
X118569500Y-92946000D01*
G75*
G02*
X118394000Y-92770500I0J175500D01*
G01*
X118394000Y-90969500D01*
G75*
G02*
X118569500Y-90794000I175500J0D01*
G01*
G37*
G36*
G01*
X185336500Y-102060000D02*
X185336500Y-101140000D01*
G75*
G02*
X185387500Y-101089000I51000J0D01*
G01*
X186352500Y-101089000D01*
G75*
G02*
X186403500Y-101140000I0J-51000D01*
G01*
X186403500Y-102060000D01*
G75*
G02*
X186352500Y-102111000I-51000J0D01*
G01*
X185387500Y-102111000D01*
G75*
G02*
X185336500Y-102060000I0J51000D01*
G01*
G37*
G36*
G01*
X186976500Y-102060000D02*
X186976500Y-101140000D01*
G75*
G02*
X187027500Y-101089000I51000J0D01*
G01*
X187992500Y-101089000D01*
G75*
G02*
X188043500Y-101140000I0J-51000D01*
G01*
X188043500Y-102060000D01*
G75*
G02*
X187992500Y-102111000I-51000J0D01*
G01*
X187027500Y-102111000D01*
G75*
G02*
X186976500Y-102060000I0J51000D01*
G01*
G37*
G36*
G01*
X185336500Y-99520000D02*
X185336500Y-98600000D01*
G75*
G02*
X185387500Y-98549000I51000J0D01*
G01*
X186352500Y-98549000D01*
G75*
G02*
X186403500Y-98600000I0J-51000D01*
G01*
X186403500Y-99520000D01*
G75*
G02*
X186352500Y-99571000I-51000J0D01*
G01*
X185387500Y-99571000D01*
G75*
G02*
X185336500Y-99520000I0J51000D01*
G01*
G37*
G36*
G01*
X186976500Y-99520000D02*
X186976500Y-98600000D01*
G75*
G02*
X187027500Y-98549000I51000J0D01*
G01*
X187992500Y-98549000D01*
G75*
G02*
X188043500Y-98600000I0J-51000D01*
G01*
X188043500Y-99520000D01*
G75*
G02*
X187992500Y-99571000I-51000J0D01*
G01*
X187027500Y-99571000D01*
G75*
G02*
X186976500Y-99520000I0J51000D01*
G01*
G37*
G36*
G01*
X185336500Y-96980000D02*
X185336500Y-96060000D01*
G75*
G02*
X185387500Y-96009000I51000J0D01*
G01*
X186352500Y-96009000D01*
G75*
G02*
X186403500Y-96060000I0J-51000D01*
G01*
X186403500Y-96980000D01*
G75*
G02*
X186352500Y-97031000I-51000J0D01*
G01*
X185387500Y-97031000D01*
G75*
G02*
X185336500Y-96980000I0J51000D01*
G01*
G37*
G36*
G01*
X186976500Y-96980000D02*
X186976500Y-96060000D01*
G75*
G02*
X187027500Y-96009000I51000J0D01*
G01*
X187992500Y-96009000D01*
G75*
G02*
X188043500Y-96060000I0J-51000D01*
G01*
X188043500Y-96980000D01*
G75*
G02*
X187992500Y-97031000I-51000J0D01*
G01*
X187027500Y-97031000D01*
G75*
G02*
X186976500Y-96980000I0J51000D01*
G01*
G37*
G36*
G01*
X185336500Y-94440000D02*
X185336500Y-93520000D01*
G75*
G02*
X185387500Y-93469000I51000J0D01*
G01*
X186352500Y-93469000D01*
G75*
G02*
X186403500Y-93520000I0J-51000D01*
G01*
X186403500Y-94440000D01*
G75*
G02*
X186352500Y-94491000I-51000J0D01*
G01*
X185387500Y-94491000D01*
G75*
G02*
X185336500Y-94440000I0J51000D01*
G01*
G37*
G36*
G01*
X186976500Y-94440000D02*
X186976500Y-93520000D01*
G75*
G02*
X187027500Y-93469000I51000J0D01*
G01*
X187992500Y-93469000D01*
G75*
G02*
X188043500Y-93520000I0J-51000D01*
G01*
X188043500Y-94440000D01*
G75*
G02*
X187992500Y-94491000I-51000J0D01*
G01*
X187027500Y-94491000D01*
G75*
G02*
X186976500Y-94440000I0J51000D01*
G01*
G37*
G36*
G01*
X185789000Y-110070000D02*
X185789000Y-108370000D01*
G75*
G02*
X185840000Y-108319000I51000J0D01*
G01*
X187540000Y-108319000D01*
G75*
G02*
X187591000Y-108370000I0J-51000D01*
G01*
X187591000Y-110070000D01*
G75*
G02*
X187540000Y-110121000I-51000J0D01*
G01*
X185840000Y-110121000D01*
G75*
G02*
X185789000Y-110070000I0J51000D01*
G01*
G37*
D12*
X186690000Y-111760000D03*
X186690000Y-114300000D03*
X186690000Y-116840000D03*
X186690000Y-119380000D03*
M02*
