G04 #@! TF.GenerationSoftware,KiCad,Pcbnew,(5.1.9)-1*
G04 #@! TF.CreationDate,2022-02-28T19:05:45+08:00*
G04 #@! TF.ProjectId,matrix_display16_32,6d617472-6978-45f6-9469-73706c617931,rev?*
G04 #@! TF.SameCoordinates,Original*
G04 #@! TF.FileFunction,Legend,Top*
G04 #@! TF.FilePolarity,Positive*
%FSLAX46Y46*%
G04 Gerber Fmt 4.6, Leading zero omitted, Abs format (unit mm)*
G04 Created by KiCad (PCBNEW (5.1.9)-1) date 2022-02-28 19:05:45*
%MOMM*%
%LPD*%
G01*
G04 APERTURE LIST*
%ADD10C,0.150000*%
%ADD11C,0.120000*%
G04 APERTURE END LIST*
D10*
X100782380Y-123530476D02*
X99782380Y-123530476D01*
X100496666Y-123197142D01*
X99782380Y-122863809D01*
X100782380Y-122863809D01*
X100782380Y-121959047D02*
X100258571Y-121959047D01*
X100163333Y-122006666D01*
X100115714Y-122101904D01*
X100115714Y-122292380D01*
X100163333Y-122387619D01*
X100734761Y-121959047D02*
X100782380Y-122054285D01*
X100782380Y-122292380D01*
X100734761Y-122387619D01*
X100639523Y-122435238D01*
X100544285Y-122435238D01*
X100449047Y-122387619D01*
X100401428Y-122292380D01*
X100401428Y-122054285D01*
X100353809Y-121959047D01*
X100115714Y-121625714D02*
X100115714Y-121244761D01*
X99782380Y-121482857D02*
X100639523Y-121482857D01*
X100734761Y-121435238D01*
X100782380Y-121340000D01*
X100782380Y-121244761D01*
X100782380Y-120911428D02*
X100115714Y-120911428D01*
X100306190Y-120911428D02*
X100210952Y-120863809D01*
X100163333Y-120816190D01*
X100115714Y-120720952D01*
X100115714Y-120625714D01*
X100782380Y-120292380D02*
X100115714Y-120292380D01*
X99782380Y-120292380D02*
X99830000Y-120340000D01*
X99877619Y-120292380D01*
X99830000Y-120244761D01*
X99782380Y-120292380D01*
X99877619Y-120292380D01*
X100782380Y-119911428D02*
X100115714Y-119387619D01*
X100115714Y-119911428D02*
X100782380Y-119387619D01*
X100877619Y-119244761D02*
X100877619Y-118482857D01*
X100782380Y-117720952D02*
X100782380Y-118292380D01*
X100782380Y-118006666D02*
X99782380Y-118006666D01*
X99925238Y-118101904D01*
X100020476Y-118197142D01*
X100068095Y-118292380D01*
X99782380Y-116863809D02*
X99782380Y-117054285D01*
X99830000Y-117149523D01*
X99877619Y-117197142D01*
X100020476Y-117292380D01*
X100210952Y-117340000D01*
X100591904Y-117340000D01*
X100687142Y-117292380D01*
X100734761Y-117244761D01*
X100782380Y-117149523D01*
X100782380Y-116959047D01*
X100734761Y-116863809D01*
X100687142Y-116816190D01*
X100591904Y-116768571D01*
X100353809Y-116768571D01*
X100258571Y-116816190D01*
X100210952Y-116863809D01*
X100163333Y-116959047D01*
X100163333Y-117149523D01*
X100210952Y-117244761D01*
X100258571Y-117292380D01*
X100353809Y-117340000D01*
X100877619Y-116578095D02*
X100877619Y-115816190D01*
X99782380Y-115673333D02*
X99782380Y-115054285D01*
X100163333Y-115387619D01*
X100163333Y-115244761D01*
X100210952Y-115149523D01*
X100258571Y-115101904D01*
X100353809Y-115054285D01*
X100591904Y-115054285D01*
X100687142Y-115101904D01*
X100734761Y-115149523D01*
X100782380Y-115244761D01*
X100782380Y-115530476D01*
X100734761Y-115625714D01*
X100687142Y-115673333D01*
X99877619Y-114673333D02*
X99830000Y-114625714D01*
X99782380Y-114530476D01*
X99782380Y-114292380D01*
X99830000Y-114197142D01*
X99877619Y-114149523D01*
X99972857Y-114101904D01*
X100068095Y-114101904D01*
X100210952Y-114149523D01*
X100782380Y-114720952D01*
X100782380Y-114101904D01*
X100877619Y-113911428D02*
X100877619Y-113149523D01*
X99782380Y-113054285D02*
X100782380Y-112720952D01*
X99782380Y-112387619D01*
X100782380Y-111530476D02*
X100782380Y-112101904D01*
X100782380Y-111816190D02*
X99782380Y-111816190D01*
X99925238Y-111911428D01*
X100020476Y-112006666D01*
X100068095Y-112101904D01*
X100687142Y-111101904D02*
X100734761Y-111054285D01*
X100782380Y-111101904D01*
X100734761Y-111149523D01*
X100687142Y-111101904D01*
X100782380Y-111101904D01*
X100782380Y-110101904D02*
X100782380Y-110673333D01*
X100782380Y-110387619D02*
X99782380Y-110387619D01*
X99925238Y-110482857D01*
X100020476Y-110578095D01*
X100068095Y-110673333D01*
X98194761Y-120911428D02*
X98242380Y-121006666D01*
X98242380Y-121197142D01*
X98194761Y-121292380D01*
X98147142Y-121340000D01*
X98051904Y-121387619D01*
X97766190Y-121387619D01*
X97670952Y-121340000D01*
X97623333Y-121292380D01*
X97575714Y-121197142D01*
X97575714Y-121006666D01*
X97623333Y-120911428D01*
X98242380Y-120482857D02*
X97242380Y-120482857D01*
X98242380Y-120054285D02*
X97718571Y-120054285D01*
X97623333Y-120101904D01*
X97575714Y-120197142D01*
X97575714Y-120340000D01*
X97623333Y-120435238D01*
X97670952Y-120482857D01*
X98194761Y-119197142D02*
X98242380Y-119292380D01*
X98242380Y-119482857D01*
X98194761Y-119578095D01*
X98099523Y-119625714D01*
X97718571Y-119625714D01*
X97623333Y-119578095D01*
X97575714Y-119482857D01*
X97575714Y-119292380D01*
X97623333Y-119197142D01*
X97718571Y-119149523D01*
X97813809Y-119149523D01*
X97909047Y-119625714D01*
X97575714Y-118720952D02*
X98242380Y-118720952D01*
X97670952Y-118720952D02*
X97623333Y-118673333D01*
X97575714Y-118578095D01*
X97575714Y-118435238D01*
X97623333Y-118340000D01*
X97718571Y-118292380D01*
X98242380Y-118292380D01*
X97575714Y-117911428D02*
X98242380Y-117720952D01*
X97766190Y-117530476D01*
X98242380Y-117340000D01*
X97575714Y-117149523D01*
X98194761Y-116387619D02*
X98242380Y-116482857D01*
X98242380Y-116673333D01*
X98194761Y-116768571D01*
X98099523Y-116816190D01*
X97718571Y-116816190D01*
X97623333Y-116768571D01*
X97575714Y-116673333D01*
X97575714Y-116482857D01*
X97623333Y-116387619D01*
X97718571Y-116340000D01*
X97813809Y-116340000D01*
X97909047Y-116816190D01*
X98242380Y-115911428D02*
X97575714Y-115911428D01*
X97242380Y-115911428D02*
X97290000Y-115959047D01*
X97337619Y-115911428D01*
X97290000Y-115863809D01*
X97242380Y-115911428D01*
X97337619Y-115911428D01*
X97575714Y-115435238D02*
X98575714Y-115435238D01*
X97623333Y-115435238D02*
X97575714Y-115340000D01*
X97575714Y-115149523D01*
X97623333Y-115054285D01*
X97670952Y-115006666D01*
X97766190Y-114959047D01*
X98051904Y-114959047D01*
X98147142Y-115006666D01*
X98194761Y-115054285D01*
X98242380Y-115149523D01*
X98242380Y-115340000D01*
X98194761Y-115435238D01*
X98194761Y-114149523D02*
X98242380Y-114244761D01*
X98242380Y-114435238D01*
X98194761Y-114530476D01*
X98099523Y-114578095D01*
X97718571Y-114578095D01*
X97623333Y-114530476D01*
X97575714Y-114435238D01*
X97575714Y-114244761D01*
X97623333Y-114149523D01*
X97718571Y-114101904D01*
X97813809Y-114101904D01*
X97909047Y-114578095D01*
X97575714Y-113673333D02*
X98242380Y-113673333D01*
X97670952Y-113673333D02*
X97623333Y-113625714D01*
X97575714Y-113530476D01*
X97575714Y-113387619D01*
X97623333Y-113292380D01*
X97718571Y-113244761D01*
X98242380Y-113244761D01*
X97575714Y-112340000D02*
X98385238Y-112340000D01*
X98480476Y-112387619D01*
X98528095Y-112435238D01*
X98575714Y-112530476D01*
X98575714Y-112673333D01*
X98528095Y-112768571D01*
X98194761Y-112340000D02*
X98242380Y-112435238D01*
X98242380Y-112625714D01*
X98194761Y-112720952D01*
X98147142Y-112768571D01*
X98051904Y-112816190D01*
X97766190Y-112816190D01*
X97670952Y-112768571D01*
X97623333Y-112720952D01*
X97575714Y-112625714D01*
X97575714Y-112435238D01*
X97623333Y-112340000D01*
D11*
X164910000Y-96520000D02*
X164910000Y-100380000D01*
X164910000Y-100380000D02*
X165175000Y-100380000D01*
X164910000Y-96520000D02*
X164910000Y-92660000D01*
X164910000Y-92660000D02*
X165175000Y-92660000D01*
X180530000Y-96520000D02*
X180530000Y-100380000D01*
X180530000Y-100380000D02*
X180265000Y-100380000D01*
X180530000Y-96520000D02*
X180530000Y-92660000D01*
X180530000Y-92660000D02*
X180265000Y-92660000D01*
X180265000Y-92660000D02*
X180265000Y-90845000D01*
D10*
X121860000Y-125840000D02*
X121860000Y-107840000D01*
X101660000Y-125840000D02*
X101660000Y-107840000D01*
X182820000Y-125720000D02*
X182820000Y-107720000D01*
X162620000Y-125720000D02*
X162620000Y-107720000D01*
X162500000Y-105520000D02*
X162500000Y-87520000D01*
X142300000Y-105520000D02*
X142300000Y-87520000D01*
X182820000Y-105520000D02*
X182820000Y-87520000D01*
X162620000Y-105520000D02*
X162620000Y-87520000D01*
X142180000Y-105400000D02*
X142180000Y-87400000D01*
X121980000Y-105400000D02*
X121980000Y-87400000D01*
D11*
X144590000Y-116720000D02*
X144590000Y-120580000D01*
X144590000Y-120580000D02*
X144855000Y-120580000D01*
X144590000Y-116720000D02*
X144590000Y-112860000D01*
X144590000Y-112860000D02*
X144855000Y-112860000D01*
X160210000Y-116720000D02*
X160210000Y-120580000D01*
X160210000Y-120580000D02*
X159945000Y-120580000D01*
X160210000Y-116720000D02*
X160210000Y-112860000D01*
X160210000Y-112860000D02*
X159945000Y-112860000D01*
X159945000Y-112860000D02*
X159945000Y-111045000D01*
D10*
X162500000Y-125720000D02*
X162500000Y-107720000D01*
X142300000Y-125720000D02*
X142300000Y-107720000D01*
X142180000Y-125720000D02*
X142180000Y-107720000D01*
X121980000Y-125720000D02*
X121980000Y-107720000D01*
X121860000Y-105520000D02*
X121860000Y-87520000D01*
X101660000Y-105520000D02*
X101660000Y-87520000D01*
D11*
X164910000Y-116720000D02*
X164910000Y-120580000D01*
X164910000Y-120580000D02*
X165175000Y-120580000D01*
X164910000Y-116720000D02*
X164910000Y-112860000D01*
X164910000Y-112860000D02*
X165175000Y-112860000D01*
X180530000Y-116720000D02*
X180530000Y-120580000D01*
X180530000Y-120580000D02*
X180265000Y-120580000D01*
X180530000Y-116720000D02*
X180530000Y-112860000D01*
X180530000Y-112860000D02*
X180265000Y-112860000D01*
X180265000Y-112860000D02*
X180265000Y-111045000D01*
X124270000Y-116720000D02*
X124270000Y-120580000D01*
X124270000Y-120580000D02*
X124535000Y-120580000D01*
X124270000Y-116720000D02*
X124270000Y-112860000D01*
X124270000Y-112860000D02*
X124535000Y-112860000D01*
X139890000Y-116720000D02*
X139890000Y-120580000D01*
X139890000Y-120580000D02*
X139625000Y-120580000D01*
X139890000Y-116720000D02*
X139890000Y-112860000D01*
X139890000Y-112860000D02*
X139625000Y-112860000D01*
X139625000Y-112860000D02*
X139625000Y-111045000D01*
X103950000Y-116840000D02*
X103950000Y-120700000D01*
X103950000Y-120700000D02*
X104215000Y-120700000D01*
X103950000Y-116840000D02*
X103950000Y-112980000D01*
X103950000Y-112980000D02*
X104215000Y-112980000D01*
X119570000Y-116840000D02*
X119570000Y-120700000D01*
X119570000Y-120700000D02*
X119305000Y-120700000D01*
X119570000Y-116840000D02*
X119570000Y-112980000D01*
X119570000Y-112980000D02*
X119305000Y-112980000D01*
X119305000Y-112980000D02*
X119305000Y-111165000D01*
X144590000Y-96520000D02*
X144590000Y-100380000D01*
X144590000Y-100380000D02*
X144855000Y-100380000D01*
X144590000Y-96520000D02*
X144590000Y-92660000D01*
X144590000Y-92660000D02*
X144855000Y-92660000D01*
X160210000Y-96520000D02*
X160210000Y-100380000D01*
X160210000Y-100380000D02*
X159945000Y-100380000D01*
X160210000Y-96520000D02*
X160210000Y-92660000D01*
X160210000Y-92660000D02*
X159945000Y-92660000D01*
X159945000Y-92660000D02*
X159945000Y-90845000D01*
X124270000Y-96520000D02*
X124270000Y-100380000D01*
X124270000Y-100380000D02*
X124535000Y-100380000D01*
X124270000Y-96520000D02*
X124270000Y-92660000D01*
X124270000Y-92660000D02*
X124535000Y-92660000D01*
X139890000Y-96520000D02*
X139890000Y-100380000D01*
X139890000Y-100380000D02*
X139625000Y-100380000D01*
X139890000Y-96520000D02*
X139890000Y-92660000D01*
X139890000Y-92660000D02*
X139625000Y-92660000D01*
X139625000Y-92660000D02*
X139625000Y-90845000D01*
X103950000Y-96520000D02*
X103950000Y-100380000D01*
X103950000Y-100380000D02*
X104215000Y-100380000D01*
X103950000Y-96520000D02*
X103950000Y-92660000D01*
X103950000Y-92660000D02*
X104215000Y-92660000D01*
X119570000Y-96520000D02*
X119570000Y-100380000D01*
X119570000Y-100380000D02*
X119305000Y-100380000D01*
X119570000Y-96520000D02*
X119570000Y-92660000D01*
X119570000Y-92660000D02*
X119305000Y-92660000D01*
X119305000Y-92660000D02*
X119305000Y-90845000D01*
D10*
X187040000Y-102200000D02*
X186340000Y-102200000D01*
X186340000Y-101000000D02*
X187040000Y-101000000D01*
X187040000Y-99660000D02*
X186340000Y-99660000D01*
X186340000Y-98460000D02*
X187040000Y-98460000D01*
X187040000Y-97120000D02*
X186340000Y-97120000D01*
X186340000Y-95920000D02*
X187040000Y-95920000D01*
X187040000Y-94580000D02*
X186340000Y-94580000D01*
X186340000Y-93380000D02*
X187040000Y-93380000D01*
D11*
X185360000Y-107890000D02*
X186690000Y-107890000D01*
X185360000Y-109220000D02*
X185360000Y-107890000D01*
X185360000Y-110490000D02*
X188020000Y-110490000D01*
X188020000Y-110490000D02*
X188020000Y-120710000D01*
X185360000Y-110490000D02*
X185360000Y-120710000D01*
X185360000Y-120710000D02*
X188020000Y-120710000D01*
D10*
X180648095Y-91112380D02*
X180648095Y-91921904D01*
X180695714Y-92017142D01*
X180743333Y-92064761D01*
X180838571Y-92112380D01*
X181029047Y-92112380D01*
X181124285Y-92064761D01*
X181171904Y-92017142D01*
X181219523Y-91921904D01*
X181219523Y-91112380D01*
X182124285Y-91445714D02*
X182124285Y-92112380D01*
X181886190Y-91064761D02*
X181648095Y-91779047D01*
X182267142Y-91779047D01*
D11*
X110625714Y-125347142D02*
X110625714Y-126075714D01*
X110668571Y-126161428D01*
X110711428Y-126204285D01*
X110797142Y-126247142D01*
X110968571Y-126247142D01*
X111054285Y-126204285D01*
X111097142Y-126161428D01*
X111140000Y-126075714D01*
X111140000Y-125347142D01*
X112040000Y-126247142D02*
X111525714Y-126247142D01*
X111782857Y-126247142D02*
X111782857Y-125347142D01*
X111697142Y-125475714D01*
X111611428Y-125561428D01*
X111525714Y-125604285D01*
X112340000Y-125347142D02*
X112897142Y-125347142D01*
X112597142Y-125690000D01*
X112725714Y-125690000D01*
X112811428Y-125732857D01*
X112854285Y-125775714D01*
X112897142Y-125861428D01*
X112897142Y-126075714D01*
X112854285Y-126161428D01*
X112811428Y-126204285D01*
X112725714Y-126247142D01*
X112468571Y-126247142D01*
X112382857Y-126204285D01*
X112340000Y-126161428D01*
X171585714Y-125227142D02*
X171585714Y-125955714D01*
X171628571Y-126041428D01*
X171671428Y-126084285D01*
X171757142Y-126127142D01*
X171928571Y-126127142D01*
X172014285Y-126084285D01*
X172057142Y-126041428D01*
X172100000Y-125955714D01*
X172100000Y-125227142D01*
X173000000Y-126127142D02*
X172485714Y-126127142D01*
X172742857Y-126127142D02*
X172742857Y-125227142D01*
X172657142Y-125355714D01*
X172571428Y-125441428D01*
X172485714Y-125484285D01*
X173771428Y-125227142D02*
X173600000Y-125227142D01*
X173514285Y-125270000D01*
X173471428Y-125312857D01*
X173385714Y-125441428D01*
X173342857Y-125612857D01*
X173342857Y-125955714D01*
X173385714Y-126041428D01*
X173428571Y-126084285D01*
X173514285Y-126127142D01*
X173685714Y-126127142D01*
X173771428Y-126084285D01*
X173814285Y-126041428D01*
X173857142Y-125955714D01*
X173857142Y-125741428D01*
X173814285Y-125655714D01*
X173771428Y-125612857D01*
X173685714Y-125570000D01*
X173514285Y-125570000D01*
X173428571Y-125612857D01*
X173385714Y-125655714D01*
X173342857Y-125741428D01*
X151265714Y-105027142D02*
X151265714Y-105755714D01*
X151308571Y-105841428D01*
X151351428Y-105884285D01*
X151437142Y-105927142D01*
X151608571Y-105927142D01*
X151694285Y-105884285D01*
X151737142Y-105841428D01*
X151780000Y-105755714D01*
X151780000Y-105027142D01*
X152680000Y-105927142D02*
X152165714Y-105927142D01*
X152422857Y-105927142D02*
X152422857Y-105027142D01*
X152337142Y-105155714D01*
X152251428Y-105241428D01*
X152165714Y-105284285D01*
X153537142Y-105927142D02*
X153022857Y-105927142D01*
X153280000Y-105927142D02*
X153280000Y-105027142D01*
X153194285Y-105155714D01*
X153108571Y-105241428D01*
X153022857Y-105284285D01*
X171585714Y-105027142D02*
X171585714Y-105755714D01*
X171628571Y-105841428D01*
X171671428Y-105884285D01*
X171757142Y-105927142D01*
X171928571Y-105927142D01*
X172014285Y-105884285D01*
X172057142Y-105841428D01*
X172100000Y-105755714D01*
X172100000Y-105027142D01*
X173000000Y-105927142D02*
X172485714Y-105927142D01*
X172742857Y-105927142D02*
X172742857Y-105027142D01*
X172657142Y-105155714D01*
X172571428Y-105241428D01*
X172485714Y-105284285D01*
X173342857Y-105112857D02*
X173385714Y-105070000D01*
X173471428Y-105027142D01*
X173685714Y-105027142D01*
X173771428Y-105070000D01*
X173814285Y-105112857D01*
X173857142Y-105198571D01*
X173857142Y-105284285D01*
X173814285Y-105412857D01*
X173300000Y-105927142D01*
X173857142Y-105927142D01*
X130945714Y-104907142D02*
X130945714Y-105635714D01*
X130988571Y-105721428D01*
X131031428Y-105764285D01*
X131117142Y-105807142D01*
X131288571Y-105807142D01*
X131374285Y-105764285D01*
X131417142Y-105721428D01*
X131460000Y-105635714D01*
X131460000Y-104907142D01*
X132360000Y-105807142D02*
X131845714Y-105807142D01*
X132102857Y-105807142D02*
X132102857Y-104907142D01*
X132017142Y-105035714D01*
X131931428Y-105121428D01*
X131845714Y-105164285D01*
X132917142Y-104907142D02*
X133002857Y-104907142D01*
X133088571Y-104950000D01*
X133131428Y-104992857D01*
X133174285Y-105078571D01*
X133217142Y-105250000D01*
X133217142Y-105464285D01*
X133174285Y-105635714D01*
X133131428Y-105721428D01*
X133088571Y-105764285D01*
X133002857Y-105807142D01*
X132917142Y-105807142D01*
X132831428Y-105764285D01*
X132788571Y-105721428D01*
X132745714Y-105635714D01*
X132702857Y-105464285D01*
X132702857Y-105250000D01*
X132745714Y-105078571D01*
X132788571Y-104992857D01*
X132831428Y-104950000D01*
X132917142Y-104907142D01*
D10*
X160328095Y-111312380D02*
X160328095Y-112121904D01*
X160375714Y-112217142D01*
X160423333Y-112264761D01*
X160518571Y-112312380D01*
X160709047Y-112312380D01*
X160804285Y-112264761D01*
X160851904Y-112217142D01*
X160899523Y-112121904D01*
X160899523Y-111312380D01*
X161280476Y-111312380D02*
X161947142Y-111312380D01*
X161518571Y-112312380D01*
D11*
X151265714Y-125227142D02*
X151265714Y-125955714D01*
X151308571Y-126041428D01*
X151351428Y-126084285D01*
X151437142Y-126127142D01*
X151608571Y-126127142D01*
X151694285Y-126084285D01*
X151737142Y-126041428D01*
X151780000Y-125955714D01*
X151780000Y-125227142D01*
X152680000Y-126127142D02*
X152165714Y-126127142D01*
X152422857Y-126127142D02*
X152422857Y-125227142D01*
X152337142Y-125355714D01*
X152251428Y-125441428D01*
X152165714Y-125484285D01*
X153494285Y-125227142D02*
X153065714Y-125227142D01*
X153022857Y-125655714D01*
X153065714Y-125612857D01*
X153151428Y-125570000D01*
X153365714Y-125570000D01*
X153451428Y-125612857D01*
X153494285Y-125655714D01*
X153537142Y-125741428D01*
X153537142Y-125955714D01*
X153494285Y-126041428D01*
X153451428Y-126084285D01*
X153365714Y-126127142D01*
X153151428Y-126127142D01*
X153065714Y-126084285D01*
X153022857Y-126041428D01*
X130945714Y-125227142D02*
X130945714Y-125955714D01*
X130988571Y-126041428D01*
X131031428Y-126084285D01*
X131117142Y-126127142D01*
X131288571Y-126127142D01*
X131374285Y-126084285D01*
X131417142Y-126041428D01*
X131460000Y-125955714D01*
X131460000Y-125227142D01*
X132360000Y-126127142D02*
X131845714Y-126127142D01*
X132102857Y-126127142D02*
X132102857Y-125227142D01*
X132017142Y-125355714D01*
X131931428Y-125441428D01*
X131845714Y-125484285D01*
X133131428Y-125527142D02*
X133131428Y-126127142D01*
X132917142Y-125184285D02*
X132702857Y-125827142D01*
X133260000Y-125827142D01*
X111054285Y-105027142D02*
X111054285Y-105755714D01*
X111097142Y-105841428D01*
X111140000Y-105884285D01*
X111225714Y-105927142D01*
X111397142Y-105927142D01*
X111482857Y-105884285D01*
X111525714Y-105841428D01*
X111568571Y-105755714D01*
X111568571Y-105027142D01*
X112040000Y-105927142D02*
X112211428Y-105927142D01*
X112297142Y-105884285D01*
X112340000Y-105841428D01*
X112425714Y-105712857D01*
X112468571Y-105541428D01*
X112468571Y-105198571D01*
X112425714Y-105112857D01*
X112382857Y-105070000D01*
X112297142Y-105027142D01*
X112125714Y-105027142D01*
X112040000Y-105070000D01*
X111997142Y-105112857D01*
X111954285Y-105198571D01*
X111954285Y-105412857D01*
X111997142Y-105498571D01*
X112040000Y-105541428D01*
X112125714Y-105584285D01*
X112297142Y-105584285D01*
X112382857Y-105541428D01*
X112425714Y-105498571D01*
X112468571Y-105412857D01*
D10*
X180648095Y-111312380D02*
X180648095Y-112121904D01*
X180695714Y-112217142D01*
X180743333Y-112264761D01*
X180838571Y-112312380D01*
X181029047Y-112312380D01*
X181124285Y-112264761D01*
X181171904Y-112217142D01*
X181219523Y-112121904D01*
X181219523Y-111312380D01*
X181838571Y-111740952D02*
X181743333Y-111693333D01*
X181695714Y-111645714D01*
X181648095Y-111550476D01*
X181648095Y-111502857D01*
X181695714Y-111407619D01*
X181743333Y-111360000D01*
X181838571Y-111312380D01*
X182029047Y-111312380D01*
X182124285Y-111360000D01*
X182171904Y-111407619D01*
X182219523Y-111502857D01*
X182219523Y-111550476D01*
X182171904Y-111645714D01*
X182124285Y-111693333D01*
X182029047Y-111740952D01*
X181838571Y-111740952D01*
X181743333Y-111788571D01*
X181695714Y-111836190D01*
X181648095Y-111931428D01*
X181648095Y-112121904D01*
X181695714Y-112217142D01*
X181743333Y-112264761D01*
X181838571Y-112312380D01*
X182029047Y-112312380D01*
X182124285Y-112264761D01*
X182171904Y-112217142D01*
X182219523Y-112121904D01*
X182219523Y-111931428D01*
X182171904Y-111836190D01*
X182124285Y-111788571D01*
X182029047Y-111740952D01*
X140008095Y-111312380D02*
X140008095Y-112121904D01*
X140055714Y-112217142D01*
X140103333Y-112264761D01*
X140198571Y-112312380D01*
X140389047Y-112312380D01*
X140484285Y-112264761D01*
X140531904Y-112217142D01*
X140579523Y-112121904D01*
X140579523Y-111312380D01*
X141484285Y-111312380D02*
X141293809Y-111312380D01*
X141198571Y-111360000D01*
X141150952Y-111407619D01*
X141055714Y-111550476D01*
X141008095Y-111740952D01*
X141008095Y-112121904D01*
X141055714Y-112217142D01*
X141103333Y-112264761D01*
X141198571Y-112312380D01*
X141389047Y-112312380D01*
X141484285Y-112264761D01*
X141531904Y-112217142D01*
X141579523Y-112121904D01*
X141579523Y-111883809D01*
X141531904Y-111788571D01*
X141484285Y-111740952D01*
X141389047Y-111693333D01*
X141198571Y-111693333D01*
X141103333Y-111740952D01*
X141055714Y-111788571D01*
X141008095Y-111883809D01*
X119688095Y-111432380D02*
X119688095Y-112241904D01*
X119735714Y-112337142D01*
X119783333Y-112384761D01*
X119878571Y-112432380D01*
X120069047Y-112432380D01*
X120164285Y-112384761D01*
X120211904Y-112337142D01*
X120259523Y-112241904D01*
X120259523Y-111432380D01*
X121211904Y-111432380D02*
X120735714Y-111432380D01*
X120688095Y-111908571D01*
X120735714Y-111860952D01*
X120830952Y-111813333D01*
X121069047Y-111813333D01*
X121164285Y-111860952D01*
X121211904Y-111908571D01*
X121259523Y-112003809D01*
X121259523Y-112241904D01*
X121211904Y-112337142D01*
X121164285Y-112384761D01*
X121069047Y-112432380D01*
X120830952Y-112432380D01*
X120735714Y-112384761D01*
X120688095Y-112337142D01*
X160328095Y-91112380D02*
X160328095Y-91921904D01*
X160375714Y-92017142D01*
X160423333Y-92064761D01*
X160518571Y-92112380D01*
X160709047Y-92112380D01*
X160804285Y-92064761D01*
X160851904Y-92017142D01*
X160899523Y-91921904D01*
X160899523Y-91112380D01*
X161280476Y-91112380D02*
X161899523Y-91112380D01*
X161566190Y-91493333D01*
X161709047Y-91493333D01*
X161804285Y-91540952D01*
X161851904Y-91588571D01*
X161899523Y-91683809D01*
X161899523Y-91921904D01*
X161851904Y-92017142D01*
X161804285Y-92064761D01*
X161709047Y-92112380D01*
X161423333Y-92112380D01*
X161328095Y-92064761D01*
X161280476Y-92017142D01*
X140008095Y-91112380D02*
X140008095Y-91921904D01*
X140055714Y-92017142D01*
X140103333Y-92064761D01*
X140198571Y-92112380D01*
X140389047Y-92112380D01*
X140484285Y-92064761D01*
X140531904Y-92017142D01*
X140579523Y-91921904D01*
X140579523Y-91112380D01*
X141008095Y-91207619D02*
X141055714Y-91160000D01*
X141150952Y-91112380D01*
X141389047Y-91112380D01*
X141484285Y-91160000D01*
X141531904Y-91207619D01*
X141579523Y-91302857D01*
X141579523Y-91398095D01*
X141531904Y-91540952D01*
X140960476Y-92112380D01*
X141579523Y-92112380D01*
X119688095Y-91112380D02*
X119688095Y-91921904D01*
X119735714Y-92017142D01*
X119783333Y-92064761D01*
X119878571Y-92112380D01*
X120069047Y-92112380D01*
X120164285Y-92064761D01*
X120211904Y-92017142D01*
X120259523Y-91921904D01*
X120259523Y-91112380D01*
X121259523Y-92112380D02*
X120688095Y-92112380D01*
X120973809Y-92112380D02*
X120973809Y-91112380D01*
X120878571Y-91255238D01*
X120783333Y-91350476D01*
X120688095Y-91398095D01*
X188568571Y-101700000D02*
X188525714Y-101657142D01*
X188482857Y-101528571D01*
X188482857Y-101442857D01*
X188525714Y-101314285D01*
X188611428Y-101228571D01*
X188697142Y-101185714D01*
X188868571Y-101142857D01*
X188997142Y-101142857D01*
X189168571Y-101185714D01*
X189254285Y-101228571D01*
X189340000Y-101314285D01*
X189382857Y-101442857D01*
X189382857Y-101528571D01*
X189340000Y-101657142D01*
X189297142Y-101700000D01*
X189082857Y-102471428D02*
X188482857Y-102471428D01*
X189425714Y-102257142D02*
X188782857Y-102042857D01*
X188782857Y-102600000D01*
X188568571Y-99160000D02*
X188525714Y-99117142D01*
X188482857Y-98988571D01*
X188482857Y-98902857D01*
X188525714Y-98774285D01*
X188611428Y-98688571D01*
X188697142Y-98645714D01*
X188868571Y-98602857D01*
X188997142Y-98602857D01*
X189168571Y-98645714D01*
X189254285Y-98688571D01*
X189340000Y-98774285D01*
X189382857Y-98902857D01*
X189382857Y-98988571D01*
X189340000Y-99117142D01*
X189297142Y-99160000D01*
X189382857Y-99460000D02*
X189382857Y-100017142D01*
X189040000Y-99717142D01*
X189040000Y-99845714D01*
X188997142Y-99931428D01*
X188954285Y-99974285D01*
X188868571Y-100017142D01*
X188654285Y-100017142D01*
X188568571Y-99974285D01*
X188525714Y-99931428D01*
X188482857Y-99845714D01*
X188482857Y-99588571D01*
X188525714Y-99502857D01*
X188568571Y-99460000D01*
X188568571Y-96620000D02*
X188525714Y-96577142D01*
X188482857Y-96448571D01*
X188482857Y-96362857D01*
X188525714Y-96234285D01*
X188611428Y-96148571D01*
X188697142Y-96105714D01*
X188868571Y-96062857D01*
X188997142Y-96062857D01*
X189168571Y-96105714D01*
X189254285Y-96148571D01*
X189340000Y-96234285D01*
X189382857Y-96362857D01*
X189382857Y-96448571D01*
X189340000Y-96577142D01*
X189297142Y-96620000D01*
X189297142Y-96962857D02*
X189340000Y-97005714D01*
X189382857Y-97091428D01*
X189382857Y-97305714D01*
X189340000Y-97391428D01*
X189297142Y-97434285D01*
X189211428Y-97477142D01*
X189125714Y-97477142D01*
X188997142Y-97434285D01*
X188482857Y-96920000D01*
X188482857Y-97477142D01*
X188568571Y-94080000D02*
X188525714Y-94037142D01*
X188482857Y-93908571D01*
X188482857Y-93822857D01*
X188525714Y-93694285D01*
X188611428Y-93608571D01*
X188697142Y-93565714D01*
X188868571Y-93522857D01*
X188997142Y-93522857D01*
X189168571Y-93565714D01*
X189254285Y-93608571D01*
X189340000Y-93694285D01*
X189382857Y-93822857D01*
X189382857Y-93908571D01*
X189340000Y-94037142D01*
X189297142Y-94080000D01*
X188482857Y-94937142D02*
X188482857Y-94422857D01*
X188482857Y-94680000D02*
X189382857Y-94680000D01*
X189254285Y-94594285D01*
X189168571Y-94508571D01*
X189125714Y-94422857D01*
X186356666Y-106342380D02*
X186356666Y-107056666D01*
X186309047Y-107199523D01*
X186213809Y-107294761D01*
X186070952Y-107342380D01*
X185975714Y-107342380D01*
X187356666Y-107342380D02*
X186785238Y-107342380D01*
X187070952Y-107342380D02*
X187070952Y-106342380D01*
X186975714Y-106485238D01*
X186880476Y-106580476D01*
X186785238Y-106628095D01*
M02*
