G04 #@! TF.GenerationSoftware,KiCad,Pcbnew,(5.1.9)-1*
G04 #@! TF.CreationDate,2022-02-28T19:05:45+08:00*
G04 #@! TF.ProjectId,matrix_display16_32,6d617472-6978-45f6-9469-73706c617931,rev?*
G04 #@! TF.SameCoordinates,Original*
G04 #@! TF.FileFunction,Paste,Top*
G04 #@! TF.FilePolarity,Positive*
%FSLAX46Y46*%
G04 Gerber Fmt 4.6, Leading zero omitted, Abs format (unit mm)*
G04 Created by KiCad (PCBNEW (5.1.9)-1) date 2022-02-28 19:05:45*
%MOMM*%
%LPD*%
G01*
G04 APERTURE LIST*
%ADD10R,0.965000X0.920000*%
G04 APERTURE END LIST*
G36*
G01*
X179555000Y-100145000D02*
X179855000Y-100145000D01*
G75*
G02*
X180005000Y-100295000I0J-150000D01*
G01*
X180005000Y-102045000D01*
G75*
G02*
X179855000Y-102195000I-150000J0D01*
G01*
X179555000Y-102195000D01*
G75*
G02*
X179405000Y-102045000I0J150000D01*
G01*
X179405000Y-100295000D01*
G75*
G02*
X179555000Y-100145000I150000J0D01*
G01*
G37*
G36*
G01*
X178285000Y-100145000D02*
X178585000Y-100145000D01*
G75*
G02*
X178735000Y-100295000I0J-150000D01*
G01*
X178735000Y-102045000D01*
G75*
G02*
X178585000Y-102195000I-150000J0D01*
G01*
X178285000Y-102195000D01*
G75*
G02*
X178135000Y-102045000I0J150000D01*
G01*
X178135000Y-100295000D01*
G75*
G02*
X178285000Y-100145000I150000J0D01*
G01*
G37*
G36*
G01*
X177015000Y-100145000D02*
X177315000Y-100145000D01*
G75*
G02*
X177465000Y-100295000I0J-150000D01*
G01*
X177465000Y-102045000D01*
G75*
G02*
X177315000Y-102195000I-150000J0D01*
G01*
X177015000Y-102195000D01*
G75*
G02*
X176865000Y-102045000I0J150000D01*
G01*
X176865000Y-100295000D01*
G75*
G02*
X177015000Y-100145000I150000J0D01*
G01*
G37*
G36*
G01*
X175745000Y-100145000D02*
X176045000Y-100145000D01*
G75*
G02*
X176195000Y-100295000I0J-150000D01*
G01*
X176195000Y-102045000D01*
G75*
G02*
X176045000Y-102195000I-150000J0D01*
G01*
X175745000Y-102195000D01*
G75*
G02*
X175595000Y-102045000I0J150000D01*
G01*
X175595000Y-100295000D01*
G75*
G02*
X175745000Y-100145000I150000J0D01*
G01*
G37*
G36*
G01*
X174475000Y-100145000D02*
X174775000Y-100145000D01*
G75*
G02*
X174925000Y-100295000I0J-150000D01*
G01*
X174925000Y-102045000D01*
G75*
G02*
X174775000Y-102195000I-150000J0D01*
G01*
X174475000Y-102195000D01*
G75*
G02*
X174325000Y-102045000I0J150000D01*
G01*
X174325000Y-100295000D01*
G75*
G02*
X174475000Y-100145000I150000J0D01*
G01*
G37*
G36*
G01*
X173205000Y-100145000D02*
X173505000Y-100145000D01*
G75*
G02*
X173655000Y-100295000I0J-150000D01*
G01*
X173655000Y-102045000D01*
G75*
G02*
X173505000Y-102195000I-150000J0D01*
G01*
X173205000Y-102195000D01*
G75*
G02*
X173055000Y-102045000I0J150000D01*
G01*
X173055000Y-100295000D01*
G75*
G02*
X173205000Y-100145000I150000J0D01*
G01*
G37*
G36*
G01*
X171935000Y-100145000D02*
X172235000Y-100145000D01*
G75*
G02*
X172385000Y-100295000I0J-150000D01*
G01*
X172385000Y-102045000D01*
G75*
G02*
X172235000Y-102195000I-150000J0D01*
G01*
X171935000Y-102195000D01*
G75*
G02*
X171785000Y-102045000I0J150000D01*
G01*
X171785000Y-100295000D01*
G75*
G02*
X171935000Y-100145000I150000J0D01*
G01*
G37*
G36*
G01*
X170665000Y-100145000D02*
X170965000Y-100145000D01*
G75*
G02*
X171115000Y-100295000I0J-150000D01*
G01*
X171115000Y-102045000D01*
G75*
G02*
X170965000Y-102195000I-150000J0D01*
G01*
X170665000Y-102195000D01*
G75*
G02*
X170515000Y-102045000I0J150000D01*
G01*
X170515000Y-100295000D01*
G75*
G02*
X170665000Y-100145000I150000J0D01*
G01*
G37*
G36*
G01*
X169395000Y-100145000D02*
X169695000Y-100145000D01*
G75*
G02*
X169845000Y-100295000I0J-150000D01*
G01*
X169845000Y-102045000D01*
G75*
G02*
X169695000Y-102195000I-150000J0D01*
G01*
X169395000Y-102195000D01*
G75*
G02*
X169245000Y-102045000I0J150000D01*
G01*
X169245000Y-100295000D01*
G75*
G02*
X169395000Y-100145000I150000J0D01*
G01*
G37*
G36*
G01*
X168125000Y-100145000D02*
X168425000Y-100145000D01*
G75*
G02*
X168575000Y-100295000I0J-150000D01*
G01*
X168575000Y-102045000D01*
G75*
G02*
X168425000Y-102195000I-150000J0D01*
G01*
X168125000Y-102195000D01*
G75*
G02*
X167975000Y-102045000I0J150000D01*
G01*
X167975000Y-100295000D01*
G75*
G02*
X168125000Y-100145000I150000J0D01*
G01*
G37*
G36*
G01*
X166855000Y-100145000D02*
X167155000Y-100145000D01*
G75*
G02*
X167305000Y-100295000I0J-150000D01*
G01*
X167305000Y-102045000D01*
G75*
G02*
X167155000Y-102195000I-150000J0D01*
G01*
X166855000Y-102195000D01*
G75*
G02*
X166705000Y-102045000I0J150000D01*
G01*
X166705000Y-100295000D01*
G75*
G02*
X166855000Y-100145000I150000J0D01*
G01*
G37*
G36*
G01*
X165585000Y-100145000D02*
X165885000Y-100145000D01*
G75*
G02*
X166035000Y-100295000I0J-150000D01*
G01*
X166035000Y-102045000D01*
G75*
G02*
X165885000Y-102195000I-150000J0D01*
G01*
X165585000Y-102195000D01*
G75*
G02*
X165435000Y-102045000I0J150000D01*
G01*
X165435000Y-100295000D01*
G75*
G02*
X165585000Y-100145000I150000J0D01*
G01*
G37*
G36*
G01*
X165585000Y-90845000D02*
X165885000Y-90845000D01*
G75*
G02*
X166035000Y-90995000I0J-150000D01*
G01*
X166035000Y-92745000D01*
G75*
G02*
X165885000Y-92895000I-150000J0D01*
G01*
X165585000Y-92895000D01*
G75*
G02*
X165435000Y-92745000I0J150000D01*
G01*
X165435000Y-90995000D01*
G75*
G02*
X165585000Y-90845000I150000J0D01*
G01*
G37*
G36*
G01*
X166855000Y-90845000D02*
X167155000Y-90845000D01*
G75*
G02*
X167305000Y-90995000I0J-150000D01*
G01*
X167305000Y-92745000D01*
G75*
G02*
X167155000Y-92895000I-150000J0D01*
G01*
X166855000Y-92895000D01*
G75*
G02*
X166705000Y-92745000I0J150000D01*
G01*
X166705000Y-90995000D01*
G75*
G02*
X166855000Y-90845000I150000J0D01*
G01*
G37*
G36*
G01*
X168125000Y-90845000D02*
X168425000Y-90845000D01*
G75*
G02*
X168575000Y-90995000I0J-150000D01*
G01*
X168575000Y-92745000D01*
G75*
G02*
X168425000Y-92895000I-150000J0D01*
G01*
X168125000Y-92895000D01*
G75*
G02*
X167975000Y-92745000I0J150000D01*
G01*
X167975000Y-90995000D01*
G75*
G02*
X168125000Y-90845000I150000J0D01*
G01*
G37*
G36*
G01*
X169395000Y-90845000D02*
X169695000Y-90845000D01*
G75*
G02*
X169845000Y-90995000I0J-150000D01*
G01*
X169845000Y-92745000D01*
G75*
G02*
X169695000Y-92895000I-150000J0D01*
G01*
X169395000Y-92895000D01*
G75*
G02*
X169245000Y-92745000I0J150000D01*
G01*
X169245000Y-90995000D01*
G75*
G02*
X169395000Y-90845000I150000J0D01*
G01*
G37*
G36*
G01*
X170665000Y-90845000D02*
X170965000Y-90845000D01*
G75*
G02*
X171115000Y-90995000I0J-150000D01*
G01*
X171115000Y-92745000D01*
G75*
G02*
X170965000Y-92895000I-150000J0D01*
G01*
X170665000Y-92895000D01*
G75*
G02*
X170515000Y-92745000I0J150000D01*
G01*
X170515000Y-90995000D01*
G75*
G02*
X170665000Y-90845000I150000J0D01*
G01*
G37*
G36*
G01*
X171935000Y-90845000D02*
X172235000Y-90845000D01*
G75*
G02*
X172385000Y-90995000I0J-150000D01*
G01*
X172385000Y-92745000D01*
G75*
G02*
X172235000Y-92895000I-150000J0D01*
G01*
X171935000Y-92895000D01*
G75*
G02*
X171785000Y-92745000I0J150000D01*
G01*
X171785000Y-90995000D01*
G75*
G02*
X171935000Y-90845000I150000J0D01*
G01*
G37*
G36*
G01*
X173205000Y-90845000D02*
X173505000Y-90845000D01*
G75*
G02*
X173655000Y-90995000I0J-150000D01*
G01*
X173655000Y-92745000D01*
G75*
G02*
X173505000Y-92895000I-150000J0D01*
G01*
X173205000Y-92895000D01*
G75*
G02*
X173055000Y-92745000I0J150000D01*
G01*
X173055000Y-90995000D01*
G75*
G02*
X173205000Y-90845000I150000J0D01*
G01*
G37*
G36*
G01*
X174475000Y-90845000D02*
X174775000Y-90845000D01*
G75*
G02*
X174925000Y-90995000I0J-150000D01*
G01*
X174925000Y-92745000D01*
G75*
G02*
X174775000Y-92895000I-150000J0D01*
G01*
X174475000Y-92895000D01*
G75*
G02*
X174325000Y-92745000I0J150000D01*
G01*
X174325000Y-90995000D01*
G75*
G02*
X174475000Y-90845000I150000J0D01*
G01*
G37*
G36*
G01*
X175745000Y-90845000D02*
X176045000Y-90845000D01*
G75*
G02*
X176195000Y-90995000I0J-150000D01*
G01*
X176195000Y-92745000D01*
G75*
G02*
X176045000Y-92895000I-150000J0D01*
G01*
X175745000Y-92895000D01*
G75*
G02*
X175595000Y-92745000I0J150000D01*
G01*
X175595000Y-90995000D01*
G75*
G02*
X175745000Y-90845000I150000J0D01*
G01*
G37*
G36*
G01*
X177015000Y-90845000D02*
X177315000Y-90845000D01*
G75*
G02*
X177465000Y-90995000I0J-150000D01*
G01*
X177465000Y-92745000D01*
G75*
G02*
X177315000Y-92895000I-150000J0D01*
G01*
X177015000Y-92895000D01*
G75*
G02*
X176865000Y-92745000I0J150000D01*
G01*
X176865000Y-90995000D01*
G75*
G02*
X177015000Y-90845000I150000J0D01*
G01*
G37*
G36*
G01*
X178285000Y-90845000D02*
X178585000Y-90845000D01*
G75*
G02*
X178735000Y-90995000I0J-150000D01*
G01*
X178735000Y-92745000D01*
G75*
G02*
X178585000Y-92895000I-150000J0D01*
G01*
X178285000Y-92895000D01*
G75*
G02*
X178135000Y-92745000I0J150000D01*
G01*
X178135000Y-90995000D01*
G75*
G02*
X178285000Y-90845000I150000J0D01*
G01*
G37*
G36*
G01*
X179555000Y-90845000D02*
X179855000Y-90845000D01*
G75*
G02*
X180005000Y-90995000I0J-150000D01*
G01*
X180005000Y-92745000D01*
G75*
G02*
X179855000Y-92895000I-150000J0D01*
G01*
X179555000Y-92895000D01*
G75*
G02*
X179405000Y-92745000I0J150000D01*
G01*
X179405000Y-90995000D01*
G75*
G02*
X179555000Y-90845000I150000J0D01*
G01*
G37*
G36*
G01*
X159235000Y-120345000D02*
X159535000Y-120345000D01*
G75*
G02*
X159685000Y-120495000I0J-150000D01*
G01*
X159685000Y-122245000D01*
G75*
G02*
X159535000Y-122395000I-150000J0D01*
G01*
X159235000Y-122395000D01*
G75*
G02*
X159085000Y-122245000I0J150000D01*
G01*
X159085000Y-120495000D01*
G75*
G02*
X159235000Y-120345000I150000J0D01*
G01*
G37*
G36*
G01*
X157965000Y-120345000D02*
X158265000Y-120345000D01*
G75*
G02*
X158415000Y-120495000I0J-150000D01*
G01*
X158415000Y-122245000D01*
G75*
G02*
X158265000Y-122395000I-150000J0D01*
G01*
X157965000Y-122395000D01*
G75*
G02*
X157815000Y-122245000I0J150000D01*
G01*
X157815000Y-120495000D01*
G75*
G02*
X157965000Y-120345000I150000J0D01*
G01*
G37*
G36*
G01*
X156695000Y-120345000D02*
X156995000Y-120345000D01*
G75*
G02*
X157145000Y-120495000I0J-150000D01*
G01*
X157145000Y-122245000D01*
G75*
G02*
X156995000Y-122395000I-150000J0D01*
G01*
X156695000Y-122395000D01*
G75*
G02*
X156545000Y-122245000I0J150000D01*
G01*
X156545000Y-120495000D01*
G75*
G02*
X156695000Y-120345000I150000J0D01*
G01*
G37*
G36*
G01*
X155425000Y-120345000D02*
X155725000Y-120345000D01*
G75*
G02*
X155875000Y-120495000I0J-150000D01*
G01*
X155875000Y-122245000D01*
G75*
G02*
X155725000Y-122395000I-150000J0D01*
G01*
X155425000Y-122395000D01*
G75*
G02*
X155275000Y-122245000I0J150000D01*
G01*
X155275000Y-120495000D01*
G75*
G02*
X155425000Y-120345000I150000J0D01*
G01*
G37*
G36*
G01*
X154155000Y-120345000D02*
X154455000Y-120345000D01*
G75*
G02*
X154605000Y-120495000I0J-150000D01*
G01*
X154605000Y-122245000D01*
G75*
G02*
X154455000Y-122395000I-150000J0D01*
G01*
X154155000Y-122395000D01*
G75*
G02*
X154005000Y-122245000I0J150000D01*
G01*
X154005000Y-120495000D01*
G75*
G02*
X154155000Y-120345000I150000J0D01*
G01*
G37*
G36*
G01*
X152885000Y-120345000D02*
X153185000Y-120345000D01*
G75*
G02*
X153335000Y-120495000I0J-150000D01*
G01*
X153335000Y-122245000D01*
G75*
G02*
X153185000Y-122395000I-150000J0D01*
G01*
X152885000Y-122395000D01*
G75*
G02*
X152735000Y-122245000I0J150000D01*
G01*
X152735000Y-120495000D01*
G75*
G02*
X152885000Y-120345000I150000J0D01*
G01*
G37*
G36*
G01*
X151615000Y-120345000D02*
X151915000Y-120345000D01*
G75*
G02*
X152065000Y-120495000I0J-150000D01*
G01*
X152065000Y-122245000D01*
G75*
G02*
X151915000Y-122395000I-150000J0D01*
G01*
X151615000Y-122395000D01*
G75*
G02*
X151465000Y-122245000I0J150000D01*
G01*
X151465000Y-120495000D01*
G75*
G02*
X151615000Y-120345000I150000J0D01*
G01*
G37*
G36*
G01*
X150345000Y-120345000D02*
X150645000Y-120345000D01*
G75*
G02*
X150795000Y-120495000I0J-150000D01*
G01*
X150795000Y-122245000D01*
G75*
G02*
X150645000Y-122395000I-150000J0D01*
G01*
X150345000Y-122395000D01*
G75*
G02*
X150195000Y-122245000I0J150000D01*
G01*
X150195000Y-120495000D01*
G75*
G02*
X150345000Y-120345000I150000J0D01*
G01*
G37*
G36*
G01*
X149075000Y-120345000D02*
X149375000Y-120345000D01*
G75*
G02*
X149525000Y-120495000I0J-150000D01*
G01*
X149525000Y-122245000D01*
G75*
G02*
X149375000Y-122395000I-150000J0D01*
G01*
X149075000Y-122395000D01*
G75*
G02*
X148925000Y-122245000I0J150000D01*
G01*
X148925000Y-120495000D01*
G75*
G02*
X149075000Y-120345000I150000J0D01*
G01*
G37*
G36*
G01*
X147805000Y-120345000D02*
X148105000Y-120345000D01*
G75*
G02*
X148255000Y-120495000I0J-150000D01*
G01*
X148255000Y-122245000D01*
G75*
G02*
X148105000Y-122395000I-150000J0D01*
G01*
X147805000Y-122395000D01*
G75*
G02*
X147655000Y-122245000I0J150000D01*
G01*
X147655000Y-120495000D01*
G75*
G02*
X147805000Y-120345000I150000J0D01*
G01*
G37*
G36*
G01*
X146535000Y-120345000D02*
X146835000Y-120345000D01*
G75*
G02*
X146985000Y-120495000I0J-150000D01*
G01*
X146985000Y-122245000D01*
G75*
G02*
X146835000Y-122395000I-150000J0D01*
G01*
X146535000Y-122395000D01*
G75*
G02*
X146385000Y-122245000I0J150000D01*
G01*
X146385000Y-120495000D01*
G75*
G02*
X146535000Y-120345000I150000J0D01*
G01*
G37*
G36*
G01*
X145265000Y-120345000D02*
X145565000Y-120345000D01*
G75*
G02*
X145715000Y-120495000I0J-150000D01*
G01*
X145715000Y-122245000D01*
G75*
G02*
X145565000Y-122395000I-150000J0D01*
G01*
X145265000Y-122395000D01*
G75*
G02*
X145115000Y-122245000I0J150000D01*
G01*
X145115000Y-120495000D01*
G75*
G02*
X145265000Y-120345000I150000J0D01*
G01*
G37*
G36*
G01*
X145265000Y-111045000D02*
X145565000Y-111045000D01*
G75*
G02*
X145715000Y-111195000I0J-150000D01*
G01*
X145715000Y-112945000D01*
G75*
G02*
X145565000Y-113095000I-150000J0D01*
G01*
X145265000Y-113095000D01*
G75*
G02*
X145115000Y-112945000I0J150000D01*
G01*
X145115000Y-111195000D01*
G75*
G02*
X145265000Y-111045000I150000J0D01*
G01*
G37*
G36*
G01*
X146535000Y-111045000D02*
X146835000Y-111045000D01*
G75*
G02*
X146985000Y-111195000I0J-150000D01*
G01*
X146985000Y-112945000D01*
G75*
G02*
X146835000Y-113095000I-150000J0D01*
G01*
X146535000Y-113095000D01*
G75*
G02*
X146385000Y-112945000I0J150000D01*
G01*
X146385000Y-111195000D01*
G75*
G02*
X146535000Y-111045000I150000J0D01*
G01*
G37*
G36*
G01*
X147805000Y-111045000D02*
X148105000Y-111045000D01*
G75*
G02*
X148255000Y-111195000I0J-150000D01*
G01*
X148255000Y-112945000D01*
G75*
G02*
X148105000Y-113095000I-150000J0D01*
G01*
X147805000Y-113095000D01*
G75*
G02*
X147655000Y-112945000I0J150000D01*
G01*
X147655000Y-111195000D01*
G75*
G02*
X147805000Y-111045000I150000J0D01*
G01*
G37*
G36*
G01*
X149075000Y-111045000D02*
X149375000Y-111045000D01*
G75*
G02*
X149525000Y-111195000I0J-150000D01*
G01*
X149525000Y-112945000D01*
G75*
G02*
X149375000Y-113095000I-150000J0D01*
G01*
X149075000Y-113095000D01*
G75*
G02*
X148925000Y-112945000I0J150000D01*
G01*
X148925000Y-111195000D01*
G75*
G02*
X149075000Y-111045000I150000J0D01*
G01*
G37*
G36*
G01*
X150345000Y-111045000D02*
X150645000Y-111045000D01*
G75*
G02*
X150795000Y-111195000I0J-150000D01*
G01*
X150795000Y-112945000D01*
G75*
G02*
X150645000Y-113095000I-150000J0D01*
G01*
X150345000Y-113095000D01*
G75*
G02*
X150195000Y-112945000I0J150000D01*
G01*
X150195000Y-111195000D01*
G75*
G02*
X150345000Y-111045000I150000J0D01*
G01*
G37*
G36*
G01*
X151615000Y-111045000D02*
X151915000Y-111045000D01*
G75*
G02*
X152065000Y-111195000I0J-150000D01*
G01*
X152065000Y-112945000D01*
G75*
G02*
X151915000Y-113095000I-150000J0D01*
G01*
X151615000Y-113095000D01*
G75*
G02*
X151465000Y-112945000I0J150000D01*
G01*
X151465000Y-111195000D01*
G75*
G02*
X151615000Y-111045000I150000J0D01*
G01*
G37*
G36*
G01*
X152885000Y-111045000D02*
X153185000Y-111045000D01*
G75*
G02*
X153335000Y-111195000I0J-150000D01*
G01*
X153335000Y-112945000D01*
G75*
G02*
X153185000Y-113095000I-150000J0D01*
G01*
X152885000Y-113095000D01*
G75*
G02*
X152735000Y-112945000I0J150000D01*
G01*
X152735000Y-111195000D01*
G75*
G02*
X152885000Y-111045000I150000J0D01*
G01*
G37*
G36*
G01*
X154155000Y-111045000D02*
X154455000Y-111045000D01*
G75*
G02*
X154605000Y-111195000I0J-150000D01*
G01*
X154605000Y-112945000D01*
G75*
G02*
X154455000Y-113095000I-150000J0D01*
G01*
X154155000Y-113095000D01*
G75*
G02*
X154005000Y-112945000I0J150000D01*
G01*
X154005000Y-111195000D01*
G75*
G02*
X154155000Y-111045000I150000J0D01*
G01*
G37*
G36*
G01*
X155425000Y-111045000D02*
X155725000Y-111045000D01*
G75*
G02*
X155875000Y-111195000I0J-150000D01*
G01*
X155875000Y-112945000D01*
G75*
G02*
X155725000Y-113095000I-150000J0D01*
G01*
X155425000Y-113095000D01*
G75*
G02*
X155275000Y-112945000I0J150000D01*
G01*
X155275000Y-111195000D01*
G75*
G02*
X155425000Y-111045000I150000J0D01*
G01*
G37*
G36*
G01*
X156695000Y-111045000D02*
X156995000Y-111045000D01*
G75*
G02*
X157145000Y-111195000I0J-150000D01*
G01*
X157145000Y-112945000D01*
G75*
G02*
X156995000Y-113095000I-150000J0D01*
G01*
X156695000Y-113095000D01*
G75*
G02*
X156545000Y-112945000I0J150000D01*
G01*
X156545000Y-111195000D01*
G75*
G02*
X156695000Y-111045000I150000J0D01*
G01*
G37*
G36*
G01*
X157965000Y-111045000D02*
X158265000Y-111045000D01*
G75*
G02*
X158415000Y-111195000I0J-150000D01*
G01*
X158415000Y-112945000D01*
G75*
G02*
X158265000Y-113095000I-150000J0D01*
G01*
X157965000Y-113095000D01*
G75*
G02*
X157815000Y-112945000I0J150000D01*
G01*
X157815000Y-111195000D01*
G75*
G02*
X157965000Y-111045000I150000J0D01*
G01*
G37*
G36*
G01*
X159235000Y-111045000D02*
X159535000Y-111045000D01*
G75*
G02*
X159685000Y-111195000I0J-150000D01*
G01*
X159685000Y-112945000D01*
G75*
G02*
X159535000Y-113095000I-150000J0D01*
G01*
X159235000Y-113095000D01*
G75*
G02*
X159085000Y-112945000I0J150000D01*
G01*
X159085000Y-111195000D01*
G75*
G02*
X159235000Y-111045000I150000J0D01*
G01*
G37*
G36*
G01*
X179555000Y-120345000D02*
X179855000Y-120345000D01*
G75*
G02*
X180005000Y-120495000I0J-150000D01*
G01*
X180005000Y-122245000D01*
G75*
G02*
X179855000Y-122395000I-150000J0D01*
G01*
X179555000Y-122395000D01*
G75*
G02*
X179405000Y-122245000I0J150000D01*
G01*
X179405000Y-120495000D01*
G75*
G02*
X179555000Y-120345000I150000J0D01*
G01*
G37*
G36*
G01*
X178285000Y-120345000D02*
X178585000Y-120345000D01*
G75*
G02*
X178735000Y-120495000I0J-150000D01*
G01*
X178735000Y-122245000D01*
G75*
G02*
X178585000Y-122395000I-150000J0D01*
G01*
X178285000Y-122395000D01*
G75*
G02*
X178135000Y-122245000I0J150000D01*
G01*
X178135000Y-120495000D01*
G75*
G02*
X178285000Y-120345000I150000J0D01*
G01*
G37*
G36*
G01*
X177015000Y-120345000D02*
X177315000Y-120345000D01*
G75*
G02*
X177465000Y-120495000I0J-150000D01*
G01*
X177465000Y-122245000D01*
G75*
G02*
X177315000Y-122395000I-150000J0D01*
G01*
X177015000Y-122395000D01*
G75*
G02*
X176865000Y-122245000I0J150000D01*
G01*
X176865000Y-120495000D01*
G75*
G02*
X177015000Y-120345000I150000J0D01*
G01*
G37*
G36*
G01*
X175745000Y-120345000D02*
X176045000Y-120345000D01*
G75*
G02*
X176195000Y-120495000I0J-150000D01*
G01*
X176195000Y-122245000D01*
G75*
G02*
X176045000Y-122395000I-150000J0D01*
G01*
X175745000Y-122395000D01*
G75*
G02*
X175595000Y-122245000I0J150000D01*
G01*
X175595000Y-120495000D01*
G75*
G02*
X175745000Y-120345000I150000J0D01*
G01*
G37*
G36*
G01*
X174475000Y-120345000D02*
X174775000Y-120345000D01*
G75*
G02*
X174925000Y-120495000I0J-150000D01*
G01*
X174925000Y-122245000D01*
G75*
G02*
X174775000Y-122395000I-150000J0D01*
G01*
X174475000Y-122395000D01*
G75*
G02*
X174325000Y-122245000I0J150000D01*
G01*
X174325000Y-120495000D01*
G75*
G02*
X174475000Y-120345000I150000J0D01*
G01*
G37*
G36*
G01*
X173205000Y-120345000D02*
X173505000Y-120345000D01*
G75*
G02*
X173655000Y-120495000I0J-150000D01*
G01*
X173655000Y-122245000D01*
G75*
G02*
X173505000Y-122395000I-150000J0D01*
G01*
X173205000Y-122395000D01*
G75*
G02*
X173055000Y-122245000I0J150000D01*
G01*
X173055000Y-120495000D01*
G75*
G02*
X173205000Y-120345000I150000J0D01*
G01*
G37*
G36*
G01*
X171935000Y-120345000D02*
X172235000Y-120345000D01*
G75*
G02*
X172385000Y-120495000I0J-150000D01*
G01*
X172385000Y-122245000D01*
G75*
G02*
X172235000Y-122395000I-150000J0D01*
G01*
X171935000Y-122395000D01*
G75*
G02*
X171785000Y-122245000I0J150000D01*
G01*
X171785000Y-120495000D01*
G75*
G02*
X171935000Y-120345000I150000J0D01*
G01*
G37*
G36*
G01*
X170665000Y-120345000D02*
X170965000Y-120345000D01*
G75*
G02*
X171115000Y-120495000I0J-150000D01*
G01*
X171115000Y-122245000D01*
G75*
G02*
X170965000Y-122395000I-150000J0D01*
G01*
X170665000Y-122395000D01*
G75*
G02*
X170515000Y-122245000I0J150000D01*
G01*
X170515000Y-120495000D01*
G75*
G02*
X170665000Y-120345000I150000J0D01*
G01*
G37*
G36*
G01*
X169395000Y-120345000D02*
X169695000Y-120345000D01*
G75*
G02*
X169845000Y-120495000I0J-150000D01*
G01*
X169845000Y-122245000D01*
G75*
G02*
X169695000Y-122395000I-150000J0D01*
G01*
X169395000Y-122395000D01*
G75*
G02*
X169245000Y-122245000I0J150000D01*
G01*
X169245000Y-120495000D01*
G75*
G02*
X169395000Y-120345000I150000J0D01*
G01*
G37*
G36*
G01*
X168125000Y-120345000D02*
X168425000Y-120345000D01*
G75*
G02*
X168575000Y-120495000I0J-150000D01*
G01*
X168575000Y-122245000D01*
G75*
G02*
X168425000Y-122395000I-150000J0D01*
G01*
X168125000Y-122395000D01*
G75*
G02*
X167975000Y-122245000I0J150000D01*
G01*
X167975000Y-120495000D01*
G75*
G02*
X168125000Y-120345000I150000J0D01*
G01*
G37*
G36*
G01*
X166855000Y-120345000D02*
X167155000Y-120345000D01*
G75*
G02*
X167305000Y-120495000I0J-150000D01*
G01*
X167305000Y-122245000D01*
G75*
G02*
X167155000Y-122395000I-150000J0D01*
G01*
X166855000Y-122395000D01*
G75*
G02*
X166705000Y-122245000I0J150000D01*
G01*
X166705000Y-120495000D01*
G75*
G02*
X166855000Y-120345000I150000J0D01*
G01*
G37*
G36*
G01*
X165585000Y-120345000D02*
X165885000Y-120345000D01*
G75*
G02*
X166035000Y-120495000I0J-150000D01*
G01*
X166035000Y-122245000D01*
G75*
G02*
X165885000Y-122395000I-150000J0D01*
G01*
X165585000Y-122395000D01*
G75*
G02*
X165435000Y-122245000I0J150000D01*
G01*
X165435000Y-120495000D01*
G75*
G02*
X165585000Y-120345000I150000J0D01*
G01*
G37*
G36*
G01*
X165585000Y-111045000D02*
X165885000Y-111045000D01*
G75*
G02*
X166035000Y-111195000I0J-150000D01*
G01*
X166035000Y-112945000D01*
G75*
G02*
X165885000Y-113095000I-150000J0D01*
G01*
X165585000Y-113095000D01*
G75*
G02*
X165435000Y-112945000I0J150000D01*
G01*
X165435000Y-111195000D01*
G75*
G02*
X165585000Y-111045000I150000J0D01*
G01*
G37*
G36*
G01*
X166855000Y-111045000D02*
X167155000Y-111045000D01*
G75*
G02*
X167305000Y-111195000I0J-150000D01*
G01*
X167305000Y-112945000D01*
G75*
G02*
X167155000Y-113095000I-150000J0D01*
G01*
X166855000Y-113095000D01*
G75*
G02*
X166705000Y-112945000I0J150000D01*
G01*
X166705000Y-111195000D01*
G75*
G02*
X166855000Y-111045000I150000J0D01*
G01*
G37*
G36*
G01*
X168125000Y-111045000D02*
X168425000Y-111045000D01*
G75*
G02*
X168575000Y-111195000I0J-150000D01*
G01*
X168575000Y-112945000D01*
G75*
G02*
X168425000Y-113095000I-150000J0D01*
G01*
X168125000Y-113095000D01*
G75*
G02*
X167975000Y-112945000I0J150000D01*
G01*
X167975000Y-111195000D01*
G75*
G02*
X168125000Y-111045000I150000J0D01*
G01*
G37*
G36*
G01*
X169395000Y-111045000D02*
X169695000Y-111045000D01*
G75*
G02*
X169845000Y-111195000I0J-150000D01*
G01*
X169845000Y-112945000D01*
G75*
G02*
X169695000Y-113095000I-150000J0D01*
G01*
X169395000Y-113095000D01*
G75*
G02*
X169245000Y-112945000I0J150000D01*
G01*
X169245000Y-111195000D01*
G75*
G02*
X169395000Y-111045000I150000J0D01*
G01*
G37*
G36*
G01*
X170665000Y-111045000D02*
X170965000Y-111045000D01*
G75*
G02*
X171115000Y-111195000I0J-150000D01*
G01*
X171115000Y-112945000D01*
G75*
G02*
X170965000Y-113095000I-150000J0D01*
G01*
X170665000Y-113095000D01*
G75*
G02*
X170515000Y-112945000I0J150000D01*
G01*
X170515000Y-111195000D01*
G75*
G02*
X170665000Y-111045000I150000J0D01*
G01*
G37*
G36*
G01*
X171935000Y-111045000D02*
X172235000Y-111045000D01*
G75*
G02*
X172385000Y-111195000I0J-150000D01*
G01*
X172385000Y-112945000D01*
G75*
G02*
X172235000Y-113095000I-150000J0D01*
G01*
X171935000Y-113095000D01*
G75*
G02*
X171785000Y-112945000I0J150000D01*
G01*
X171785000Y-111195000D01*
G75*
G02*
X171935000Y-111045000I150000J0D01*
G01*
G37*
G36*
G01*
X173205000Y-111045000D02*
X173505000Y-111045000D01*
G75*
G02*
X173655000Y-111195000I0J-150000D01*
G01*
X173655000Y-112945000D01*
G75*
G02*
X173505000Y-113095000I-150000J0D01*
G01*
X173205000Y-113095000D01*
G75*
G02*
X173055000Y-112945000I0J150000D01*
G01*
X173055000Y-111195000D01*
G75*
G02*
X173205000Y-111045000I150000J0D01*
G01*
G37*
G36*
G01*
X174475000Y-111045000D02*
X174775000Y-111045000D01*
G75*
G02*
X174925000Y-111195000I0J-150000D01*
G01*
X174925000Y-112945000D01*
G75*
G02*
X174775000Y-113095000I-150000J0D01*
G01*
X174475000Y-113095000D01*
G75*
G02*
X174325000Y-112945000I0J150000D01*
G01*
X174325000Y-111195000D01*
G75*
G02*
X174475000Y-111045000I150000J0D01*
G01*
G37*
G36*
G01*
X175745000Y-111045000D02*
X176045000Y-111045000D01*
G75*
G02*
X176195000Y-111195000I0J-150000D01*
G01*
X176195000Y-112945000D01*
G75*
G02*
X176045000Y-113095000I-150000J0D01*
G01*
X175745000Y-113095000D01*
G75*
G02*
X175595000Y-112945000I0J150000D01*
G01*
X175595000Y-111195000D01*
G75*
G02*
X175745000Y-111045000I150000J0D01*
G01*
G37*
G36*
G01*
X177015000Y-111045000D02*
X177315000Y-111045000D01*
G75*
G02*
X177465000Y-111195000I0J-150000D01*
G01*
X177465000Y-112945000D01*
G75*
G02*
X177315000Y-113095000I-150000J0D01*
G01*
X177015000Y-113095000D01*
G75*
G02*
X176865000Y-112945000I0J150000D01*
G01*
X176865000Y-111195000D01*
G75*
G02*
X177015000Y-111045000I150000J0D01*
G01*
G37*
G36*
G01*
X178285000Y-111045000D02*
X178585000Y-111045000D01*
G75*
G02*
X178735000Y-111195000I0J-150000D01*
G01*
X178735000Y-112945000D01*
G75*
G02*
X178585000Y-113095000I-150000J0D01*
G01*
X178285000Y-113095000D01*
G75*
G02*
X178135000Y-112945000I0J150000D01*
G01*
X178135000Y-111195000D01*
G75*
G02*
X178285000Y-111045000I150000J0D01*
G01*
G37*
G36*
G01*
X179555000Y-111045000D02*
X179855000Y-111045000D01*
G75*
G02*
X180005000Y-111195000I0J-150000D01*
G01*
X180005000Y-112945000D01*
G75*
G02*
X179855000Y-113095000I-150000J0D01*
G01*
X179555000Y-113095000D01*
G75*
G02*
X179405000Y-112945000I0J150000D01*
G01*
X179405000Y-111195000D01*
G75*
G02*
X179555000Y-111045000I150000J0D01*
G01*
G37*
G36*
G01*
X138915000Y-120345000D02*
X139215000Y-120345000D01*
G75*
G02*
X139365000Y-120495000I0J-150000D01*
G01*
X139365000Y-122245000D01*
G75*
G02*
X139215000Y-122395000I-150000J0D01*
G01*
X138915000Y-122395000D01*
G75*
G02*
X138765000Y-122245000I0J150000D01*
G01*
X138765000Y-120495000D01*
G75*
G02*
X138915000Y-120345000I150000J0D01*
G01*
G37*
G36*
G01*
X137645000Y-120345000D02*
X137945000Y-120345000D01*
G75*
G02*
X138095000Y-120495000I0J-150000D01*
G01*
X138095000Y-122245000D01*
G75*
G02*
X137945000Y-122395000I-150000J0D01*
G01*
X137645000Y-122395000D01*
G75*
G02*
X137495000Y-122245000I0J150000D01*
G01*
X137495000Y-120495000D01*
G75*
G02*
X137645000Y-120345000I150000J0D01*
G01*
G37*
G36*
G01*
X136375000Y-120345000D02*
X136675000Y-120345000D01*
G75*
G02*
X136825000Y-120495000I0J-150000D01*
G01*
X136825000Y-122245000D01*
G75*
G02*
X136675000Y-122395000I-150000J0D01*
G01*
X136375000Y-122395000D01*
G75*
G02*
X136225000Y-122245000I0J150000D01*
G01*
X136225000Y-120495000D01*
G75*
G02*
X136375000Y-120345000I150000J0D01*
G01*
G37*
G36*
G01*
X135105000Y-120345000D02*
X135405000Y-120345000D01*
G75*
G02*
X135555000Y-120495000I0J-150000D01*
G01*
X135555000Y-122245000D01*
G75*
G02*
X135405000Y-122395000I-150000J0D01*
G01*
X135105000Y-122395000D01*
G75*
G02*
X134955000Y-122245000I0J150000D01*
G01*
X134955000Y-120495000D01*
G75*
G02*
X135105000Y-120345000I150000J0D01*
G01*
G37*
G36*
G01*
X133835000Y-120345000D02*
X134135000Y-120345000D01*
G75*
G02*
X134285000Y-120495000I0J-150000D01*
G01*
X134285000Y-122245000D01*
G75*
G02*
X134135000Y-122395000I-150000J0D01*
G01*
X133835000Y-122395000D01*
G75*
G02*
X133685000Y-122245000I0J150000D01*
G01*
X133685000Y-120495000D01*
G75*
G02*
X133835000Y-120345000I150000J0D01*
G01*
G37*
G36*
G01*
X132565000Y-120345000D02*
X132865000Y-120345000D01*
G75*
G02*
X133015000Y-120495000I0J-150000D01*
G01*
X133015000Y-122245000D01*
G75*
G02*
X132865000Y-122395000I-150000J0D01*
G01*
X132565000Y-122395000D01*
G75*
G02*
X132415000Y-122245000I0J150000D01*
G01*
X132415000Y-120495000D01*
G75*
G02*
X132565000Y-120345000I150000J0D01*
G01*
G37*
G36*
G01*
X131295000Y-120345000D02*
X131595000Y-120345000D01*
G75*
G02*
X131745000Y-120495000I0J-150000D01*
G01*
X131745000Y-122245000D01*
G75*
G02*
X131595000Y-122395000I-150000J0D01*
G01*
X131295000Y-122395000D01*
G75*
G02*
X131145000Y-122245000I0J150000D01*
G01*
X131145000Y-120495000D01*
G75*
G02*
X131295000Y-120345000I150000J0D01*
G01*
G37*
G36*
G01*
X130025000Y-120345000D02*
X130325000Y-120345000D01*
G75*
G02*
X130475000Y-120495000I0J-150000D01*
G01*
X130475000Y-122245000D01*
G75*
G02*
X130325000Y-122395000I-150000J0D01*
G01*
X130025000Y-122395000D01*
G75*
G02*
X129875000Y-122245000I0J150000D01*
G01*
X129875000Y-120495000D01*
G75*
G02*
X130025000Y-120345000I150000J0D01*
G01*
G37*
G36*
G01*
X128755000Y-120345000D02*
X129055000Y-120345000D01*
G75*
G02*
X129205000Y-120495000I0J-150000D01*
G01*
X129205000Y-122245000D01*
G75*
G02*
X129055000Y-122395000I-150000J0D01*
G01*
X128755000Y-122395000D01*
G75*
G02*
X128605000Y-122245000I0J150000D01*
G01*
X128605000Y-120495000D01*
G75*
G02*
X128755000Y-120345000I150000J0D01*
G01*
G37*
G36*
G01*
X127485000Y-120345000D02*
X127785000Y-120345000D01*
G75*
G02*
X127935000Y-120495000I0J-150000D01*
G01*
X127935000Y-122245000D01*
G75*
G02*
X127785000Y-122395000I-150000J0D01*
G01*
X127485000Y-122395000D01*
G75*
G02*
X127335000Y-122245000I0J150000D01*
G01*
X127335000Y-120495000D01*
G75*
G02*
X127485000Y-120345000I150000J0D01*
G01*
G37*
G36*
G01*
X126215000Y-120345000D02*
X126515000Y-120345000D01*
G75*
G02*
X126665000Y-120495000I0J-150000D01*
G01*
X126665000Y-122245000D01*
G75*
G02*
X126515000Y-122395000I-150000J0D01*
G01*
X126215000Y-122395000D01*
G75*
G02*
X126065000Y-122245000I0J150000D01*
G01*
X126065000Y-120495000D01*
G75*
G02*
X126215000Y-120345000I150000J0D01*
G01*
G37*
G36*
G01*
X124945000Y-120345000D02*
X125245000Y-120345000D01*
G75*
G02*
X125395000Y-120495000I0J-150000D01*
G01*
X125395000Y-122245000D01*
G75*
G02*
X125245000Y-122395000I-150000J0D01*
G01*
X124945000Y-122395000D01*
G75*
G02*
X124795000Y-122245000I0J150000D01*
G01*
X124795000Y-120495000D01*
G75*
G02*
X124945000Y-120345000I150000J0D01*
G01*
G37*
G36*
G01*
X124945000Y-111045000D02*
X125245000Y-111045000D01*
G75*
G02*
X125395000Y-111195000I0J-150000D01*
G01*
X125395000Y-112945000D01*
G75*
G02*
X125245000Y-113095000I-150000J0D01*
G01*
X124945000Y-113095000D01*
G75*
G02*
X124795000Y-112945000I0J150000D01*
G01*
X124795000Y-111195000D01*
G75*
G02*
X124945000Y-111045000I150000J0D01*
G01*
G37*
G36*
G01*
X126215000Y-111045000D02*
X126515000Y-111045000D01*
G75*
G02*
X126665000Y-111195000I0J-150000D01*
G01*
X126665000Y-112945000D01*
G75*
G02*
X126515000Y-113095000I-150000J0D01*
G01*
X126215000Y-113095000D01*
G75*
G02*
X126065000Y-112945000I0J150000D01*
G01*
X126065000Y-111195000D01*
G75*
G02*
X126215000Y-111045000I150000J0D01*
G01*
G37*
G36*
G01*
X127485000Y-111045000D02*
X127785000Y-111045000D01*
G75*
G02*
X127935000Y-111195000I0J-150000D01*
G01*
X127935000Y-112945000D01*
G75*
G02*
X127785000Y-113095000I-150000J0D01*
G01*
X127485000Y-113095000D01*
G75*
G02*
X127335000Y-112945000I0J150000D01*
G01*
X127335000Y-111195000D01*
G75*
G02*
X127485000Y-111045000I150000J0D01*
G01*
G37*
G36*
G01*
X128755000Y-111045000D02*
X129055000Y-111045000D01*
G75*
G02*
X129205000Y-111195000I0J-150000D01*
G01*
X129205000Y-112945000D01*
G75*
G02*
X129055000Y-113095000I-150000J0D01*
G01*
X128755000Y-113095000D01*
G75*
G02*
X128605000Y-112945000I0J150000D01*
G01*
X128605000Y-111195000D01*
G75*
G02*
X128755000Y-111045000I150000J0D01*
G01*
G37*
G36*
G01*
X130025000Y-111045000D02*
X130325000Y-111045000D01*
G75*
G02*
X130475000Y-111195000I0J-150000D01*
G01*
X130475000Y-112945000D01*
G75*
G02*
X130325000Y-113095000I-150000J0D01*
G01*
X130025000Y-113095000D01*
G75*
G02*
X129875000Y-112945000I0J150000D01*
G01*
X129875000Y-111195000D01*
G75*
G02*
X130025000Y-111045000I150000J0D01*
G01*
G37*
G36*
G01*
X131295000Y-111045000D02*
X131595000Y-111045000D01*
G75*
G02*
X131745000Y-111195000I0J-150000D01*
G01*
X131745000Y-112945000D01*
G75*
G02*
X131595000Y-113095000I-150000J0D01*
G01*
X131295000Y-113095000D01*
G75*
G02*
X131145000Y-112945000I0J150000D01*
G01*
X131145000Y-111195000D01*
G75*
G02*
X131295000Y-111045000I150000J0D01*
G01*
G37*
G36*
G01*
X132565000Y-111045000D02*
X132865000Y-111045000D01*
G75*
G02*
X133015000Y-111195000I0J-150000D01*
G01*
X133015000Y-112945000D01*
G75*
G02*
X132865000Y-113095000I-150000J0D01*
G01*
X132565000Y-113095000D01*
G75*
G02*
X132415000Y-112945000I0J150000D01*
G01*
X132415000Y-111195000D01*
G75*
G02*
X132565000Y-111045000I150000J0D01*
G01*
G37*
G36*
G01*
X133835000Y-111045000D02*
X134135000Y-111045000D01*
G75*
G02*
X134285000Y-111195000I0J-150000D01*
G01*
X134285000Y-112945000D01*
G75*
G02*
X134135000Y-113095000I-150000J0D01*
G01*
X133835000Y-113095000D01*
G75*
G02*
X133685000Y-112945000I0J150000D01*
G01*
X133685000Y-111195000D01*
G75*
G02*
X133835000Y-111045000I150000J0D01*
G01*
G37*
G36*
G01*
X135105000Y-111045000D02*
X135405000Y-111045000D01*
G75*
G02*
X135555000Y-111195000I0J-150000D01*
G01*
X135555000Y-112945000D01*
G75*
G02*
X135405000Y-113095000I-150000J0D01*
G01*
X135105000Y-113095000D01*
G75*
G02*
X134955000Y-112945000I0J150000D01*
G01*
X134955000Y-111195000D01*
G75*
G02*
X135105000Y-111045000I150000J0D01*
G01*
G37*
G36*
G01*
X136375000Y-111045000D02*
X136675000Y-111045000D01*
G75*
G02*
X136825000Y-111195000I0J-150000D01*
G01*
X136825000Y-112945000D01*
G75*
G02*
X136675000Y-113095000I-150000J0D01*
G01*
X136375000Y-113095000D01*
G75*
G02*
X136225000Y-112945000I0J150000D01*
G01*
X136225000Y-111195000D01*
G75*
G02*
X136375000Y-111045000I150000J0D01*
G01*
G37*
G36*
G01*
X137645000Y-111045000D02*
X137945000Y-111045000D01*
G75*
G02*
X138095000Y-111195000I0J-150000D01*
G01*
X138095000Y-112945000D01*
G75*
G02*
X137945000Y-113095000I-150000J0D01*
G01*
X137645000Y-113095000D01*
G75*
G02*
X137495000Y-112945000I0J150000D01*
G01*
X137495000Y-111195000D01*
G75*
G02*
X137645000Y-111045000I150000J0D01*
G01*
G37*
G36*
G01*
X138915000Y-111045000D02*
X139215000Y-111045000D01*
G75*
G02*
X139365000Y-111195000I0J-150000D01*
G01*
X139365000Y-112945000D01*
G75*
G02*
X139215000Y-113095000I-150000J0D01*
G01*
X138915000Y-113095000D01*
G75*
G02*
X138765000Y-112945000I0J150000D01*
G01*
X138765000Y-111195000D01*
G75*
G02*
X138915000Y-111045000I150000J0D01*
G01*
G37*
G36*
G01*
X118595000Y-120465000D02*
X118895000Y-120465000D01*
G75*
G02*
X119045000Y-120615000I0J-150000D01*
G01*
X119045000Y-122365000D01*
G75*
G02*
X118895000Y-122515000I-150000J0D01*
G01*
X118595000Y-122515000D01*
G75*
G02*
X118445000Y-122365000I0J150000D01*
G01*
X118445000Y-120615000D01*
G75*
G02*
X118595000Y-120465000I150000J0D01*
G01*
G37*
G36*
G01*
X117325000Y-120465000D02*
X117625000Y-120465000D01*
G75*
G02*
X117775000Y-120615000I0J-150000D01*
G01*
X117775000Y-122365000D01*
G75*
G02*
X117625000Y-122515000I-150000J0D01*
G01*
X117325000Y-122515000D01*
G75*
G02*
X117175000Y-122365000I0J150000D01*
G01*
X117175000Y-120615000D01*
G75*
G02*
X117325000Y-120465000I150000J0D01*
G01*
G37*
G36*
G01*
X116055000Y-120465000D02*
X116355000Y-120465000D01*
G75*
G02*
X116505000Y-120615000I0J-150000D01*
G01*
X116505000Y-122365000D01*
G75*
G02*
X116355000Y-122515000I-150000J0D01*
G01*
X116055000Y-122515000D01*
G75*
G02*
X115905000Y-122365000I0J150000D01*
G01*
X115905000Y-120615000D01*
G75*
G02*
X116055000Y-120465000I150000J0D01*
G01*
G37*
G36*
G01*
X114785000Y-120465000D02*
X115085000Y-120465000D01*
G75*
G02*
X115235000Y-120615000I0J-150000D01*
G01*
X115235000Y-122365000D01*
G75*
G02*
X115085000Y-122515000I-150000J0D01*
G01*
X114785000Y-122515000D01*
G75*
G02*
X114635000Y-122365000I0J150000D01*
G01*
X114635000Y-120615000D01*
G75*
G02*
X114785000Y-120465000I150000J0D01*
G01*
G37*
G36*
G01*
X113515000Y-120465000D02*
X113815000Y-120465000D01*
G75*
G02*
X113965000Y-120615000I0J-150000D01*
G01*
X113965000Y-122365000D01*
G75*
G02*
X113815000Y-122515000I-150000J0D01*
G01*
X113515000Y-122515000D01*
G75*
G02*
X113365000Y-122365000I0J150000D01*
G01*
X113365000Y-120615000D01*
G75*
G02*
X113515000Y-120465000I150000J0D01*
G01*
G37*
G36*
G01*
X112245000Y-120465000D02*
X112545000Y-120465000D01*
G75*
G02*
X112695000Y-120615000I0J-150000D01*
G01*
X112695000Y-122365000D01*
G75*
G02*
X112545000Y-122515000I-150000J0D01*
G01*
X112245000Y-122515000D01*
G75*
G02*
X112095000Y-122365000I0J150000D01*
G01*
X112095000Y-120615000D01*
G75*
G02*
X112245000Y-120465000I150000J0D01*
G01*
G37*
G36*
G01*
X110975000Y-120465000D02*
X111275000Y-120465000D01*
G75*
G02*
X111425000Y-120615000I0J-150000D01*
G01*
X111425000Y-122365000D01*
G75*
G02*
X111275000Y-122515000I-150000J0D01*
G01*
X110975000Y-122515000D01*
G75*
G02*
X110825000Y-122365000I0J150000D01*
G01*
X110825000Y-120615000D01*
G75*
G02*
X110975000Y-120465000I150000J0D01*
G01*
G37*
G36*
G01*
X109705000Y-120465000D02*
X110005000Y-120465000D01*
G75*
G02*
X110155000Y-120615000I0J-150000D01*
G01*
X110155000Y-122365000D01*
G75*
G02*
X110005000Y-122515000I-150000J0D01*
G01*
X109705000Y-122515000D01*
G75*
G02*
X109555000Y-122365000I0J150000D01*
G01*
X109555000Y-120615000D01*
G75*
G02*
X109705000Y-120465000I150000J0D01*
G01*
G37*
G36*
G01*
X108435000Y-120465000D02*
X108735000Y-120465000D01*
G75*
G02*
X108885000Y-120615000I0J-150000D01*
G01*
X108885000Y-122365000D01*
G75*
G02*
X108735000Y-122515000I-150000J0D01*
G01*
X108435000Y-122515000D01*
G75*
G02*
X108285000Y-122365000I0J150000D01*
G01*
X108285000Y-120615000D01*
G75*
G02*
X108435000Y-120465000I150000J0D01*
G01*
G37*
G36*
G01*
X107165000Y-120465000D02*
X107465000Y-120465000D01*
G75*
G02*
X107615000Y-120615000I0J-150000D01*
G01*
X107615000Y-122365000D01*
G75*
G02*
X107465000Y-122515000I-150000J0D01*
G01*
X107165000Y-122515000D01*
G75*
G02*
X107015000Y-122365000I0J150000D01*
G01*
X107015000Y-120615000D01*
G75*
G02*
X107165000Y-120465000I150000J0D01*
G01*
G37*
G36*
G01*
X105895000Y-120465000D02*
X106195000Y-120465000D01*
G75*
G02*
X106345000Y-120615000I0J-150000D01*
G01*
X106345000Y-122365000D01*
G75*
G02*
X106195000Y-122515000I-150000J0D01*
G01*
X105895000Y-122515000D01*
G75*
G02*
X105745000Y-122365000I0J150000D01*
G01*
X105745000Y-120615000D01*
G75*
G02*
X105895000Y-120465000I150000J0D01*
G01*
G37*
G36*
G01*
X104625000Y-120465000D02*
X104925000Y-120465000D01*
G75*
G02*
X105075000Y-120615000I0J-150000D01*
G01*
X105075000Y-122365000D01*
G75*
G02*
X104925000Y-122515000I-150000J0D01*
G01*
X104625000Y-122515000D01*
G75*
G02*
X104475000Y-122365000I0J150000D01*
G01*
X104475000Y-120615000D01*
G75*
G02*
X104625000Y-120465000I150000J0D01*
G01*
G37*
G36*
G01*
X104625000Y-111165000D02*
X104925000Y-111165000D01*
G75*
G02*
X105075000Y-111315000I0J-150000D01*
G01*
X105075000Y-113065000D01*
G75*
G02*
X104925000Y-113215000I-150000J0D01*
G01*
X104625000Y-113215000D01*
G75*
G02*
X104475000Y-113065000I0J150000D01*
G01*
X104475000Y-111315000D01*
G75*
G02*
X104625000Y-111165000I150000J0D01*
G01*
G37*
G36*
G01*
X105895000Y-111165000D02*
X106195000Y-111165000D01*
G75*
G02*
X106345000Y-111315000I0J-150000D01*
G01*
X106345000Y-113065000D01*
G75*
G02*
X106195000Y-113215000I-150000J0D01*
G01*
X105895000Y-113215000D01*
G75*
G02*
X105745000Y-113065000I0J150000D01*
G01*
X105745000Y-111315000D01*
G75*
G02*
X105895000Y-111165000I150000J0D01*
G01*
G37*
G36*
G01*
X107165000Y-111165000D02*
X107465000Y-111165000D01*
G75*
G02*
X107615000Y-111315000I0J-150000D01*
G01*
X107615000Y-113065000D01*
G75*
G02*
X107465000Y-113215000I-150000J0D01*
G01*
X107165000Y-113215000D01*
G75*
G02*
X107015000Y-113065000I0J150000D01*
G01*
X107015000Y-111315000D01*
G75*
G02*
X107165000Y-111165000I150000J0D01*
G01*
G37*
G36*
G01*
X108435000Y-111165000D02*
X108735000Y-111165000D01*
G75*
G02*
X108885000Y-111315000I0J-150000D01*
G01*
X108885000Y-113065000D01*
G75*
G02*
X108735000Y-113215000I-150000J0D01*
G01*
X108435000Y-113215000D01*
G75*
G02*
X108285000Y-113065000I0J150000D01*
G01*
X108285000Y-111315000D01*
G75*
G02*
X108435000Y-111165000I150000J0D01*
G01*
G37*
G36*
G01*
X109705000Y-111165000D02*
X110005000Y-111165000D01*
G75*
G02*
X110155000Y-111315000I0J-150000D01*
G01*
X110155000Y-113065000D01*
G75*
G02*
X110005000Y-113215000I-150000J0D01*
G01*
X109705000Y-113215000D01*
G75*
G02*
X109555000Y-113065000I0J150000D01*
G01*
X109555000Y-111315000D01*
G75*
G02*
X109705000Y-111165000I150000J0D01*
G01*
G37*
G36*
G01*
X110975000Y-111165000D02*
X111275000Y-111165000D01*
G75*
G02*
X111425000Y-111315000I0J-150000D01*
G01*
X111425000Y-113065000D01*
G75*
G02*
X111275000Y-113215000I-150000J0D01*
G01*
X110975000Y-113215000D01*
G75*
G02*
X110825000Y-113065000I0J150000D01*
G01*
X110825000Y-111315000D01*
G75*
G02*
X110975000Y-111165000I150000J0D01*
G01*
G37*
G36*
G01*
X112245000Y-111165000D02*
X112545000Y-111165000D01*
G75*
G02*
X112695000Y-111315000I0J-150000D01*
G01*
X112695000Y-113065000D01*
G75*
G02*
X112545000Y-113215000I-150000J0D01*
G01*
X112245000Y-113215000D01*
G75*
G02*
X112095000Y-113065000I0J150000D01*
G01*
X112095000Y-111315000D01*
G75*
G02*
X112245000Y-111165000I150000J0D01*
G01*
G37*
G36*
G01*
X113515000Y-111165000D02*
X113815000Y-111165000D01*
G75*
G02*
X113965000Y-111315000I0J-150000D01*
G01*
X113965000Y-113065000D01*
G75*
G02*
X113815000Y-113215000I-150000J0D01*
G01*
X113515000Y-113215000D01*
G75*
G02*
X113365000Y-113065000I0J150000D01*
G01*
X113365000Y-111315000D01*
G75*
G02*
X113515000Y-111165000I150000J0D01*
G01*
G37*
G36*
G01*
X114785000Y-111165000D02*
X115085000Y-111165000D01*
G75*
G02*
X115235000Y-111315000I0J-150000D01*
G01*
X115235000Y-113065000D01*
G75*
G02*
X115085000Y-113215000I-150000J0D01*
G01*
X114785000Y-113215000D01*
G75*
G02*
X114635000Y-113065000I0J150000D01*
G01*
X114635000Y-111315000D01*
G75*
G02*
X114785000Y-111165000I150000J0D01*
G01*
G37*
G36*
G01*
X116055000Y-111165000D02*
X116355000Y-111165000D01*
G75*
G02*
X116505000Y-111315000I0J-150000D01*
G01*
X116505000Y-113065000D01*
G75*
G02*
X116355000Y-113215000I-150000J0D01*
G01*
X116055000Y-113215000D01*
G75*
G02*
X115905000Y-113065000I0J150000D01*
G01*
X115905000Y-111315000D01*
G75*
G02*
X116055000Y-111165000I150000J0D01*
G01*
G37*
G36*
G01*
X117325000Y-111165000D02*
X117625000Y-111165000D01*
G75*
G02*
X117775000Y-111315000I0J-150000D01*
G01*
X117775000Y-113065000D01*
G75*
G02*
X117625000Y-113215000I-150000J0D01*
G01*
X117325000Y-113215000D01*
G75*
G02*
X117175000Y-113065000I0J150000D01*
G01*
X117175000Y-111315000D01*
G75*
G02*
X117325000Y-111165000I150000J0D01*
G01*
G37*
G36*
G01*
X118595000Y-111165000D02*
X118895000Y-111165000D01*
G75*
G02*
X119045000Y-111315000I0J-150000D01*
G01*
X119045000Y-113065000D01*
G75*
G02*
X118895000Y-113215000I-150000J0D01*
G01*
X118595000Y-113215000D01*
G75*
G02*
X118445000Y-113065000I0J150000D01*
G01*
X118445000Y-111315000D01*
G75*
G02*
X118595000Y-111165000I150000J0D01*
G01*
G37*
G36*
G01*
X159235000Y-100145000D02*
X159535000Y-100145000D01*
G75*
G02*
X159685000Y-100295000I0J-150000D01*
G01*
X159685000Y-102045000D01*
G75*
G02*
X159535000Y-102195000I-150000J0D01*
G01*
X159235000Y-102195000D01*
G75*
G02*
X159085000Y-102045000I0J150000D01*
G01*
X159085000Y-100295000D01*
G75*
G02*
X159235000Y-100145000I150000J0D01*
G01*
G37*
G36*
G01*
X157965000Y-100145000D02*
X158265000Y-100145000D01*
G75*
G02*
X158415000Y-100295000I0J-150000D01*
G01*
X158415000Y-102045000D01*
G75*
G02*
X158265000Y-102195000I-150000J0D01*
G01*
X157965000Y-102195000D01*
G75*
G02*
X157815000Y-102045000I0J150000D01*
G01*
X157815000Y-100295000D01*
G75*
G02*
X157965000Y-100145000I150000J0D01*
G01*
G37*
G36*
G01*
X156695000Y-100145000D02*
X156995000Y-100145000D01*
G75*
G02*
X157145000Y-100295000I0J-150000D01*
G01*
X157145000Y-102045000D01*
G75*
G02*
X156995000Y-102195000I-150000J0D01*
G01*
X156695000Y-102195000D01*
G75*
G02*
X156545000Y-102045000I0J150000D01*
G01*
X156545000Y-100295000D01*
G75*
G02*
X156695000Y-100145000I150000J0D01*
G01*
G37*
G36*
G01*
X155425000Y-100145000D02*
X155725000Y-100145000D01*
G75*
G02*
X155875000Y-100295000I0J-150000D01*
G01*
X155875000Y-102045000D01*
G75*
G02*
X155725000Y-102195000I-150000J0D01*
G01*
X155425000Y-102195000D01*
G75*
G02*
X155275000Y-102045000I0J150000D01*
G01*
X155275000Y-100295000D01*
G75*
G02*
X155425000Y-100145000I150000J0D01*
G01*
G37*
G36*
G01*
X154155000Y-100145000D02*
X154455000Y-100145000D01*
G75*
G02*
X154605000Y-100295000I0J-150000D01*
G01*
X154605000Y-102045000D01*
G75*
G02*
X154455000Y-102195000I-150000J0D01*
G01*
X154155000Y-102195000D01*
G75*
G02*
X154005000Y-102045000I0J150000D01*
G01*
X154005000Y-100295000D01*
G75*
G02*
X154155000Y-100145000I150000J0D01*
G01*
G37*
G36*
G01*
X152885000Y-100145000D02*
X153185000Y-100145000D01*
G75*
G02*
X153335000Y-100295000I0J-150000D01*
G01*
X153335000Y-102045000D01*
G75*
G02*
X153185000Y-102195000I-150000J0D01*
G01*
X152885000Y-102195000D01*
G75*
G02*
X152735000Y-102045000I0J150000D01*
G01*
X152735000Y-100295000D01*
G75*
G02*
X152885000Y-100145000I150000J0D01*
G01*
G37*
G36*
G01*
X151615000Y-100145000D02*
X151915000Y-100145000D01*
G75*
G02*
X152065000Y-100295000I0J-150000D01*
G01*
X152065000Y-102045000D01*
G75*
G02*
X151915000Y-102195000I-150000J0D01*
G01*
X151615000Y-102195000D01*
G75*
G02*
X151465000Y-102045000I0J150000D01*
G01*
X151465000Y-100295000D01*
G75*
G02*
X151615000Y-100145000I150000J0D01*
G01*
G37*
G36*
G01*
X150345000Y-100145000D02*
X150645000Y-100145000D01*
G75*
G02*
X150795000Y-100295000I0J-150000D01*
G01*
X150795000Y-102045000D01*
G75*
G02*
X150645000Y-102195000I-150000J0D01*
G01*
X150345000Y-102195000D01*
G75*
G02*
X150195000Y-102045000I0J150000D01*
G01*
X150195000Y-100295000D01*
G75*
G02*
X150345000Y-100145000I150000J0D01*
G01*
G37*
G36*
G01*
X149075000Y-100145000D02*
X149375000Y-100145000D01*
G75*
G02*
X149525000Y-100295000I0J-150000D01*
G01*
X149525000Y-102045000D01*
G75*
G02*
X149375000Y-102195000I-150000J0D01*
G01*
X149075000Y-102195000D01*
G75*
G02*
X148925000Y-102045000I0J150000D01*
G01*
X148925000Y-100295000D01*
G75*
G02*
X149075000Y-100145000I150000J0D01*
G01*
G37*
G36*
G01*
X147805000Y-100145000D02*
X148105000Y-100145000D01*
G75*
G02*
X148255000Y-100295000I0J-150000D01*
G01*
X148255000Y-102045000D01*
G75*
G02*
X148105000Y-102195000I-150000J0D01*
G01*
X147805000Y-102195000D01*
G75*
G02*
X147655000Y-102045000I0J150000D01*
G01*
X147655000Y-100295000D01*
G75*
G02*
X147805000Y-100145000I150000J0D01*
G01*
G37*
G36*
G01*
X146535000Y-100145000D02*
X146835000Y-100145000D01*
G75*
G02*
X146985000Y-100295000I0J-150000D01*
G01*
X146985000Y-102045000D01*
G75*
G02*
X146835000Y-102195000I-150000J0D01*
G01*
X146535000Y-102195000D01*
G75*
G02*
X146385000Y-102045000I0J150000D01*
G01*
X146385000Y-100295000D01*
G75*
G02*
X146535000Y-100145000I150000J0D01*
G01*
G37*
G36*
G01*
X145265000Y-100145000D02*
X145565000Y-100145000D01*
G75*
G02*
X145715000Y-100295000I0J-150000D01*
G01*
X145715000Y-102045000D01*
G75*
G02*
X145565000Y-102195000I-150000J0D01*
G01*
X145265000Y-102195000D01*
G75*
G02*
X145115000Y-102045000I0J150000D01*
G01*
X145115000Y-100295000D01*
G75*
G02*
X145265000Y-100145000I150000J0D01*
G01*
G37*
G36*
G01*
X145265000Y-90845000D02*
X145565000Y-90845000D01*
G75*
G02*
X145715000Y-90995000I0J-150000D01*
G01*
X145715000Y-92745000D01*
G75*
G02*
X145565000Y-92895000I-150000J0D01*
G01*
X145265000Y-92895000D01*
G75*
G02*
X145115000Y-92745000I0J150000D01*
G01*
X145115000Y-90995000D01*
G75*
G02*
X145265000Y-90845000I150000J0D01*
G01*
G37*
G36*
G01*
X146535000Y-90845000D02*
X146835000Y-90845000D01*
G75*
G02*
X146985000Y-90995000I0J-150000D01*
G01*
X146985000Y-92745000D01*
G75*
G02*
X146835000Y-92895000I-150000J0D01*
G01*
X146535000Y-92895000D01*
G75*
G02*
X146385000Y-92745000I0J150000D01*
G01*
X146385000Y-90995000D01*
G75*
G02*
X146535000Y-90845000I150000J0D01*
G01*
G37*
G36*
G01*
X147805000Y-90845000D02*
X148105000Y-90845000D01*
G75*
G02*
X148255000Y-90995000I0J-150000D01*
G01*
X148255000Y-92745000D01*
G75*
G02*
X148105000Y-92895000I-150000J0D01*
G01*
X147805000Y-92895000D01*
G75*
G02*
X147655000Y-92745000I0J150000D01*
G01*
X147655000Y-90995000D01*
G75*
G02*
X147805000Y-90845000I150000J0D01*
G01*
G37*
G36*
G01*
X149075000Y-90845000D02*
X149375000Y-90845000D01*
G75*
G02*
X149525000Y-90995000I0J-150000D01*
G01*
X149525000Y-92745000D01*
G75*
G02*
X149375000Y-92895000I-150000J0D01*
G01*
X149075000Y-92895000D01*
G75*
G02*
X148925000Y-92745000I0J150000D01*
G01*
X148925000Y-90995000D01*
G75*
G02*
X149075000Y-90845000I150000J0D01*
G01*
G37*
G36*
G01*
X150345000Y-90845000D02*
X150645000Y-90845000D01*
G75*
G02*
X150795000Y-90995000I0J-150000D01*
G01*
X150795000Y-92745000D01*
G75*
G02*
X150645000Y-92895000I-150000J0D01*
G01*
X150345000Y-92895000D01*
G75*
G02*
X150195000Y-92745000I0J150000D01*
G01*
X150195000Y-90995000D01*
G75*
G02*
X150345000Y-90845000I150000J0D01*
G01*
G37*
G36*
G01*
X151615000Y-90845000D02*
X151915000Y-90845000D01*
G75*
G02*
X152065000Y-90995000I0J-150000D01*
G01*
X152065000Y-92745000D01*
G75*
G02*
X151915000Y-92895000I-150000J0D01*
G01*
X151615000Y-92895000D01*
G75*
G02*
X151465000Y-92745000I0J150000D01*
G01*
X151465000Y-90995000D01*
G75*
G02*
X151615000Y-90845000I150000J0D01*
G01*
G37*
G36*
G01*
X152885000Y-90845000D02*
X153185000Y-90845000D01*
G75*
G02*
X153335000Y-90995000I0J-150000D01*
G01*
X153335000Y-92745000D01*
G75*
G02*
X153185000Y-92895000I-150000J0D01*
G01*
X152885000Y-92895000D01*
G75*
G02*
X152735000Y-92745000I0J150000D01*
G01*
X152735000Y-90995000D01*
G75*
G02*
X152885000Y-90845000I150000J0D01*
G01*
G37*
G36*
G01*
X154155000Y-90845000D02*
X154455000Y-90845000D01*
G75*
G02*
X154605000Y-90995000I0J-150000D01*
G01*
X154605000Y-92745000D01*
G75*
G02*
X154455000Y-92895000I-150000J0D01*
G01*
X154155000Y-92895000D01*
G75*
G02*
X154005000Y-92745000I0J150000D01*
G01*
X154005000Y-90995000D01*
G75*
G02*
X154155000Y-90845000I150000J0D01*
G01*
G37*
G36*
G01*
X155425000Y-90845000D02*
X155725000Y-90845000D01*
G75*
G02*
X155875000Y-90995000I0J-150000D01*
G01*
X155875000Y-92745000D01*
G75*
G02*
X155725000Y-92895000I-150000J0D01*
G01*
X155425000Y-92895000D01*
G75*
G02*
X155275000Y-92745000I0J150000D01*
G01*
X155275000Y-90995000D01*
G75*
G02*
X155425000Y-90845000I150000J0D01*
G01*
G37*
G36*
G01*
X156695000Y-90845000D02*
X156995000Y-90845000D01*
G75*
G02*
X157145000Y-90995000I0J-150000D01*
G01*
X157145000Y-92745000D01*
G75*
G02*
X156995000Y-92895000I-150000J0D01*
G01*
X156695000Y-92895000D01*
G75*
G02*
X156545000Y-92745000I0J150000D01*
G01*
X156545000Y-90995000D01*
G75*
G02*
X156695000Y-90845000I150000J0D01*
G01*
G37*
G36*
G01*
X157965000Y-90845000D02*
X158265000Y-90845000D01*
G75*
G02*
X158415000Y-90995000I0J-150000D01*
G01*
X158415000Y-92745000D01*
G75*
G02*
X158265000Y-92895000I-150000J0D01*
G01*
X157965000Y-92895000D01*
G75*
G02*
X157815000Y-92745000I0J150000D01*
G01*
X157815000Y-90995000D01*
G75*
G02*
X157965000Y-90845000I150000J0D01*
G01*
G37*
G36*
G01*
X159235000Y-90845000D02*
X159535000Y-90845000D01*
G75*
G02*
X159685000Y-90995000I0J-150000D01*
G01*
X159685000Y-92745000D01*
G75*
G02*
X159535000Y-92895000I-150000J0D01*
G01*
X159235000Y-92895000D01*
G75*
G02*
X159085000Y-92745000I0J150000D01*
G01*
X159085000Y-90995000D01*
G75*
G02*
X159235000Y-90845000I150000J0D01*
G01*
G37*
G36*
G01*
X138915000Y-100145000D02*
X139215000Y-100145000D01*
G75*
G02*
X139365000Y-100295000I0J-150000D01*
G01*
X139365000Y-102045000D01*
G75*
G02*
X139215000Y-102195000I-150000J0D01*
G01*
X138915000Y-102195000D01*
G75*
G02*
X138765000Y-102045000I0J150000D01*
G01*
X138765000Y-100295000D01*
G75*
G02*
X138915000Y-100145000I150000J0D01*
G01*
G37*
G36*
G01*
X137645000Y-100145000D02*
X137945000Y-100145000D01*
G75*
G02*
X138095000Y-100295000I0J-150000D01*
G01*
X138095000Y-102045000D01*
G75*
G02*
X137945000Y-102195000I-150000J0D01*
G01*
X137645000Y-102195000D01*
G75*
G02*
X137495000Y-102045000I0J150000D01*
G01*
X137495000Y-100295000D01*
G75*
G02*
X137645000Y-100145000I150000J0D01*
G01*
G37*
G36*
G01*
X136375000Y-100145000D02*
X136675000Y-100145000D01*
G75*
G02*
X136825000Y-100295000I0J-150000D01*
G01*
X136825000Y-102045000D01*
G75*
G02*
X136675000Y-102195000I-150000J0D01*
G01*
X136375000Y-102195000D01*
G75*
G02*
X136225000Y-102045000I0J150000D01*
G01*
X136225000Y-100295000D01*
G75*
G02*
X136375000Y-100145000I150000J0D01*
G01*
G37*
G36*
G01*
X135105000Y-100145000D02*
X135405000Y-100145000D01*
G75*
G02*
X135555000Y-100295000I0J-150000D01*
G01*
X135555000Y-102045000D01*
G75*
G02*
X135405000Y-102195000I-150000J0D01*
G01*
X135105000Y-102195000D01*
G75*
G02*
X134955000Y-102045000I0J150000D01*
G01*
X134955000Y-100295000D01*
G75*
G02*
X135105000Y-100145000I150000J0D01*
G01*
G37*
G36*
G01*
X133835000Y-100145000D02*
X134135000Y-100145000D01*
G75*
G02*
X134285000Y-100295000I0J-150000D01*
G01*
X134285000Y-102045000D01*
G75*
G02*
X134135000Y-102195000I-150000J0D01*
G01*
X133835000Y-102195000D01*
G75*
G02*
X133685000Y-102045000I0J150000D01*
G01*
X133685000Y-100295000D01*
G75*
G02*
X133835000Y-100145000I150000J0D01*
G01*
G37*
G36*
G01*
X132565000Y-100145000D02*
X132865000Y-100145000D01*
G75*
G02*
X133015000Y-100295000I0J-150000D01*
G01*
X133015000Y-102045000D01*
G75*
G02*
X132865000Y-102195000I-150000J0D01*
G01*
X132565000Y-102195000D01*
G75*
G02*
X132415000Y-102045000I0J150000D01*
G01*
X132415000Y-100295000D01*
G75*
G02*
X132565000Y-100145000I150000J0D01*
G01*
G37*
G36*
G01*
X131295000Y-100145000D02*
X131595000Y-100145000D01*
G75*
G02*
X131745000Y-100295000I0J-150000D01*
G01*
X131745000Y-102045000D01*
G75*
G02*
X131595000Y-102195000I-150000J0D01*
G01*
X131295000Y-102195000D01*
G75*
G02*
X131145000Y-102045000I0J150000D01*
G01*
X131145000Y-100295000D01*
G75*
G02*
X131295000Y-100145000I150000J0D01*
G01*
G37*
G36*
G01*
X130025000Y-100145000D02*
X130325000Y-100145000D01*
G75*
G02*
X130475000Y-100295000I0J-150000D01*
G01*
X130475000Y-102045000D01*
G75*
G02*
X130325000Y-102195000I-150000J0D01*
G01*
X130025000Y-102195000D01*
G75*
G02*
X129875000Y-102045000I0J150000D01*
G01*
X129875000Y-100295000D01*
G75*
G02*
X130025000Y-100145000I150000J0D01*
G01*
G37*
G36*
G01*
X128755000Y-100145000D02*
X129055000Y-100145000D01*
G75*
G02*
X129205000Y-100295000I0J-150000D01*
G01*
X129205000Y-102045000D01*
G75*
G02*
X129055000Y-102195000I-150000J0D01*
G01*
X128755000Y-102195000D01*
G75*
G02*
X128605000Y-102045000I0J150000D01*
G01*
X128605000Y-100295000D01*
G75*
G02*
X128755000Y-100145000I150000J0D01*
G01*
G37*
G36*
G01*
X127485000Y-100145000D02*
X127785000Y-100145000D01*
G75*
G02*
X127935000Y-100295000I0J-150000D01*
G01*
X127935000Y-102045000D01*
G75*
G02*
X127785000Y-102195000I-150000J0D01*
G01*
X127485000Y-102195000D01*
G75*
G02*
X127335000Y-102045000I0J150000D01*
G01*
X127335000Y-100295000D01*
G75*
G02*
X127485000Y-100145000I150000J0D01*
G01*
G37*
G36*
G01*
X126215000Y-100145000D02*
X126515000Y-100145000D01*
G75*
G02*
X126665000Y-100295000I0J-150000D01*
G01*
X126665000Y-102045000D01*
G75*
G02*
X126515000Y-102195000I-150000J0D01*
G01*
X126215000Y-102195000D01*
G75*
G02*
X126065000Y-102045000I0J150000D01*
G01*
X126065000Y-100295000D01*
G75*
G02*
X126215000Y-100145000I150000J0D01*
G01*
G37*
G36*
G01*
X124945000Y-100145000D02*
X125245000Y-100145000D01*
G75*
G02*
X125395000Y-100295000I0J-150000D01*
G01*
X125395000Y-102045000D01*
G75*
G02*
X125245000Y-102195000I-150000J0D01*
G01*
X124945000Y-102195000D01*
G75*
G02*
X124795000Y-102045000I0J150000D01*
G01*
X124795000Y-100295000D01*
G75*
G02*
X124945000Y-100145000I150000J0D01*
G01*
G37*
G36*
G01*
X124945000Y-90845000D02*
X125245000Y-90845000D01*
G75*
G02*
X125395000Y-90995000I0J-150000D01*
G01*
X125395000Y-92745000D01*
G75*
G02*
X125245000Y-92895000I-150000J0D01*
G01*
X124945000Y-92895000D01*
G75*
G02*
X124795000Y-92745000I0J150000D01*
G01*
X124795000Y-90995000D01*
G75*
G02*
X124945000Y-90845000I150000J0D01*
G01*
G37*
G36*
G01*
X126215000Y-90845000D02*
X126515000Y-90845000D01*
G75*
G02*
X126665000Y-90995000I0J-150000D01*
G01*
X126665000Y-92745000D01*
G75*
G02*
X126515000Y-92895000I-150000J0D01*
G01*
X126215000Y-92895000D01*
G75*
G02*
X126065000Y-92745000I0J150000D01*
G01*
X126065000Y-90995000D01*
G75*
G02*
X126215000Y-90845000I150000J0D01*
G01*
G37*
G36*
G01*
X127485000Y-90845000D02*
X127785000Y-90845000D01*
G75*
G02*
X127935000Y-90995000I0J-150000D01*
G01*
X127935000Y-92745000D01*
G75*
G02*
X127785000Y-92895000I-150000J0D01*
G01*
X127485000Y-92895000D01*
G75*
G02*
X127335000Y-92745000I0J150000D01*
G01*
X127335000Y-90995000D01*
G75*
G02*
X127485000Y-90845000I150000J0D01*
G01*
G37*
G36*
G01*
X128755000Y-90845000D02*
X129055000Y-90845000D01*
G75*
G02*
X129205000Y-90995000I0J-150000D01*
G01*
X129205000Y-92745000D01*
G75*
G02*
X129055000Y-92895000I-150000J0D01*
G01*
X128755000Y-92895000D01*
G75*
G02*
X128605000Y-92745000I0J150000D01*
G01*
X128605000Y-90995000D01*
G75*
G02*
X128755000Y-90845000I150000J0D01*
G01*
G37*
G36*
G01*
X130025000Y-90845000D02*
X130325000Y-90845000D01*
G75*
G02*
X130475000Y-90995000I0J-150000D01*
G01*
X130475000Y-92745000D01*
G75*
G02*
X130325000Y-92895000I-150000J0D01*
G01*
X130025000Y-92895000D01*
G75*
G02*
X129875000Y-92745000I0J150000D01*
G01*
X129875000Y-90995000D01*
G75*
G02*
X130025000Y-90845000I150000J0D01*
G01*
G37*
G36*
G01*
X131295000Y-90845000D02*
X131595000Y-90845000D01*
G75*
G02*
X131745000Y-90995000I0J-150000D01*
G01*
X131745000Y-92745000D01*
G75*
G02*
X131595000Y-92895000I-150000J0D01*
G01*
X131295000Y-92895000D01*
G75*
G02*
X131145000Y-92745000I0J150000D01*
G01*
X131145000Y-90995000D01*
G75*
G02*
X131295000Y-90845000I150000J0D01*
G01*
G37*
G36*
G01*
X132565000Y-90845000D02*
X132865000Y-90845000D01*
G75*
G02*
X133015000Y-90995000I0J-150000D01*
G01*
X133015000Y-92745000D01*
G75*
G02*
X132865000Y-92895000I-150000J0D01*
G01*
X132565000Y-92895000D01*
G75*
G02*
X132415000Y-92745000I0J150000D01*
G01*
X132415000Y-90995000D01*
G75*
G02*
X132565000Y-90845000I150000J0D01*
G01*
G37*
G36*
G01*
X133835000Y-90845000D02*
X134135000Y-90845000D01*
G75*
G02*
X134285000Y-90995000I0J-150000D01*
G01*
X134285000Y-92745000D01*
G75*
G02*
X134135000Y-92895000I-150000J0D01*
G01*
X133835000Y-92895000D01*
G75*
G02*
X133685000Y-92745000I0J150000D01*
G01*
X133685000Y-90995000D01*
G75*
G02*
X133835000Y-90845000I150000J0D01*
G01*
G37*
G36*
G01*
X135105000Y-90845000D02*
X135405000Y-90845000D01*
G75*
G02*
X135555000Y-90995000I0J-150000D01*
G01*
X135555000Y-92745000D01*
G75*
G02*
X135405000Y-92895000I-150000J0D01*
G01*
X135105000Y-92895000D01*
G75*
G02*
X134955000Y-92745000I0J150000D01*
G01*
X134955000Y-90995000D01*
G75*
G02*
X135105000Y-90845000I150000J0D01*
G01*
G37*
G36*
G01*
X136375000Y-90845000D02*
X136675000Y-90845000D01*
G75*
G02*
X136825000Y-90995000I0J-150000D01*
G01*
X136825000Y-92745000D01*
G75*
G02*
X136675000Y-92895000I-150000J0D01*
G01*
X136375000Y-92895000D01*
G75*
G02*
X136225000Y-92745000I0J150000D01*
G01*
X136225000Y-90995000D01*
G75*
G02*
X136375000Y-90845000I150000J0D01*
G01*
G37*
G36*
G01*
X137645000Y-90845000D02*
X137945000Y-90845000D01*
G75*
G02*
X138095000Y-90995000I0J-150000D01*
G01*
X138095000Y-92745000D01*
G75*
G02*
X137945000Y-92895000I-150000J0D01*
G01*
X137645000Y-92895000D01*
G75*
G02*
X137495000Y-92745000I0J150000D01*
G01*
X137495000Y-90995000D01*
G75*
G02*
X137645000Y-90845000I150000J0D01*
G01*
G37*
G36*
G01*
X138915000Y-90845000D02*
X139215000Y-90845000D01*
G75*
G02*
X139365000Y-90995000I0J-150000D01*
G01*
X139365000Y-92745000D01*
G75*
G02*
X139215000Y-92895000I-150000J0D01*
G01*
X138915000Y-92895000D01*
G75*
G02*
X138765000Y-92745000I0J150000D01*
G01*
X138765000Y-90995000D01*
G75*
G02*
X138915000Y-90845000I150000J0D01*
G01*
G37*
G36*
G01*
X118595000Y-100145000D02*
X118895000Y-100145000D01*
G75*
G02*
X119045000Y-100295000I0J-150000D01*
G01*
X119045000Y-102045000D01*
G75*
G02*
X118895000Y-102195000I-150000J0D01*
G01*
X118595000Y-102195000D01*
G75*
G02*
X118445000Y-102045000I0J150000D01*
G01*
X118445000Y-100295000D01*
G75*
G02*
X118595000Y-100145000I150000J0D01*
G01*
G37*
G36*
G01*
X117325000Y-100145000D02*
X117625000Y-100145000D01*
G75*
G02*
X117775000Y-100295000I0J-150000D01*
G01*
X117775000Y-102045000D01*
G75*
G02*
X117625000Y-102195000I-150000J0D01*
G01*
X117325000Y-102195000D01*
G75*
G02*
X117175000Y-102045000I0J150000D01*
G01*
X117175000Y-100295000D01*
G75*
G02*
X117325000Y-100145000I150000J0D01*
G01*
G37*
G36*
G01*
X116055000Y-100145000D02*
X116355000Y-100145000D01*
G75*
G02*
X116505000Y-100295000I0J-150000D01*
G01*
X116505000Y-102045000D01*
G75*
G02*
X116355000Y-102195000I-150000J0D01*
G01*
X116055000Y-102195000D01*
G75*
G02*
X115905000Y-102045000I0J150000D01*
G01*
X115905000Y-100295000D01*
G75*
G02*
X116055000Y-100145000I150000J0D01*
G01*
G37*
G36*
G01*
X114785000Y-100145000D02*
X115085000Y-100145000D01*
G75*
G02*
X115235000Y-100295000I0J-150000D01*
G01*
X115235000Y-102045000D01*
G75*
G02*
X115085000Y-102195000I-150000J0D01*
G01*
X114785000Y-102195000D01*
G75*
G02*
X114635000Y-102045000I0J150000D01*
G01*
X114635000Y-100295000D01*
G75*
G02*
X114785000Y-100145000I150000J0D01*
G01*
G37*
G36*
G01*
X113515000Y-100145000D02*
X113815000Y-100145000D01*
G75*
G02*
X113965000Y-100295000I0J-150000D01*
G01*
X113965000Y-102045000D01*
G75*
G02*
X113815000Y-102195000I-150000J0D01*
G01*
X113515000Y-102195000D01*
G75*
G02*
X113365000Y-102045000I0J150000D01*
G01*
X113365000Y-100295000D01*
G75*
G02*
X113515000Y-100145000I150000J0D01*
G01*
G37*
G36*
G01*
X112245000Y-100145000D02*
X112545000Y-100145000D01*
G75*
G02*
X112695000Y-100295000I0J-150000D01*
G01*
X112695000Y-102045000D01*
G75*
G02*
X112545000Y-102195000I-150000J0D01*
G01*
X112245000Y-102195000D01*
G75*
G02*
X112095000Y-102045000I0J150000D01*
G01*
X112095000Y-100295000D01*
G75*
G02*
X112245000Y-100145000I150000J0D01*
G01*
G37*
G36*
G01*
X110975000Y-100145000D02*
X111275000Y-100145000D01*
G75*
G02*
X111425000Y-100295000I0J-150000D01*
G01*
X111425000Y-102045000D01*
G75*
G02*
X111275000Y-102195000I-150000J0D01*
G01*
X110975000Y-102195000D01*
G75*
G02*
X110825000Y-102045000I0J150000D01*
G01*
X110825000Y-100295000D01*
G75*
G02*
X110975000Y-100145000I150000J0D01*
G01*
G37*
G36*
G01*
X109705000Y-100145000D02*
X110005000Y-100145000D01*
G75*
G02*
X110155000Y-100295000I0J-150000D01*
G01*
X110155000Y-102045000D01*
G75*
G02*
X110005000Y-102195000I-150000J0D01*
G01*
X109705000Y-102195000D01*
G75*
G02*
X109555000Y-102045000I0J150000D01*
G01*
X109555000Y-100295000D01*
G75*
G02*
X109705000Y-100145000I150000J0D01*
G01*
G37*
G36*
G01*
X108435000Y-100145000D02*
X108735000Y-100145000D01*
G75*
G02*
X108885000Y-100295000I0J-150000D01*
G01*
X108885000Y-102045000D01*
G75*
G02*
X108735000Y-102195000I-150000J0D01*
G01*
X108435000Y-102195000D01*
G75*
G02*
X108285000Y-102045000I0J150000D01*
G01*
X108285000Y-100295000D01*
G75*
G02*
X108435000Y-100145000I150000J0D01*
G01*
G37*
G36*
G01*
X107165000Y-100145000D02*
X107465000Y-100145000D01*
G75*
G02*
X107615000Y-100295000I0J-150000D01*
G01*
X107615000Y-102045000D01*
G75*
G02*
X107465000Y-102195000I-150000J0D01*
G01*
X107165000Y-102195000D01*
G75*
G02*
X107015000Y-102045000I0J150000D01*
G01*
X107015000Y-100295000D01*
G75*
G02*
X107165000Y-100145000I150000J0D01*
G01*
G37*
G36*
G01*
X105895000Y-100145000D02*
X106195000Y-100145000D01*
G75*
G02*
X106345000Y-100295000I0J-150000D01*
G01*
X106345000Y-102045000D01*
G75*
G02*
X106195000Y-102195000I-150000J0D01*
G01*
X105895000Y-102195000D01*
G75*
G02*
X105745000Y-102045000I0J150000D01*
G01*
X105745000Y-100295000D01*
G75*
G02*
X105895000Y-100145000I150000J0D01*
G01*
G37*
G36*
G01*
X104625000Y-100145000D02*
X104925000Y-100145000D01*
G75*
G02*
X105075000Y-100295000I0J-150000D01*
G01*
X105075000Y-102045000D01*
G75*
G02*
X104925000Y-102195000I-150000J0D01*
G01*
X104625000Y-102195000D01*
G75*
G02*
X104475000Y-102045000I0J150000D01*
G01*
X104475000Y-100295000D01*
G75*
G02*
X104625000Y-100145000I150000J0D01*
G01*
G37*
G36*
G01*
X104625000Y-90845000D02*
X104925000Y-90845000D01*
G75*
G02*
X105075000Y-90995000I0J-150000D01*
G01*
X105075000Y-92745000D01*
G75*
G02*
X104925000Y-92895000I-150000J0D01*
G01*
X104625000Y-92895000D01*
G75*
G02*
X104475000Y-92745000I0J150000D01*
G01*
X104475000Y-90995000D01*
G75*
G02*
X104625000Y-90845000I150000J0D01*
G01*
G37*
G36*
G01*
X105895000Y-90845000D02*
X106195000Y-90845000D01*
G75*
G02*
X106345000Y-90995000I0J-150000D01*
G01*
X106345000Y-92745000D01*
G75*
G02*
X106195000Y-92895000I-150000J0D01*
G01*
X105895000Y-92895000D01*
G75*
G02*
X105745000Y-92745000I0J150000D01*
G01*
X105745000Y-90995000D01*
G75*
G02*
X105895000Y-90845000I150000J0D01*
G01*
G37*
G36*
G01*
X107165000Y-90845000D02*
X107465000Y-90845000D01*
G75*
G02*
X107615000Y-90995000I0J-150000D01*
G01*
X107615000Y-92745000D01*
G75*
G02*
X107465000Y-92895000I-150000J0D01*
G01*
X107165000Y-92895000D01*
G75*
G02*
X107015000Y-92745000I0J150000D01*
G01*
X107015000Y-90995000D01*
G75*
G02*
X107165000Y-90845000I150000J0D01*
G01*
G37*
G36*
G01*
X108435000Y-90845000D02*
X108735000Y-90845000D01*
G75*
G02*
X108885000Y-90995000I0J-150000D01*
G01*
X108885000Y-92745000D01*
G75*
G02*
X108735000Y-92895000I-150000J0D01*
G01*
X108435000Y-92895000D01*
G75*
G02*
X108285000Y-92745000I0J150000D01*
G01*
X108285000Y-90995000D01*
G75*
G02*
X108435000Y-90845000I150000J0D01*
G01*
G37*
G36*
G01*
X109705000Y-90845000D02*
X110005000Y-90845000D01*
G75*
G02*
X110155000Y-90995000I0J-150000D01*
G01*
X110155000Y-92745000D01*
G75*
G02*
X110005000Y-92895000I-150000J0D01*
G01*
X109705000Y-92895000D01*
G75*
G02*
X109555000Y-92745000I0J150000D01*
G01*
X109555000Y-90995000D01*
G75*
G02*
X109705000Y-90845000I150000J0D01*
G01*
G37*
G36*
G01*
X110975000Y-90845000D02*
X111275000Y-90845000D01*
G75*
G02*
X111425000Y-90995000I0J-150000D01*
G01*
X111425000Y-92745000D01*
G75*
G02*
X111275000Y-92895000I-150000J0D01*
G01*
X110975000Y-92895000D01*
G75*
G02*
X110825000Y-92745000I0J150000D01*
G01*
X110825000Y-90995000D01*
G75*
G02*
X110975000Y-90845000I150000J0D01*
G01*
G37*
G36*
G01*
X112245000Y-90845000D02*
X112545000Y-90845000D01*
G75*
G02*
X112695000Y-90995000I0J-150000D01*
G01*
X112695000Y-92745000D01*
G75*
G02*
X112545000Y-92895000I-150000J0D01*
G01*
X112245000Y-92895000D01*
G75*
G02*
X112095000Y-92745000I0J150000D01*
G01*
X112095000Y-90995000D01*
G75*
G02*
X112245000Y-90845000I150000J0D01*
G01*
G37*
G36*
G01*
X113515000Y-90845000D02*
X113815000Y-90845000D01*
G75*
G02*
X113965000Y-90995000I0J-150000D01*
G01*
X113965000Y-92745000D01*
G75*
G02*
X113815000Y-92895000I-150000J0D01*
G01*
X113515000Y-92895000D01*
G75*
G02*
X113365000Y-92745000I0J150000D01*
G01*
X113365000Y-90995000D01*
G75*
G02*
X113515000Y-90845000I150000J0D01*
G01*
G37*
G36*
G01*
X114785000Y-90845000D02*
X115085000Y-90845000D01*
G75*
G02*
X115235000Y-90995000I0J-150000D01*
G01*
X115235000Y-92745000D01*
G75*
G02*
X115085000Y-92895000I-150000J0D01*
G01*
X114785000Y-92895000D01*
G75*
G02*
X114635000Y-92745000I0J150000D01*
G01*
X114635000Y-90995000D01*
G75*
G02*
X114785000Y-90845000I150000J0D01*
G01*
G37*
G36*
G01*
X116055000Y-90845000D02*
X116355000Y-90845000D01*
G75*
G02*
X116505000Y-90995000I0J-150000D01*
G01*
X116505000Y-92745000D01*
G75*
G02*
X116355000Y-92895000I-150000J0D01*
G01*
X116055000Y-92895000D01*
G75*
G02*
X115905000Y-92745000I0J150000D01*
G01*
X115905000Y-90995000D01*
G75*
G02*
X116055000Y-90845000I150000J0D01*
G01*
G37*
G36*
G01*
X117325000Y-90845000D02*
X117625000Y-90845000D01*
G75*
G02*
X117775000Y-90995000I0J-150000D01*
G01*
X117775000Y-92745000D01*
G75*
G02*
X117625000Y-92895000I-150000J0D01*
G01*
X117325000Y-92895000D01*
G75*
G02*
X117175000Y-92745000I0J150000D01*
G01*
X117175000Y-90995000D01*
G75*
G02*
X117325000Y-90845000I150000J0D01*
G01*
G37*
G36*
G01*
X118595000Y-90845000D02*
X118895000Y-90845000D01*
G75*
G02*
X119045000Y-90995000I0J-150000D01*
G01*
X119045000Y-92745000D01*
G75*
G02*
X118895000Y-92895000I-150000J0D01*
G01*
X118595000Y-92895000D01*
G75*
G02*
X118445000Y-92745000I0J150000D01*
G01*
X118445000Y-90995000D01*
G75*
G02*
X118595000Y-90845000I150000J0D01*
G01*
G37*
D10*
X185870000Y-101600000D03*
X187510000Y-101600000D03*
X185870000Y-99060000D03*
X187510000Y-99060000D03*
X185870000Y-96520000D03*
X187510000Y-96520000D03*
X185870000Y-93980000D03*
X187510000Y-93980000D03*
M02*
