M48
; DRILL file {KiCad (5.1.9)-1} date 02/28/22 19:05:13
; FORMAT={-:-/ absolute / inch / decimal}
; #@! TF.CreationDate,2022-02-28T19:05:13+08:00
; #@! TF.GenerationSoftware,Kicad,Pcbnew,(5.1.9)-1
; #@! TF.FileFunction,Plated,1,2,PTH
FMAT,2
INCH
T1C0.0157
T2C0.0256
T3C0.0394
T4C0.1181
%
G90
G05
T1
X3.85Y-3.65
X3.85Y-4.35
X3.95Y-3.8
X3.9768Y-3.65
X4.05Y-3.75
X4.05Y-4.55
X4.1Y-4.15
X4.1Y-4.25
X4.1Y-4.95
X4.15Y-3.4
X4.15Y-3.9
X4.15Y-4.7
X4.25Y-3.9
X4.25Y-4.5
X4.25Y-4.7
X4.3Y-3.7
X4.35Y-4.5
X4.3677Y-3.8823
X4.3854Y-4.6854
X4.4Y-3.45
X4.4Y-3.7
X4.4Y-3.85
X4.45Y-3.7
X4.45Y-4.5
X4.45Y-4.65
X4.5Y-3.45
X4.5Y-3.9
X4.5Y-4.5
X4.5Y-4.7
X4.55Y-3.9
X4.55Y-4.7
X4.6Y-3.9
X4.7Y-3.75
X4.7Y-3.9
X4.7Y-4.55
X4.7Y-4.7
X4.75Y-4.7
X4.85Y-3.75
X4.85Y-4.5
X4.85Y-4.55
X4.9Y-3.4
X4.9Y-4.15
X4.9Y-4.25
X4.9Y-4.95
X4.95Y-3.9
X4.95Y-4.7
X5.05Y-3.9
X5.05Y-4.5
X5.05Y-4.7
X5.1Y-3.7
X5.15Y-4.5
X5.1677Y-3.8823
X5.1677Y-4.6823
X5.2Y-3.45
X5.2Y-3.7
X5.2157Y-3.8343
X5.25Y-3.7
X5.25Y-4.5
X5.25Y-4.65
X5.3Y-3.45
X5.3Y-3.9
X5.3Y-4.5
X5.3Y-4.7
X5.35Y-3.9
X5.35Y-4.7
X5.4Y-3.9
X5.5Y-3.75
X5.5Y-3.9
X5.5Y-4.55
X5.5Y-4.7
X5.55Y-4.7
X5.65Y-3.75
X5.65Y-4.5
X5.65Y-4.55
X5.7Y-3.4
X5.7Y-4.15
X5.7Y-4.25
X5.7Y-4.95
X5.75Y-3.9
X5.75Y-4.7
X5.85Y-3.9
X5.85Y-4.5
X5.85Y-4.7
X5.9Y-3.7
X5.95Y-4.5
X5.9677Y-3.8823
X5.9677Y-4.6823
X6.0Y-3.45
X6.0Y-3.7
X6.05Y-3.7
X6.05Y-3.8343
X6.05Y-4.5
X6.05Y-4.65
X6.1Y-3.45
X6.1Y-3.9
X6.1Y-4.5
X6.1Y-4.7
X6.15Y-3.9
X6.15Y-4.7
X6.2Y-3.9
X6.25Y-3.75
X6.25Y-3.9
X6.25Y-4.6
X6.25Y-4.7
X6.35Y-4.7
X6.4Y-3.4
X6.45Y-3.75
X6.45Y-4.5
X6.45Y-4.55
X6.5Y-4.15
X6.5Y-4.25
X6.5Y-4.95
X6.55Y-3.9
X6.55Y-4.7
X6.65Y-3.75
X6.65Y-3.9
X6.65Y-4.5
X6.65Y-4.7
X6.75Y-3.7
X6.75Y-4.5
X6.7677Y-3.8823
X6.7677Y-4.6823
X6.8Y-3.45
X6.85Y-3.85
X6.85Y-4.5
X6.85Y-4.65
X6.9Y-3.45
X6.9Y-3.7
X6.9Y-3.9
X6.9Y-4.5
X6.9Y-4.7
X6.95Y-3.9
X6.95Y-4.7
X7.05Y-3.9
X7.2Y-4.7
X7.25Y-4.2
X7.25Y-4.45
X7.25Y-4.55
T2
X4.05Y-3.5047
X4.05Y-4.0953
X4.05Y-4.3047
X4.05Y-4.8953
X4.15Y-3.5047
X4.15Y-4.0953
X4.15Y-4.3047
X4.15Y-4.8953
X4.25Y-3.5047
X4.25Y-4.0953
X4.25Y-4.3047
X4.25Y-4.8953
X4.35Y-3.5047
X4.35Y-4.0953
X4.35Y-4.3047
X4.35Y-4.8953
X4.45Y-3.5047
X4.45Y-4.0953
X4.45Y-4.3047
X4.45Y-4.8953
X4.55Y-3.5047
X4.55Y-4.0953
X4.55Y-4.3047
X4.55Y-4.8953
X4.65Y-3.5047
X4.65Y-4.0953
X4.65Y-4.3047
X4.65Y-4.8953
X4.75Y-3.5047
X4.75Y-4.0953
X4.75Y-4.3047
X4.75Y-4.8953
X4.85Y-3.5
X4.85Y-4.0906
X4.85Y-4.3
X4.85Y-4.8906
X4.95Y-3.5
X4.95Y-4.0906
X4.95Y-4.3
X4.95Y-4.8906
X5.05Y-3.5
X5.05Y-4.0906
X5.05Y-4.3
X5.05Y-4.8906
X5.15Y-3.5
X5.15Y-4.0906
X5.15Y-4.3
X5.15Y-4.8906
X5.25Y-3.5
X5.25Y-4.0906
X5.25Y-4.3
X5.25Y-4.8906
X5.35Y-3.5
X5.35Y-4.0906
X5.35Y-4.3
X5.35Y-4.8906
X5.45Y-3.5
X5.45Y-4.0906
X5.45Y-4.3
X5.45Y-4.8906
X5.55Y-3.5
X5.55Y-4.0906
X5.55Y-4.3
X5.55Y-4.8906
X5.65Y-3.5047
X5.65Y-4.0953
X5.65Y-4.3
X5.65Y-4.8906
X5.75Y-3.5047
X5.75Y-4.0953
X5.75Y-4.3
X5.75Y-4.8906
X5.85Y-3.5047
X5.85Y-4.0953
X5.85Y-4.3
X5.85Y-4.8906
X5.95Y-3.5047
X5.95Y-4.0953
X5.95Y-4.3
X5.95Y-4.8906
X6.05Y-3.5047
X6.05Y-4.0953
X6.05Y-4.3
X6.05Y-4.8906
X6.15Y-3.5047
X6.15Y-4.0953
X6.15Y-4.3
X6.15Y-4.8906
X6.25Y-3.5047
X6.25Y-4.0953
X6.25Y-4.3
X6.25Y-4.8906
X6.35Y-3.5047
X6.35Y-4.0953
X6.35Y-4.3
X6.35Y-4.8906
X6.45Y-3.5047
X6.45Y-4.0953
X6.45Y-4.3
X6.45Y-4.8906
X6.55Y-3.5047
X6.55Y-4.0953
X6.55Y-4.3
X6.55Y-4.8906
X6.65Y-3.5047
X6.65Y-4.0953
X6.65Y-4.3
X6.65Y-4.8906
X6.75Y-3.5047
X6.75Y-4.0953
X6.75Y-4.3
X6.75Y-4.8906
X6.85Y-3.5047
X6.85Y-4.0953
X6.85Y-4.3
X6.85Y-4.8906
X6.95Y-3.5047
X6.95Y-4.0953
X6.95Y-4.3
X6.95Y-4.8906
X7.05Y-3.5047
X7.05Y-4.0953
X7.05Y-4.3
X7.05Y-4.8906
X7.15Y-3.5047
X7.15Y-4.0953
X7.15Y-4.3
X7.15Y-4.8906
T3
X7.35Y-4.3
X7.35Y-4.4
X7.35Y-4.5
X7.35Y-4.6
X7.35Y-4.7
T4
X3.8575Y-3.4575
X3.8575Y-4.9425
X7.3425Y-3.4575
X7.3425Y-4.9425
T0
M30
