G04 #@! TF.GenerationSoftware,KiCad,Pcbnew,(5.1.9)-1*
G04 #@! TF.CreationDate,2022-02-28T19:05:45+08:00*
G04 #@! TF.ProjectId,matrix_display16_32,6d617472-6978-45f6-9469-73706c617931,rev?*
G04 #@! TF.SameCoordinates,Original*
G04 #@! TF.FileFunction,Legend,Bot*
G04 #@! TF.FilePolarity,Positive*
%FSLAX46Y46*%
G04 Gerber Fmt 4.6, Leading zero omitted, Abs format (unit mm)*
G04 Created by KiCad (PCBNEW (5.1.9)-1) date 2022-02-28 19:05:45*
%MOMM*%
%LPD*%
G01*
G04 APERTURE LIST*
%ADD10C,0.150000*%
G04 APERTURE END LIST*
D10*
X173070000Y-116240000D02*
X172370000Y-116240000D01*
X172370000Y-117440000D02*
X173070000Y-117440000D01*
X152050000Y-117440000D02*
X152750000Y-117440000D01*
X152750000Y-116240000D02*
X152050000Y-116240000D01*
X131730000Y-117440000D02*
X132430000Y-117440000D01*
X132430000Y-116240000D02*
X131730000Y-116240000D01*
X111860000Y-117440000D02*
X112560000Y-117440000D01*
X112560000Y-116240000D02*
X111860000Y-116240000D01*
X172370000Y-97120000D02*
X173070000Y-97120000D01*
X173070000Y-95920000D02*
X172370000Y-95920000D01*
X152050000Y-97120000D02*
X152750000Y-97120000D01*
X152750000Y-95920000D02*
X152050000Y-95920000D01*
X131730000Y-97120000D02*
X132430000Y-97120000D01*
X132430000Y-95920000D02*
X131730000Y-95920000D01*
X111410000Y-97120000D02*
X112110000Y-97120000D01*
X112110000Y-95920000D02*
X111410000Y-95920000D01*
X173360000Y-137757142D02*
X173660000Y-137328571D01*
X173874285Y-137757142D02*
X173874285Y-136857142D01*
X173531428Y-136857142D01*
X173445714Y-136900000D01*
X173402857Y-136942857D01*
X173360000Y-137028571D01*
X173360000Y-137157142D01*
X173402857Y-137242857D01*
X173445714Y-137285714D01*
X173531428Y-137328571D01*
X173874285Y-137328571D01*
X172845714Y-137242857D02*
X172931428Y-137200000D01*
X172974285Y-137157142D01*
X173017142Y-137071428D01*
X173017142Y-137028571D01*
X172974285Y-136942857D01*
X172931428Y-136900000D01*
X172845714Y-136857142D01*
X172674285Y-136857142D01*
X172588571Y-136900000D01*
X172545714Y-136942857D01*
X172502857Y-137028571D01*
X172502857Y-137071428D01*
X172545714Y-137157142D01*
X172588571Y-137200000D01*
X172674285Y-137242857D01*
X172845714Y-137242857D01*
X172931428Y-137285714D01*
X172974285Y-137328571D01*
X173017142Y-137414285D01*
X173017142Y-137585714D01*
X172974285Y-137671428D01*
X172931428Y-137714285D01*
X172845714Y-137757142D01*
X172674285Y-137757142D01*
X172588571Y-137714285D01*
X172545714Y-137671428D01*
X172502857Y-137585714D01*
X172502857Y-137414285D01*
X172545714Y-137328571D01*
X172588571Y-137285714D01*
X172674285Y-137242857D01*
X152550000Y-118697142D02*
X152850000Y-118268571D01*
X153064285Y-118697142D02*
X153064285Y-117797142D01*
X152721428Y-117797142D01*
X152635714Y-117840000D01*
X152592857Y-117882857D01*
X152550000Y-117968571D01*
X152550000Y-118097142D01*
X152592857Y-118182857D01*
X152635714Y-118225714D01*
X152721428Y-118268571D01*
X153064285Y-118268571D01*
X152250000Y-117797142D02*
X151650000Y-117797142D01*
X152035714Y-118697142D01*
X132230000Y-118697142D02*
X132530000Y-118268571D01*
X132744285Y-118697142D02*
X132744285Y-117797142D01*
X132401428Y-117797142D01*
X132315714Y-117840000D01*
X132272857Y-117882857D01*
X132230000Y-117968571D01*
X132230000Y-118097142D01*
X132272857Y-118182857D01*
X132315714Y-118225714D01*
X132401428Y-118268571D01*
X132744285Y-118268571D01*
X131458571Y-117797142D02*
X131630000Y-117797142D01*
X131715714Y-117840000D01*
X131758571Y-117882857D01*
X131844285Y-118011428D01*
X131887142Y-118182857D01*
X131887142Y-118525714D01*
X131844285Y-118611428D01*
X131801428Y-118654285D01*
X131715714Y-118697142D01*
X131544285Y-118697142D01*
X131458571Y-118654285D01*
X131415714Y-118611428D01*
X131372857Y-118525714D01*
X131372857Y-118311428D01*
X131415714Y-118225714D01*
X131458571Y-118182857D01*
X131544285Y-118140000D01*
X131715714Y-118140000D01*
X131801428Y-118182857D01*
X131844285Y-118225714D01*
X131887142Y-118311428D01*
X112360000Y-118697142D02*
X112660000Y-118268571D01*
X112874285Y-118697142D02*
X112874285Y-117797142D01*
X112531428Y-117797142D01*
X112445714Y-117840000D01*
X112402857Y-117882857D01*
X112360000Y-117968571D01*
X112360000Y-118097142D01*
X112402857Y-118182857D01*
X112445714Y-118225714D01*
X112531428Y-118268571D01*
X112874285Y-118268571D01*
X111545714Y-117797142D02*
X111974285Y-117797142D01*
X112017142Y-118225714D01*
X111974285Y-118182857D01*
X111888571Y-118140000D01*
X111674285Y-118140000D01*
X111588571Y-118182857D01*
X111545714Y-118225714D01*
X111502857Y-118311428D01*
X111502857Y-118525714D01*
X111545714Y-118611428D01*
X111588571Y-118654285D01*
X111674285Y-118697142D01*
X111888571Y-118697142D01*
X111974285Y-118654285D01*
X112017142Y-118611428D01*
X172870000Y-98377142D02*
X173170000Y-97948571D01*
X173384285Y-98377142D02*
X173384285Y-97477142D01*
X173041428Y-97477142D01*
X172955714Y-97520000D01*
X172912857Y-97562857D01*
X172870000Y-97648571D01*
X172870000Y-97777142D01*
X172912857Y-97862857D01*
X172955714Y-97905714D01*
X173041428Y-97948571D01*
X173384285Y-97948571D01*
X172098571Y-97777142D02*
X172098571Y-98377142D01*
X172312857Y-97434285D02*
X172527142Y-98077142D01*
X171970000Y-98077142D01*
X152550000Y-98377142D02*
X152850000Y-97948571D01*
X153064285Y-98377142D02*
X153064285Y-97477142D01*
X152721428Y-97477142D01*
X152635714Y-97520000D01*
X152592857Y-97562857D01*
X152550000Y-97648571D01*
X152550000Y-97777142D01*
X152592857Y-97862857D01*
X152635714Y-97905714D01*
X152721428Y-97948571D01*
X153064285Y-97948571D01*
X152250000Y-97477142D02*
X151692857Y-97477142D01*
X151992857Y-97820000D01*
X151864285Y-97820000D01*
X151778571Y-97862857D01*
X151735714Y-97905714D01*
X151692857Y-97991428D01*
X151692857Y-98205714D01*
X151735714Y-98291428D01*
X151778571Y-98334285D01*
X151864285Y-98377142D01*
X152121428Y-98377142D01*
X152207142Y-98334285D01*
X152250000Y-98291428D01*
X132230000Y-98377142D02*
X132530000Y-97948571D01*
X132744285Y-98377142D02*
X132744285Y-97477142D01*
X132401428Y-97477142D01*
X132315714Y-97520000D01*
X132272857Y-97562857D01*
X132230000Y-97648571D01*
X132230000Y-97777142D01*
X132272857Y-97862857D01*
X132315714Y-97905714D01*
X132401428Y-97948571D01*
X132744285Y-97948571D01*
X131887142Y-97562857D02*
X131844285Y-97520000D01*
X131758571Y-97477142D01*
X131544285Y-97477142D01*
X131458571Y-97520000D01*
X131415714Y-97562857D01*
X131372857Y-97648571D01*
X131372857Y-97734285D01*
X131415714Y-97862857D01*
X131930000Y-98377142D01*
X131372857Y-98377142D01*
X111910000Y-98377142D02*
X112210000Y-97948571D01*
X112424285Y-98377142D02*
X112424285Y-97477142D01*
X112081428Y-97477142D01*
X111995714Y-97520000D01*
X111952857Y-97562857D01*
X111910000Y-97648571D01*
X111910000Y-97777142D01*
X111952857Y-97862857D01*
X111995714Y-97905714D01*
X112081428Y-97948571D01*
X112424285Y-97948571D01*
X111052857Y-98377142D02*
X111567142Y-98377142D01*
X111310000Y-98377142D02*
X111310000Y-97477142D01*
X111395714Y-97605714D01*
X111481428Y-97691428D01*
X111567142Y-97734285D01*
M02*
