G04 #@! TF.GenerationSoftware,KiCad,Pcbnew,(5.1.4)-1*
G04 #@! TF.CreationDate,2019-12-25T11:40:04+08:00*
G04 #@! TF.ProjectId,matrix_control_main,6d617472-6978-45f6-936f-6e74726f6c5f,rev?*
G04 #@! TF.SameCoordinates,Original*
G04 #@! TF.FileFunction,Legend,Bot*
G04 #@! TF.FilePolarity,Positive*
%FSLAX46Y46*%
G04 Gerber Fmt 4.6, Leading zero omitted, Abs format (unit mm)*
G04 Created by KiCad (PCBNEW (5.1.4)-1) date 2019-12-25 11:40:04*
%MOMM*%
%LPD*%
G04 APERTURE LIST*
%ADD10C,0.150000*%
G04 APERTURE END LIST*
D10*
X132628187Y-101965499D02*
X132580568Y-101917880D01*
X132485330Y-101870260D01*
X132247235Y-101870260D01*
X132151997Y-101917880D01*
X132104378Y-101965499D01*
X132056759Y-102060737D01*
X132056759Y-102155975D01*
X132104378Y-102298832D01*
X132675806Y-102870260D01*
X132056759Y-102870260D01*
X131437711Y-101870260D02*
X131342473Y-101870260D01*
X131247235Y-101917880D01*
X131199616Y-101965499D01*
X131151997Y-102060737D01*
X131104378Y-102251213D01*
X131104378Y-102489308D01*
X131151997Y-102679784D01*
X131199616Y-102775022D01*
X131247235Y-102822641D01*
X131342473Y-102870260D01*
X131437711Y-102870260D01*
X131532949Y-102822641D01*
X131580568Y-102775022D01*
X131628187Y-102679784D01*
X131675806Y-102489308D01*
X131675806Y-102251213D01*
X131628187Y-102060737D01*
X131580568Y-101965499D01*
X131532949Y-101917880D01*
X131437711Y-101870260D01*
X130151997Y-102870260D02*
X130723425Y-102870260D01*
X130437711Y-102870260D02*
X130437711Y-101870260D01*
X130532949Y-102013118D01*
X130628187Y-102108356D01*
X130723425Y-102155975D01*
X129675806Y-102870260D02*
X129485330Y-102870260D01*
X129390092Y-102822641D01*
X129342473Y-102775022D01*
X129247235Y-102632165D01*
X129199616Y-102441689D01*
X129199616Y-102060737D01*
X129247235Y-101965499D01*
X129294854Y-101917880D01*
X129390092Y-101870260D01*
X129580568Y-101870260D01*
X129675806Y-101917880D01*
X129723425Y-101965499D01*
X129771044Y-102060737D01*
X129771044Y-102298832D01*
X129723425Y-102394070D01*
X129675806Y-102441689D01*
X129580568Y-102489308D01*
X129390092Y-102489308D01*
X129294854Y-102441689D01*
X129247235Y-102394070D01*
X129199616Y-102298832D01*
X128247235Y-102870260D02*
X128818663Y-102870260D01*
X128532949Y-102870260D02*
X128532949Y-101870260D01*
X128628187Y-102013118D01*
X128723425Y-102108356D01*
X128818663Y-102155975D01*
X127866282Y-101965499D02*
X127818663Y-101917880D01*
X127723425Y-101870260D01*
X127485330Y-101870260D01*
X127390092Y-101917880D01*
X127342473Y-101965499D01*
X127294854Y-102060737D01*
X127294854Y-102155975D01*
X127342473Y-102298832D01*
X127913901Y-102870260D01*
X127294854Y-102870260D01*
X126913901Y-101965499D02*
X126866282Y-101917880D01*
X126771044Y-101870260D01*
X126532949Y-101870260D01*
X126437711Y-101917880D01*
X126390092Y-101965499D01*
X126342473Y-102060737D01*
X126342473Y-102155975D01*
X126390092Y-102298832D01*
X126961520Y-102870260D01*
X126342473Y-102870260D01*
X125437711Y-101870260D02*
X125913901Y-101870260D01*
X125961520Y-102346451D01*
X125913901Y-102298832D01*
X125818663Y-102251213D01*
X125580568Y-102251213D01*
X125485330Y-102298832D01*
X125437711Y-102346451D01*
X125390092Y-102441689D01*
X125390092Y-102679784D01*
X125437711Y-102775022D01*
X125485330Y-102822641D01*
X125580568Y-102870260D01*
X125818663Y-102870260D01*
X125913901Y-102822641D01*
X125961520Y-102775022D01*
X138345345Y-100713800D02*
X138345345Y-99713800D01*
X138012012Y-100428086D01*
X137678679Y-99713800D01*
X137678679Y-100713800D01*
X136773917Y-100713800D02*
X136773917Y-100189991D01*
X136821536Y-100094753D01*
X136916774Y-100047134D01*
X137107250Y-100047134D01*
X137202488Y-100094753D01*
X136773917Y-100666181D02*
X136869155Y-100713800D01*
X137107250Y-100713800D01*
X137202488Y-100666181D01*
X137250107Y-100570943D01*
X137250107Y-100475705D01*
X137202488Y-100380467D01*
X137107250Y-100332848D01*
X136869155Y-100332848D01*
X136773917Y-100285229D01*
X136440583Y-100047134D02*
X136059631Y-100047134D01*
X136297726Y-99713800D02*
X136297726Y-100570943D01*
X136250107Y-100666181D01*
X136154869Y-100713800D01*
X136059631Y-100713800D01*
X135726298Y-100713800D02*
X135726298Y-100047134D01*
X135726298Y-100237610D02*
X135678679Y-100142372D01*
X135631060Y-100094753D01*
X135535821Y-100047134D01*
X135440583Y-100047134D01*
X135107250Y-100713800D02*
X135107250Y-100047134D01*
X135107250Y-99713800D02*
X135154869Y-99761420D01*
X135107250Y-99809039D01*
X135059631Y-99761420D01*
X135107250Y-99713800D01*
X135107250Y-99809039D01*
X134726298Y-100713800D02*
X134202488Y-100047134D01*
X134726298Y-100047134D02*
X134202488Y-100713800D01*
X134059631Y-100809039D02*
X133297726Y-100809039D01*
X132488202Y-100618562D02*
X132535821Y-100666181D01*
X132678679Y-100713800D01*
X132773917Y-100713800D01*
X132916774Y-100666181D01*
X133012012Y-100570943D01*
X133059631Y-100475705D01*
X133107250Y-100285229D01*
X133107250Y-100142372D01*
X133059631Y-99951896D01*
X133012012Y-99856658D01*
X132916774Y-99761420D01*
X132773917Y-99713800D01*
X132678679Y-99713800D01*
X132535821Y-99761420D01*
X132488202Y-99809039D01*
X131916774Y-100713800D02*
X132012012Y-100666181D01*
X132059631Y-100618562D01*
X132107250Y-100523324D01*
X132107250Y-100237610D01*
X132059631Y-100142372D01*
X132012012Y-100094753D01*
X131916774Y-100047134D01*
X131773917Y-100047134D01*
X131678679Y-100094753D01*
X131631060Y-100142372D01*
X131583440Y-100237610D01*
X131583440Y-100523324D01*
X131631060Y-100618562D01*
X131678679Y-100666181D01*
X131773917Y-100713800D01*
X131916774Y-100713800D01*
X131154869Y-100047134D02*
X131154869Y-100713800D01*
X131154869Y-100142372D02*
X131107250Y-100094753D01*
X131012012Y-100047134D01*
X130869155Y-100047134D01*
X130773917Y-100094753D01*
X130726298Y-100189991D01*
X130726298Y-100713800D01*
X130392964Y-100047134D02*
X130012012Y-100047134D01*
X130250107Y-99713800D02*
X130250107Y-100570943D01*
X130202488Y-100666181D01*
X130107250Y-100713800D01*
X130012012Y-100713800D01*
X129678679Y-100713800D02*
X129678679Y-100047134D01*
X129678679Y-100237610D02*
X129631060Y-100142372D01*
X129583440Y-100094753D01*
X129488202Y-100047134D01*
X129392964Y-100047134D01*
X128916774Y-100713800D02*
X129012012Y-100666181D01*
X129059631Y-100618562D01*
X129107250Y-100523324D01*
X129107250Y-100237610D01*
X129059631Y-100142372D01*
X129012012Y-100094753D01*
X128916774Y-100047134D01*
X128773917Y-100047134D01*
X128678679Y-100094753D01*
X128631060Y-100142372D01*
X128583440Y-100237610D01*
X128583440Y-100523324D01*
X128631060Y-100618562D01*
X128678679Y-100666181D01*
X128773917Y-100713800D01*
X128916774Y-100713800D01*
X128012012Y-100713800D02*
X128107250Y-100666181D01*
X128154869Y-100570943D01*
X128154869Y-99713800D01*
X127869155Y-100809039D02*
X127107250Y-100809039D01*
X126869155Y-100713800D02*
X126869155Y-99713800D01*
X126535821Y-100428086D01*
X126202488Y-99713800D01*
X126202488Y-100713800D01*
X125297726Y-100713800D02*
X125297726Y-100189991D01*
X125345345Y-100094753D01*
X125440583Y-100047134D01*
X125631060Y-100047134D01*
X125726298Y-100094753D01*
X125297726Y-100666181D02*
X125392964Y-100713800D01*
X125631060Y-100713800D01*
X125726298Y-100666181D01*
X125773917Y-100570943D01*
X125773917Y-100475705D01*
X125726298Y-100380467D01*
X125631060Y-100332848D01*
X125392964Y-100332848D01*
X125297726Y-100285229D01*
X124821536Y-100713800D02*
X124821536Y-100047134D01*
X124821536Y-99713800D02*
X124869155Y-99761420D01*
X124821536Y-99809039D01*
X124773917Y-99761420D01*
X124821536Y-99713800D01*
X124821536Y-99809039D01*
X124345345Y-100047134D02*
X124345345Y-100713800D01*
X124345345Y-100142372D02*
X124297726Y-100094753D01*
X124202488Y-100047134D01*
X124059631Y-100047134D01*
X123964393Y-100094753D01*
X123916774Y-100189991D01*
X123916774Y-100713800D01*
X123678679Y-100809039D02*
X122916774Y-100809039D01*
X122821536Y-99713800D02*
X122488202Y-100713800D01*
X122154869Y-99713800D01*
X121297726Y-100713800D02*
X121869155Y-100713800D01*
X121583440Y-100713800D02*
X121583440Y-99713800D01*
X121678679Y-99856658D01*
X121773917Y-99951896D01*
X121869155Y-99999515D01*
X120869155Y-100618562D02*
X120821536Y-100666181D01*
X120869155Y-100713800D01*
X120916774Y-100666181D01*
X120869155Y-100618562D01*
X120869155Y-100713800D01*
X120440583Y-99809039D02*
X120392964Y-99761420D01*
X120297726Y-99713800D01*
X120059631Y-99713800D01*
X119964393Y-99761420D01*
X119916774Y-99809039D01*
X119869155Y-99904277D01*
X119869155Y-99999515D01*
X119916774Y-100142372D01*
X120488202Y-100713800D01*
X119869155Y-100713800D01*
X133537460Y-98261442D02*
X133585079Y-98309061D01*
X133727936Y-98356680D01*
X133823174Y-98356680D01*
X133966031Y-98309061D01*
X134061269Y-98213823D01*
X134108888Y-98118585D01*
X134156507Y-97928109D01*
X134156507Y-97785252D01*
X134108888Y-97594776D01*
X134061269Y-97499538D01*
X133966031Y-97404300D01*
X133823174Y-97356680D01*
X133727936Y-97356680D01*
X133585079Y-97404300D01*
X133537460Y-97451919D01*
X133108888Y-98356680D02*
X133108888Y-97356680D01*
X132680317Y-98356680D02*
X132680317Y-97832871D01*
X132727936Y-97737633D01*
X132823174Y-97690014D01*
X132966031Y-97690014D01*
X133061269Y-97737633D01*
X133108888Y-97785252D01*
X131823174Y-98309061D02*
X131918412Y-98356680D01*
X132108888Y-98356680D01*
X132204126Y-98309061D01*
X132251745Y-98213823D01*
X132251745Y-97832871D01*
X132204126Y-97737633D01*
X132108888Y-97690014D01*
X131918412Y-97690014D01*
X131823174Y-97737633D01*
X131775555Y-97832871D01*
X131775555Y-97928109D01*
X132251745Y-98023347D01*
X131346983Y-97690014D02*
X131346983Y-98356680D01*
X131346983Y-97785252D02*
X131299364Y-97737633D01*
X131204126Y-97690014D01*
X131061269Y-97690014D01*
X130966031Y-97737633D01*
X130918412Y-97832871D01*
X130918412Y-98356680D01*
X130537460Y-97690014D02*
X130346983Y-98356680D01*
X130156507Y-97880490D01*
X129966031Y-98356680D01*
X129775555Y-97690014D01*
X129013650Y-98309061D02*
X129108888Y-98356680D01*
X129299364Y-98356680D01*
X129394602Y-98309061D01*
X129442221Y-98213823D01*
X129442221Y-97832871D01*
X129394602Y-97737633D01*
X129299364Y-97690014D01*
X129108888Y-97690014D01*
X129013650Y-97737633D01*
X128966031Y-97832871D01*
X128966031Y-97928109D01*
X129442221Y-98023347D01*
X128537460Y-98356680D02*
X128537460Y-97690014D01*
X128537460Y-97356680D02*
X128585079Y-97404300D01*
X128537460Y-97451919D01*
X128489840Y-97404300D01*
X128537460Y-97356680D01*
X128537460Y-97451919D01*
X128061269Y-97690014D02*
X128061269Y-98690014D01*
X128061269Y-97737633D02*
X127966031Y-97690014D01*
X127775555Y-97690014D01*
X127680317Y-97737633D01*
X127632698Y-97785252D01*
X127585079Y-97880490D01*
X127585079Y-98166204D01*
X127632698Y-98261442D01*
X127680317Y-98309061D01*
X127775555Y-98356680D01*
X127966031Y-98356680D01*
X128061269Y-98309061D01*
X126775555Y-98309061D02*
X126870793Y-98356680D01*
X127061269Y-98356680D01*
X127156507Y-98309061D01*
X127204126Y-98213823D01*
X127204126Y-97832871D01*
X127156507Y-97737633D01*
X127061269Y-97690014D01*
X126870793Y-97690014D01*
X126775555Y-97737633D01*
X126727936Y-97832871D01*
X126727936Y-97928109D01*
X127204126Y-98023347D01*
X126299364Y-97690014D02*
X126299364Y-98356680D01*
X126299364Y-97785252D02*
X126251745Y-97737633D01*
X126156507Y-97690014D01*
X126013650Y-97690014D01*
X125918412Y-97737633D01*
X125870793Y-97832871D01*
X125870793Y-98356680D01*
X124966031Y-97690014D02*
X124966031Y-98499538D01*
X125013650Y-98594776D01*
X125061269Y-98642395D01*
X125156507Y-98690014D01*
X125299364Y-98690014D01*
X125394602Y-98642395D01*
X124966031Y-98309061D02*
X125061269Y-98356680D01*
X125251745Y-98356680D01*
X125346983Y-98309061D01*
X125394602Y-98261442D01*
X125442221Y-98166204D01*
X125442221Y-97880490D01*
X125394602Y-97785252D01*
X125346983Y-97737633D01*
X125251745Y-97690014D01*
X125061269Y-97690014D01*
X124966031Y-97737633D01*
M02*
