G04 #@! TF.GenerationSoftware,KiCad,Pcbnew,(5.1.4)-1*
G04 #@! TF.CreationDate,2019-12-25T11:40:05+08:00*
G04 #@! TF.ProjectId,matrix_control_main,6d617472-6978-45f6-936f-6e74726f6c5f,rev?*
G04 #@! TF.SameCoordinates,Original*
G04 #@! TF.FileFunction,Other,User*
%FSLAX46Y46*%
G04 Gerber Fmt 4.6, Leading zero omitted, Abs format (unit mm)*
G04 Created by KiCad (PCBNEW (5.1.4)-1) date 2019-12-25 11:40:05*
%MOMM*%
%LPD*%
G04 APERTURE LIST*
%ADD10C,0.150000*%
%ADD11C,0.050000*%
G04 APERTURE END LIST*
D10*
X175870620Y-95776895D02*
X175870620Y-95157847D01*
X176251573Y-95491180D01*
X176251573Y-95348323D01*
X176299192Y-95253085D01*
X176346811Y-95205466D01*
X176442049Y-95157847D01*
X176680144Y-95157847D01*
X176775382Y-95205466D01*
X176823001Y-95253085D01*
X176870620Y-95348323D01*
X176870620Y-95634038D01*
X176823001Y-95729276D01*
X176775382Y-95776895D01*
X175870620Y-94872133D02*
X176870620Y-94538800D01*
X175870620Y-94205466D01*
X175870620Y-93967371D02*
X175870620Y-93348323D01*
X176251573Y-93681657D01*
X176251573Y-93538800D01*
X176299192Y-93443561D01*
X176346811Y-93395942D01*
X176442049Y-93348323D01*
X176680144Y-93348323D01*
X176775382Y-93395942D01*
X176823001Y-93443561D01*
X176870620Y-93538800D01*
X176870620Y-93824514D01*
X176823001Y-93919752D01*
X176775382Y-93967371D01*
X176984920Y-108978889D02*
X175984920Y-108978889D01*
X175984920Y-108740794D01*
X176032540Y-108597937D01*
X176127778Y-108502699D01*
X176223016Y-108455080D01*
X176413492Y-108407460D01*
X176556349Y-108407460D01*
X176746825Y-108455080D01*
X176842063Y-108502699D01*
X176937301Y-108597937D01*
X176984920Y-108740794D01*
X176984920Y-108978889D01*
X176984920Y-107978889D02*
X175984920Y-107978889D01*
X176984920Y-107502699D02*
X175984920Y-107502699D01*
X176984920Y-106931270D01*
X175984920Y-106931270D01*
X176889682Y-110532206D02*
X176937301Y-110579825D01*
X176984920Y-110722682D01*
X176984920Y-110817920D01*
X176937301Y-110960778D01*
X176842063Y-111056016D01*
X176746825Y-111103635D01*
X176556349Y-111151254D01*
X176413492Y-111151254D01*
X176223016Y-111103635D01*
X176127778Y-111056016D01*
X176032540Y-110960778D01*
X175984920Y-110817920D01*
X175984920Y-110722682D01*
X176032540Y-110579825D01*
X176080159Y-110532206D01*
X176937301Y-110151254D02*
X176984920Y-110008397D01*
X176984920Y-109770301D01*
X176937301Y-109675063D01*
X176889682Y-109627444D01*
X176794444Y-109579825D01*
X176699206Y-109579825D01*
X176603968Y-109627444D01*
X176556349Y-109675063D01*
X176508730Y-109770301D01*
X176461111Y-109960778D01*
X176413492Y-110056016D01*
X176365873Y-110103635D01*
X176270635Y-110151254D01*
X176175397Y-110151254D01*
X176080159Y-110103635D01*
X176032540Y-110056016D01*
X175984920Y-109960778D01*
X175984920Y-109722682D01*
X176032540Y-109579825D01*
X177011602Y-113640478D02*
X177059221Y-113688097D01*
X177106840Y-113830954D01*
X177106840Y-113926192D01*
X177059221Y-114069049D01*
X176963983Y-114164287D01*
X176868745Y-114211906D01*
X176678269Y-114259525D01*
X176535412Y-114259525D01*
X176344936Y-114211906D01*
X176249698Y-114164287D01*
X176154460Y-114069049D01*
X176106840Y-113926192D01*
X176106840Y-113830954D01*
X176154460Y-113688097D01*
X176202079Y-113640478D01*
X177106840Y-112735716D02*
X177106840Y-113211906D01*
X176106840Y-113211906D01*
X177106840Y-112402382D02*
X176106840Y-112402382D01*
X177106840Y-111830954D02*
X176535412Y-112259525D01*
X176106840Y-111830954D02*
X176678269Y-112402382D01*
D11*
X88960000Y-86150000D02*
X88960000Y-91650000D01*
X96460000Y-86150000D02*
X96460000Y-91650000D01*
X88960000Y-86150000D02*
X96460000Y-86150000D01*
X88960000Y-91650000D02*
X96460000Y-91650000D01*
X87062040Y-94472960D02*
X90362040Y-94472960D01*
X90362040Y-94472960D02*
X90362040Y-97672960D01*
X90362040Y-97672960D02*
X87062040Y-97672960D01*
X87062040Y-97672960D02*
X87062040Y-94472960D01*
X172490000Y-102640000D02*
X172490000Y-113640000D01*
X172490000Y-113640000D02*
X175490000Y-113640000D01*
X175490000Y-113640000D02*
X175490000Y-102640000D01*
X175490000Y-102640000D02*
X172490000Y-102640000D01*
X149175340Y-95677420D02*
X149175340Y-94177420D01*
X152175340Y-95677420D02*
X152175340Y-94177420D01*
X152175340Y-94177420D02*
X149175340Y-94177420D01*
X152175340Y-95677420D02*
X149175340Y-95677420D01*
X152183380Y-97572260D02*
X149183380Y-97572260D01*
X152183380Y-96072260D02*
X149183380Y-96072260D01*
X152183380Y-97572260D02*
X152183380Y-96072260D01*
X149183380Y-97572260D02*
X149183380Y-96072260D01*
X85538880Y-85932300D02*
X87038880Y-85932300D01*
X85538880Y-88932300D02*
X87038880Y-88932300D01*
X87038880Y-88932300D02*
X87038880Y-85932300D01*
X85538880Y-88932300D02*
X85538880Y-85932300D01*
X111010000Y-111500000D02*
X111010000Y-108500000D01*
X112510000Y-111500000D02*
X112510000Y-108500000D01*
X111010000Y-111500000D02*
X112510000Y-111500000D01*
X111010000Y-108500000D02*
X112510000Y-108500000D01*
X150610000Y-104820000D02*
X149110000Y-104820000D01*
X150610000Y-101820000D02*
X149110000Y-101820000D01*
X149110000Y-101820000D02*
X149110000Y-104820000D01*
X150610000Y-101820000D02*
X150610000Y-104820000D01*
X150445340Y-93193300D02*
X150445340Y-91693300D01*
X153445340Y-93193300D02*
X153445340Y-91693300D01*
X153445340Y-91693300D02*
X150445340Y-91693300D01*
X153445340Y-93193300D02*
X150445340Y-93193300D01*
X153470740Y-91229880D02*
X150470740Y-91229880D01*
X153470740Y-89729880D02*
X150470740Y-89729880D01*
X153470740Y-91229880D02*
X153470740Y-89729880D01*
X150470740Y-91229880D02*
X150470740Y-89729880D01*
X103328340Y-111157320D02*
X106328340Y-111157320D01*
X103328340Y-112657320D02*
X106328340Y-112657320D01*
X103328340Y-111157320D02*
X103328340Y-112657320D01*
X106328340Y-111157320D02*
X106328340Y-112657320D01*
X99863780Y-111157320D02*
X102863780Y-111157320D01*
X99863780Y-112657320D02*
X102863780Y-112657320D01*
X99863780Y-111157320D02*
X99863780Y-112657320D01*
X102863780Y-111157320D02*
X102863780Y-112657320D01*
X128110000Y-81780000D02*
X146210000Y-81780000D01*
X146210000Y-81780000D02*
X146210000Y-107080000D01*
X146210000Y-107080000D02*
X128110000Y-107080000D01*
X128110000Y-107080000D02*
X128110000Y-81780000D01*
X122744100Y-91438160D02*
X122744100Y-89938160D01*
X125744100Y-91438160D02*
X125744100Y-89938160D01*
X125744100Y-89938160D02*
X122744100Y-89938160D01*
X125744100Y-91438160D02*
X122744100Y-91438160D01*
X95164620Y-102504940D02*
X92164620Y-102504940D01*
X95164620Y-101004940D02*
X92164620Y-101004940D01*
X95164620Y-102504940D02*
X95164620Y-101004940D01*
X92164620Y-102504940D02*
X92164620Y-101004940D01*
X91954920Y-98563980D02*
X91954920Y-95563980D01*
X93454920Y-98563980D02*
X93454920Y-95563980D01*
X91954920Y-98563980D02*
X93454920Y-98563980D01*
X91954920Y-95563980D02*
X93454920Y-95563980D01*
X91620000Y-115230000D02*
X91620000Y-118230000D01*
X90120000Y-115230000D02*
X90120000Y-118230000D01*
X91620000Y-115230000D02*
X90120000Y-115230000D01*
X91620000Y-118230000D02*
X90120000Y-118230000D01*
X95430000Y-115230000D02*
X95430000Y-118230000D01*
X93930000Y-115230000D02*
X93930000Y-118230000D01*
X95430000Y-115230000D02*
X93930000Y-115230000D01*
X95430000Y-118230000D02*
X93930000Y-118230000D01*
X97740000Y-115230000D02*
X99240000Y-115230000D01*
X97740000Y-118230000D02*
X99240000Y-118230000D01*
X99240000Y-118230000D02*
X99240000Y-115230000D01*
X97740000Y-118230000D02*
X97740000Y-115230000D01*
X112510000Y-118340000D02*
X111010000Y-118340000D01*
X112510000Y-115340000D02*
X111010000Y-115340000D01*
X111010000Y-115340000D02*
X111010000Y-118340000D01*
X112510000Y-115340000D02*
X112510000Y-118340000D01*
X116320000Y-115340000D02*
X116320000Y-118340000D01*
X114820000Y-115340000D02*
X114820000Y-118340000D01*
X116320000Y-115340000D02*
X114820000Y-115340000D01*
X116320000Y-118340000D02*
X114820000Y-118340000D01*
X120130000Y-118340000D02*
X118630000Y-118340000D01*
X120130000Y-115340000D02*
X118630000Y-115340000D01*
X118630000Y-115340000D02*
X118630000Y-118340000D01*
X120130000Y-115340000D02*
X120130000Y-118340000D01*
X166243140Y-112885860D02*
G75*
G03X166243140Y-112885860I-6500000J0D01*
G01*
X125455240Y-82310500D02*
X120355240Y-82310500D01*
X120355240Y-82310500D02*
X120355240Y-80503500D01*
X120355240Y-80503500D02*
X125455240Y-80503500D01*
X125455240Y-80503500D02*
X125455240Y-82310500D01*
X151917080Y-116914900D02*
X148067080Y-116914900D01*
X148067080Y-116914900D02*
X148067080Y-113894900D01*
X148067080Y-113894900D02*
X151917080Y-113894900D01*
X151917080Y-113894900D02*
X151917080Y-116914900D01*
X143595380Y-113689700D02*
X146595380Y-113689700D01*
X143595380Y-115189700D02*
X146595380Y-115189700D01*
X143595380Y-113689700D02*
X143595380Y-115189700D01*
X146595380Y-113689700D02*
X146595380Y-115189700D01*
X143551360Y-117635720D02*
X143551360Y-116135720D01*
X146551360Y-117635720D02*
X146551360Y-116135720D01*
X146551360Y-116135720D02*
X143551360Y-116135720D01*
X146551360Y-117635720D02*
X143551360Y-117635720D01*
X124664600Y-84737640D02*
X121664600Y-84737640D01*
X124664600Y-83237640D02*
X121664600Y-83237640D01*
X124664600Y-84737640D02*
X124664600Y-83237640D01*
X121664600Y-84737640D02*
X121664600Y-83237640D01*
X157214440Y-99126740D02*
X157214440Y-97626740D01*
X160214440Y-99126740D02*
X160214440Y-97626740D01*
X160214440Y-97626740D02*
X157214440Y-97626740D01*
X160214440Y-99126740D02*
X157214440Y-99126740D01*
X152114380Y-101237480D02*
X149114380Y-101237480D01*
X152114380Y-99737480D02*
X149114380Y-99737480D01*
X152114380Y-101237480D02*
X152114380Y-99737480D01*
X149114380Y-101237480D02*
X149114380Y-99737480D01*
X175802700Y-96981420D02*
X175802700Y-85781420D01*
X175802700Y-85781420D02*
X172202700Y-85781420D01*
X172202700Y-85781420D02*
X172202700Y-96981420D01*
X172202700Y-96981420D02*
X175802700Y-96981420D01*
X94190820Y-105999280D02*
X94190820Y-109599280D01*
X100764340Y-106017060D02*
X100761800Y-109611980D01*
X94190820Y-106017920D02*
X100761800Y-106017920D01*
X94190820Y-109617920D02*
X100761800Y-109617920D01*
X103308400Y-115257780D02*
X107308400Y-115257780D01*
X107308400Y-115257780D02*
X107308400Y-118457780D01*
X107308400Y-118457780D02*
X103308400Y-118457780D01*
X103308400Y-118457780D02*
X103308400Y-115257780D01*
M02*
