G04 #@! TF.GenerationSoftware,KiCad,Pcbnew,(5.1.4)-1*
G04 #@! TF.CreationDate,2019-12-25T11:40:04+08:00*
G04 #@! TF.ProjectId,matrix_control_main,6d617472-6978-45f6-936f-6e74726f6c5f,rev?*
G04 #@! TF.SameCoordinates,Original*
G04 #@! TF.FileFunction,Legend,Top*
G04 #@! TF.FilePolarity,Positive*
%FSLAX46Y46*%
G04 Gerber Fmt 4.6, Leading zero omitted, Abs format (unit mm)*
G04 Created by KiCad (PCBNEW (5.1.4)-1) date 2019-12-25 11:40:04*
%MOMM*%
%LPD*%
G04 APERTURE LIST*
%ADD10C,0.150000*%
%ADD11C,0.120000*%
%ADD12C,0.100000*%
%ADD13C,0.200000*%
%ADD14C,0.254000*%
G04 APERTURE END LIST*
D10*
X90635000Y-86325000D02*
X90635000Y-86470000D01*
X94785000Y-86325000D02*
X94785000Y-86470000D01*
X94785000Y-91475000D02*
X94785000Y-91330000D01*
X90635000Y-91475000D02*
X90635000Y-91330000D01*
X90635000Y-86325000D02*
X94785000Y-86325000D01*
X90635000Y-91475000D02*
X94785000Y-91475000D01*
X90635000Y-86470000D02*
X89235000Y-86470000D01*
X117908720Y-98463100D02*
G75*
G03X117908720Y-98463100I-7500000J0D01*
G01*
X102808720Y-105863100D02*
X102808720Y-91063100D01*
X104208720Y-105863100D02*
X104208720Y-102763100D01*
X102808720Y-105863100D02*
X104208720Y-105863100D01*
X104208720Y-91063100D02*
X104208720Y-94263100D01*
X102908720Y-91063100D02*
X104208720Y-91063100D01*
X102808720Y-91063100D02*
X103008720Y-91063100D01*
X90011200Y-95422720D02*
X89962940Y-95422720D01*
X87212220Y-96123760D02*
X87212220Y-95422720D01*
X87212220Y-95422720D02*
X87461140Y-95422720D01*
X90011200Y-95422720D02*
X90211860Y-95422720D01*
X90211860Y-95422720D02*
X90211860Y-96123760D01*
D11*
X172930000Y-113200000D02*
X175050000Y-113200000D01*
X172930000Y-105140000D02*
X172930000Y-113200000D01*
X175050000Y-105140000D02*
X175050000Y-113200000D01*
X172930000Y-105140000D02*
X175050000Y-105140000D01*
X172930000Y-104140000D02*
X172930000Y-103080000D01*
X172930000Y-103080000D02*
X173990000Y-103080000D01*
X87940000Y-103475000D02*
X81940000Y-103475000D01*
X87940000Y-112425000D02*
X81940000Y-112425000D01*
X87940000Y-103475000D02*
X87940000Y-112425000D01*
D10*
X150325340Y-94327420D02*
X151025340Y-94327420D01*
X151025340Y-95527420D02*
X150325340Y-95527420D01*
X151033380Y-97422260D02*
X150333380Y-97422260D01*
X150333380Y-96222260D02*
X151033380Y-96222260D01*
X86888880Y-87082300D02*
X86888880Y-87782300D01*
X85688880Y-87782300D02*
X85688880Y-87082300D01*
X111160000Y-110350000D02*
X111160000Y-109650000D01*
X112360000Y-109650000D02*
X112360000Y-110350000D01*
X149260000Y-103670000D02*
X149260000Y-102970000D01*
X150460000Y-102970000D02*
X150460000Y-103670000D01*
X151595340Y-91843300D02*
X152295340Y-91843300D01*
X152295340Y-93043300D02*
X151595340Y-93043300D01*
X152320740Y-91079880D02*
X151620740Y-91079880D01*
X151620740Y-89879880D02*
X152320740Y-89879880D01*
X104478340Y-111307320D02*
X105178340Y-111307320D01*
X105178340Y-112507320D02*
X104478340Y-112507320D01*
X101013780Y-111307320D02*
X101713780Y-111307320D01*
X101713780Y-112507320D02*
X101013780Y-112507320D01*
X110780000Y-82010000D02*
X110780000Y-79520000D01*
X110780000Y-79520000D02*
X111640000Y-79520000D01*
X116990000Y-79520000D02*
X117810000Y-79520000D01*
X117810000Y-82010000D02*
X117810000Y-79520000D01*
X117810000Y-82010000D02*
X110780000Y-82010000D01*
X116980000Y-82010000D02*
X117810000Y-82010000D01*
X117050000Y-79521810D02*
X111550000Y-79521810D01*
X165310000Y-79521810D02*
X159810000Y-79521810D01*
X165240000Y-82010000D02*
X166070000Y-82010000D01*
X166070000Y-82010000D02*
X159040000Y-82010000D01*
X166070000Y-82010000D02*
X166070000Y-79520000D01*
X165250000Y-79520000D02*
X166070000Y-79520000D01*
X159040000Y-79520000D02*
X159900000Y-79520000D01*
X159040000Y-82010000D02*
X159040000Y-79520000D01*
D11*
X129040000Y-81860000D02*
X145280000Y-81860000D01*
X145280000Y-81860000D02*
X145280000Y-89480000D01*
X145280000Y-105480000D02*
X145280000Y-106100000D01*
X145280000Y-106100000D02*
X143160000Y-106100000D01*
X131160000Y-106100000D02*
X129040000Y-106100000D01*
X129040000Y-106100000D02*
X129040000Y-105480000D01*
X129040000Y-89480000D02*
X129040000Y-81860000D01*
X129040000Y-89480000D02*
X128430000Y-89480000D01*
D10*
X123894100Y-90088160D02*
X124594100Y-90088160D01*
X124594100Y-91288160D02*
X123894100Y-91288160D01*
X94014620Y-102354940D02*
X93314620Y-102354940D01*
X93314620Y-101154940D02*
X94014620Y-101154940D01*
X92104920Y-97413980D02*
X92104920Y-96713980D01*
X93304920Y-96713980D02*
X93304920Y-97413980D01*
X91470000Y-116380000D02*
X91470000Y-117080000D01*
X90270000Y-117080000D02*
X90270000Y-116380000D01*
X95280000Y-116380000D02*
X95280000Y-117080000D01*
X94080000Y-117080000D02*
X94080000Y-116380000D01*
X99090000Y-116380000D02*
X99090000Y-117080000D01*
X97890000Y-117080000D02*
X97890000Y-116380000D01*
X111160000Y-117190000D02*
X111160000Y-116490000D01*
X112360000Y-116490000D02*
X112360000Y-117190000D01*
X116170000Y-116490000D02*
X116170000Y-117190000D01*
X114970000Y-117190000D02*
X114970000Y-116490000D01*
X118780000Y-117190000D02*
X118780000Y-116490000D01*
X119980000Y-116490000D02*
X119980000Y-117190000D01*
D12*
X166143140Y-112885860D02*
G75*
G03X166143140Y-112885860I-6400000J0D01*
G01*
D13*
X124705240Y-80746500D02*
X124505240Y-80553500D01*
X124705240Y-81940500D02*
X124505240Y-82133500D01*
X124505240Y-82133500D02*
X123605240Y-82133500D01*
X121670240Y-80553500D02*
X121670240Y-82133500D01*
X124705240Y-80746500D02*
X124705240Y-81940500D01*
X122805240Y-82133500D02*
X121670240Y-82133500D01*
X124505240Y-80553500D02*
X123605240Y-80553500D01*
X122805240Y-80553500D02*
X121670240Y-80553500D01*
D10*
G36*
X125180240Y-80743500D02*
G01*
X124880240Y-80743500D01*
X124880240Y-81943500D01*
X125180240Y-81943500D01*
X125180240Y-80743500D01*
G37*
X125180240Y-80743500D02*
X124880240Y-80743500D01*
X124880240Y-81943500D01*
X125180240Y-81943500D01*
X125180240Y-80743500D01*
D14*
X150642080Y-116204900D02*
X150642080Y-116864900D01*
X150642080Y-116204900D02*
X150642080Y-116864900D01*
X150642080Y-116204900D02*
X150642080Y-116864900D01*
X150642080Y-116864900D02*
X149827080Y-116864900D01*
X150642080Y-113944900D02*
X149827080Y-113944900D01*
X150642080Y-113944900D02*
X150642080Y-114604900D01*
D13*
X149092080Y-115104900D02*
X149092080Y-115704900D01*
D10*
X144745380Y-113839700D02*
X145445380Y-113839700D01*
X145445380Y-115039700D02*
X144745380Y-115039700D01*
X144701360Y-116285720D02*
X145401360Y-116285720D01*
X145401360Y-117485720D02*
X144701360Y-117485720D01*
X123514600Y-84587640D02*
X122814600Y-84587640D01*
X122814600Y-83387640D02*
X123514600Y-83387640D01*
X158364440Y-97776740D02*
X159064440Y-97776740D01*
X159064440Y-98976740D02*
X158364440Y-98976740D01*
X150964380Y-101087480D02*
X150264380Y-101087480D01*
X150264380Y-99887480D02*
X150964380Y-99887480D01*
D11*
X175332700Y-86231420D02*
X172672700Y-86231420D01*
X175332700Y-93911420D02*
X175332700Y-86231420D01*
X172672700Y-93911420D02*
X172672700Y-86231420D01*
X175332700Y-93911420D02*
X172672700Y-93911420D01*
X175332700Y-95181420D02*
X175332700Y-96511420D01*
X175332700Y-96511420D02*
X174002700Y-96511420D01*
D10*
X95842420Y-106192920D02*
X95842420Y-106367920D01*
X99092420Y-106192920D02*
X99092420Y-106467920D01*
X99092420Y-109442920D02*
X99092420Y-109167920D01*
X95842420Y-109442920D02*
X95842420Y-109167920D01*
X95842420Y-106192920D02*
X99092420Y-106192920D01*
X95842420Y-109442920D02*
X99092420Y-109442920D01*
X95842420Y-106367920D02*
X94767420Y-106367920D01*
X105108400Y-115157780D02*
G75*
G03X105108400Y-115157780I-100000J0D01*
G01*
X105558400Y-115407780D02*
X105058400Y-115407780D01*
X105558400Y-118307780D02*
X105558400Y-115407780D01*
X105058400Y-118307780D02*
X105558400Y-118307780D01*
X105058400Y-115407780D02*
X105058400Y-118307780D01*
X91948095Y-91952380D02*
X91948095Y-92761904D01*
X91995714Y-92857142D01*
X92043333Y-92904761D01*
X92138571Y-92952380D01*
X92329047Y-92952380D01*
X92424285Y-92904761D01*
X92471904Y-92857142D01*
X92519523Y-92761904D01*
X92519523Y-91952380D01*
X92900476Y-91952380D02*
X93519523Y-91952380D01*
X93186190Y-92333333D01*
X93329047Y-92333333D01*
X93424285Y-92380952D01*
X93471904Y-92428571D01*
X93519523Y-92523809D01*
X93519523Y-92761904D01*
X93471904Y-92857142D01*
X93424285Y-92904761D01*
X93329047Y-92952380D01*
X93043333Y-92952380D01*
X92948095Y-92904761D01*
X92900476Y-92857142D01*
X118837291Y-96118814D02*
X118884910Y-95975957D01*
X118932529Y-95928338D01*
X119027767Y-95880719D01*
X119170624Y-95880719D01*
X119265862Y-95928338D01*
X119313481Y-95975957D01*
X119361100Y-96071195D01*
X119361100Y-96452147D01*
X118361100Y-96452147D01*
X118361100Y-96118814D01*
X118408720Y-96023576D01*
X118456339Y-95975957D01*
X118551577Y-95928338D01*
X118646815Y-95928338D01*
X118742053Y-95975957D01*
X118789672Y-96023576D01*
X118837291Y-96118814D01*
X118837291Y-96452147D01*
X118361100Y-95595004D02*
X118361100Y-95023576D01*
X119361100Y-95309290D02*
X118361100Y-95309290D01*
X119361100Y-94166433D02*
X119361100Y-94737861D01*
X119361100Y-94452147D02*
X118361100Y-94452147D01*
X118503958Y-94547385D01*
X118599196Y-94642623D01*
X118646815Y-94737861D01*
X85243944Y-96515340D02*
X85243944Y-95515340D01*
X85482040Y-95515340D01*
X85624897Y-95562960D01*
X85720135Y-95658198D01*
X85767754Y-95753436D01*
X85815373Y-95943912D01*
X85815373Y-96086769D01*
X85767754Y-96277245D01*
X85720135Y-96372483D01*
X85624897Y-96467721D01*
X85482040Y-96515340D01*
X85243944Y-96515340D01*
X86767754Y-96515340D02*
X86196325Y-96515340D01*
X86482040Y-96515340D02*
X86482040Y-95515340D01*
X86386801Y-95658198D01*
X86291563Y-95753436D01*
X86196325Y-95801055D01*
X173656666Y-101532380D02*
X173656666Y-102246666D01*
X173609047Y-102389523D01*
X173513809Y-102484761D01*
X173370952Y-102532380D01*
X173275714Y-102532380D01*
X174656666Y-102532380D02*
X174085238Y-102532380D01*
X174370952Y-102532380D02*
X174370952Y-101532380D01*
X174275714Y-101675238D01*
X174180476Y-101770476D01*
X174085238Y-101818095D01*
X152981100Y-95342182D02*
X152681100Y-94913611D01*
X152466814Y-95342182D02*
X152466814Y-94442182D01*
X152809671Y-94442182D01*
X152895385Y-94485040D01*
X152938242Y-94527897D01*
X152981100Y-94613611D01*
X152981100Y-94742182D01*
X152938242Y-94827897D01*
X152895385Y-94870754D01*
X152809671Y-94913611D01*
X152466814Y-94913611D01*
X153838242Y-95342182D02*
X153323957Y-95342182D01*
X153581100Y-95342182D02*
X153581100Y-94442182D01*
X153495385Y-94570754D01*
X153409671Y-94656468D01*
X153323957Y-94699325D01*
X152943840Y-97297982D02*
X152643840Y-96869411D01*
X152429554Y-97297982D02*
X152429554Y-96397982D01*
X152772411Y-96397982D01*
X152858125Y-96440840D01*
X152900982Y-96483697D01*
X152943840Y-96569411D01*
X152943840Y-96697982D01*
X152900982Y-96783697D01*
X152858125Y-96826554D01*
X152772411Y-96869411D01*
X152429554Y-96869411D01*
X153286697Y-96483697D02*
X153329554Y-96440840D01*
X153415268Y-96397982D01*
X153629554Y-96397982D01*
X153715268Y-96440840D01*
X153758125Y-96483697D01*
X153800982Y-96569411D01*
X153800982Y-96655125D01*
X153758125Y-96783697D01*
X153243840Y-97297982D01*
X153800982Y-97297982D01*
X84418880Y-87839442D02*
X84118880Y-87410871D01*
X83904594Y-87839442D02*
X83904594Y-86939442D01*
X84247451Y-86939442D01*
X84333165Y-86982300D01*
X84376022Y-87025157D01*
X84418880Y-87110871D01*
X84418880Y-87239442D01*
X84376022Y-87325157D01*
X84333165Y-87368014D01*
X84247451Y-87410871D01*
X83904594Y-87410871D01*
X84718880Y-86939442D02*
X85276022Y-86939442D01*
X84976022Y-87282300D01*
X85104594Y-87282300D01*
X85190308Y-87325157D01*
X85233165Y-87368014D01*
X85276022Y-87453728D01*
X85276022Y-87668014D01*
X85233165Y-87753728D01*
X85190308Y-87796585D01*
X85104594Y-87839442D01*
X84847451Y-87839442D01*
X84761737Y-87796585D01*
X84718880Y-87753728D01*
X109890000Y-110407142D02*
X109590000Y-109978571D01*
X109375714Y-110407142D02*
X109375714Y-109507142D01*
X109718571Y-109507142D01*
X109804285Y-109550000D01*
X109847142Y-109592857D01*
X109890000Y-109678571D01*
X109890000Y-109807142D01*
X109847142Y-109892857D01*
X109804285Y-109935714D01*
X109718571Y-109978571D01*
X109375714Y-109978571D01*
X110661428Y-109807142D02*
X110661428Y-110407142D01*
X110447142Y-109464285D02*
X110232857Y-110107142D01*
X110790000Y-110107142D01*
X151430000Y-103727142D02*
X151130000Y-103298571D01*
X150915714Y-103727142D02*
X150915714Y-102827142D01*
X151258571Y-102827142D01*
X151344285Y-102870000D01*
X151387142Y-102912857D01*
X151430000Y-102998571D01*
X151430000Y-103127142D01*
X151387142Y-103212857D01*
X151344285Y-103255714D01*
X151258571Y-103298571D01*
X150915714Y-103298571D01*
X152244285Y-102827142D02*
X151815714Y-102827142D01*
X151772857Y-103255714D01*
X151815714Y-103212857D01*
X151901428Y-103170000D01*
X152115714Y-103170000D01*
X152201428Y-103212857D01*
X152244285Y-103255714D01*
X152287142Y-103341428D01*
X152287142Y-103555714D01*
X152244285Y-103641428D01*
X152201428Y-103684285D01*
X152115714Y-103727142D01*
X151901428Y-103727142D01*
X151815714Y-103684285D01*
X151772857Y-103641428D01*
X154427200Y-92814882D02*
X154127200Y-92386311D01*
X153912914Y-92814882D02*
X153912914Y-91914882D01*
X154255771Y-91914882D01*
X154341485Y-91957740D01*
X154384342Y-92000597D01*
X154427200Y-92086311D01*
X154427200Y-92214882D01*
X154384342Y-92300597D01*
X154341485Y-92343454D01*
X154255771Y-92386311D01*
X153912914Y-92386311D01*
X155198628Y-91914882D02*
X155027200Y-91914882D01*
X154941485Y-91957740D01*
X154898628Y-92000597D01*
X154812914Y-92129168D01*
X154770057Y-92300597D01*
X154770057Y-92643454D01*
X154812914Y-92729168D01*
X154855771Y-92772025D01*
X154941485Y-92814882D01*
X155112914Y-92814882D01*
X155198628Y-92772025D01*
X155241485Y-92729168D01*
X155284342Y-92643454D01*
X155284342Y-92429168D01*
X155241485Y-92343454D01*
X155198628Y-92300597D01*
X155112914Y-92257740D01*
X154941485Y-92257740D01*
X154855771Y-92300597D01*
X154812914Y-92343454D01*
X154770057Y-92429168D01*
X154365820Y-90851462D02*
X154065820Y-90422891D01*
X153851534Y-90851462D02*
X153851534Y-89951462D01*
X154194391Y-89951462D01*
X154280105Y-89994320D01*
X154322962Y-90037177D01*
X154365820Y-90122891D01*
X154365820Y-90251462D01*
X154322962Y-90337177D01*
X154280105Y-90380034D01*
X154194391Y-90422891D01*
X153851534Y-90422891D01*
X154665820Y-89951462D02*
X155265820Y-89951462D01*
X154880105Y-90851462D01*
X104800260Y-110866662D02*
X104500260Y-110438091D01*
X104285974Y-110866662D02*
X104285974Y-109966662D01*
X104628831Y-109966662D01*
X104714545Y-110009520D01*
X104757402Y-110052377D01*
X104800260Y-110138091D01*
X104800260Y-110266662D01*
X104757402Y-110352377D01*
X104714545Y-110395234D01*
X104628831Y-110438091D01*
X104285974Y-110438091D01*
X105314545Y-110352377D02*
X105228831Y-110309520D01*
X105185974Y-110266662D01*
X105143117Y-110180948D01*
X105143117Y-110138091D01*
X105185974Y-110052377D01*
X105228831Y-110009520D01*
X105314545Y-109966662D01*
X105485974Y-109966662D01*
X105571688Y-110009520D01*
X105614545Y-110052377D01*
X105657402Y-110138091D01*
X105657402Y-110180948D01*
X105614545Y-110266662D01*
X105571688Y-110309520D01*
X105485974Y-110352377D01*
X105314545Y-110352377D01*
X105228831Y-110395234D01*
X105185974Y-110438091D01*
X105143117Y-110523805D01*
X105143117Y-110695234D01*
X105185974Y-110780948D01*
X105228831Y-110823805D01*
X105314545Y-110866662D01*
X105485974Y-110866662D01*
X105571688Y-110823805D01*
X105614545Y-110780948D01*
X105657402Y-110695234D01*
X105657402Y-110523805D01*
X105614545Y-110438091D01*
X105571688Y-110395234D01*
X105485974Y-110352377D01*
X101917360Y-110970802D02*
X101617360Y-110542231D01*
X101403074Y-110970802D02*
X101403074Y-110070802D01*
X101745931Y-110070802D01*
X101831645Y-110113660D01*
X101874502Y-110156517D01*
X101917360Y-110242231D01*
X101917360Y-110370802D01*
X101874502Y-110456517D01*
X101831645Y-110499374D01*
X101745931Y-110542231D01*
X101403074Y-110542231D01*
X102345931Y-110970802D02*
X102517360Y-110970802D01*
X102603074Y-110927945D01*
X102645931Y-110885088D01*
X102731645Y-110756517D01*
X102774502Y-110585088D01*
X102774502Y-110242231D01*
X102731645Y-110156517D01*
X102688788Y-110113660D01*
X102603074Y-110070802D01*
X102431645Y-110070802D01*
X102345931Y-110113660D01*
X102303074Y-110156517D01*
X102260217Y-110242231D01*
X102260217Y-110456517D01*
X102303074Y-110542231D01*
X102345931Y-110585088D01*
X102431645Y-110627945D01*
X102603074Y-110627945D01*
X102688788Y-110585088D01*
X102731645Y-110542231D01*
X102774502Y-110456517D01*
X131925155Y-80577440D02*
X131925155Y-81386964D01*
X131972774Y-81482202D01*
X132020393Y-81529821D01*
X132115631Y-81577440D01*
X132306107Y-81577440D01*
X132401345Y-81529821D01*
X132448964Y-81482202D01*
X132496583Y-81386964D01*
X132496583Y-80577440D01*
X133496583Y-81577440D02*
X132925155Y-81577440D01*
X133210869Y-81577440D02*
X133210869Y-80577440D01*
X133115631Y-80720298D01*
X133020393Y-80815536D01*
X132925155Y-80863155D01*
X124139820Y-92531048D02*
X124096962Y-92573905D01*
X123968391Y-92616762D01*
X123882677Y-92616762D01*
X123754105Y-92573905D01*
X123668391Y-92488191D01*
X123625534Y-92402477D01*
X123582677Y-92231048D01*
X123582677Y-92102477D01*
X123625534Y-91931048D01*
X123668391Y-91845334D01*
X123754105Y-91759620D01*
X123882677Y-91716762D01*
X123968391Y-91716762D01*
X124096962Y-91759620D01*
X124139820Y-91802477D01*
X124996962Y-92616762D02*
X124482677Y-92616762D01*
X124739820Y-92616762D02*
X124739820Y-91716762D01*
X124654105Y-91845334D01*
X124568391Y-91931048D01*
X124482677Y-91973905D01*
X96096048Y-101904940D02*
X96138905Y-101947797D01*
X96181762Y-102076368D01*
X96181762Y-102162082D01*
X96138905Y-102290654D01*
X96053191Y-102376368D01*
X95967477Y-102419225D01*
X95796048Y-102462082D01*
X95667477Y-102462082D01*
X95496048Y-102419225D01*
X95410334Y-102376368D01*
X95324620Y-102290654D01*
X95281762Y-102162082D01*
X95281762Y-102076368D01*
X95324620Y-101947797D01*
X95367477Y-101904940D01*
X95367477Y-101562082D02*
X95324620Y-101519225D01*
X95281762Y-101433511D01*
X95281762Y-101219225D01*
X95324620Y-101133511D01*
X95367477Y-101090654D01*
X95453191Y-101047797D01*
X95538905Y-101047797D01*
X95667477Y-101090654D01*
X96181762Y-101604940D01*
X96181762Y-101047797D01*
X92577780Y-95071468D02*
X92534922Y-95114325D01*
X92406351Y-95157182D01*
X92320637Y-95157182D01*
X92192065Y-95114325D01*
X92106351Y-95028611D01*
X92063494Y-94942897D01*
X92020637Y-94771468D01*
X92020637Y-94642897D01*
X92063494Y-94471468D01*
X92106351Y-94385754D01*
X92192065Y-94300040D01*
X92320637Y-94257182D01*
X92406351Y-94257182D01*
X92534922Y-94300040D01*
X92577780Y-94342897D01*
X92877780Y-94257182D02*
X93434922Y-94257182D01*
X93134922Y-94600040D01*
X93263494Y-94600040D01*
X93349208Y-94642897D01*
X93392065Y-94685754D01*
X93434922Y-94771468D01*
X93434922Y-94985754D01*
X93392065Y-95071468D01*
X93349208Y-95114325D01*
X93263494Y-95157182D01*
X93006351Y-95157182D01*
X92920637Y-95114325D01*
X92877780Y-95071468D01*
X90720000Y-119191428D02*
X90677142Y-119234285D01*
X90548571Y-119277142D01*
X90462857Y-119277142D01*
X90334285Y-119234285D01*
X90248571Y-119148571D01*
X90205714Y-119062857D01*
X90162857Y-118891428D01*
X90162857Y-118762857D01*
X90205714Y-118591428D01*
X90248571Y-118505714D01*
X90334285Y-118420000D01*
X90462857Y-118377142D01*
X90548571Y-118377142D01*
X90677142Y-118420000D01*
X90720000Y-118462857D01*
X91491428Y-118677142D02*
X91491428Y-119277142D01*
X91277142Y-118334285D02*
X91062857Y-118977142D01*
X91620000Y-118977142D01*
X94530000Y-119191428D02*
X94487142Y-119234285D01*
X94358571Y-119277142D01*
X94272857Y-119277142D01*
X94144285Y-119234285D01*
X94058571Y-119148571D01*
X94015714Y-119062857D01*
X93972857Y-118891428D01*
X93972857Y-118762857D01*
X94015714Y-118591428D01*
X94058571Y-118505714D01*
X94144285Y-118420000D01*
X94272857Y-118377142D01*
X94358571Y-118377142D01*
X94487142Y-118420000D01*
X94530000Y-118462857D01*
X95344285Y-118377142D02*
X94915714Y-118377142D01*
X94872857Y-118805714D01*
X94915714Y-118762857D01*
X95001428Y-118720000D01*
X95215714Y-118720000D01*
X95301428Y-118762857D01*
X95344285Y-118805714D01*
X95387142Y-118891428D01*
X95387142Y-119105714D01*
X95344285Y-119191428D01*
X95301428Y-119234285D01*
X95215714Y-119277142D01*
X95001428Y-119277142D01*
X94915714Y-119234285D01*
X94872857Y-119191428D01*
X98340000Y-119161428D02*
X98297142Y-119204285D01*
X98168571Y-119247142D01*
X98082857Y-119247142D01*
X97954285Y-119204285D01*
X97868571Y-119118571D01*
X97825714Y-119032857D01*
X97782857Y-118861428D01*
X97782857Y-118732857D01*
X97825714Y-118561428D01*
X97868571Y-118475714D01*
X97954285Y-118390000D01*
X98082857Y-118347142D01*
X98168571Y-118347142D01*
X98297142Y-118390000D01*
X98340000Y-118432857D01*
X99111428Y-118347142D02*
X98940000Y-118347142D01*
X98854285Y-118390000D01*
X98811428Y-118432857D01*
X98725714Y-118561428D01*
X98682857Y-118732857D01*
X98682857Y-119075714D01*
X98725714Y-119161428D01*
X98768571Y-119204285D01*
X98854285Y-119247142D01*
X99025714Y-119247142D01*
X99111428Y-119204285D01*
X99154285Y-119161428D01*
X99197142Y-119075714D01*
X99197142Y-118861428D01*
X99154285Y-118775714D01*
X99111428Y-118732857D01*
X99025714Y-118690000D01*
X98854285Y-118690000D01*
X98768571Y-118732857D01*
X98725714Y-118775714D01*
X98682857Y-118861428D01*
X111610000Y-119301428D02*
X111567142Y-119344285D01*
X111438571Y-119387142D01*
X111352857Y-119387142D01*
X111224285Y-119344285D01*
X111138571Y-119258571D01*
X111095714Y-119172857D01*
X111052857Y-119001428D01*
X111052857Y-118872857D01*
X111095714Y-118701428D01*
X111138571Y-118615714D01*
X111224285Y-118530000D01*
X111352857Y-118487142D01*
X111438571Y-118487142D01*
X111567142Y-118530000D01*
X111610000Y-118572857D01*
X111910000Y-118487142D02*
X112510000Y-118487142D01*
X112124285Y-119387142D01*
X115420000Y-119251428D02*
X115377142Y-119294285D01*
X115248571Y-119337142D01*
X115162857Y-119337142D01*
X115034285Y-119294285D01*
X114948571Y-119208571D01*
X114905714Y-119122857D01*
X114862857Y-118951428D01*
X114862857Y-118822857D01*
X114905714Y-118651428D01*
X114948571Y-118565714D01*
X115034285Y-118480000D01*
X115162857Y-118437142D01*
X115248571Y-118437142D01*
X115377142Y-118480000D01*
X115420000Y-118522857D01*
X115934285Y-118822857D02*
X115848571Y-118780000D01*
X115805714Y-118737142D01*
X115762857Y-118651428D01*
X115762857Y-118608571D01*
X115805714Y-118522857D01*
X115848571Y-118480000D01*
X115934285Y-118437142D01*
X116105714Y-118437142D01*
X116191428Y-118480000D01*
X116234285Y-118522857D01*
X116277142Y-118608571D01*
X116277142Y-118651428D01*
X116234285Y-118737142D01*
X116191428Y-118780000D01*
X116105714Y-118822857D01*
X115934285Y-118822857D01*
X115848571Y-118865714D01*
X115805714Y-118908571D01*
X115762857Y-118994285D01*
X115762857Y-119165714D01*
X115805714Y-119251428D01*
X115848571Y-119294285D01*
X115934285Y-119337142D01*
X116105714Y-119337142D01*
X116191428Y-119294285D01*
X116234285Y-119251428D01*
X116277142Y-119165714D01*
X116277142Y-118994285D01*
X116234285Y-118908571D01*
X116191428Y-118865714D01*
X116105714Y-118822857D01*
X119230000Y-119701428D02*
X119187142Y-119744285D01*
X119058571Y-119787142D01*
X118972857Y-119787142D01*
X118844285Y-119744285D01*
X118758571Y-119658571D01*
X118715714Y-119572857D01*
X118672857Y-119401428D01*
X118672857Y-119272857D01*
X118715714Y-119101428D01*
X118758571Y-119015714D01*
X118844285Y-118930000D01*
X118972857Y-118887142D01*
X119058571Y-118887142D01*
X119187142Y-118930000D01*
X119230000Y-118972857D01*
X119658571Y-119787142D02*
X119830000Y-119787142D01*
X119915714Y-119744285D01*
X119958571Y-119701428D01*
X120044285Y-119572857D01*
X120087142Y-119401428D01*
X120087142Y-119058571D01*
X120044285Y-118972857D01*
X120001428Y-118930000D01*
X119915714Y-118887142D01*
X119744285Y-118887142D01*
X119658571Y-118930000D01*
X119615714Y-118972857D01*
X119572857Y-119058571D01*
X119572857Y-119272857D01*
X119615714Y-119358571D01*
X119658571Y-119401428D01*
X119744285Y-119444285D01*
X119915714Y-119444285D01*
X120001428Y-119401428D01*
X120044285Y-119358571D01*
X120087142Y-119272857D01*
X158937187Y-105564431D02*
X159080044Y-105612050D01*
X159127663Y-105659669D01*
X159175282Y-105754907D01*
X159175282Y-105897764D01*
X159127663Y-105993002D01*
X159080044Y-106040621D01*
X158984806Y-106088240D01*
X158603854Y-106088240D01*
X158603854Y-105088240D01*
X158937187Y-105088240D01*
X159032425Y-105135860D01*
X159080044Y-105183479D01*
X159127663Y-105278717D01*
X159127663Y-105373955D01*
X159080044Y-105469193D01*
X159032425Y-105516812D01*
X158937187Y-105564431D01*
X158603854Y-105564431D01*
X159508616Y-105088240D02*
X160175282Y-105088240D01*
X159508616Y-106088240D01*
X160175282Y-106088240D01*
X161080044Y-106088240D02*
X160508616Y-106088240D01*
X160794330Y-106088240D02*
X160794330Y-105088240D01*
X160699092Y-105231098D01*
X160603854Y-105326336D01*
X160508616Y-105373955D01*
X125949484Y-82060040D02*
X125949484Y-81060040D01*
X126187580Y-81060040D01*
X126330437Y-81107660D01*
X126425675Y-81202898D01*
X126473294Y-81298136D01*
X126520913Y-81488612D01*
X126520913Y-81631469D01*
X126473294Y-81821945D01*
X126425675Y-81917183D01*
X126330437Y-82012421D01*
X126187580Y-82060040D01*
X125949484Y-82060040D01*
X126901865Y-81155279D02*
X126949484Y-81107660D01*
X127044722Y-81060040D01*
X127282818Y-81060040D01*
X127378056Y-81107660D01*
X127425675Y-81155279D01*
X127473294Y-81250517D01*
X127473294Y-81345755D01*
X127425675Y-81488612D01*
X126854246Y-82060040D01*
X127473294Y-82060040D01*
X150397060Y-118088795D02*
X150301822Y-118041176D01*
X150206584Y-117945937D01*
X150063727Y-117803080D01*
X149968489Y-117755461D01*
X149873251Y-117755461D01*
X149920870Y-117993556D02*
X149825632Y-117945937D01*
X149730394Y-117850699D01*
X149682775Y-117660223D01*
X149682775Y-117326890D01*
X149730394Y-117136414D01*
X149825632Y-117041176D01*
X149920870Y-116993556D01*
X150111346Y-116993556D01*
X150206584Y-117041176D01*
X150301822Y-117136414D01*
X150349441Y-117326890D01*
X150349441Y-117660223D01*
X150301822Y-117850699D01*
X150206584Y-117945937D01*
X150111346Y-117993556D01*
X149920870Y-117993556D01*
X151301822Y-117993556D02*
X150730394Y-117993556D01*
X151016108Y-117993556D02*
X151016108Y-116993556D01*
X150920870Y-117136414D01*
X150825632Y-117231652D01*
X150730394Y-117279271D01*
X144516808Y-113126842D02*
X144216808Y-112698271D01*
X144002522Y-113126842D02*
X144002522Y-112226842D01*
X144345380Y-112226842D01*
X144431094Y-112269700D01*
X144473951Y-112312557D01*
X144516808Y-112398271D01*
X144516808Y-112526842D01*
X144473951Y-112612557D01*
X144431094Y-112655414D01*
X144345380Y-112698271D01*
X144002522Y-112698271D01*
X145373951Y-113126842D02*
X144859665Y-113126842D01*
X145116808Y-113126842D02*
X145116808Y-112226842D01*
X145031094Y-112355414D01*
X144945380Y-112441128D01*
X144859665Y-112483985D01*
X145931094Y-112226842D02*
X146016808Y-112226842D01*
X146102522Y-112269700D01*
X146145380Y-112312557D01*
X146188237Y-112398271D01*
X146231094Y-112569700D01*
X146231094Y-112783985D01*
X146188237Y-112955414D01*
X146145380Y-113041128D01*
X146102522Y-113083985D01*
X146016808Y-113126842D01*
X145931094Y-113126842D01*
X145845380Y-113083985D01*
X145802522Y-113041128D01*
X145759665Y-112955414D01*
X145716808Y-112783985D01*
X145716808Y-112569700D01*
X145759665Y-112398271D01*
X145802522Y-112312557D01*
X145845380Y-112269700D01*
X145931094Y-112226842D01*
X144838968Y-119408682D02*
X144538968Y-118980111D01*
X144324682Y-119408682D02*
X144324682Y-118508682D01*
X144667540Y-118508682D01*
X144753254Y-118551540D01*
X144796111Y-118594397D01*
X144838968Y-118680111D01*
X144838968Y-118808682D01*
X144796111Y-118894397D01*
X144753254Y-118937254D01*
X144667540Y-118980111D01*
X144324682Y-118980111D01*
X145696111Y-119408682D02*
X145181825Y-119408682D01*
X145438968Y-119408682D02*
X145438968Y-118508682D01*
X145353254Y-118637254D01*
X145267540Y-118722968D01*
X145181825Y-118765825D01*
X146553254Y-119408682D02*
X146038968Y-119408682D01*
X146296111Y-119408682D02*
X146296111Y-118508682D01*
X146210397Y-118637254D01*
X146124682Y-118722968D01*
X146038968Y-118765825D01*
X123645208Y-86104202D02*
X123345208Y-85675631D01*
X123130922Y-86104202D02*
X123130922Y-85204202D01*
X123473780Y-85204202D01*
X123559494Y-85247060D01*
X123602351Y-85289917D01*
X123645208Y-85375631D01*
X123645208Y-85504202D01*
X123602351Y-85589917D01*
X123559494Y-85632774D01*
X123473780Y-85675631D01*
X123130922Y-85675631D01*
X124502351Y-86104202D02*
X123988065Y-86104202D01*
X124245208Y-86104202D02*
X124245208Y-85204202D01*
X124159494Y-85332774D01*
X124073780Y-85418488D01*
X123988065Y-85461345D01*
X124845208Y-85289917D02*
X124888065Y-85247060D01*
X124973780Y-85204202D01*
X125188065Y-85204202D01*
X125273780Y-85247060D01*
X125316637Y-85289917D01*
X125359494Y-85375631D01*
X125359494Y-85461345D01*
X125316637Y-85589917D01*
X124802351Y-86104202D01*
X125359494Y-86104202D01*
X158113008Y-100252002D02*
X157813008Y-99823431D01*
X157598722Y-100252002D02*
X157598722Y-99352002D01*
X157941580Y-99352002D01*
X158027294Y-99394860D01*
X158070151Y-99437717D01*
X158113008Y-99523431D01*
X158113008Y-99652002D01*
X158070151Y-99737717D01*
X158027294Y-99780574D01*
X157941580Y-99823431D01*
X157598722Y-99823431D01*
X158970151Y-100252002D02*
X158455865Y-100252002D01*
X158713008Y-100252002D02*
X158713008Y-99352002D01*
X158627294Y-99480574D01*
X158541580Y-99566288D01*
X158455865Y-99609145D01*
X159270151Y-99352002D02*
X159827294Y-99352002D01*
X159527294Y-99694860D01*
X159655865Y-99694860D01*
X159741580Y-99737717D01*
X159784437Y-99780574D01*
X159827294Y-99866288D01*
X159827294Y-100080574D01*
X159784437Y-100166288D01*
X159741580Y-100209145D01*
X159655865Y-100252002D01*
X159398722Y-100252002D01*
X159313008Y-100209145D01*
X159270151Y-100166288D01*
X152928868Y-101958882D02*
X152628868Y-101530311D01*
X152414582Y-101958882D02*
X152414582Y-101058882D01*
X152757440Y-101058882D01*
X152843154Y-101101740D01*
X152886011Y-101144597D01*
X152928868Y-101230311D01*
X152928868Y-101358882D01*
X152886011Y-101444597D01*
X152843154Y-101487454D01*
X152757440Y-101530311D01*
X152414582Y-101530311D01*
X153786011Y-101958882D02*
X153271725Y-101958882D01*
X153528868Y-101958882D02*
X153528868Y-101058882D01*
X153443154Y-101187454D01*
X153357440Y-101273168D01*
X153271725Y-101316025D01*
X154557440Y-101358882D02*
X154557440Y-101958882D01*
X154343154Y-101016025D02*
X154128868Y-101658882D01*
X154686011Y-101658882D01*
X173669366Y-96963800D02*
X173669366Y-97678086D01*
X173621747Y-97820943D01*
X173526509Y-97916181D01*
X173383652Y-97963800D01*
X173288414Y-97963800D01*
X174097938Y-97059039D02*
X174145557Y-97011420D01*
X174240795Y-96963800D01*
X174478890Y-96963800D01*
X174574128Y-97011420D01*
X174621747Y-97059039D01*
X174669366Y-97154277D01*
X174669366Y-97249515D01*
X174621747Y-97392372D01*
X174050319Y-97963800D01*
X174669366Y-97963800D01*
X92954860Y-108551884D02*
X93764384Y-108551884D01*
X93859622Y-108504265D01*
X93907241Y-108456646D01*
X93954860Y-108361408D01*
X93954860Y-108170932D01*
X93907241Y-108075694D01*
X93859622Y-108028075D01*
X93764384Y-107980456D01*
X92954860Y-107980456D01*
X93050099Y-107551884D02*
X93002480Y-107504265D01*
X92954860Y-107409027D01*
X92954860Y-107170932D01*
X93002480Y-107075694D01*
X93050099Y-107028075D01*
X93145337Y-106980456D01*
X93240575Y-106980456D01*
X93383432Y-107028075D01*
X93954860Y-107599503D01*
X93954860Y-106980456D01*
X104556495Y-118730160D02*
X104556495Y-119539684D01*
X104604114Y-119634922D01*
X104651733Y-119682541D01*
X104746971Y-119730160D01*
X104937447Y-119730160D01*
X105032685Y-119682541D01*
X105080304Y-119634922D01*
X105127923Y-119539684D01*
X105127923Y-118730160D01*
X106032685Y-119063494D02*
X106032685Y-119730160D01*
X105794590Y-118682541D02*
X105556495Y-119396827D01*
X106175542Y-119396827D01*
M02*
