G04 #@! TF.GenerationSoftware,KiCad,Pcbnew,(5.1.4)-1*
G04 #@! TF.CreationDate,2019-12-25T11:40:04+08:00*
G04 #@! TF.ProjectId,matrix_control_main,6d617472-6978-45f6-936f-6e74726f6c5f,rev?*
G04 #@! TF.SameCoordinates,Original*
G04 #@! TF.FileFunction,Copper,L2,Bot*
G04 #@! TF.FilePolarity,Positive*
%FSLAX46Y46*%
G04 Gerber Fmt 4.6, Leading zero omitted, Abs format (unit mm)*
G04 Created by KiCad (PCBNEW (5.1.4)-1) date 2019-12-25 11:40:04*
%MOMM*%
%LPD*%
G04 APERTURE LIST*
%ADD10C,0.620000*%
%ADD11C,0.600000*%
%ADD12C,4.560000*%
%ADD13C,1.100000*%
%ADD14C,1.400000*%
%ADD15R,1.350000X1.350000*%
%ADD16O,1.350000X1.350000*%
%ADD17C,0.100000*%
%ADD18C,1.000000*%
%ADD19R,1.850000X1.850000*%
%ADD20C,1.850000*%
%ADD21R,1.700000X1.700000*%
%ADD22O,1.700000X1.700000*%
%ADD23C,0.800000*%
%ADD24C,0.600000*%
%ADD25C,0.250000*%
%ADD26C,0.254000*%
G04 APERTURE END LIST*
D10*
X87698320Y-104188140D03*
X87698320Y-111698140D03*
D11*
X83240000Y-120060000D03*
X84500000Y-119540000D03*
X83240000Y-122580000D03*
X82720000Y-121320000D03*
X84500000Y-123100000D03*
X85760000Y-122580000D03*
D12*
X84500000Y-121320000D03*
D11*
X86280000Y-121320000D03*
X85760000Y-120060000D03*
X173340000Y-120060000D03*
X174600000Y-119540000D03*
X173340000Y-122580000D03*
X172820000Y-121320000D03*
X174600000Y-123100000D03*
X175860000Y-122580000D03*
D12*
X174600000Y-121320000D03*
D11*
X176380000Y-121320000D03*
X175860000Y-120060000D03*
X173340000Y-80560000D03*
X174600000Y-80040000D03*
X173340000Y-83080000D03*
X172820000Y-81820000D03*
X174600000Y-83600000D03*
X175860000Y-83080000D03*
D12*
X174600000Y-81820000D03*
D11*
X176380000Y-81820000D03*
X175860000Y-80560000D03*
X85760000Y-80560000D03*
X86280000Y-81820000D03*
D12*
X84500000Y-81820000D03*
D11*
X85760000Y-83080000D03*
X84500000Y-83600000D03*
X82720000Y-81820000D03*
X83240000Y-83080000D03*
X84500000Y-80040000D03*
X83240000Y-80560000D03*
D13*
X114158720Y-98463100D03*
D14*
X106658720Y-98463100D03*
D15*
X173990000Y-104140000D03*
D16*
X173990000Y-106140000D03*
X173990000Y-108140000D03*
X173990000Y-110140000D03*
X173990000Y-112140000D03*
D17*
G36*
X83894504Y-101876204D02*
G01*
X83918773Y-101879804D01*
X83942571Y-101885765D01*
X83965671Y-101894030D01*
X83987849Y-101904520D01*
X84008893Y-101917133D01*
X84028598Y-101931747D01*
X84046777Y-101948223D01*
X84063253Y-101966402D01*
X84077867Y-101986107D01*
X84090480Y-102007151D01*
X84100970Y-102029329D01*
X84109235Y-102052429D01*
X84115196Y-102076227D01*
X84118796Y-102100496D01*
X84120000Y-102125000D01*
X84120000Y-102625000D01*
X84118796Y-102649504D01*
X84115196Y-102673773D01*
X84109235Y-102697571D01*
X84100970Y-102720671D01*
X84090480Y-102742849D01*
X84077867Y-102763893D01*
X84063253Y-102783598D01*
X84046777Y-102801777D01*
X84028598Y-102818253D01*
X84008893Y-102832867D01*
X83987849Y-102845480D01*
X83965671Y-102855970D01*
X83942571Y-102864235D01*
X83918773Y-102870196D01*
X83894504Y-102873796D01*
X83870000Y-102875000D01*
X82170000Y-102875000D01*
X82145496Y-102873796D01*
X82121227Y-102870196D01*
X82097429Y-102864235D01*
X82074329Y-102855970D01*
X82052151Y-102845480D01*
X82031107Y-102832867D01*
X82011402Y-102818253D01*
X81993223Y-102801777D01*
X81976747Y-102783598D01*
X81962133Y-102763893D01*
X81949520Y-102742849D01*
X81939030Y-102720671D01*
X81930765Y-102697571D01*
X81924804Y-102673773D01*
X81921204Y-102649504D01*
X81920000Y-102625000D01*
X81920000Y-102125000D01*
X81921204Y-102100496D01*
X81924804Y-102076227D01*
X81930765Y-102052429D01*
X81939030Y-102029329D01*
X81949520Y-102007151D01*
X81962133Y-101986107D01*
X81976747Y-101966402D01*
X81993223Y-101948223D01*
X82011402Y-101931747D01*
X82031107Y-101917133D01*
X82052151Y-101904520D01*
X82074329Y-101894030D01*
X82097429Y-101885765D01*
X82121227Y-101879804D01*
X82145496Y-101876204D01*
X82170000Y-101875000D01*
X83870000Y-101875000D01*
X83894504Y-101876204D01*
X83894504Y-101876204D01*
G37*
D18*
X83020000Y-102375000D03*
D17*
G36*
X88494504Y-113026204D02*
G01*
X88518773Y-113029804D01*
X88542571Y-113035765D01*
X88565671Y-113044030D01*
X88587849Y-113054520D01*
X88608893Y-113067133D01*
X88628598Y-113081747D01*
X88646777Y-113098223D01*
X88663253Y-113116402D01*
X88677867Y-113136107D01*
X88690480Y-113157151D01*
X88700970Y-113179329D01*
X88709235Y-113202429D01*
X88715196Y-113226227D01*
X88718796Y-113250496D01*
X88720000Y-113275000D01*
X88720000Y-113775000D01*
X88718796Y-113799504D01*
X88715196Y-113823773D01*
X88709235Y-113847571D01*
X88700970Y-113870671D01*
X88690480Y-113892849D01*
X88677867Y-113913893D01*
X88663253Y-113933598D01*
X88646777Y-113951777D01*
X88628598Y-113968253D01*
X88608893Y-113982867D01*
X88587849Y-113995480D01*
X88565671Y-114005970D01*
X88542571Y-114014235D01*
X88518773Y-114020196D01*
X88494504Y-114023796D01*
X88470000Y-114025000D01*
X86770000Y-114025000D01*
X86745496Y-114023796D01*
X86721227Y-114020196D01*
X86697429Y-114014235D01*
X86674329Y-114005970D01*
X86652151Y-113995480D01*
X86631107Y-113982867D01*
X86611402Y-113968253D01*
X86593223Y-113951777D01*
X86576747Y-113933598D01*
X86562133Y-113913893D01*
X86549520Y-113892849D01*
X86539030Y-113870671D01*
X86530765Y-113847571D01*
X86524804Y-113823773D01*
X86521204Y-113799504D01*
X86520000Y-113775000D01*
X86520000Y-113275000D01*
X86521204Y-113250496D01*
X86524804Y-113226227D01*
X86530765Y-113202429D01*
X86539030Y-113179329D01*
X86549520Y-113157151D01*
X86562133Y-113136107D01*
X86576747Y-113116402D01*
X86593223Y-113098223D01*
X86611402Y-113081747D01*
X86631107Y-113067133D01*
X86652151Y-113054520D01*
X86674329Y-113044030D01*
X86697429Y-113035765D01*
X86721227Y-113029804D01*
X86745496Y-113026204D01*
X86770000Y-113025000D01*
X88470000Y-113025000D01*
X88494504Y-113026204D01*
X88494504Y-113026204D01*
G37*
D18*
X87620000Y-113525000D03*
D17*
G36*
X83894504Y-113026204D02*
G01*
X83918773Y-113029804D01*
X83942571Y-113035765D01*
X83965671Y-113044030D01*
X83987849Y-113054520D01*
X84008893Y-113067133D01*
X84028598Y-113081747D01*
X84046777Y-113098223D01*
X84063253Y-113116402D01*
X84077867Y-113136107D01*
X84090480Y-113157151D01*
X84100970Y-113179329D01*
X84109235Y-113202429D01*
X84115196Y-113226227D01*
X84118796Y-113250496D01*
X84120000Y-113275000D01*
X84120000Y-113775000D01*
X84118796Y-113799504D01*
X84115196Y-113823773D01*
X84109235Y-113847571D01*
X84100970Y-113870671D01*
X84090480Y-113892849D01*
X84077867Y-113913893D01*
X84063253Y-113933598D01*
X84046777Y-113951777D01*
X84028598Y-113968253D01*
X84008893Y-113982867D01*
X83987849Y-113995480D01*
X83965671Y-114005970D01*
X83942571Y-114014235D01*
X83918773Y-114020196D01*
X83894504Y-114023796D01*
X83870000Y-114025000D01*
X82170000Y-114025000D01*
X82145496Y-114023796D01*
X82121227Y-114020196D01*
X82097429Y-114014235D01*
X82074329Y-114005970D01*
X82052151Y-113995480D01*
X82031107Y-113982867D01*
X82011402Y-113968253D01*
X81993223Y-113951777D01*
X81976747Y-113933598D01*
X81962133Y-113913893D01*
X81949520Y-113892849D01*
X81939030Y-113870671D01*
X81930765Y-113847571D01*
X81924804Y-113823773D01*
X81921204Y-113799504D01*
X81920000Y-113775000D01*
X81920000Y-113275000D01*
X81921204Y-113250496D01*
X81924804Y-113226227D01*
X81930765Y-113202429D01*
X81939030Y-113179329D01*
X81949520Y-113157151D01*
X81962133Y-113136107D01*
X81976747Y-113116402D01*
X81993223Y-113098223D01*
X82011402Y-113081747D01*
X82031107Y-113067133D01*
X82052151Y-113054520D01*
X82074329Y-113044030D01*
X82097429Y-113035765D01*
X82121227Y-113029804D01*
X82145496Y-113026204D01*
X82170000Y-113025000D01*
X83870000Y-113025000D01*
X83894504Y-113026204D01*
X83894504Y-113026204D01*
G37*
D18*
X83020000Y-113525000D03*
D17*
G36*
X88494504Y-101876204D02*
G01*
X88518773Y-101879804D01*
X88542571Y-101885765D01*
X88565671Y-101894030D01*
X88587849Y-101904520D01*
X88608893Y-101917133D01*
X88628598Y-101931747D01*
X88646777Y-101948223D01*
X88663253Y-101966402D01*
X88677867Y-101986107D01*
X88690480Y-102007151D01*
X88700970Y-102029329D01*
X88709235Y-102052429D01*
X88715196Y-102076227D01*
X88718796Y-102100496D01*
X88720000Y-102125000D01*
X88720000Y-102625000D01*
X88718796Y-102649504D01*
X88715196Y-102673773D01*
X88709235Y-102697571D01*
X88700970Y-102720671D01*
X88690480Y-102742849D01*
X88677867Y-102763893D01*
X88663253Y-102783598D01*
X88646777Y-102801777D01*
X88628598Y-102818253D01*
X88608893Y-102832867D01*
X88587849Y-102845480D01*
X88565671Y-102855970D01*
X88542571Y-102864235D01*
X88518773Y-102870196D01*
X88494504Y-102873796D01*
X88470000Y-102875000D01*
X86770000Y-102875000D01*
X86745496Y-102873796D01*
X86721227Y-102870196D01*
X86697429Y-102864235D01*
X86674329Y-102855970D01*
X86652151Y-102845480D01*
X86631107Y-102832867D01*
X86611402Y-102818253D01*
X86593223Y-102801777D01*
X86576747Y-102783598D01*
X86562133Y-102763893D01*
X86549520Y-102742849D01*
X86539030Y-102720671D01*
X86530765Y-102697571D01*
X86524804Y-102673773D01*
X86521204Y-102649504D01*
X86520000Y-102625000D01*
X86520000Y-102125000D01*
X86521204Y-102100496D01*
X86524804Y-102076227D01*
X86530765Y-102052429D01*
X86539030Y-102029329D01*
X86549520Y-102007151D01*
X86562133Y-101986107D01*
X86576747Y-101966402D01*
X86593223Y-101948223D01*
X86611402Y-101931747D01*
X86631107Y-101917133D01*
X86652151Y-101904520D01*
X86674329Y-101894030D01*
X86697429Y-101885765D01*
X86721227Y-101879804D01*
X86745496Y-101876204D01*
X86770000Y-101875000D01*
X88470000Y-101875000D01*
X88494504Y-101876204D01*
X88494504Y-101876204D01*
G37*
D18*
X87620000Y-102375000D03*
X115462710Y-80511800D03*
X113162690Y-80511800D03*
X161422690Y-80511800D03*
X163722710Y-80511800D03*
D19*
X159743140Y-110385860D03*
D20*
X159743140Y-115385860D03*
D21*
X174002700Y-95181420D03*
D22*
X174002700Y-92641420D03*
X174002700Y-90101420D03*
X174002700Y-87561420D03*
D23*
X96161860Y-92278200D03*
X94073980Y-98290380D03*
X151333200Y-104802940D03*
X116862860Y-90937080D03*
X104889300Y-120380760D03*
X109192060Y-120451880D03*
X115100100Y-120891300D03*
X124579380Y-119578120D03*
X123924060Y-116880640D03*
X128882140Y-118338600D03*
X118745000Y-110609380D03*
X131216400Y-114327940D03*
X133695440Y-116588540D03*
X138755120Y-116857780D03*
X142318740Y-118219220D03*
X155209240Y-117901720D03*
X151429720Y-84602320D03*
X155105100Y-86263480D03*
X155717240Y-83639660D03*
X153355040Y-82412840D03*
X158168340Y-88976200D03*
X163156900Y-87315040D03*
X168145460Y-88714580D03*
X171000420Y-122351800D03*
X95671640Y-103819960D03*
X92031820Y-105323640D03*
X101486060Y-115910000D03*
X166931340Y-122130820D03*
X154988260Y-96812100D03*
X170180000Y-95341440D03*
X135801100Y-115999260D03*
X120149620Y-83032600D03*
X103080820Y-86055200D03*
X152481280Y-99319080D03*
X160624520Y-96812100D03*
X124203460Y-109103160D03*
X170873420Y-108160820D03*
X122648980Y-109745780D03*
X169839640Y-91920060D03*
X105674160Y-105768140D03*
X119649240Y-105768140D03*
X91371420Y-108869480D03*
X91000580Y-106286300D03*
X148920200Y-93543120D03*
X97487740Y-88386920D03*
X125277880Y-87717460D03*
X147787360Y-92433140D03*
X153656200Y-93567800D03*
X102567740Y-108038900D03*
X154373580Y-94381320D03*
X103367840Y-107281980D03*
X148275040Y-95854520D03*
X97510600Y-86992460D03*
X125950980Y-108503720D03*
X139547600Y-114432080D03*
D24*
X175265000Y-104140000D02*
X173990000Y-104140000D01*
X101486060Y-115910000D02*
X101486060Y-121077080D01*
X101486060Y-121077080D02*
X102788720Y-122379740D01*
X102788720Y-122379740D02*
X167050720Y-122379740D01*
X167050720Y-122379740D02*
X176395380Y-113035080D01*
X176395380Y-113035080D02*
X176395380Y-105270380D01*
X176395380Y-105270380D02*
X175265000Y-104140000D01*
X92431819Y-105723639D02*
X92431819Y-113463019D01*
X92031820Y-105323640D02*
X92431819Y-105723639D01*
X94878800Y-115910000D02*
X100894240Y-115910000D01*
X92431819Y-113463019D02*
X94878800Y-115910000D01*
X100894240Y-115910000D02*
X101486060Y-115910000D01*
X154988260Y-96812100D02*
X152481280Y-99319080D01*
X135801100Y-115999260D02*
X135801100Y-115999260D01*
X151834850Y-99965510D02*
X135801100Y-115999260D01*
X154988260Y-96812100D02*
X160624520Y-96812100D01*
X117127020Y-86055200D02*
X103080820Y-86055200D01*
X120149620Y-83032600D02*
X117127020Y-86055200D01*
X152481280Y-99319080D02*
X151834850Y-99965510D01*
X168709340Y-96812100D02*
X170180000Y-95341440D01*
X160624520Y-96812100D02*
X168709340Y-96812100D01*
D25*
X124203460Y-109668845D02*
X133564095Y-119029480D01*
X124203460Y-109103160D02*
X124203460Y-109668845D01*
X133564095Y-119029480D02*
X160004760Y-119029480D01*
X160004760Y-119029480D02*
X170873420Y-108160820D01*
X173315001Y-112814999D02*
X173990000Y-112140000D01*
X165970220Y-120159780D02*
X173315001Y-112814999D01*
X132497295Y-120159780D02*
X165970220Y-120159780D01*
X122648980Y-109745780D02*
X122648980Y-110311465D01*
X122648980Y-110311465D02*
X132497295Y-120159780D01*
X154230938Y-91920060D02*
X169839640Y-91920060D01*
X140382858Y-105768140D02*
X154230938Y-91920060D01*
X105674160Y-105768140D02*
X119649240Y-105768140D01*
X119649240Y-105768140D02*
X140382858Y-105768140D01*
X91371420Y-108869480D02*
X91371420Y-108303795D01*
X91371420Y-108303795D02*
X91371420Y-106657140D01*
X91371420Y-106657140D02*
X91000580Y-106286300D01*
X147286334Y-94611301D02*
X100354241Y-94611301D01*
X148920200Y-93543120D02*
X148354515Y-93543120D01*
X148354515Y-93543120D02*
X147286334Y-94611301D01*
X100354241Y-94611301D02*
X97518220Y-91775280D01*
X97518220Y-91775280D02*
X97518220Y-88417400D01*
X97518220Y-88417400D02*
X97487740Y-88386920D01*
X125677879Y-88117459D02*
X143471679Y-88117459D01*
X125277880Y-87717460D02*
X125677879Y-88117459D01*
X143471679Y-88117459D02*
X147787360Y-92433140D01*
X153256201Y-93967799D02*
X153256201Y-94797659D01*
X153656200Y-93567800D02*
X153256201Y-93967799D01*
X153256201Y-94797659D02*
X141442440Y-106611420D01*
X141442440Y-106611420D02*
X104574340Y-106611420D01*
X102567740Y-107009078D02*
X102567740Y-108038900D01*
X103019839Y-106556979D02*
X102567740Y-107009078D01*
X104574340Y-106611420D02*
X104519899Y-106556979D01*
X104519899Y-106556979D02*
X103019839Y-106556979D01*
X154373580Y-94381320D02*
X141472920Y-107281980D01*
X141472920Y-107281980D02*
X103367840Y-107281980D01*
X143442542Y-86992460D02*
X97510600Y-86992460D01*
X149645201Y-93195119D02*
X143442542Y-86992460D01*
X148275040Y-95854520D02*
X149645201Y-94484359D01*
X149645201Y-94484359D02*
X149645201Y-93195119D01*
X135453099Y-116724261D02*
X137288439Y-116724261D01*
X127632557Y-108903719D02*
X135453099Y-116724261D01*
X125950980Y-108503720D02*
X126350979Y-108903719D01*
X126350979Y-108903719D02*
X127632557Y-108903719D01*
X137288439Y-116724261D02*
X139547600Y-114465100D01*
X139547600Y-114465100D02*
X139547600Y-114432080D01*
D26*
G36*
X112831623Y-79420417D02*
G01*
X112625066Y-79505976D01*
X112439170Y-79630188D01*
X112281078Y-79788280D01*
X112156866Y-79974176D01*
X112071307Y-80180733D01*
X112027690Y-80400012D01*
X112027690Y-80623588D01*
X112071307Y-80842867D01*
X112156866Y-81049424D01*
X112281078Y-81235320D01*
X112439170Y-81393412D01*
X112625066Y-81517624D01*
X112831623Y-81603183D01*
X113050902Y-81646800D01*
X113274478Y-81646800D01*
X113493757Y-81603183D01*
X113700314Y-81517624D01*
X113886210Y-81393412D01*
X114044302Y-81235320D01*
X114168514Y-81049424D01*
X114254073Y-80842867D01*
X114297690Y-80623588D01*
X114297690Y-80400012D01*
X114254073Y-80180733D01*
X114168514Y-79974176D01*
X114044302Y-79788280D01*
X113886210Y-79630188D01*
X113700314Y-79505976D01*
X113493757Y-79420417D01*
X113391113Y-79400000D01*
X115234287Y-79400000D01*
X115131643Y-79420417D01*
X114925086Y-79505976D01*
X114739190Y-79630188D01*
X114581098Y-79788280D01*
X114456886Y-79974176D01*
X114371327Y-80180733D01*
X114327710Y-80400012D01*
X114327710Y-80623588D01*
X114371327Y-80842867D01*
X114456886Y-81049424D01*
X114581098Y-81235320D01*
X114739190Y-81393412D01*
X114925086Y-81517624D01*
X115131643Y-81603183D01*
X115350922Y-81646800D01*
X115574498Y-81646800D01*
X115793777Y-81603183D01*
X116000334Y-81517624D01*
X116186230Y-81393412D01*
X116344322Y-81235320D01*
X116468534Y-81049424D01*
X116554093Y-80842867D01*
X116597710Y-80623588D01*
X116597710Y-80400012D01*
X116554093Y-80180733D01*
X116468534Y-79974176D01*
X116344322Y-79788280D01*
X116186230Y-79630188D01*
X116000334Y-79505976D01*
X115793777Y-79420417D01*
X115691133Y-79400000D01*
X161194267Y-79400000D01*
X161091623Y-79420417D01*
X160885066Y-79505976D01*
X160699170Y-79630188D01*
X160541078Y-79788280D01*
X160416866Y-79974176D01*
X160331307Y-80180733D01*
X160287690Y-80400012D01*
X160287690Y-80623588D01*
X160331307Y-80842867D01*
X160416866Y-81049424D01*
X160541078Y-81235320D01*
X160699170Y-81393412D01*
X160885066Y-81517624D01*
X161091623Y-81603183D01*
X161310902Y-81646800D01*
X161534478Y-81646800D01*
X161753757Y-81603183D01*
X161960314Y-81517624D01*
X162146210Y-81393412D01*
X162304302Y-81235320D01*
X162428514Y-81049424D01*
X162514073Y-80842867D01*
X162557690Y-80623588D01*
X162557690Y-80400012D01*
X162514073Y-80180733D01*
X162428514Y-79974176D01*
X162304302Y-79788280D01*
X162146210Y-79630188D01*
X161960314Y-79505976D01*
X161753757Y-79420417D01*
X161651113Y-79400000D01*
X163494287Y-79400000D01*
X163391643Y-79420417D01*
X163185086Y-79505976D01*
X162999190Y-79630188D01*
X162841098Y-79788280D01*
X162716886Y-79974176D01*
X162631327Y-80180733D01*
X162587710Y-80400012D01*
X162587710Y-80623588D01*
X162631327Y-80842867D01*
X162716886Y-81049424D01*
X162841098Y-81235320D01*
X162999190Y-81393412D01*
X163185086Y-81517624D01*
X163391643Y-81603183D01*
X163610922Y-81646800D01*
X163834498Y-81646800D01*
X164053777Y-81603183D01*
X164260334Y-81517624D01*
X164446230Y-81393412D01*
X164604322Y-81235320D01*
X164728534Y-81049424D01*
X164814093Y-80842867D01*
X164857710Y-80623588D01*
X164857710Y-80400012D01*
X164814093Y-80180733D01*
X164728534Y-79974176D01*
X164604322Y-79788280D01*
X164446230Y-79630188D01*
X164260334Y-79505976D01*
X164053777Y-79420417D01*
X163951133Y-79400000D01*
X172974925Y-79400000D01*
X172741796Y-79555772D01*
X172335772Y-79961796D01*
X172016761Y-80439230D01*
X171797022Y-80969726D01*
X171685000Y-81532898D01*
X171685000Y-82107102D01*
X171797022Y-82670274D01*
X172016761Y-83200770D01*
X172335772Y-83678204D01*
X172741796Y-84084228D01*
X173219230Y-84403239D01*
X173749726Y-84622978D01*
X174312898Y-84735000D01*
X174887102Y-84735000D01*
X175450274Y-84622978D01*
X175980770Y-84403239D01*
X176458204Y-84084228D01*
X176864228Y-83678204D01*
X177140000Y-83265482D01*
X177140001Y-104703853D01*
X177059724Y-104606036D01*
X177024039Y-104576750D01*
X175958630Y-103511341D01*
X175929344Y-103475656D01*
X175786972Y-103358814D01*
X175624540Y-103271993D01*
X175448292Y-103218529D01*
X175310932Y-103205000D01*
X175265000Y-103200476D01*
X175244697Y-103202476D01*
X175195537Y-103110506D01*
X175116185Y-103013815D01*
X175019494Y-102934463D01*
X174909180Y-102875498D01*
X174789482Y-102839188D01*
X174665000Y-102826928D01*
X173315000Y-102826928D01*
X173190518Y-102839188D01*
X173070820Y-102875498D01*
X172960506Y-102934463D01*
X172863815Y-103013815D01*
X172784463Y-103110506D01*
X172725498Y-103220820D01*
X172689188Y-103340518D01*
X172676928Y-103465000D01*
X172676928Y-104815000D01*
X172689188Y-104939482D01*
X172725498Y-105059180D01*
X172784463Y-105169494D01*
X172863815Y-105266185D01*
X172957559Y-105343119D01*
X172860527Y-105476371D01*
X172752762Y-105709472D01*
X172722090Y-105810600D01*
X172845776Y-106013000D01*
X173863000Y-106013000D01*
X173863000Y-105993000D01*
X174117000Y-105993000D01*
X174117000Y-106013000D01*
X175134224Y-106013000D01*
X175257910Y-105810600D01*
X175227238Y-105709472D01*
X175119473Y-105476371D01*
X175022441Y-105343119D01*
X175090212Y-105287501D01*
X175460381Y-105657670D01*
X175460380Y-112647791D01*
X167012351Y-121095820D01*
X166829401Y-121095820D01*
X166629442Y-121135594D01*
X166441084Y-121213615D01*
X166271566Y-121326883D01*
X166153709Y-121444740D01*
X103176010Y-121444740D01*
X102421060Y-120689791D01*
X102421060Y-116357295D01*
X102481286Y-116211898D01*
X102521060Y-116011939D01*
X102521060Y-115808061D01*
X102481286Y-115608102D01*
X102403265Y-115419744D01*
X102289997Y-115250226D01*
X102145834Y-115106063D01*
X101976316Y-114992795D01*
X101787958Y-114914774D01*
X101587999Y-114875000D01*
X101384121Y-114875000D01*
X101184162Y-114914774D01*
X101038765Y-114975000D01*
X95266089Y-114975000D01*
X93366819Y-113075730D01*
X93366819Y-105769570D01*
X93371343Y-105723638D01*
X93353290Y-105540347D01*
X93333738Y-105475893D01*
X93299826Y-105364099D01*
X93213005Y-105201667D01*
X93096163Y-105059295D01*
X93060479Y-105030010D01*
X93009251Y-104978782D01*
X92949025Y-104833384D01*
X92835757Y-104663866D01*
X92691594Y-104519703D01*
X92522076Y-104406435D01*
X92333718Y-104328414D01*
X92133759Y-104288640D01*
X91929881Y-104288640D01*
X91729922Y-104328414D01*
X91541564Y-104406435D01*
X91372046Y-104519703D01*
X91227883Y-104663866D01*
X91114615Y-104833384D01*
X91036594Y-105021742D01*
X90996820Y-105221701D01*
X90996820Y-105251300D01*
X90898641Y-105251300D01*
X90698682Y-105291074D01*
X90510324Y-105369095D01*
X90340806Y-105482363D01*
X90196643Y-105626526D01*
X90083375Y-105796044D01*
X90005354Y-105984402D01*
X89965580Y-106184361D01*
X89965580Y-106388239D01*
X90005354Y-106588198D01*
X90083375Y-106776556D01*
X90196643Y-106946074D01*
X90340806Y-107090237D01*
X90510324Y-107203505D01*
X90611421Y-107245381D01*
X90611420Y-108165769D01*
X90567483Y-108209706D01*
X90454215Y-108379224D01*
X90376194Y-108567582D01*
X90336420Y-108767541D01*
X90336420Y-108971419D01*
X90376194Y-109171378D01*
X90454215Y-109359736D01*
X90567483Y-109529254D01*
X90711646Y-109673417D01*
X90881164Y-109786685D01*
X91069522Y-109864706D01*
X91269481Y-109904480D01*
X91473359Y-109904480D01*
X91496820Y-109899813D01*
X91496820Y-113417077D01*
X91492295Y-113463019D01*
X91510348Y-113646310D01*
X91548569Y-113772306D01*
X91563813Y-113822559D01*
X91650634Y-113984991D01*
X91767476Y-114127363D01*
X91803155Y-114156644D01*
X94185170Y-116538659D01*
X94214456Y-116574344D01*
X94356828Y-116691186D01*
X94462680Y-116747765D01*
X94519259Y-116778007D01*
X94695508Y-116831472D01*
X94878800Y-116849524D01*
X94924735Y-116845000D01*
X100551060Y-116845000D01*
X100551061Y-121031138D01*
X100546536Y-121077080D01*
X100564589Y-121260371D01*
X100608655Y-121405637D01*
X100618054Y-121436620D01*
X100704875Y-121599052D01*
X100821717Y-121741424D01*
X100857396Y-121770705D01*
X102095094Y-123008404D01*
X102124376Y-123044084D01*
X102266748Y-123160926D01*
X102429180Y-123247747D01*
X102551963Y-123284993D01*
X102605427Y-123301211D01*
X102623830Y-123303023D01*
X102742788Y-123314740D01*
X102742794Y-123314740D01*
X102788719Y-123319263D01*
X102834644Y-123314740D01*
X167004788Y-123314740D01*
X167050720Y-123319264D01*
X167096652Y-123314740D01*
X167234012Y-123301211D01*
X167410260Y-123247747D01*
X167572692Y-123160926D01*
X167715064Y-123044084D01*
X167744350Y-123008399D01*
X177024040Y-113728709D01*
X177059724Y-113699424D01*
X177140001Y-113601607D01*
X177140001Y-119874520D01*
X176864228Y-119461796D01*
X176458204Y-119055772D01*
X175980770Y-118736761D01*
X175450274Y-118517022D01*
X174887102Y-118405000D01*
X174312898Y-118405000D01*
X173749726Y-118517022D01*
X173219230Y-118736761D01*
X172741796Y-119055772D01*
X172335772Y-119461796D01*
X172016761Y-119939230D01*
X171797022Y-120469726D01*
X171685000Y-121032898D01*
X171685000Y-121607102D01*
X171797022Y-122170274D01*
X172016761Y-122700770D01*
X172335772Y-123178204D01*
X172741796Y-123584228D01*
X173064722Y-123800000D01*
X86035278Y-123800000D01*
X86358204Y-123584228D01*
X86764228Y-123178204D01*
X87083239Y-122700770D01*
X87302978Y-122170274D01*
X87415000Y-121607102D01*
X87415000Y-121032898D01*
X87302978Y-120469726D01*
X87083239Y-119939230D01*
X86764228Y-119461796D01*
X86358204Y-119055772D01*
X85880770Y-118736761D01*
X85350274Y-118517022D01*
X84787102Y-118405000D01*
X84212898Y-118405000D01*
X83649726Y-118517022D01*
X83119230Y-118736761D01*
X82641796Y-119055772D01*
X82235772Y-119461796D01*
X81940000Y-119904450D01*
X81940000Y-114662997D01*
X82734250Y-114660000D01*
X82893000Y-114501250D01*
X82893000Y-113652000D01*
X83147000Y-113652000D01*
X83147000Y-114501250D01*
X83305750Y-114660000D01*
X84120000Y-114663072D01*
X84244482Y-114650812D01*
X84364180Y-114614502D01*
X84474494Y-114555537D01*
X84571185Y-114476185D01*
X84650537Y-114379494D01*
X84709502Y-114269180D01*
X84745812Y-114149482D01*
X84758072Y-114025000D01*
X85881928Y-114025000D01*
X85894188Y-114149482D01*
X85930498Y-114269180D01*
X85989463Y-114379494D01*
X86068815Y-114476185D01*
X86165506Y-114555537D01*
X86275820Y-114614502D01*
X86395518Y-114650812D01*
X86520000Y-114663072D01*
X87334250Y-114660000D01*
X87493000Y-114501250D01*
X87493000Y-113652000D01*
X87747000Y-113652000D01*
X87747000Y-114501250D01*
X87905750Y-114660000D01*
X88720000Y-114663072D01*
X88844482Y-114650812D01*
X88964180Y-114614502D01*
X89074494Y-114555537D01*
X89171185Y-114476185D01*
X89250537Y-114379494D01*
X89309502Y-114269180D01*
X89345812Y-114149482D01*
X89358072Y-114025000D01*
X89355000Y-113810750D01*
X89196250Y-113652000D01*
X87747000Y-113652000D01*
X87493000Y-113652000D01*
X86043750Y-113652000D01*
X85885000Y-113810750D01*
X85881928Y-114025000D01*
X84758072Y-114025000D01*
X84755000Y-113810750D01*
X84596250Y-113652000D01*
X83147000Y-113652000D01*
X82893000Y-113652000D01*
X82873000Y-113652000D01*
X82873000Y-113398000D01*
X82893000Y-113398000D01*
X82893000Y-113378000D01*
X83147000Y-113378000D01*
X83147000Y-113398000D01*
X84596250Y-113398000D01*
X84755000Y-113239250D01*
X84756853Y-113110000D01*
X85883147Y-113110000D01*
X85885000Y-113239250D01*
X86043750Y-113398000D01*
X87493000Y-113398000D01*
X87493000Y-113378000D01*
X87747000Y-113378000D01*
X87747000Y-113398000D01*
X89196250Y-113398000D01*
X89355000Y-113239250D01*
X89358072Y-113025000D01*
X89345812Y-112900518D01*
X89309502Y-112780820D01*
X89250537Y-112670506D01*
X89171185Y-112573815D01*
X89074494Y-112494463D01*
X88964180Y-112435498D01*
X88844482Y-112399188D01*
X88720000Y-112386928D01*
X88560000Y-112387532D01*
X88560000Y-112087264D01*
X88607004Y-111973786D01*
X88643320Y-111791214D01*
X88643320Y-111605066D01*
X88607004Y-111422494D01*
X88560000Y-111309016D01*
X88560000Y-104577264D01*
X88607004Y-104463786D01*
X88643320Y-104281214D01*
X88643320Y-104095066D01*
X88607004Y-103912494D01*
X88560000Y-103799016D01*
X88560000Y-103532418D01*
X88561964Y-103512476D01*
X88720000Y-103513072D01*
X88844482Y-103500812D01*
X88964180Y-103464502D01*
X89074494Y-103405537D01*
X89171185Y-103326185D01*
X89250537Y-103229494D01*
X89309502Y-103119180D01*
X89345812Y-102999482D01*
X89358072Y-102875000D01*
X89355000Y-102660750D01*
X89196250Y-102502000D01*
X87747000Y-102502000D01*
X87747000Y-102522000D01*
X87493000Y-102522000D01*
X87493000Y-102502000D01*
X86043750Y-102502000D01*
X85885000Y-102660750D01*
X85882430Y-102840000D01*
X84757570Y-102840000D01*
X84755000Y-102660750D01*
X84596250Y-102502000D01*
X83147000Y-102502000D01*
X83147000Y-102522000D01*
X82893000Y-102522000D01*
X82893000Y-102502000D01*
X82873000Y-102502000D01*
X82873000Y-102248000D01*
X82893000Y-102248000D01*
X82893000Y-101398750D01*
X83147000Y-101398750D01*
X83147000Y-102248000D01*
X84596250Y-102248000D01*
X84755000Y-102089250D01*
X84758072Y-101875000D01*
X85881928Y-101875000D01*
X85885000Y-102089250D01*
X86043750Y-102248000D01*
X87493000Y-102248000D01*
X87493000Y-101398750D01*
X87747000Y-101398750D01*
X87747000Y-102248000D01*
X89196250Y-102248000D01*
X89355000Y-102089250D01*
X89358072Y-101875000D01*
X89345812Y-101750518D01*
X89309502Y-101630820D01*
X89250537Y-101520506D01*
X89171185Y-101423815D01*
X89074494Y-101344463D01*
X88964180Y-101285498D01*
X88844482Y-101249188D01*
X88720000Y-101236928D01*
X87905750Y-101240000D01*
X87747000Y-101398750D01*
X87493000Y-101398750D01*
X87334250Y-101240000D01*
X86520000Y-101236928D01*
X86395518Y-101249188D01*
X86275820Y-101285498D01*
X86165506Y-101344463D01*
X86068815Y-101423815D01*
X85989463Y-101520506D01*
X85930498Y-101630820D01*
X85894188Y-101750518D01*
X85881928Y-101875000D01*
X84758072Y-101875000D01*
X84745812Y-101750518D01*
X84709502Y-101630820D01*
X84650537Y-101520506D01*
X84571185Y-101423815D01*
X84474494Y-101344463D01*
X84364180Y-101285498D01*
X84244482Y-101249188D01*
X84120000Y-101236928D01*
X83305750Y-101240000D01*
X83147000Y-101398750D01*
X82893000Y-101398750D01*
X82734250Y-101240000D01*
X81940000Y-101237003D01*
X81940000Y-98331614D01*
X105323720Y-98331614D01*
X105323720Y-98594586D01*
X105375024Y-98852505D01*
X105475659Y-99095459D01*
X105621758Y-99314113D01*
X105807707Y-99500062D01*
X106026361Y-99646161D01*
X106269315Y-99746796D01*
X106527234Y-99798100D01*
X106790206Y-99798100D01*
X107048125Y-99746796D01*
X107291079Y-99646161D01*
X107509733Y-99500062D01*
X107695682Y-99314113D01*
X107841781Y-99095459D01*
X107942416Y-98852505D01*
X107993720Y-98594586D01*
X107993720Y-98346388D01*
X112973720Y-98346388D01*
X112973720Y-98579812D01*
X113019259Y-98808752D01*
X113108586Y-99024408D01*
X113238270Y-99218494D01*
X113403326Y-99383550D01*
X113597412Y-99513234D01*
X113813068Y-99602561D01*
X114042008Y-99648100D01*
X114275432Y-99648100D01*
X114504372Y-99602561D01*
X114720028Y-99513234D01*
X114914114Y-99383550D01*
X115079170Y-99218494D01*
X115208854Y-99024408D01*
X115298181Y-98808752D01*
X115343720Y-98579812D01*
X115343720Y-98346388D01*
X115298181Y-98117448D01*
X115208854Y-97901792D01*
X115079170Y-97707706D01*
X114914114Y-97542650D01*
X114720028Y-97412966D01*
X114504372Y-97323639D01*
X114275432Y-97278100D01*
X114042008Y-97278100D01*
X113813068Y-97323639D01*
X113597412Y-97412966D01*
X113403326Y-97542650D01*
X113238270Y-97707706D01*
X113108586Y-97901792D01*
X113019259Y-98117448D01*
X112973720Y-98346388D01*
X107993720Y-98346388D01*
X107993720Y-98331614D01*
X107942416Y-98073695D01*
X107841781Y-97830741D01*
X107695682Y-97612087D01*
X107509733Y-97426138D01*
X107291079Y-97280039D01*
X107048125Y-97179404D01*
X106790206Y-97128100D01*
X106527234Y-97128100D01*
X106269315Y-97179404D01*
X106026361Y-97280039D01*
X105807707Y-97426138D01*
X105621758Y-97612087D01*
X105475659Y-97830741D01*
X105375024Y-98073695D01*
X105323720Y-98331614D01*
X81940000Y-98331614D01*
X81940000Y-88284981D01*
X96452740Y-88284981D01*
X96452740Y-88488859D01*
X96492514Y-88688818D01*
X96570535Y-88877176D01*
X96683803Y-89046694D01*
X96758221Y-89121112D01*
X96758220Y-91737957D01*
X96754544Y-91775280D01*
X96758220Y-91812602D01*
X96758220Y-91812612D01*
X96769217Y-91924265D01*
X96798864Y-92021999D01*
X96812674Y-92067526D01*
X96883246Y-92199556D01*
X96893711Y-92212307D01*
X96978219Y-92315281D01*
X97007223Y-92339084D01*
X99790442Y-95122304D01*
X99814240Y-95151302D01*
X99929965Y-95246275D01*
X100061994Y-95316847D01*
X100205255Y-95360304D01*
X100316908Y-95371301D01*
X100316917Y-95371301D01*
X100354240Y-95374977D01*
X100391563Y-95371301D01*
X147249012Y-95371301D01*
X147286334Y-95374977D01*
X147323656Y-95371301D01*
X147323667Y-95371301D01*
X147356249Y-95368092D01*
X147279814Y-95552622D01*
X147240040Y-95752581D01*
X147240040Y-95956459D01*
X147279814Y-96156418D01*
X147357835Y-96344776D01*
X147471103Y-96514294D01*
X147615266Y-96658457D01*
X147784784Y-96771725D01*
X147973142Y-96849746D01*
X148173101Y-96889520D01*
X148186676Y-96889520D01*
X140068057Y-105008140D01*
X120352951Y-105008140D01*
X120309014Y-104964203D01*
X120139496Y-104850935D01*
X119951138Y-104772914D01*
X119751179Y-104733140D01*
X119547301Y-104733140D01*
X119347342Y-104772914D01*
X119158984Y-104850935D01*
X118989466Y-104964203D01*
X118945529Y-105008140D01*
X106377871Y-105008140D01*
X106333934Y-104964203D01*
X106164416Y-104850935D01*
X105976058Y-104772914D01*
X105776099Y-104733140D01*
X105572221Y-104733140D01*
X105372262Y-104772914D01*
X105183904Y-104850935D01*
X105014386Y-104964203D01*
X104870223Y-105108366D01*
X104756955Y-105277884D01*
X104678934Y-105466242D01*
X104639160Y-105666201D01*
X104639160Y-105805048D01*
X104557232Y-105796979D01*
X104557221Y-105796979D01*
X104519899Y-105793303D01*
X104482577Y-105796979D01*
X103057172Y-105796979D01*
X103019839Y-105793302D01*
X102982506Y-105796979D01*
X102870853Y-105807976D01*
X102727592Y-105851433D01*
X102595563Y-105922005D01*
X102479838Y-106016978D01*
X102456035Y-106045982D01*
X102056743Y-106445274D01*
X102027739Y-106469077D01*
X101988293Y-106517143D01*
X101932766Y-106584802D01*
X101890881Y-106663163D01*
X101862194Y-106716832D01*
X101818737Y-106860093D01*
X101807740Y-106971746D01*
X101807740Y-106971756D01*
X101804064Y-107009078D01*
X101807740Y-107046401D01*
X101807740Y-107335189D01*
X101763803Y-107379126D01*
X101650535Y-107548644D01*
X101572514Y-107737002D01*
X101532740Y-107936961D01*
X101532740Y-108140839D01*
X101572514Y-108340798D01*
X101650535Y-108529156D01*
X101763803Y-108698674D01*
X101907966Y-108842837D01*
X102077484Y-108956105D01*
X102265842Y-109034126D01*
X102465801Y-109073900D01*
X102669679Y-109073900D01*
X102869638Y-109034126D01*
X103057996Y-108956105D01*
X103227514Y-108842837D01*
X103371677Y-108698674D01*
X103484945Y-108529156D01*
X103562966Y-108340798D01*
X103571738Y-108296699D01*
X103669738Y-108277206D01*
X103858096Y-108199185D01*
X104027614Y-108085917D01*
X104071551Y-108041980D01*
X125021963Y-108041980D01*
X124955754Y-108201822D01*
X124924244Y-108360233D01*
X124863234Y-108299223D01*
X124693716Y-108185955D01*
X124505358Y-108107934D01*
X124305399Y-108068160D01*
X124101521Y-108068160D01*
X123901562Y-108107934D01*
X123713204Y-108185955D01*
X123543686Y-108299223D01*
X123399523Y-108443386D01*
X123286255Y-108612904D01*
X123208234Y-108801262D01*
X123195344Y-108866065D01*
X123139236Y-108828575D01*
X122950878Y-108750554D01*
X122750919Y-108710780D01*
X122547041Y-108710780D01*
X122347082Y-108750554D01*
X122158724Y-108828575D01*
X121989206Y-108941843D01*
X121845043Y-109086006D01*
X121731775Y-109255524D01*
X121653754Y-109443882D01*
X121613980Y-109643841D01*
X121613980Y-109847719D01*
X121653754Y-110047678D01*
X121731775Y-110236036D01*
X121845043Y-110405554D01*
X121899993Y-110460504D01*
X121943434Y-110603712D01*
X121964831Y-110643741D01*
X122014006Y-110735741D01*
X122085181Y-110822467D01*
X122108980Y-110851466D01*
X122137978Y-110875264D01*
X131933496Y-120670783D01*
X131957294Y-120699781D01*
X132073019Y-120794754D01*
X132205048Y-120865326D01*
X132348309Y-120908783D01*
X132459962Y-120919780D01*
X132459970Y-120919780D01*
X132497295Y-120923456D01*
X132534620Y-120919780D01*
X165932898Y-120919780D01*
X165970220Y-120923456D01*
X166007542Y-120919780D01*
X166007553Y-120919780D01*
X166119206Y-120908783D01*
X166262467Y-120865326D01*
X166394496Y-120794754D01*
X166510221Y-120699781D01*
X166534024Y-120670777D01*
X173770120Y-113434682D01*
X173925649Y-113450000D01*
X174054351Y-113450000D01*
X174246805Y-113431045D01*
X174493741Y-113356138D01*
X174721318Y-113234495D01*
X174920792Y-113070792D01*
X175084495Y-112871318D01*
X175206138Y-112643741D01*
X175281045Y-112396805D01*
X175306338Y-112140000D01*
X175281045Y-111883195D01*
X175206138Y-111636259D01*
X175084495Y-111408682D01*
X174920792Y-111209208D01*
X174836461Y-111140000D01*
X174920792Y-111070792D01*
X175084495Y-110871318D01*
X175206138Y-110643741D01*
X175281045Y-110396805D01*
X175306338Y-110140000D01*
X175281045Y-109883195D01*
X175206138Y-109636259D01*
X175084495Y-109408682D01*
X174920792Y-109209208D01*
X174836461Y-109140000D01*
X174920792Y-109070792D01*
X175084495Y-108871318D01*
X175206138Y-108643741D01*
X175281045Y-108396805D01*
X175306338Y-108140000D01*
X175281045Y-107883195D01*
X175206138Y-107636259D01*
X175084495Y-107408682D01*
X174920792Y-107209208D01*
X174832352Y-107136628D01*
X174968303Y-107011227D01*
X175119473Y-106803629D01*
X175227238Y-106570528D01*
X175257910Y-106469400D01*
X175134224Y-106267000D01*
X174117000Y-106267000D01*
X174117000Y-106287000D01*
X173863000Y-106287000D01*
X173863000Y-106267000D01*
X172845776Y-106267000D01*
X172722090Y-106469400D01*
X172752762Y-106570528D01*
X172860527Y-106803629D01*
X173011697Y-107011227D01*
X173147648Y-107136628D01*
X173059208Y-107209208D01*
X172895505Y-107408682D01*
X172773862Y-107636259D01*
X172698955Y-107883195D01*
X172673662Y-108140000D01*
X172698955Y-108396805D01*
X172773862Y-108643741D01*
X172895505Y-108871318D01*
X173059208Y-109070792D01*
X173143539Y-109140000D01*
X173059208Y-109209208D01*
X172895505Y-109408682D01*
X172773862Y-109636259D01*
X172698955Y-109883195D01*
X172673662Y-110140000D01*
X172698955Y-110396805D01*
X172773862Y-110643741D01*
X172895505Y-110871318D01*
X173059208Y-111070792D01*
X173143539Y-111140000D01*
X173059208Y-111209208D01*
X172895505Y-111408682D01*
X172773862Y-111636259D01*
X172698955Y-111883195D01*
X172673662Y-112140000D01*
X172695318Y-112359880D01*
X165655419Y-119399780D01*
X160709261Y-119399780D01*
X170913223Y-109195820D01*
X170975359Y-109195820D01*
X171175318Y-109156046D01*
X171363676Y-109078025D01*
X171533194Y-108964757D01*
X171677357Y-108820594D01*
X171790625Y-108651076D01*
X171868646Y-108462718D01*
X171908420Y-108262759D01*
X171908420Y-108058881D01*
X171868646Y-107858922D01*
X171790625Y-107670564D01*
X171677357Y-107501046D01*
X171533194Y-107356883D01*
X171363676Y-107243615D01*
X171175318Y-107165594D01*
X170975359Y-107125820D01*
X170771481Y-107125820D01*
X170571522Y-107165594D01*
X170383164Y-107243615D01*
X170213646Y-107356883D01*
X170069483Y-107501046D01*
X169956215Y-107670564D01*
X169878194Y-107858922D01*
X169838420Y-108058881D01*
X169838420Y-108121017D01*
X159689959Y-118269480D01*
X133878897Y-118269480D01*
X125144731Y-109535315D01*
X125198686Y-109405058D01*
X125230196Y-109246647D01*
X125291206Y-109307657D01*
X125460724Y-109420925D01*
X125649082Y-109498946D01*
X125849041Y-109538720D01*
X125926754Y-109538720D01*
X126058732Y-109609265D01*
X126201993Y-109652722D01*
X126313646Y-109663719D01*
X126313656Y-109663719D01*
X126350978Y-109667395D01*
X126388301Y-109663719D01*
X127317756Y-109663719D01*
X134889300Y-117235264D01*
X134913098Y-117264262D01*
X134942096Y-117288060D01*
X135028823Y-117359235D01*
X135160852Y-117429807D01*
X135304113Y-117473264D01*
X135453099Y-117487938D01*
X135490432Y-117484261D01*
X137251117Y-117484261D01*
X137288439Y-117487937D01*
X137325761Y-117484261D01*
X137325772Y-117484261D01*
X137437425Y-117473264D01*
X137580686Y-117429807D01*
X137712715Y-117359235D01*
X137828440Y-117264262D01*
X137852243Y-117235258D01*
X139620422Y-115467080D01*
X139649539Y-115467080D01*
X139849498Y-115427306D01*
X140037856Y-115349285D01*
X140207374Y-115236017D01*
X140211178Y-115232213D01*
X158183140Y-115232213D01*
X158183140Y-115539507D01*
X158243090Y-115840895D01*
X158360686Y-116124797D01*
X158531409Y-116380302D01*
X158748698Y-116597591D01*
X159004203Y-116768314D01*
X159288105Y-116885910D01*
X159589493Y-116945860D01*
X159896787Y-116945860D01*
X160198175Y-116885910D01*
X160482077Y-116768314D01*
X160737582Y-116597591D01*
X160954871Y-116380302D01*
X161125594Y-116124797D01*
X161243190Y-115840895D01*
X161303140Y-115539507D01*
X161303140Y-115232213D01*
X161243190Y-114930825D01*
X161125594Y-114646923D01*
X160954871Y-114391418D01*
X160737582Y-114174129D01*
X160482077Y-114003406D01*
X160198175Y-113885810D01*
X159896787Y-113825860D01*
X159589493Y-113825860D01*
X159288105Y-113885810D01*
X159004203Y-114003406D01*
X158748698Y-114174129D01*
X158531409Y-114391418D01*
X158360686Y-114646923D01*
X158243090Y-114930825D01*
X158183140Y-115232213D01*
X140211178Y-115232213D01*
X140351537Y-115091854D01*
X140464805Y-114922336D01*
X140542826Y-114733978D01*
X140582600Y-114534019D01*
X140582600Y-114330141D01*
X140542826Y-114130182D01*
X140464805Y-113941824D01*
X140351537Y-113772306D01*
X140207374Y-113628143D01*
X140037856Y-113514875D01*
X139849498Y-113436854D01*
X139712955Y-113409694D01*
X143661789Y-109460860D01*
X158180068Y-109460860D01*
X158180068Y-111310860D01*
X158192328Y-111435342D01*
X158228638Y-111555040D01*
X158287603Y-111665354D01*
X158366955Y-111762045D01*
X158463646Y-111841397D01*
X158573960Y-111900362D01*
X158693658Y-111936672D01*
X158818140Y-111948932D01*
X160668140Y-111948932D01*
X160792622Y-111936672D01*
X160912320Y-111900362D01*
X161022634Y-111841397D01*
X161119325Y-111762045D01*
X161198677Y-111665354D01*
X161257642Y-111555040D01*
X161293952Y-111435342D01*
X161306212Y-111310860D01*
X161306212Y-109460860D01*
X161293952Y-109336378D01*
X161257642Y-109216680D01*
X161198677Y-109106366D01*
X161119325Y-109009675D01*
X161022634Y-108930323D01*
X160912320Y-108871358D01*
X160792622Y-108835048D01*
X160668140Y-108822788D01*
X158818140Y-108822788D01*
X158693658Y-108835048D01*
X158573960Y-108871358D01*
X158463646Y-108930323D01*
X158366955Y-109009675D01*
X158287603Y-109106366D01*
X158228638Y-109216680D01*
X158192328Y-109336378D01*
X158180068Y-109460860D01*
X143661789Y-109460860D01*
X152826138Y-100296511D01*
X152971536Y-100236285D01*
X153141054Y-100123017D01*
X153285217Y-99978854D01*
X153398485Y-99809336D01*
X153458711Y-99663938D01*
X155333119Y-97789531D01*
X155435555Y-97747100D01*
X160177225Y-97747100D01*
X160322622Y-97807326D01*
X160522581Y-97847100D01*
X160726459Y-97847100D01*
X160926418Y-97807326D01*
X161071815Y-97747100D01*
X168663408Y-97747100D01*
X168709340Y-97751624D01*
X168755272Y-97747100D01*
X168892632Y-97733571D01*
X169068880Y-97680107D01*
X169231312Y-97593286D01*
X169373684Y-97476444D01*
X169402970Y-97440759D01*
X170524859Y-96318871D01*
X170670256Y-96258645D01*
X170839774Y-96145377D01*
X170983937Y-96001214D01*
X171097205Y-95831696D01*
X171175226Y-95643338D01*
X171215000Y-95443379D01*
X171215000Y-95239501D01*
X171175226Y-95039542D01*
X171097205Y-94851184D01*
X170983937Y-94681666D01*
X170839774Y-94537503D01*
X170670256Y-94424235D01*
X170481898Y-94346214D01*
X170281939Y-94306440D01*
X170078061Y-94306440D01*
X169878102Y-94346214D01*
X169689744Y-94424235D01*
X169520226Y-94537503D01*
X169376063Y-94681666D01*
X169262795Y-94851184D01*
X169202569Y-94996581D01*
X168322051Y-95877100D01*
X161071815Y-95877100D01*
X160926418Y-95816874D01*
X160726459Y-95777100D01*
X160522581Y-95777100D01*
X160322622Y-95816874D01*
X160177225Y-95877100D01*
X155435555Y-95877100D01*
X155290158Y-95816874D01*
X155090199Y-95777100D01*
X154886321Y-95777100D01*
X154686362Y-95816874D01*
X154498004Y-95894895D01*
X154328486Y-96008163D01*
X154184323Y-96152326D01*
X154071055Y-96321844D01*
X154010829Y-96467241D01*
X152136422Y-98341649D01*
X151991024Y-98401875D01*
X151821506Y-98515143D01*
X151677343Y-98659306D01*
X151564075Y-98828824D01*
X151503849Y-98974222D01*
X151206183Y-99271887D01*
X151206184Y-99271887D01*
X135456242Y-115021829D01*
X135310844Y-115082055D01*
X135141326Y-115195323D01*
X135070144Y-115266505D01*
X128196361Y-108392722D01*
X128172558Y-108363718D01*
X128056833Y-108268745D01*
X127924804Y-108198173D01*
X127781543Y-108154716D01*
X127669890Y-108143719D01*
X127669879Y-108143719D01*
X127632557Y-108140043D01*
X127595235Y-108143719D01*
X126922139Y-108143719D01*
X126879997Y-108041980D01*
X141435598Y-108041980D01*
X141472920Y-108045656D01*
X141510242Y-108041980D01*
X141510253Y-108041980D01*
X141621906Y-108030983D01*
X141765167Y-107987526D01*
X141897196Y-107916954D01*
X142012921Y-107821981D01*
X142036724Y-107792977D01*
X154413382Y-95416320D01*
X154475519Y-95416320D01*
X154675478Y-95376546D01*
X154863836Y-95298525D01*
X155033354Y-95185257D01*
X155177517Y-95041094D01*
X155290785Y-94871576D01*
X155368806Y-94683218D01*
X155408580Y-94483259D01*
X155408580Y-94279381D01*
X155368806Y-94079422D01*
X155290785Y-93891064D01*
X155177517Y-93721546D01*
X155033354Y-93577383D01*
X154863836Y-93464115D01*
X154675478Y-93386094D01*
X154675328Y-93386064D01*
X154651426Y-93265902D01*
X154573405Y-93077544D01*
X154460137Y-92908026D01*
X154388955Y-92836844D01*
X154545740Y-92680060D01*
X169135929Y-92680060D01*
X169179866Y-92723997D01*
X169349384Y-92837265D01*
X169537742Y-92915286D01*
X169737701Y-92955060D01*
X169941579Y-92955060D01*
X170141538Y-92915286D01*
X170329896Y-92837265D01*
X170499414Y-92723997D01*
X170581991Y-92641420D01*
X172510515Y-92641420D01*
X172539187Y-92932531D01*
X172624101Y-93212454D01*
X172761994Y-93470434D01*
X172947566Y-93696554D01*
X172977387Y-93721027D01*
X172908520Y-93741918D01*
X172798206Y-93800883D01*
X172701515Y-93880235D01*
X172622163Y-93976926D01*
X172563198Y-94087240D01*
X172526888Y-94206938D01*
X172514628Y-94331420D01*
X172514628Y-96031420D01*
X172526888Y-96155902D01*
X172563198Y-96275600D01*
X172622163Y-96385914D01*
X172701515Y-96482605D01*
X172798206Y-96561957D01*
X172908520Y-96620922D01*
X173028218Y-96657232D01*
X173152700Y-96669492D01*
X174852700Y-96669492D01*
X174977182Y-96657232D01*
X175096880Y-96620922D01*
X175207194Y-96561957D01*
X175303885Y-96482605D01*
X175383237Y-96385914D01*
X175442202Y-96275600D01*
X175478512Y-96155902D01*
X175490772Y-96031420D01*
X175490772Y-94331420D01*
X175478512Y-94206938D01*
X175442202Y-94087240D01*
X175383237Y-93976926D01*
X175303885Y-93880235D01*
X175207194Y-93800883D01*
X175096880Y-93741918D01*
X175028013Y-93721027D01*
X175057834Y-93696554D01*
X175243406Y-93470434D01*
X175381299Y-93212454D01*
X175466213Y-92932531D01*
X175494885Y-92641420D01*
X175466213Y-92350309D01*
X175381299Y-92070386D01*
X175243406Y-91812406D01*
X175057834Y-91586286D01*
X174831714Y-91400714D01*
X174767177Y-91366219D01*
X174884055Y-91296598D01*
X175100288Y-91101689D01*
X175274341Y-90868340D01*
X175399525Y-90605519D01*
X175444176Y-90458310D01*
X175322855Y-90228420D01*
X174129700Y-90228420D01*
X174129700Y-90248420D01*
X173875700Y-90248420D01*
X173875700Y-90228420D01*
X172682545Y-90228420D01*
X172561224Y-90458310D01*
X172605875Y-90605519D01*
X172731059Y-90868340D01*
X172905112Y-91101689D01*
X173121345Y-91296598D01*
X173238223Y-91366219D01*
X173173686Y-91400714D01*
X172947566Y-91586286D01*
X172761994Y-91812406D01*
X172624101Y-92070386D01*
X172539187Y-92350309D01*
X172510515Y-92641420D01*
X170581991Y-92641420D01*
X170643577Y-92579834D01*
X170756845Y-92410316D01*
X170834866Y-92221958D01*
X170874640Y-92021999D01*
X170874640Y-91818121D01*
X170834866Y-91618162D01*
X170756845Y-91429804D01*
X170643577Y-91260286D01*
X170499414Y-91116123D01*
X170329896Y-91002855D01*
X170141538Y-90924834D01*
X169941579Y-90885060D01*
X169737701Y-90885060D01*
X169537742Y-90924834D01*
X169349384Y-91002855D01*
X169179866Y-91116123D01*
X169135929Y-91160060D01*
X154268271Y-91160060D01*
X154230938Y-91156383D01*
X154193605Y-91160060D01*
X154081952Y-91171057D01*
X153938691Y-91214514D01*
X153806662Y-91285086D01*
X153690937Y-91380059D01*
X153667139Y-91409057D01*
X150373022Y-94703174D01*
X150394204Y-94633345D01*
X150405201Y-94521692D01*
X150405201Y-94521683D01*
X150408877Y-94484360D01*
X150405201Y-94447037D01*
X150405201Y-93232441D01*
X150408877Y-93195118D01*
X150405201Y-93157795D01*
X150405201Y-93157786D01*
X150394204Y-93046133D01*
X150350747Y-92902872D01*
X150280175Y-92770843D01*
X150250791Y-92735038D01*
X150209000Y-92684115D01*
X150208996Y-92684111D01*
X150185202Y-92655118D01*
X150156209Y-92631324D01*
X145443194Y-87918310D01*
X172561224Y-87918310D01*
X172605875Y-88065519D01*
X172731059Y-88328340D01*
X172905112Y-88561689D01*
X173121345Y-88756598D01*
X173246955Y-88831420D01*
X173121345Y-88906242D01*
X172905112Y-89101151D01*
X172731059Y-89334500D01*
X172605875Y-89597321D01*
X172561224Y-89744530D01*
X172682545Y-89974420D01*
X173875700Y-89974420D01*
X173875700Y-87688420D01*
X174129700Y-87688420D01*
X174129700Y-89974420D01*
X175322855Y-89974420D01*
X175444176Y-89744530D01*
X175399525Y-89597321D01*
X175274341Y-89334500D01*
X175100288Y-89101151D01*
X174884055Y-88906242D01*
X174758445Y-88831420D01*
X174884055Y-88756598D01*
X175100288Y-88561689D01*
X175274341Y-88328340D01*
X175399525Y-88065519D01*
X175444176Y-87918310D01*
X175322855Y-87688420D01*
X174129700Y-87688420D01*
X173875700Y-87688420D01*
X172682545Y-87688420D01*
X172561224Y-87918310D01*
X145443194Y-87918310D01*
X144729414Y-87204530D01*
X172561224Y-87204530D01*
X172682545Y-87434420D01*
X173875700Y-87434420D01*
X173875700Y-86240606D01*
X174129700Y-86240606D01*
X174129700Y-87434420D01*
X175322855Y-87434420D01*
X175444176Y-87204530D01*
X175399525Y-87057321D01*
X175274341Y-86794500D01*
X175100288Y-86561151D01*
X174884055Y-86366242D01*
X174633952Y-86217263D01*
X174359591Y-86119939D01*
X174129700Y-86240606D01*
X173875700Y-86240606D01*
X173645809Y-86119939D01*
X173371448Y-86217263D01*
X173121345Y-86366242D01*
X172905112Y-86561151D01*
X172731059Y-86794500D01*
X172605875Y-87057321D01*
X172561224Y-87204530D01*
X144729414Y-87204530D01*
X144006346Y-86481463D01*
X143982543Y-86452459D01*
X143866818Y-86357486D01*
X143734789Y-86286914D01*
X143591528Y-86243457D01*
X143479875Y-86232460D01*
X143479864Y-86232460D01*
X143442542Y-86228784D01*
X143405220Y-86232460D01*
X118272049Y-86232460D01*
X120494478Y-84010031D01*
X120639876Y-83949805D01*
X120809394Y-83836537D01*
X120953557Y-83692374D01*
X121066825Y-83522856D01*
X121144846Y-83334498D01*
X121184620Y-83134539D01*
X121184620Y-82930661D01*
X121144846Y-82730702D01*
X121066825Y-82542344D01*
X120953557Y-82372826D01*
X120809394Y-82228663D01*
X120639876Y-82115395D01*
X120451518Y-82037374D01*
X120251559Y-81997600D01*
X120047681Y-81997600D01*
X119847722Y-82037374D01*
X119659364Y-82115395D01*
X119489846Y-82228663D01*
X119345683Y-82372826D01*
X119232415Y-82542344D01*
X119172189Y-82687742D01*
X116739731Y-85120200D01*
X103528115Y-85120200D01*
X103382718Y-85059974D01*
X103182759Y-85020200D01*
X102978881Y-85020200D01*
X102778922Y-85059974D01*
X102590564Y-85137995D01*
X102421046Y-85251263D01*
X102276883Y-85395426D01*
X102163615Y-85564944D01*
X102085594Y-85753302D01*
X102045820Y-85953261D01*
X102045820Y-86157139D01*
X102060802Y-86232460D01*
X98214311Y-86232460D01*
X98170374Y-86188523D01*
X98000856Y-86075255D01*
X97812498Y-85997234D01*
X97612539Y-85957460D01*
X97408661Y-85957460D01*
X97208702Y-85997234D01*
X97020344Y-86075255D01*
X96850826Y-86188523D01*
X96706663Y-86332686D01*
X96593395Y-86502204D01*
X96515374Y-86690562D01*
X96475600Y-86890521D01*
X96475600Y-87094399D01*
X96515374Y-87294358D01*
X96593395Y-87482716D01*
X96706663Y-87652234D01*
X96732689Y-87678260D01*
X96683803Y-87727146D01*
X96570535Y-87896664D01*
X96492514Y-88085022D01*
X96452740Y-88284981D01*
X81940000Y-88284981D01*
X81940000Y-83235550D01*
X82235772Y-83678204D01*
X82641796Y-84084228D01*
X83119230Y-84403239D01*
X83649726Y-84622978D01*
X84212898Y-84735000D01*
X84787102Y-84735000D01*
X85350274Y-84622978D01*
X85880770Y-84403239D01*
X86358204Y-84084228D01*
X86764228Y-83678204D01*
X87083239Y-83200770D01*
X87302978Y-82670274D01*
X87415000Y-82107102D01*
X87415000Y-81532898D01*
X87302978Y-80969726D01*
X87083239Y-80439230D01*
X86764228Y-79961796D01*
X86358204Y-79555772D01*
X86125075Y-79400000D01*
X112934267Y-79400000D01*
X112831623Y-79420417D01*
X112831623Y-79420417D01*
G37*
X112831623Y-79420417D02*
X112625066Y-79505976D01*
X112439170Y-79630188D01*
X112281078Y-79788280D01*
X112156866Y-79974176D01*
X112071307Y-80180733D01*
X112027690Y-80400012D01*
X112027690Y-80623588D01*
X112071307Y-80842867D01*
X112156866Y-81049424D01*
X112281078Y-81235320D01*
X112439170Y-81393412D01*
X112625066Y-81517624D01*
X112831623Y-81603183D01*
X113050902Y-81646800D01*
X113274478Y-81646800D01*
X113493757Y-81603183D01*
X113700314Y-81517624D01*
X113886210Y-81393412D01*
X114044302Y-81235320D01*
X114168514Y-81049424D01*
X114254073Y-80842867D01*
X114297690Y-80623588D01*
X114297690Y-80400012D01*
X114254073Y-80180733D01*
X114168514Y-79974176D01*
X114044302Y-79788280D01*
X113886210Y-79630188D01*
X113700314Y-79505976D01*
X113493757Y-79420417D01*
X113391113Y-79400000D01*
X115234287Y-79400000D01*
X115131643Y-79420417D01*
X114925086Y-79505976D01*
X114739190Y-79630188D01*
X114581098Y-79788280D01*
X114456886Y-79974176D01*
X114371327Y-80180733D01*
X114327710Y-80400012D01*
X114327710Y-80623588D01*
X114371327Y-80842867D01*
X114456886Y-81049424D01*
X114581098Y-81235320D01*
X114739190Y-81393412D01*
X114925086Y-81517624D01*
X115131643Y-81603183D01*
X115350922Y-81646800D01*
X115574498Y-81646800D01*
X115793777Y-81603183D01*
X116000334Y-81517624D01*
X116186230Y-81393412D01*
X116344322Y-81235320D01*
X116468534Y-81049424D01*
X116554093Y-80842867D01*
X116597710Y-80623588D01*
X116597710Y-80400012D01*
X116554093Y-80180733D01*
X116468534Y-79974176D01*
X116344322Y-79788280D01*
X116186230Y-79630188D01*
X116000334Y-79505976D01*
X115793777Y-79420417D01*
X115691133Y-79400000D01*
X161194267Y-79400000D01*
X161091623Y-79420417D01*
X160885066Y-79505976D01*
X160699170Y-79630188D01*
X160541078Y-79788280D01*
X160416866Y-79974176D01*
X160331307Y-80180733D01*
X160287690Y-80400012D01*
X160287690Y-80623588D01*
X160331307Y-80842867D01*
X160416866Y-81049424D01*
X160541078Y-81235320D01*
X160699170Y-81393412D01*
X160885066Y-81517624D01*
X161091623Y-81603183D01*
X161310902Y-81646800D01*
X161534478Y-81646800D01*
X161753757Y-81603183D01*
X161960314Y-81517624D01*
X162146210Y-81393412D01*
X162304302Y-81235320D01*
X162428514Y-81049424D01*
X162514073Y-80842867D01*
X162557690Y-80623588D01*
X162557690Y-80400012D01*
X162514073Y-80180733D01*
X162428514Y-79974176D01*
X162304302Y-79788280D01*
X162146210Y-79630188D01*
X161960314Y-79505976D01*
X161753757Y-79420417D01*
X161651113Y-79400000D01*
X163494287Y-79400000D01*
X163391643Y-79420417D01*
X163185086Y-79505976D01*
X162999190Y-79630188D01*
X162841098Y-79788280D01*
X162716886Y-79974176D01*
X162631327Y-80180733D01*
X162587710Y-80400012D01*
X162587710Y-80623588D01*
X162631327Y-80842867D01*
X162716886Y-81049424D01*
X162841098Y-81235320D01*
X162999190Y-81393412D01*
X163185086Y-81517624D01*
X163391643Y-81603183D01*
X163610922Y-81646800D01*
X163834498Y-81646800D01*
X164053777Y-81603183D01*
X164260334Y-81517624D01*
X164446230Y-81393412D01*
X164604322Y-81235320D01*
X164728534Y-81049424D01*
X164814093Y-80842867D01*
X164857710Y-80623588D01*
X164857710Y-80400012D01*
X164814093Y-80180733D01*
X164728534Y-79974176D01*
X164604322Y-79788280D01*
X164446230Y-79630188D01*
X164260334Y-79505976D01*
X164053777Y-79420417D01*
X163951133Y-79400000D01*
X172974925Y-79400000D01*
X172741796Y-79555772D01*
X172335772Y-79961796D01*
X172016761Y-80439230D01*
X171797022Y-80969726D01*
X171685000Y-81532898D01*
X171685000Y-82107102D01*
X171797022Y-82670274D01*
X172016761Y-83200770D01*
X172335772Y-83678204D01*
X172741796Y-84084228D01*
X173219230Y-84403239D01*
X173749726Y-84622978D01*
X174312898Y-84735000D01*
X174887102Y-84735000D01*
X175450274Y-84622978D01*
X175980770Y-84403239D01*
X176458204Y-84084228D01*
X176864228Y-83678204D01*
X177140000Y-83265482D01*
X177140001Y-104703853D01*
X177059724Y-104606036D01*
X177024039Y-104576750D01*
X175958630Y-103511341D01*
X175929344Y-103475656D01*
X175786972Y-103358814D01*
X175624540Y-103271993D01*
X175448292Y-103218529D01*
X175310932Y-103205000D01*
X175265000Y-103200476D01*
X175244697Y-103202476D01*
X175195537Y-103110506D01*
X175116185Y-103013815D01*
X175019494Y-102934463D01*
X174909180Y-102875498D01*
X174789482Y-102839188D01*
X174665000Y-102826928D01*
X173315000Y-102826928D01*
X173190518Y-102839188D01*
X173070820Y-102875498D01*
X172960506Y-102934463D01*
X172863815Y-103013815D01*
X172784463Y-103110506D01*
X172725498Y-103220820D01*
X172689188Y-103340518D01*
X172676928Y-103465000D01*
X172676928Y-104815000D01*
X172689188Y-104939482D01*
X172725498Y-105059180D01*
X172784463Y-105169494D01*
X172863815Y-105266185D01*
X172957559Y-105343119D01*
X172860527Y-105476371D01*
X172752762Y-105709472D01*
X172722090Y-105810600D01*
X172845776Y-106013000D01*
X173863000Y-106013000D01*
X173863000Y-105993000D01*
X174117000Y-105993000D01*
X174117000Y-106013000D01*
X175134224Y-106013000D01*
X175257910Y-105810600D01*
X175227238Y-105709472D01*
X175119473Y-105476371D01*
X175022441Y-105343119D01*
X175090212Y-105287501D01*
X175460381Y-105657670D01*
X175460380Y-112647791D01*
X167012351Y-121095820D01*
X166829401Y-121095820D01*
X166629442Y-121135594D01*
X166441084Y-121213615D01*
X166271566Y-121326883D01*
X166153709Y-121444740D01*
X103176010Y-121444740D01*
X102421060Y-120689791D01*
X102421060Y-116357295D01*
X102481286Y-116211898D01*
X102521060Y-116011939D01*
X102521060Y-115808061D01*
X102481286Y-115608102D01*
X102403265Y-115419744D01*
X102289997Y-115250226D01*
X102145834Y-115106063D01*
X101976316Y-114992795D01*
X101787958Y-114914774D01*
X101587999Y-114875000D01*
X101384121Y-114875000D01*
X101184162Y-114914774D01*
X101038765Y-114975000D01*
X95266089Y-114975000D01*
X93366819Y-113075730D01*
X93366819Y-105769570D01*
X93371343Y-105723638D01*
X93353290Y-105540347D01*
X93333738Y-105475893D01*
X93299826Y-105364099D01*
X93213005Y-105201667D01*
X93096163Y-105059295D01*
X93060479Y-105030010D01*
X93009251Y-104978782D01*
X92949025Y-104833384D01*
X92835757Y-104663866D01*
X92691594Y-104519703D01*
X92522076Y-104406435D01*
X92333718Y-104328414D01*
X92133759Y-104288640D01*
X91929881Y-104288640D01*
X91729922Y-104328414D01*
X91541564Y-104406435D01*
X91372046Y-104519703D01*
X91227883Y-104663866D01*
X91114615Y-104833384D01*
X91036594Y-105021742D01*
X90996820Y-105221701D01*
X90996820Y-105251300D01*
X90898641Y-105251300D01*
X90698682Y-105291074D01*
X90510324Y-105369095D01*
X90340806Y-105482363D01*
X90196643Y-105626526D01*
X90083375Y-105796044D01*
X90005354Y-105984402D01*
X89965580Y-106184361D01*
X89965580Y-106388239D01*
X90005354Y-106588198D01*
X90083375Y-106776556D01*
X90196643Y-106946074D01*
X90340806Y-107090237D01*
X90510324Y-107203505D01*
X90611421Y-107245381D01*
X90611420Y-108165769D01*
X90567483Y-108209706D01*
X90454215Y-108379224D01*
X90376194Y-108567582D01*
X90336420Y-108767541D01*
X90336420Y-108971419D01*
X90376194Y-109171378D01*
X90454215Y-109359736D01*
X90567483Y-109529254D01*
X90711646Y-109673417D01*
X90881164Y-109786685D01*
X91069522Y-109864706D01*
X91269481Y-109904480D01*
X91473359Y-109904480D01*
X91496820Y-109899813D01*
X91496820Y-113417077D01*
X91492295Y-113463019D01*
X91510348Y-113646310D01*
X91548569Y-113772306D01*
X91563813Y-113822559D01*
X91650634Y-113984991D01*
X91767476Y-114127363D01*
X91803155Y-114156644D01*
X94185170Y-116538659D01*
X94214456Y-116574344D01*
X94356828Y-116691186D01*
X94462680Y-116747765D01*
X94519259Y-116778007D01*
X94695508Y-116831472D01*
X94878800Y-116849524D01*
X94924735Y-116845000D01*
X100551060Y-116845000D01*
X100551061Y-121031138D01*
X100546536Y-121077080D01*
X100564589Y-121260371D01*
X100608655Y-121405637D01*
X100618054Y-121436620D01*
X100704875Y-121599052D01*
X100821717Y-121741424D01*
X100857396Y-121770705D01*
X102095094Y-123008404D01*
X102124376Y-123044084D01*
X102266748Y-123160926D01*
X102429180Y-123247747D01*
X102551963Y-123284993D01*
X102605427Y-123301211D01*
X102623830Y-123303023D01*
X102742788Y-123314740D01*
X102742794Y-123314740D01*
X102788719Y-123319263D01*
X102834644Y-123314740D01*
X167004788Y-123314740D01*
X167050720Y-123319264D01*
X167096652Y-123314740D01*
X167234012Y-123301211D01*
X167410260Y-123247747D01*
X167572692Y-123160926D01*
X167715064Y-123044084D01*
X167744350Y-123008399D01*
X177024040Y-113728709D01*
X177059724Y-113699424D01*
X177140001Y-113601607D01*
X177140001Y-119874520D01*
X176864228Y-119461796D01*
X176458204Y-119055772D01*
X175980770Y-118736761D01*
X175450274Y-118517022D01*
X174887102Y-118405000D01*
X174312898Y-118405000D01*
X173749726Y-118517022D01*
X173219230Y-118736761D01*
X172741796Y-119055772D01*
X172335772Y-119461796D01*
X172016761Y-119939230D01*
X171797022Y-120469726D01*
X171685000Y-121032898D01*
X171685000Y-121607102D01*
X171797022Y-122170274D01*
X172016761Y-122700770D01*
X172335772Y-123178204D01*
X172741796Y-123584228D01*
X173064722Y-123800000D01*
X86035278Y-123800000D01*
X86358204Y-123584228D01*
X86764228Y-123178204D01*
X87083239Y-122700770D01*
X87302978Y-122170274D01*
X87415000Y-121607102D01*
X87415000Y-121032898D01*
X87302978Y-120469726D01*
X87083239Y-119939230D01*
X86764228Y-119461796D01*
X86358204Y-119055772D01*
X85880770Y-118736761D01*
X85350274Y-118517022D01*
X84787102Y-118405000D01*
X84212898Y-118405000D01*
X83649726Y-118517022D01*
X83119230Y-118736761D01*
X82641796Y-119055772D01*
X82235772Y-119461796D01*
X81940000Y-119904450D01*
X81940000Y-114662997D01*
X82734250Y-114660000D01*
X82893000Y-114501250D01*
X82893000Y-113652000D01*
X83147000Y-113652000D01*
X83147000Y-114501250D01*
X83305750Y-114660000D01*
X84120000Y-114663072D01*
X84244482Y-114650812D01*
X84364180Y-114614502D01*
X84474494Y-114555537D01*
X84571185Y-114476185D01*
X84650537Y-114379494D01*
X84709502Y-114269180D01*
X84745812Y-114149482D01*
X84758072Y-114025000D01*
X85881928Y-114025000D01*
X85894188Y-114149482D01*
X85930498Y-114269180D01*
X85989463Y-114379494D01*
X86068815Y-114476185D01*
X86165506Y-114555537D01*
X86275820Y-114614502D01*
X86395518Y-114650812D01*
X86520000Y-114663072D01*
X87334250Y-114660000D01*
X87493000Y-114501250D01*
X87493000Y-113652000D01*
X87747000Y-113652000D01*
X87747000Y-114501250D01*
X87905750Y-114660000D01*
X88720000Y-114663072D01*
X88844482Y-114650812D01*
X88964180Y-114614502D01*
X89074494Y-114555537D01*
X89171185Y-114476185D01*
X89250537Y-114379494D01*
X89309502Y-114269180D01*
X89345812Y-114149482D01*
X89358072Y-114025000D01*
X89355000Y-113810750D01*
X89196250Y-113652000D01*
X87747000Y-113652000D01*
X87493000Y-113652000D01*
X86043750Y-113652000D01*
X85885000Y-113810750D01*
X85881928Y-114025000D01*
X84758072Y-114025000D01*
X84755000Y-113810750D01*
X84596250Y-113652000D01*
X83147000Y-113652000D01*
X82893000Y-113652000D01*
X82873000Y-113652000D01*
X82873000Y-113398000D01*
X82893000Y-113398000D01*
X82893000Y-113378000D01*
X83147000Y-113378000D01*
X83147000Y-113398000D01*
X84596250Y-113398000D01*
X84755000Y-113239250D01*
X84756853Y-113110000D01*
X85883147Y-113110000D01*
X85885000Y-113239250D01*
X86043750Y-113398000D01*
X87493000Y-113398000D01*
X87493000Y-113378000D01*
X87747000Y-113378000D01*
X87747000Y-113398000D01*
X89196250Y-113398000D01*
X89355000Y-113239250D01*
X89358072Y-113025000D01*
X89345812Y-112900518D01*
X89309502Y-112780820D01*
X89250537Y-112670506D01*
X89171185Y-112573815D01*
X89074494Y-112494463D01*
X88964180Y-112435498D01*
X88844482Y-112399188D01*
X88720000Y-112386928D01*
X88560000Y-112387532D01*
X88560000Y-112087264D01*
X88607004Y-111973786D01*
X88643320Y-111791214D01*
X88643320Y-111605066D01*
X88607004Y-111422494D01*
X88560000Y-111309016D01*
X88560000Y-104577264D01*
X88607004Y-104463786D01*
X88643320Y-104281214D01*
X88643320Y-104095066D01*
X88607004Y-103912494D01*
X88560000Y-103799016D01*
X88560000Y-103532418D01*
X88561964Y-103512476D01*
X88720000Y-103513072D01*
X88844482Y-103500812D01*
X88964180Y-103464502D01*
X89074494Y-103405537D01*
X89171185Y-103326185D01*
X89250537Y-103229494D01*
X89309502Y-103119180D01*
X89345812Y-102999482D01*
X89358072Y-102875000D01*
X89355000Y-102660750D01*
X89196250Y-102502000D01*
X87747000Y-102502000D01*
X87747000Y-102522000D01*
X87493000Y-102522000D01*
X87493000Y-102502000D01*
X86043750Y-102502000D01*
X85885000Y-102660750D01*
X85882430Y-102840000D01*
X84757570Y-102840000D01*
X84755000Y-102660750D01*
X84596250Y-102502000D01*
X83147000Y-102502000D01*
X83147000Y-102522000D01*
X82893000Y-102522000D01*
X82893000Y-102502000D01*
X82873000Y-102502000D01*
X82873000Y-102248000D01*
X82893000Y-102248000D01*
X82893000Y-101398750D01*
X83147000Y-101398750D01*
X83147000Y-102248000D01*
X84596250Y-102248000D01*
X84755000Y-102089250D01*
X84758072Y-101875000D01*
X85881928Y-101875000D01*
X85885000Y-102089250D01*
X86043750Y-102248000D01*
X87493000Y-102248000D01*
X87493000Y-101398750D01*
X87747000Y-101398750D01*
X87747000Y-102248000D01*
X89196250Y-102248000D01*
X89355000Y-102089250D01*
X89358072Y-101875000D01*
X89345812Y-101750518D01*
X89309502Y-101630820D01*
X89250537Y-101520506D01*
X89171185Y-101423815D01*
X89074494Y-101344463D01*
X88964180Y-101285498D01*
X88844482Y-101249188D01*
X88720000Y-101236928D01*
X87905750Y-101240000D01*
X87747000Y-101398750D01*
X87493000Y-101398750D01*
X87334250Y-101240000D01*
X86520000Y-101236928D01*
X86395518Y-101249188D01*
X86275820Y-101285498D01*
X86165506Y-101344463D01*
X86068815Y-101423815D01*
X85989463Y-101520506D01*
X85930498Y-101630820D01*
X85894188Y-101750518D01*
X85881928Y-101875000D01*
X84758072Y-101875000D01*
X84745812Y-101750518D01*
X84709502Y-101630820D01*
X84650537Y-101520506D01*
X84571185Y-101423815D01*
X84474494Y-101344463D01*
X84364180Y-101285498D01*
X84244482Y-101249188D01*
X84120000Y-101236928D01*
X83305750Y-101240000D01*
X83147000Y-101398750D01*
X82893000Y-101398750D01*
X82734250Y-101240000D01*
X81940000Y-101237003D01*
X81940000Y-98331614D01*
X105323720Y-98331614D01*
X105323720Y-98594586D01*
X105375024Y-98852505D01*
X105475659Y-99095459D01*
X105621758Y-99314113D01*
X105807707Y-99500062D01*
X106026361Y-99646161D01*
X106269315Y-99746796D01*
X106527234Y-99798100D01*
X106790206Y-99798100D01*
X107048125Y-99746796D01*
X107291079Y-99646161D01*
X107509733Y-99500062D01*
X107695682Y-99314113D01*
X107841781Y-99095459D01*
X107942416Y-98852505D01*
X107993720Y-98594586D01*
X107993720Y-98346388D01*
X112973720Y-98346388D01*
X112973720Y-98579812D01*
X113019259Y-98808752D01*
X113108586Y-99024408D01*
X113238270Y-99218494D01*
X113403326Y-99383550D01*
X113597412Y-99513234D01*
X113813068Y-99602561D01*
X114042008Y-99648100D01*
X114275432Y-99648100D01*
X114504372Y-99602561D01*
X114720028Y-99513234D01*
X114914114Y-99383550D01*
X115079170Y-99218494D01*
X115208854Y-99024408D01*
X115298181Y-98808752D01*
X115343720Y-98579812D01*
X115343720Y-98346388D01*
X115298181Y-98117448D01*
X115208854Y-97901792D01*
X115079170Y-97707706D01*
X114914114Y-97542650D01*
X114720028Y-97412966D01*
X114504372Y-97323639D01*
X114275432Y-97278100D01*
X114042008Y-97278100D01*
X113813068Y-97323639D01*
X113597412Y-97412966D01*
X113403326Y-97542650D01*
X113238270Y-97707706D01*
X113108586Y-97901792D01*
X113019259Y-98117448D01*
X112973720Y-98346388D01*
X107993720Y-98346388D01*
X107993720Y-98331614D01*
X107942416Y-98073695D01*
X107841781Y-97830741D01*
X107695682Y-97612087D01*
X107509733Y-97426138D01*
X107291079Y-97280039D01*
X107048125Y-97179404D01*
X106790206Y-97128100D01*
X106527234Y-97128100D01*
X106269315Y-97179404D01*
X106026361Y-97280039D01*
X105807707Y-97426138D01*
X105621758Y-97612087D01*
X105475659Y-97830741D01*
X105375024Y-98073695D01*
X105323720Y-98331614D01*
X81940000Y-98331614D01*
X81940000Y-88284981D01*
X96452740Y-88284981D01*
X96452740Y-88488859D01*
X96492514Y-88688818D01*
X96570535Y-88877176D01*
X96683803Y-89046694D01*
X96758221Y-89121112D01*
X96758220Y-91737957D01*
X96754544Y-91775280D01*
X96758220Y-91812602D01*
X96758220Y-91812612D01*
X96769217Y-91924265D01*
X96798864Y-92021999D01*
X96812674Y-92067526D01*
X96883246Y-92199556D01*
X96893711Y-92212307D01*
X96978219Y-92315281D01*
X97007223Y-92339084D01*
X99790442Y-95122304D01*
X99814240Y-95151302D01*
X99929965Y-95246275D01*
X100061994Y-95316847D01*
X100205255Y-95360304D01*
X100316908Y-95371301D01*
X100316917Y-95371301D01*
X100354240Y-95374977D01*
X100391563Y-95371301D01*
X147249012Y-95371301D01*
X147286334Y-95374977D01*
X147323656Y-95371301D01*
X147323667Y-95371301D01*
X147356249Y-95368092D01*
X147279814Y-95552622D01*
X147240040Y-95752581D01*
X147240040Y-95956459D01*
X147279814Y-96156418D01*
X147357835Y-96344776D01*
X147471103Y-96514294D01*
X147615266Y-96658457D01*
X147784784Y-96771725D01*
X147973142Y-96849746D01*
X148173101Y-96889520D01*
X148186676Y-96889520D01*
X140068057Y-105008140D01*
X120352951Y-105008140D01*
X120309014Y-104964203D01*
X120139496Y-104850935D01*
X119951138Y-104772914D01*
X119751179Y-104733140D01*
X119547301Y-104733140D01*
X119347342Y-104772914D01*
X119158984Y-104850935D01*
X118989466Y-104964203D01*
X118945529Y-105008140D01*
X106377871Y-105008140D01*
X106333934Y-104964203D01*
X106164416Y-104850935D01*
X105976058Y-104772914D01*
X105776099Y-104733140D01*
X105572221Y-104733140D01*
X105372262Y-104772914D01*
X105183904Y-104850935D01*
X105014386Y-104964203D01*
X104870223Y-105108366D01*
X104756955Y-105277884D01*
X104678934Y-105466242D01*
X104639160Y-105666201D01*
X104639160Y-105805048D01*
X104557232Y-105796979D01*
X104557221Y-105796979D01*
X104519899Y-105793303D01*
X104482577Y-105796979D01*
X103057172Y-105796979D01*
X103019839Y-105793302D01*
X102982506Y-105796979D01*
X102870853Y-105807976D01*
X102727592Y-105851433D01*
X102595563Y-105922005D01*
X102479838Y-106016978D01*
X102456035Y-106045982D01*
X102056743Y-106445274D01*
X102027739Y-106469077D01*
X101988293Y-106517143D01*
X101932766Y-106584802D01*
X101890881Y-106663163D01*
X101862194Y-106716832D01*
X101818737Y-106860093D01*
X101807740Y-106971746D01*
X101807740Y-106971756D01*
X101804064Y-107009078D01*
X101807740Y-107046401D01*
X101807740Y-107335189D01*
X101763803Y-107379126D01*
X101650535Y-107548644D01*
X101572514Y-107737002D01*
X101532740Y-107936961D01*
X101532740Y-108140839D01*
X101572514Y-108340798D01*
X101650535Y-108529156D01*
X101763803Y-108698674D01*
X101907966Y-108842837D01*
X102077484Y-108956105D01*
X102265842Y-109034126D01*
X102465801Y-109073900D01*
X102669679Y-109073900D01*
X102869638Y-109034126D01*
X103057996Y-108956105D01*
X103227514Y-108842837D01*
X103371677Y-108698674D01*
X103484945Y-108529156D01*
X103562966Y-108340798D01*
X103571738Y-108296699D01*
X103669738Y-108277206D01*
X103858096Y-108199185D01*
X104027614Y-108085917D01*
X104071551Y-108041980D01*
X125021963Y-108041980D01*
X124955754Y-108201822D01*
X124924244Y-108360233D01*
X124863234Y-108299223D01*
X124693716Y-108185955D01*
X124505358Y-108107934D01*
X124305399Y-108068160D01*
X124101521Y-108068160D01*
X123901562Y-108107934D01*
X123713204Y-108185955D01*
X123543686Y-108299223D01*
X123399523Y-108443386D01*
X123286255Y-108612904D01*
X123208234Y-108801262D01*
X123195344Y-108866065D01*
X123139236Y-108828575D01*
X122950878Y-108750554D01*
X122750919Y-108710780D01*
X122547041Y-108710780D01*
X122347082Y-108750554D01*
X122158724Y-108828575D01*
X121989206Y-108941843D01*
X121845043Y-109086006D01*
X121731775Y-109255524D01*
X121653754Y-109443882D01*
X121613980Y-109643841D01*
X121613980Y-109847719D01*
X121653754Y-110047678D01*
X121731775Y-110236036D01*
X121845043Y-110405554D01*
X121899993Y-110460504D01*
X121943434Y-110603712D01*
X121964831Y-110643741D01*
X122014006Y-110735741D01*
X122085181Y-110822467D01*
X122108980Y-110851466D01*
X122137978Y-110875264D01*
X131933496Y-120670783D01*
X131957294Y-120699781D01*
X132073019Y-120794754D01*
X132205048Y-120865326D01*
X132348309Y-120908783D01*
X132459962Y-120919780D01*
X132459970Y-120919780D01*
X132497295Y-120923456D01*
X132534620Y-120919780D01*
X165932898Y-120919780D01*
X165970220Y-120923456D01*
X166007542Y-120919780D01*
X166007553Y-120919780D01*
X166119206Y-120908783D01*
X166262467Y-120865326D01*
X166394496Y-120794754D01*
X166510221Y-120699781D01*
X166534024Y-120670777D01*
X173770120Y-113434682D01*
X173925649Y-113450000D01*
X174054351Y-113450000D01*
X174246805Y-113431045D01*
X174493741Y-113356138D01*
X174721318Y-113234495D01*
X174920792Y-113070792D01*
X175084495Y-112871318D01*
X175206138Y-112643741D01*
X175281045Y-112396805D01*
X175306338Y-112140000D01*
X175281045Y-111883195D01*
X175206138Y-111636259D01*
X175084495Y-111408682D01*
X174920792Y-111209208D01*
X174836461Y-111140000D01*
X174920792Y-111070792D01*
X175084495Y-110871318D01*
X175206138Y-110643741D01*
X175281045Y-110396805D01*
X175306338Y-110140000D01*
X175281045Y-109883195D01*
X175206138Y-109636259D01*
X175084495Y-109408682D01*
X174920792Y-109209208D01*
X174836461Y-109140000D01*
X174920792Y-109070792D01*
X175084495Y-108871318D01*
X175206138Y-108643741D01*
X175281045Y-108396805D01*
X175306338Y-108140000D01*
X175281045Y-107883195D01*
X175206138Y-107636259D01*
X175084495Y-107408682D01*
X174920792Y-107209208D01*
X174832352Y-107136628D01*
X174968303Y-107011227D01*
X175119473Y-106803629D01*
X175227238Y-106570528D01*
X175257910Y-106469400D01*
X175134224Y-106267000D01*
X174117000Y-106267000D01*
X174117000Y-106287000D01*
X173863000Y-106287000D01*
X173863000Y-106267000D01*
X172845776Y-106267000D01*
X172722090Y-106469400D01*
X172752762Y-106570528D01*
X172860527Y-106803629D01*
X173011697Y-107011227D01*
X173147648Y-107136628D01*
X173059208Y-107209208D01*
X172895505Y-107408682D01*
X172773862Y-107636259D01*
X172698955Y-107883195D01*
X172673662Y-108140000D01*
X172698955Y-108396805D01*
X172773862Y-108643741D01*
X172895505Y-108871318D01*
X173059208Y-109070792D01*
X173143539Y-109140000D01*
X173059208Y-109209208D01*
X172895505Y-109408682D01*
X172773862Y-109636259D01*
X172698955Y-109883195D01*
X172673662Y-110140000D01*
X172698955Y-110396805D01*
X172773862Y-110643741D01*
X172895505Y-110871318D01*
X173059208Y-111070792D01*
X173143539Y-111140000D01*
X173059208Y-111209208D01*
X172895505Y-111408682D01*
X172773862Y-111636259D01*
X172698955Y-111883195D01*
X172673662Y-112140000D01*
X172695318Y-112359880D01*
X165655419Y-119399780D01*
X160709261Y-119399780D01*
X170913223Y-109195820D01*
X170975359Y-109195820D01*
X171175318Y-109156046D01*
X171363676Y-109078025D01*
X171533194Y-108964757D01*
X171677357Y-108820594D01*
X171790625Y-108651076D01*
X171868646Y-108462718D01*
X171908420Y-108262759D01*
X171908420Y-108058881D01*
X171868646Y-107858922D01*
X171790625Y-107670564D01*
X171677357Y-107501046D01*
X171533194Y-107356883D01*
X171363676Y-107243615D01*
X171175318Y-107165594D01*
X170975359Y-107125820D01*
X170771481Y-107125820D01*
X170571522Y-107165594D01*
X170383164Y-107243615D01*
X170213646Y-107356883D01*
X170069483Y-107501046D01*
X169956215Y-107670564D01*
X169878194Y-107858922D01*
X169838420Y-108058881D01*
X169838420Y-108121017D01*
X159689959Y-118269480D01*
X133878897Y-118269480D01*
X125144731Y-109535315D01*
X125198686Y-109405058D01*
X125230196Y-109246647D01*
X125291206Y-109307657D01*
X125460724Y-109420925D01*
X125649082Y-109498946D01*
X125849041Y-109538720D01*
X125926754Y-109538720D01*
X126058732Y-109609265D01*
X126201993Y-109652722D01*
X126313646Y-109663719D01*
X126313656Y-109663719D01*
X126350978Y-109667395D01*
X126388301Y-109663719D01*
X127317756Y-109663719D01*
X134889300Y-117235264D01*
X134913098Y-117264262D01*
X134942096Y-117288060D01*
X135028823Y-117359235D01*
X135160852Y-117429807D01*
X135304113Y-117473264D01*
X135453099Y-117487938D01*
X135490432Y-117484261D01*
X137251117Y-117484261D01*
X137288439Y-117487937D01*
X137325761Y-117484261D01*
X137325772Y-117484261D01*
X137437425Y-117473264D01*
X137580686Y-117429807D01*
X137712715Y-117359235D01*
X137828440Y-117264262D01*
X137852243Y-117235258D01*
X139620422Y-115467080D01*
X139649539Y-115467080D01*
X139849498Y-115427306D01*
X140037856Y-115349285D01*
X140207374Y-115236017D01*
X140211178Y-115232213D01*
X158183140Y-115232213D01*
X158183140Y-115539507D01*
X158243090Y-115840895D01*
X158360686Y-116124797D01*
X158531409Y-116380302D01*
X158748698Y-116597591D01*
X159004203Y-116768314D01*
X159288105Y-116885910D01*
X159589493Y-116945860D01*
X159896787Y-116945860D01*
X160198175Y-116885910D01*
X160482077Y-116768314D01*
X160737582Y-116597591D01*
X160954871Y-116380302D01*
X161125594Y-116124797D01*
X161243190Y-115840895D01*
X161303140Y-115539507D01*
X161303140Y-115232213D01*
X161243190Y-114930825D01*
X161125594Y-114646923D01*
X160954871Y-114391418D01*
X160737582Y-114174129D01*
X160482077Y-114003406D01*
X160198175Y-113885810D01*
X159896787Y-113825860D01*
X159589493Y-113825860D01*
X159288105Y-113885810D01*
X159004203Y-114003406D01*
X158748698Y-114174129D01*
X158531409Y-114391418D01*
X158360686Y-114646923D01*
X158243090Y-114930825D01*
X158183140Y-115232213D01*
X140211178Y-115232213D01*
X140351537Y-115091854D01*
X140464805Y-114922336D01*
X140542826Y-114733978D01*
X140582600Y-114534019D01*
X140582600Y-114330141D01*
X140542826Y-114130182D01*
X140464805Y-113941824D01*
X140351537Y-113772306D01*
X140207374Y-113628143D01*
X140037856Y-113514875D01*
X139849498Y-113436854D01*
X139712955Y-113409694D01*
X143661789Y-109460860D01*
X158180068Y-109460860D01*
X158180068Y-111310860D01*
X158192328Y-111435342D01*
X158228638Y-111555040D01*
X158287603Y-111665354D01*
X158366955Y-111762045D01*
X158463646Y-111841397D01*
X158573960Y-111900362D01*
X158693658Y-111936672D01*
X158818140Y-111948932D01*
X160668140Y-111948932D01*
X160792622Y-111936672D01*
X160912320Y-111900362D01*
X161022634Y-111841397D01*
X161119325Y-111762045D01*
X161198677Y-111665354D01*
X161257642Y-111555040D01*
X161293952Y-111435342D01*
X161306212Y-111310860D01*
X161306212Y-109460860D01*
X161293952Y-109336378D01*
X161257642Y-109216680D01*
X161198677Y-109106366D01*
X161119325Y-109009675D01*
X161022634Y-108930323D01*
X160912320Y-108871358D01*
X160792622Y-108835048D01*
X160668140Y-108822788D01*
X158818140Y-108822788D01*
X158693658Y-108835048D01*
X158573960Y-108871358D01*
X158463646Y-108930323D01*
X158366955Y-109009675D01*
X158287603Y-109106366D01*
X158228638Y-109216680D01*
X158192328Y-109336378D01*
X158180068Y-109460860D01*
X143661789Y-109460860D01*
X152826138Y-100296511D01*
X152971536Y-100236285D01*
X153141054Y-100123017D01*
X153285217Y-99978854D01*
X153398485Y-99809336D01*
X153458711Y-99663938D01*
X155333119Y-97789531D01*
X155435555Y-97747100D01*
X160177225Y-97747100D01*
X160322622Y-97807326D01*
X160522581Y-97847100D01*
X160726459Y-97847100D01*
X160926418Y-97807326D01*
X161071815Y-97747100D01*
X168663408Y-97747100D01*
X168709340Y-97751624D01*
X168755272Y-97747100D01*
X168892632Y-97733571D01*
X169068880Y-97680107D01*
X169231312Y-97593286D01*
X169373684Y-97476444D01*
X169402970Y-97440759D01*
X170524859Y-96318871D01*
X170670256Y-96258645D01*
X170839774Y-96145377D01*
X170983937Y-96001214D01*
X171097205Y-95831696D01*
X171175226Y-95643338D01*
X171215000Y-95443379D01*
X171215000Y-95239501D01*
X171175226Y-95039542D01*
X171097205Y-94851184D01*
X170983937Y-94681666D01*
X170839774Y-94537503D01*
X170670256Y-94424235D01*
X170481898Y-94346214D01*
X170281939Y-94306440D01*
X170078061Y-94306440D01*
X169878102Y-94346214D01*
X169689744Y-94424235D01*
X169520226Y-94537503D01*
X169376063Y-94681666D01*
X169262795Y-94851184D01*
X169202569Y-94996581D01*
X168322051Y-95877100D01*
X161071815Y-95877100D01*
X160926418Y-95816874D01*
X160726459Y-95777100D01*
X160522581Y-95777100D01*
X160322622Y-95816874D01*
X160177225Y-95877100D01*
X155435555Y-95877100D01*
X155290158Y-95816874D01*
X155090199Y-95777100D01*
X154886321Y-95777100D01*
X154686362Y-95816874D01*
X154498004Y-95894895D01*
X154328486Y-96008163D01*
X154184323Y-96152326D01*
X154071055Y-96321844D01*
X154010829Y-96467241D01*
X152136422Y-98341649D01*
X151991024Y-98401875D01*
X151821506Y-98515143D01*
X151677343Y-98659306D01*
X151564075Y-98828824D01*
X151503849Y-98974222D01*
X151206183Y-99271887D01*
X151206184Y-99271887D01*
X135456242Y-115021829D01*
X135310844Y-115082055D01*
X135141326Y-115195323D01*
X135070144Y-115266505D01*
X128196361Y-108392722D01*
X128172558Y-108363718D01*
X128056833Y-108268745D01*
X127924804Y-108198173D01*
X127781543Y-108154716D01*
X127669890Y-108143719D01*
X127669879Y-108143719D01*
X127632557Y-108140043D01*
X127595235Y-108143719D01*
X126922139Y-108143719D01*
X126879997Y-108041980D01*
X141435598Y-108041980D01*
X141472920Y-108045656D01*
X141510242Y-108041980D01*
X141510253Y-108041980D01*
X141621906Y-108030983D01*
X141765167Y-107987526D01*
X141897196Y-107916954D01*
X142012921Y-107821981D01*
X142036724Y-107792977D01*
X154413382Y-95416320D01*
X154475519Y-95416320D01*
X154675478Y-95376546D01*
X154863836Y-95298525D01*
X155033354Y-95185257D01*
X155177517Y-95041094D01*
X155290785Y-94871576D01*
X155368806Y-94683218D01*
X155408580Y-94483259D01*
X155408580Y-94279381D01*
X155368806Y-94079422D01*
X155290785Y-93891064D01*
X155177517Y-93721546D01*
X155033354Y-93577383D01*
X154863836Y-93464115D01*
X154675478Y-93386094D01*
X154675328Y-93386064D01*
X154651426Y-93265902D01*
X154573405Y-93077544D01*
X154460137Y-92908026D01*
X154388955Y-92836844D01*
X154545740Y-92680060D01*
X169135929Y-92680060D01*
X169179866Y-92723997D01*
X169349384Y-92837265D01*
X169537742Y-92915286D01*
X169737701Y-92955060D01*
X169941579Y-92955060D01*
X170141538Y-92915286D01*
X170329896Y-92837265D01*
X170499414Y-92723997D01*
X170581991Y-92641420D01*
X172510515Y-92641420D01*
X172539187Y-92932531D01*
X172624101Y-93212454D01*
X172761994Y-93470434D01*
X172947566Y-93696554D01*
X172977387Y-93721027D01*
X172908520Y-93741918D01*
X172798206Y-93800883D01*
X172701515Y-93880235D01*
X172622163Y-93976926D01*
X172563198Y-94087240D01*
X172526888Y-94206938D01*
X172514628Y-94331420D01*
X172514628Y-96031420D01*
X172526888Y-96155902D01*
X172563198Y-96275600D01*
X172622163Y-96385914D01*
X172701515Y-96482605D01*
X172798206Y-96561957D01*
X172908520Y-96620922D01*
X173028218Y-96657232D01*
X173152700Y-96669492D01*
X174852700Y-96669492D01*
X174977182Y-96657232D01*
X175096880Y-96620922D01*
X175207194Y-96561957D01*
X175303885Y-96482605D01*
X175383237Y-96385914D01*
X175442202Y-96275600D01*
X175478512Y-96155902D01*
X175490772Y-96031420D01*
X175490772Y-94331420D01*
X175478512Y-94206938D01*
X175442202Y-94087240D01*
X175383237Y-93976926D01*
X175303885Y-93880235D01*
X175207194Y-93800883D01*
X175096880Y-93741918D01*
X175028013Y-93721027D01*
X175057834Y-93696554D01*
X175243406Y-93470434D01*
X175381299Y-93212454D01*
X175466213Y-92932531D01*
X175494885Y-92641420D01*
X175466213Y-92350309D01*
X175381299Y-92070386D01*
X175243406Y-91812406D01*
X175057834Y-91586286D01*
X174831714Y-91400714D01*
X174767177Y-91366219D01*
X174884055Y-91296598D01*
X175100288Y-91101689D01*
X175274341Y-90868340D01*
X175399525Y-90605519D01*
X175444176Y-90458310D01*
X175322855Y-90228420D01*
X174129700Y-90228420D01*
X174129700Y-90248420D01*
X173875700Y-90248420D01*
X173875700Y-90228420D01*
X172682545Y-90228420D01*
X172561224Y-90458310D01*
X172605875Y-90605519D01*
X172731059Y-90868340D01*
X172905112Y-91101689D01*
X173121345Y-91296598D01*
X173238223Y-91366219D01*
X173173686Y-91400714D01*
X172947566Y-91586286D01*
X172761994Y-91812406D01*
X172624101Y-92070386D01*
X172539187Y-92350309D01*
X172510515Y-92641420D01*
X170581991Y-92641420D01*
X170643577Y-92579834D01*
X170756845Y-92410316D01*
X170834866Y-92221958D01*
X170874640Y-92021999D01*
X170874640Y-91818121D01*
X170834866Y-91618162D01*
X170756845Y-91429804D01*
X170643577Y-91260286D01*
X170499414Y-91116123D01*
X170329896Y-91002855D01*
X170141538Y-90924834D01*
X169941579Y-90885060D01*
X169737701Y-90885060D01*
X169537742Y-90924834D01*
X169349384Y-91002855D01*
X169179866Y-91116123D01*
X169135929Y-91160060D01*
X154268271Y-91160060D01*
X154230938Y-91156383D01*
X154193605Y-91160060D01*
X154081952Y-91171057D01*
X153938691Y-91214514D01*
X153806662Y-91285086D01*
X153690937Y-91380059D01*
X153667139Y-91409057D01*
X150373022Y-94703174D01*
X150394204Y-94633345D01*
X150405201Y-94521692D01*
X150405201Y-94521683D01*
X150408877Y-94484360D01*
X150405201Y-94447037D01*
X150405201Y-93232441D01*
X150408877Y-93195118D01*
X150405201Y-93157795D01*
X150405201Y-93157786D01*
X150394204Y-93046133D01*
X150350747Y-92902872D01*
X150280175Y-92770843D01*
X150250791Y-92735038D01*
X150209000Y-92684115D01*
X150208996Y-92684111D01*
X150185202Y-92655118D01*
X150156209Y-92631324D01*
X145443194Y-87918310D01*
X172561224Y-87918310D01*
X172605875Y-88065519D01*
X172731059Y-88328340D01*
X172905112Y-88561689D01*
X173121345Y-88756598D01*
X173246955Y-88831420D01*
X173121345Y-88906242D01*
X172905112Y-89101151D01*
X172731059Y-89334500D01*
X172605875Y-89597321D01*
X172561224Y-89744530D01*
X172682545Y-89974420D01*
X173875700Y-89974420D01*
X173875700Y-87688420D01*
X174129700Y-87688420D01*
X174129700Y-89974420D01*
X175322855Y-89974420D01*
X175444176Y-89744530D01*
X175399525Y-89597321D01*
X175274341Y-89334500D01*
X175100288Y-89101151D01*
X174884055Y-88906242D01*
X174758445Y-88831420D01*
X174884055Y-88756598D01*
X175100288Y-88561689D01*
X175274341Y-88328340D01*
X175399525Y-88065519D01*
X175444176Y-87918310D01*
X175322855Y-87688420D01*
X174129700Y-87688420D01*
X173875700Y-87688420D01*
X172682545Y-87688420D01*
X172561224Y-87918310D01*
X145443194Y-87918310D01*
X144729414Y-87204530D01*
X172561224Y-87204530D01*
X172682545Y-87434420D01*
X173875700Y-87434420D01*
X173875700Y-86240606D01*
X174129700Y-86240606D01*
X174129700Y-87434420D01*
X175322855Y-87434420D01*
X175444176Y-87204530D01*
X175399525Y-87057321D01*
X175274341Y-86794500D01*
X175100288Y-86561151D01*
X174884055Y-86366242D01*
X174633952Y-86217263D01*
X174359591Y-86119939D01*
X174129700Y-86240606D01*
X173875700Y-86240606D01*
X173645809Y-86119939D01*
X173371448Y-86217263D01*
X173121345Y-86366242D01*
X172905112Y-86561151D01*
X172731059Y-86794500D01*
X172605875Y-87057321D01*
X172561224Y-87204530D01*
X144729414Y-87204530D01*
X144006346Y-86481463D01*
X143982543Y-86452459D01*
X143866818Y-86357486D01*
X143734789Y-86286914D01*
X143591528Y-86243457D01*
X143479875Y-86232460D01*
X143479864Y-86232460D01*
X143442542Y-86228784D01*
X143405220Y-86232460D01*
X118272049Y-86232460D01*
X120494478Y-84010031D01*
X120639876Y-83949805D01*
X120809394Y-83836537D01*
X120953557Y-83692374D01*
X121066825Y-83522856D01*
X121144846Y-83334498D01*
X121184620Y-83134539D01*
X121184620Y-82930661D01*
X121144846Y-82730702D01*
X121066825Y-82542344D01*
X120953557Y-82372826D01*
X120809394Y-82228663D01*
X120639876Y-82115395D01*
X120451518Y-82037374D01*
X120251559Y-81997600D01*
X120047681Y-81997600D01*
X119847722Y-82037374D01*
X119659364Y-82115395D01*
X119489846Y-82228663D01*
X119345683Y-82372826D01*
X119232415Y-82542344D01*
X119172189Y-82687742D01*
X116739731Y-85120200D01*
X103528115Y-85120200D01*
X103382718Y-85059974D01*
X103182759Y-85020200D01*
X102978881Y-85020200D01*
X102778922Y-85059974D01*
X102590564Y-85137995D01*
X102421046Y-85251263D01*
X102276883Y-85395426D01*
X102163615Y-85564944D01*
X102085594Y-85753302D01*
X102045820Y-85953261D01*
X102045820Y-86157139D01*
X102060802Y-86232460D01*
X98214311Y-86232460D01*
X98170374Y-86188523D01*
X98000856Y-86075255D01*
X97812498Y-85997234D01*
X97612539Y-85957460D01*
X97408661Y-85957460D01*
X97208702Y-85997234D01*
X97020344Y-86075255D01*
X96850826Y-86188523D01*
X96706663Y-86332686D01*
X96593395Y-86502204D01*
X96515374Y-86690562D01*
X96475600Y-86890521D01*
X96475600Y-87094399D01*
X96515374Y-87294358D01*
X96593395Y-87482716D01*
X96706663Y-87652234D01*
X96732689Y-87678260D01*
X96683803Y-87727146D01*
X96570535Y-87896664D01*
X96492514Y-88085022D01*
X96452740Y-88284981D01*
X81940000Y-88284981D01*
X81940000Y-83235550D01*
X82235772Y-83678204D01*
X82641796Y-84084228D01*
X83119230Y-84403239D01*
X83649726Y-84622978D01*
X84212898Y-84735000D01*
X84787102Y-84735000D01*
X85350274Y-84622978D01*
X85880770Y-84403239D01*
X86358204Y-84084228D01*
X86764228Y-83678204D01*
X87083239Y-83200770D01*
X87302978Y-82670274D01*
X87415000Y-82107102D01*
X87415000Y-81532898D01*
X87302978Y-80969726D01*
X87083239Y-80439230D01*
X86764228Y-79961796D01*
X86358204Y-79555772D01*
X86125075Y-79400000D01*
X112934267Y-79400000D01*
X112831623Y-79420417D01*
G36*
X124242880Y-87819399D02*
G01*
X124282654Y-88019358D01*
X124360675Y-88207716D01*
X124473943Y-88377234D01*
X124618106Y-88521397D01*
X124787624Y-88634665D01*
X124975982Y-88712686D01*
X125175941Y-88752460D01*
X125253654Y-88752460D01*
X125385632Y-88823005D01*
X125528893Y-88866462D01*
X125640546Y-88877459D01*
X125640556Y-88877459D01*
X125677878Y-88881135D01*
X125715201Y-88877459D01*
X143156878Y-88877459D01*
X146752360Y-92472942D01*
X146752360Y-92535079D01*
X146792134Y-92735038D01*
X146870155Y-92923396D01*
X146983423Y-93092914D01*
X147127586Y-93237077D01*
X147297104Y-93350345D01*
X147421119Y-93401714D01*
X146971533Y-93851301D01*
X100669043Y-93851301D01*
X98278220Y-91460479D01*
X98278220Y-89060151D01*
X98291677Y-89046694D01*
X98404945Y-88877176D01*
X98482966Y-88688818D01*
X98522740Y-88488859D01*
X98522740Y-88284981D01*
X98482966Y-88085022D01*
X98404945Y-87896664D01*
X98308591Y-87752460D01*
X124242880Y-87752460D01*
X124242880Y-87819399D01*
X124242880Y-87819399D01*
G37*
X124242880Y-87819399D02*
X124282654Y-88019358D01*
X124360675Y-88207716D01*
X124473943Y-88377234D01*
X124618106Y-88521397D01*
X124787624Y-88634665D01*
X124975982Y-88712686D01*
X125175941Y-88752460D01*
X125253654Y-88752460D01*
X125385632Y-88823005D01*
X125528893Y-88866462D01*
X125640546Y-88877459D01*
X125640556Y-88877459D01*
X125677878Y-88881135D01*
X125715201Y-88877459D01*
X143156878Y-88877459D01*
X146752360Y-92472942D01*
X146752360Y-92535079D01*
X146792134Y-92735038D01*
X146870155Y-92923396D01*
X146983423Y-93092914D01*
X147127586Y-93237077D01*
X147297104Y-93350345D01*
X147421119Y-93401714D01*
X146971533Y-93851301D01*
X100669043Y-93851301D01*
X98278220Y-91460479D01*
X98278220Y-89060151D01*
X98291677Y-89046694D01*
X98404945Y-88877176D01*
X98482966Y-88688818D01*
X98522740Y-88488859D01*
X98522740Y-88284981D01*
X98482966Y-88085022D01*
X98404945Y-87896664D01*
X98308591Y-87752460D01*
X124242880Y-87752460D01*
X124242880Y-87819399D01*
M02*
