G04 #@! TF.GenerationSoftware,KiCad,Pcbnew,(5.1.4)-1*
G04 #@! TF.CreationDate,2019-12-25T11:40:05+08:00*
G04 #@! TF.ProjectId,matrix_control_main,6d617472-6978-45f6-936f-6e74726f6c5f,rev?*
G04 #@! TF.SameCoordinates,Original*
G04 #@! TF.FileFunction,Soldermask,Bot*
G04 #@! TF.FilePolarity,Negative*
%FSLAX46Y46*%
G04 Gerber Fmt 4.6, Leading zero omitted, Abs format (unit mm)*
G04 Created by KiCad (PCBNEW (5.1.4)-1) date 2019-12-25 11:40:05*
%MOMM*%
%LPD*%
G04 APERTURE LIST*
%ADD10C,0.100000*%
G04 APERTURE END LIST*
D10*
G36*
X175279927Y-119078578D02*
G01*
X175455643Y-119151362D01*
X175704143Y-119254294D01*
X176085926Y-119509394D01*
X176410606Y-119834074D01*
X176665706Y-120215857D01*
X176768638Y-120464357D01*
X176841422Y-120640073D01*
X176931000Y-121090415D01*
X176931000Y-121549585D01*
X176841422Y-121999927D01*
X176768638Y-122175643D01*
X176665706Y-122424143D01*
X176410606Y-122805926D01*
X176085926Y-123130606D01*
X175704143Y-123385706D01*
X175455643Y-123488638D01*
X175279927Y-123561422D01*
X174829585Y-123651000D01*
X174370415Y-123651000D01*
X173920073Y-123561422D01*
X173744357Y-123488638D01*
X173495857Y-123385706D01*
X173114074Y-123130606D01*
X172789394Y-122805926D01*
X172534294Y-122424143D01*
X172431362Y-122175643D01*
X172358578Y-121999927D01*
X172269000Y-121549585D01*
X172269000Y-121090415D01*
X172358578Y-120640073D01*
X172431362Y-120464357D01*
X172534294Y-120215857D01*
X172789394Y-119834074D01*
X173114074Y-119509394D01*
X173495857Y-119254294D01*
X173744357Y-119151362D01*
X173920073Y-119078578D01*
X174370415Y-118989000D01*
X174829585Y-118989000D01*
X175279927Y-119078578D01*
X175279927Y-119078578D01*
G37*
G36*
X85179927Y-119078578D02*
G01*
X85355643Y-119151362D01*
X85604143Y-119254294D01*
X85985926Y-119509394D01*
X86310606Y-119834074D01*
X86565706Y-120215857D01*
X86668638Y-120464357D01*
X86741422Y-120640073D01*
X86831000Y-121090415D01*
X86831000Y-121549585D01*
X86741422Y-121999927D01*
X86668638Y-122175643D01*
X86565706Y-122424143D01*
X86310606Y-122805926D01*
X85985926Y-123130606D01*
X85604143Y-123385706D01*
X85355643Y-123488638D01*
X85179927Y-123561422D01*
X84729585Y-123651000D01*
X84270415Y-123651000D01*
X83820073Y-123561422D01*
X83644357Y-123488638D01*
X83395857Y-123385706D01*
X83014074Y-123130606D01*
X82689394Y-122805926D01*
X82434294Y-122424143D01*
X82331362Y-122175643D01*
X82258578Y-121999927D01*
X82169000Y-121549585D01*
X82169000Y-121090415D01*
X82258578Y-120640073D01*
X82331362Y-120464357D01*
X82434294Y-120215857D01*
X82689394Y-119834074D01*
X83014074Y-119509394D01*
X83395857Y-119254294D01*
X83644357Y-119151362D01*
X83820073Y-119078578D01*
X84270415Y-118989000D01*
X84729585Y-118989000D01*
X85179927Y-119078578D01*
X85179927Y-119078578D01*
G37*
G36*
X160027827Y-114447367D02*
G01*
X160027830Y-114447368D01*
X160027829Y-114447368D01*
X160205449Y-114520940D01*
X160205450Y-114520941D01*
X160365301Y-114627749D01*
X160501251Y-114763699D01*
X160590298Y-114896969D01*
X160608060Y-114923551D01*
X160664965Y-115060933D01*
X160681633Y-115101173D01*
X160719140Y-115289731D01*
X160719140Y-115481989D01*
X160681633Y-115670547D01*
X160681632Y-115670549D01*
X160608060Y-115848169D01*
X160608059Y-115848170D01*
X160501251Y-116008021D01*
X160365301Y-116143971D01*
X160232031Y-116233018D01*
X160205449Y-116250780D01*
X160068067Y-116307685D01*
X160027827Y-116324353D01*
X159839269Y-116361860D01*
X159647011Y-116361860D01*
X159458453Y-116324353D01*
X159418213Y-116307685D01*
X159280831Y-116250780D01*
X159254249Y-116233018D01*
X159120979Y-116143971D01*
X158985029Y-116008021D01*
X158878221Y-115848170D01*
X158878220Y-115848169D01*
X158804648Y-115670549D01*
X158804647Y-115670547D01*
X158767140Y-115481989D01*
X158767140Y-115289731D01*
X158804647Y-115101173D01*
X158821315Y-115060933D01*
X158878220Y-114923551D01*
X158895982Y-114896969D01*
X158985029Y-114763699D01*
X159120979Y-114627749D01*
X159280830Y-114520941D01*
X159280831Y-114520940D01*
X159458451Y-114447368D01*
X159458450Y-114447368D01*
X159458453Y-114447367D01*
X159647011Y-114409860D01*
X159839269Y-114409860D01*
X160027827Y-114447367D01*
X160027827Y-114447367D01*
G37*
G36*
X88599434Y-112978686D02*
G01*
X88639284Y-112990774D01*
X88675999Y-113010399D01*
X88708186Y-113036814D01*
X88734601Y-113069001D01*
X88754226Y-113105716D01*
X88766314Y-113145566D01*
X88771000Y-113193141D01*
X88771000Y-113856859D01*
X88766314Y-113904434D01*
X88754226Y-113944284D01*
X88734601Y-113980999D01*
X88708186Y-114013186D01*
X88675999Y-114039601D01*
X88639284Y-114059226D01*
X88599434Y-114071314D01*
X88551859Y-114076000D01*
X86688141Y-114076000D01*
X86640566Y-114071314D01*
X86600716Y-114059226D01*
X86564001Y-114039601D01*
X86531814Y-114013186D01*
X86505399Y-113980999D01*
X86485774Y-113944284D01*
X86473686Y-113904434D01*
X86469000Y-113856859D01*
X86469000Y-113193141D01*
X86473686Y-113145566D01*
X86485774Y-113105716D01*
X86505399Y-113069001D01*
X86531814Y-113036814D01*
X86564001Y-113010399D01*
X86600716Y-112990774D01*
X86640566Y-112978686D01*
X86688141Y-112974000D01*
X88551859Y-112974000D01*
X88599434Y-112978686D01*
X88599434Y-112978686D01*
G37*
G36*
X83999434Y-112978686D02*
G01*
X84039284Y-112990774D01*
X84075999Y-113010399D01*
X84108186Y-113036814D01*
X84134601Y-113069001D01*
X84154226Y-113105716D01*
X84166314Y-113145566D01*
X84171000Y-113193141D01*
X84171000Y-113856859D01*
X84166314Y-113904434D01*
X84154226Y-113944284D01*
X84134601Y-113980999D01*
X84108186Y-114013186D01*
X84075999Y-114039601D01*
X84039284Y-114059226D01*
X83999434Y-114071314D01*
X83951859Y-114076000D01*
X82088141Y-114076000D01*
X82040566Y-114071314D01*
X82000716Y-114059226D01*
X81964001Y-114039601D01*
X81931814Y-114013186D01*
X81905399Y-113980999D01*
X81885774Y-113944284D01*
X81873686Y-113904434D01*
X81869000Y-113856859D01*
X81869000Y-113193141D01*
X81873686Y-113145566D01*
X81885774Y-113105716D01*
X81905399Y-113069001D01*
X81931814Y-113036814D01*
X81964001Y-113010399D01*
X82000716Y-112990774D01*
X82040566Y-112978686D01*
X82088141Y-112974000D01*
X83951859Y-112974000D01*
X83999434Y-112978686D01*
X83999434Y-112978686D01*
G37*
G36*
X174061213Y-111417502D02*
G01*
X174132321Y-111424505D01*
X174269172Y-111466019D01*
X174269175Y-111466020D01*
X174395294Y-111533432D01*
X174505843Y-111624157D01*
X174596568Y-111734706D01*
X174663980Y-111860825D01*
X174663981Y-111860828D01*
X174705495Y-111997679D01*
X174719512Y-112140000D01*
X174705495Y-112282321D01*
X174663981Y-112419172D01*
X174663980Y-112419175D01*
X174596568Y-112545294D01*
X174505843Y-112655843D01*
X174395294Y-112746568D01*
X174269175Y-112813980D01*
X174269172Y-112813981D01*
X174132321Y-112855495D01*
X174061213Y-112862498D01*
X174025660Y-112866000D01*
X173954340Y-112866000D01*
X173918787Y-112862498D01*
X173847679Y-112855495D01*
X173710828Y-112813981D01*
X173710825Y-112813980D01*
X173584706Y-112746568D01*
X173474157Y-112655843D01*
X173383432Y-112545294D01*
X173316020Y-112419175D01*
X173316019Y-112419172D01*
X173274505Y-112282321D01*
X173260488Y-112140000D01*
X173274505Y-111997679D01*
X173316019Y-111860828D01*
X173316020Y-111860825D01*
X173383432Y-111734706D01*
X173474157Y-111624157D01*
X173584706Y-111533432D01*
X173710825Y-111466020D01*
X173710828Y-111466019D01*
X173847679Y-111424505D01*
X173918787Y-111417502D01*
X173954340Y-111414000D01*
X174025660Y-111414000D01*
X174061213Y-111417502D01*
X174061213Y-111417502D01*
G37*
G36*
X87803617Y-111351011D02*
G01*
X87869318Y-111378226D01*
X87928444Y-111417733D01*
X87978727Y-111468016D01*
X88018234Y-111527142D01*
X88045449Y-111592843D01*
X88059320Y-111662582D01*
X88059320Y-111733698D01*
X88045449Y-111803437D01*
X88018234Y-111869138D01*
X87978727Y-111928264D01*
X87928444Y-111978547D01*
X87869318Y-112018054D01*
X87803617Y-112045269D01*
X87733878Y-112059140D01*
X87662762Y-112059140D01*
X87593023Y-112045269D01*
X87527322Y-112018054D01*
X87468196Y-111978547D01*
X87417913Y-111928264D01*
X87378406Y-111869138D01*
X87351191Y-111803437D01*
X87337320Y-111733698D01*
X87337320Y-111662582D01*
X87351191Y-111592843D01*
X87378406Y-111527142D01*
X87417913Y-111468016D01*
X87468196Y-111417733D01*
X87527322Y-111378226D01*
X87593023Y-111351011D01*
X87662762Y-111337140D01*
X87733878Y-111337140D01*
X87803617Y-111351011D01*
X87803617Y-111351011D01*
G37*
G36*
X160719140Y-111361860D02*
G01*
X158767140Y-111361860D01*
X158767140Y-109409860D01*
X160719140Y-109409860D01*
X160719140Y-111361860D01*
X160719140Y-111361860D01*
G37*
G36*
X174061213Y-109417502D02*
G01*
X174132321Y-109424505D01*
X174269172Y-109466019D01*
X174269175Y-109466020D01*
X174395294Y-109533432D01*
X174505843Y-109624157D01*
X174596568Y-109734706D01*
X174663980Y-109860825D01*
X174663981Y-109860828D01*
X174705495Y-109997679D01*
X174719512Y-110140000D01*
X174705495Y-110282321D01*
X174663981Y-110419172D01*
X174663980Y-110419175D01*
X174596568Y-110545294D01*
X174505843Y-110655843D01*
X174395294Y-110746568D01*
X174269175Y-110813980D01*
X174269172Y-110813981D01*
X174132321Y-110855495D01*
X174061213Y-110862498D01*
X174025660Y-110866000D01*
X173954340Y-110866000D01*
X173918787Y-110862498D01*
X173847679Y-110855495D01*
X173710828Y-110813981D01*
X173710825Y-110813980D01*
X173584706Y-110746568D01*
X173474157Y-110655843D01*
X173383432Y-110545294D01*
X173316020Y-110419175D01*
X173316019Y-110419172D01*
X173274505Y-110282321D01*
X173260488Y-110140000D01*
X173274505Y-109997679D01*
X173316019Y-109860828D01*
X173316020Y-109860825D01*
X173383432Y-109734706D01*
X173474157Y-109624157D01*
X173584706Y-109533432D01*
X173710825Y-109466020D01*
X173710828Y-109466019D01*
X173847679Y-109424505D01*
X173918787Y-109417502D01*
X173954340Y-109414000D01*
X174025660Y-109414000D01*
X174061213Y-109417502D01*
X174061213Y-109417502D01*
G37*
G36*
X174061213Y-107417502D02*
G01*
X174132321Y-107424505D01*
X174269172Y-107466019D01*
X174269175Y-107466020D01*
X174395294Y-107533432D01*
X174505843Y-107624157D01*
X174596568Y-107734706D01*
X174663980Y-107860825D01*
X174663981Y-107860828D01*
X174705495Y-107997679D01*
X174719512Y-108140000D01*
X174705495Y-108282321D01*
X174663981Y-108419172D01*
X174663980Y-108419175D01*
X174596568Y-108545294D01*
X174505843Y-108655843D01*
X174395294Y-108746568D01*
X174269175Y-108813980D01*
X174269172Y-108813981D01*
X174132321Y-108855495D01*
X174061213Y-108862498D01*
X174025660Y-108866000D01*
X173954340Y-108866000D01*
X173918787Y-108862498D01*
X173847679Y-108855495D01*
X173710828Y-108813981D01*
X173710825Y-108813980D01*
X173584706Y-108746568D01*
X173474157Y-108655843D01*
X173383432Y-108545294D01*
X173316020Y-108419175D01*
X173316019Y-108419172D01*
X173274505Y-108282321D01*
X173260488Y-108140000D01*
X173274505Y-107997679D01*
X173316019Y-107860828D01*
X173316020Y-107860825D01*
X173383432Y-107734706D01*
X173474157Y-107624157D01*
X173584706Y-107533432D01*
X173710825Y-107466020D01*
X173710828Y-107466019D01*
X173847679Y-107424505D01*
X173918787Y-107417502D01*
X173954340Y-107414000D01*
X174025660Y-107414000D01*
X174061213Y-107417502D01*
X174061213Y-107417502D01*
G37*
G36*
X174061213Y-105417502D02*
G01*
X174132321Y-105424505D01*
X174269172Y-105466019D01*
X174269175Y-105466020D01*
X174395294Y-105533432D01*
X174505843Y-105624157D01*
X174596568Y-105734706D01*
X174663980Y-105860825D01*
X174663981Y-105860828D01*
X174705495Y-105997679D01*
X174719512Y-106140000D01*
X174705495Y-106282321D01*
X174663981Y-106419172D01*
X174663980Y-106419175D01*
X174596568Y-106545294D01*
X174505843Y-106655843D01*
X174395294Y-106746568D01*
X174269175Y-106813980D01*
X174269172Y-106813981D01*
X174132321Y-106855495D01*
X174061213Y-106862498D01*
X174025660Y-106866000D01*
X173954340Y-106866000D01*
X173918787Y-106862498D01*
X173847679Y-106855495D01*
X173710828Y-106813981D01*
X173710825Y-106813980D01*
X173584706Y-106746568D01*
X173474157Y-106655843D01*
X173383432Y-106545294D01*
X173316020Y-106419175D01*
X173316019Y-106419172D01*
X173274505Y-106282321D01*
X173260488Y-106140000D01*
X173274505Y-105997679D01*
X173316019Y-105860828D01*
X173316020Y-105860825D01*
X173383432Y-105734706D01*
X173474157Y-105624157D01*
X173584706Y-105533432D01*
X173710825Y-105466020D01*
X173710828Y-105466019D01*
X173847679Y-105424505D01*
X173918787Y-105417502D01*
X173954340Y-105414000D01*
X174025660Y-105414000D01*
X174061213Y-105417502D01*
X174061213Y-105417502D01*
G37*
G36*
X174716000Y-104866000D02*
G01*
X173264000Y-104866000D01*
X173264000Y-103414000D01*
X174716000Y-103414000D01*
X174716000Y-104866000D01*
X174716000Y-104866000D01*
G37*
G36*
X87803617Y-103841011D02*
G01*
X87869318Y-103868226D01*
X87928444Y-103907733D01*
X87978727Y-103958016D01*
X88018234Y-104017142D01*
X88045449Y-104082843D01*
X88059320Y-104152582D01*
X88059320Y-104223698D01*
X88045449Y-104293437D01*
X88018234Y-104359138D01*
X87978727Y-104418264D01*
X87928444Y-104468547D01*
X87869318Y-104508054D01*
X87803617Y-104535269D01*
X87733878Y-104549140D01*
X87662762Y-104549140D01*
X87593023Y-104535269D01*
X87527322Y-104508054D01*
X87468196Y-104468547D01*
X87417913Y-104418264D01*
X87378406Y-104359138D01*
X87351191Y-104293437D01*
X87337320Y-104223698D01*
X87337320Y-104152582D01*
X87351191Y-104082843D01*
X87378406Y-104017142D01*
X87417913Y-103958016D01*
X87468196Y-103907733D01*
X87527322Y-103868226D01*
X87593023Y-103841011D01*
X87662762Y-103827140D01*
X87733878Y-103827140D01*
X87803617Y-103841011D01*
X87803617Y-103841011D01*
G37*
G36*
X88599434Y-101828686D02*
G01*
X88639284Y-101840774D01*
X88675999Y-101860399D01*
X88708186Y-101886814D01*
X88734601Y-101919001D01*
X88754226Y-101955716D01*
X88766314Y-101995566D01*
X88771000Y-102043141D01*
X88771000Y-102706859D01*
X88766314Y-102754434D01*
X88754226Y-102794284D01*
X88734601Y-102830999D01*
X88708186Y-102863186D01*
X88675999Y-102889601D01*
X88639284Y-102909226D01*
X88599434Y-102921314D01*
X88551859Y-102926000D01*
X86688141Y-102926000D01*
X86640566Y-102921314D01*
X86600716Y-102909226D01*
X86564001Y-102889601D01*
X86531814Y-102863186D01*
X86505399Y-102830999D01*
X86485774Y-102794284D01*
X86473686Y-102754434D01*
X86469000Y-102706859D01*
X86469000Y-102043141D01*
X86473686Y-101995566D01*
X86485774Y-101955716D01*
X86505399Y-101919001D01*
X86531814Y-101886814D01*
X86564001Y-101860399D01*
X86600716Y-101840774D01*
X86640566Y-101828686D01*
X86688141Y-101824000D01*
X88551859Y-101824000D01*
X88599434Y-101828686D01*
X88599434Y-101828686D01*
G37*
G36*
X83999434Y-101828686D02*
G01*
X84039284Y-101840774D01*
X84075999Y-101860399D01*
X84108186Y-101886814D01*
X84134601Y-101919001D01*
X84154226Y-101955716D01*
X84166314Y-101995566D01*
X84171000Y-102043141D01*
X84171000Y-102706859D01*
X84166314Y-102754434D01*
X84154226Y-102794284D01*
X84134601Y-102830999D01*
X84108186Y-102863186D01*
X84075999Y-102889601D01*
X84039284Y-102909226D01*
X83999434Y-102921314D01*
X83951859Y-102926000D01*
X82088141Y-102926000D01*
X82040566Y-102921314D01*
X82000716Y-102909226D01*
X81964001Y-102889601D01*
X81931814Y-102863186D01*
X81905399Y-102830999D01*
X81885774Y-102794284D01*
X81873686Y-102754434D01*
X81869000Y-102706859D01*
X81869000Y-102043141D01*
X81873686Y-101995566D01*
X81885774Y-101955716D01*
X81905399Y-101919001D01*
X81931814Y-101886814D01*
X81964001Y-101860399D01*
X82000716Y-101840774D01*
X82040566Y-101828686D01*
X82088141Y-101824000D01*
X83951859Y-101824000D01*
X83999434Y-101828686D01*
X83999434Y-101828686D01*
G37*
G36*
X106877779Y-97740960D02*
G01*
X107014452Y-97797572D01*
X107137455Y-97879760D01*
X107242060Y-97984365D01*
X107324248Y-98107368D01*
X107380860Y-98244041D01*
X107409720Y-98389133D01*
X107409720Y-98537067D01*
X107380860Y-98682159D01*
X107324248Y-98818832D01*
X107242060Y-98941835D01*
X107137455Y-99046440D01*
X107014452Y-99128628D01*
X107014451Y-99128629D01*
X107014450Y-99128629D01*
X106877779Y-99185240D01*
X106732688Y-99214100D01*
X106584752Y-99214100D01*
X106439661Y-99185240D01*
X106302990Y-99128629D01*
X106302989Y-99128629D01*
X106302988Y-99128628D01*
X106179985Y-99046440D01*
X106075380Y-98941835D01*
X105993192Y-98818832D01*
X105936580Y-98682159D01*
X105907720Y-98537067D01*
X105907720Y-98389133D01*
X105936580Y-98244041D01*
X105993192Y-98107368D01*
X106075380Y-97984365D01*
X106179985Y-97879760D01*
X106302988Y-97797572D01*
X106439661Y-97740960D01*
X106584752Y-97712100D01*
X106732688Y-97712100D01*
X106877779Y-97740960D01*
X106877779Y-97740960D01*
G37*
G36*
X114295321Y-97877497D02*
G01*
X114334025Y-97885196D01*
X114366060Y-97898465D01*
X114443400Y-97930500D01*
X114541835Y-97996273D01*
X114625547Y-98079985D01*
X114691320Y-98178420D01*
X114736624Y-98287796D01*
X114759720Y-98403905D01*
X114759720Y-98522295D01*
X114736624Y-98638404D01*
X114691320Y-98747780D01*
X114625547Y-98846215D01*
X114541835Y-98929927D01*
X114443400Y-98995700D01*
X114366060Y-99027735D01*
X114334025Y-99041004D01*
X114306696Y-99046440D01*
X114217915Y-99064100D01*
X114099525Y-99064100D01*
X114010744Y-99046440D01*
X113983415Y-99041004D01*
X113951380Y-99027735D01*
X113874040Y-98995700D01*
X113775605Y-98929927D01*
X113691893Y-98846215D01*
X113626120Y-98747780D01*
X113580816Y-98638404D01*
X113557720Y-98522295D01*
X113557720Y-98403905D01*
X113580816Y-98287796D01*
X113626120Y-98178420D01*
X113691893Y-98079985D01*
X113775605Y-97996273D01*
X113874040Y-97930500D01*
X113951380Y-97898465D01*
X113983415Y-97885196D01*
X114022119Y-97877497D01*
X114099525Y-97862100D01*
X114217915Y-97862100D01*
X114295321Y-97877497D01*
X114295321Y-97877497D01*
G37*
G36*
X174903700Y-96082420D02*
G01*
X173101700Y-96082420D01*
X173101700Y-94280420D01*
X174903700Y-94280420D01*
X174903700Y-96082420D01*
X174903700Y-96082420D01*
G37*
G36*
X174113142Y-91746938D02*
G01*
X174179327Y-91753457D01*
X174349166Y-91804977D01*
X174505691Y-91888642D01*
X174541429Y-91917972D01*
X174642886Y-92001234D01*
X174726148Y-92102691D01*
X174755478Y-92138429D01*
X174839143Y-92294954D01*
X174890663Y-92464793D01*
X174908059Y-92641420D01*
X174890663Y-92818047D01*
X174839143Y-92987886D01*
X174755478Y-93144411D01*
X174726148Y-93180149D01*
X174642886Y-93281606D01*
X174541429Y-93364868D01*
X174505691Y-93394198D01*
X174349166Y-93477863D01*
X174179327Y-93529383D01*
X174113143Y-93535901D01*
X174046960Y-93542420D01*
X173958440Y-93542420D01*
X173892257Y-93535901D01*
X173826073Y-93529383D01*
X173656234Y-93477863D01*
X173499709Y-93394198D01*
X173463971Y-93364868D01*
X173362514Y-93281606D01*
X173279252Y-93180149D01*
X173249922Y-93144411D01*
X173166257Y-92987886D01*
X173114737Y-92818047D01*
X173097341Y-92641420D01*
X173114737Y-92464793D01*
X173166257Y-92294954D01*
X173249922Y-92138429D01*
X173279252Y-92102691D01*
X173362514Y-92001234D01*
X173463971Y-91917972D01*
X173499709Y-91888642D01*
X173656234Y-91804977D01*
X173826073Y-91753457D01*
X173892257Y-91746939D01*
X173958440Y-91740420D01*
X174046960Y-91740420D01*
X174113142Y-91746938D01*
X174113142Y-91746938D01*
G37*
G36*
X174113143Y-89206939D02*
G01*
X174179327Y-89213457D01*
X174349166Y-89264977D01*
X174505691Y-89348642D01*
X174541429Y-89377972D01*
X174642886Y-89461234D01*
X174726148Y-89562691D01*
X174755478Y-89598429D01*
X174839143Y-89754954D01*
X174890663Y-89924793D01*
X174908059Y-90101420D01*
X174890663Y-90278047D01*
X174839143Y-90447886D01*
X174755478Y-90604411D01*
X174726148Y-90640149D01*
X174642886Y-90741606D01*
X174541429Y-90824868D01*
X174505691Y-90854198D01*
X174349166Y-90937863D01*
X174179327Y-90989383D01*
X174113143Y-90995901D01*
X174046960Y-91002420D01*
X173958440Y-91002420D01*
X173892257Y-90995901D01*
X173826073Y-90989383D01*
X173656234Y-90937863D01*
X173499709Y-90854198D01*
X173463971Y-90824868D01*
X173362514Y-90741606D01*
X173279252Y-90640149D01*
X173249922Y-90604411D01*
X173166257Y-90447886D01*
X173114737Y-90278047D01*
X173097341Y-90101420D01*
X173114737Y-89924793D01*
X173166257Y-89754954D01*
X173249922Y-89598429D01*
X173279252Y-89562691D01*
X173362514Y-89461234D01*
X173463971Y-89377972D01*
X173499709Y-89348642D01*
X173656234Y-89264977D01*
X173826073Y-89213457D01*
X173892258Y-89206938D01*
X173958440Y-89200420D01*
X174046960Y-89200420D01*
X174113143Y-89206939D01*
X174113143Y-89206939D01*
G37*
G36*
X174113142Y-86666938D02*
G01*
X174179327Y-86673457D01*
X174349166Y-86724977D01*
X174505691Y-86808642D01*
X174541429Y-86837972D01*
X174642886Y-86921234D01*
X174726148Y-87022691D01*
X174755478Y-87058429D01*
X174839143Y-87214954D01*
X174890663Y-87384793D01*
X174908059Y-87561420D01*
X174890663Y-87738047D01*
X174839143Y-87907886D01*
X174755478Y-88064411D01*
X174726148Y-88100149D01*
X174642886Y-88201606D01*
X174541429Y-88284868D01*
X174505691Y-88314198D01*
X174349166Y-88397863D01*
X174179327Y-88449383D01*
X174113142Y-88455902D01*
X174046960Y-88462420D01*
X173958440Y-88462420D01*
X173892258Y-88455902D01*
X173826073Y-88449383D01*
X173656234Y-88397863D01*
X173499709Y-88314198D01*
X173463971Y-88284868D01*
X173362514Y-88201606D01*
X173279252Y-88100149D01*
X173249922Y-88064411D01*
X173166257Y-87907886D01*
X173114737Y-87738047D01*
X173097341Y-87561420D01*
X173114737Y-87384793D01*
X173166257Y-87214954D01*
X173249922Y-87058429D01*
X173279252Y-87022691D01*
X173362514Y-86921234D01*
X173463971Y-86837972D01*
X173499709Y-86808642D01*
X173656234Y-86724977D01*
X173826073Y-86673457D01*
X173892258Y-86666938D01*
X173958440Y-86660420D01*
X174046960Y-86660420D01*
X174113142Y-86666938D01*
X174113142Y-86666938D01*
G37*
G36*
X85179927Y-79578578D02*
G01*
X85355643Y-79651362D01*
X85604143Y-79754294D01*
X85985926Y-80009394D01*
X86310606Y-80334074D01*
X86565706Y-80715857D01*
X86658462Y-80939790D01*
X86741422Y-81140073D01*
X86831000Y-81590415D01*
X86831000Y-82049585D01*
X86741422Y-82499927D01*
X86668638Y-82675643D01*
X86565706Y-82924143D01*
X86310606Y-83305926D01*
X85985926Y-83630606D01*
X85604143Y-83885706D01*
X85355643Y-83988638D01*
X85179927Y-84061422D01*
X84729585Y-84151000D01*
X84270415Y-84151000D01*
X83820073Y-84061422D01*
X83644357Y-83988638D01*
X83395857Y-83885706D01*
X83014074Y-83630606D01*
X82689394Y-83305926D01*
X82434294Y-82924143D01*
X82331362Y-82675643D01*
X82258578Y-82499927D01*
X82169000Y-82049585D01*
X82169000Y-81590415D01*
X82258578Y-81140073D01*
X82341538Y-80939790D01*
X82434294Y-80715857D01*
X82689394Y-80334074D01*
X83014074Y-80009394D01*
X83395857Y-79754294D01*
X83644357Y-79651362D01*
X83820073Y-79578578D01*
X84270415Y-79489000D01*
X84729585Y-79489000D01*
X85179927Y-79578578D01*
X85179927Y-79578578D01*
G37*
G36*
X175279927Y-79578578D02*
G01*
X175455643Y-79651362D01*
X175704143Y-79754294D01*
X176085926Y-80009394D01*
X176410606Y-80334074D01*
X176665706Y-80715857D01*
X176758462Y-80939790D01*
X176841422Y-81140073D01*
X176931000Y-81590415D01*
X176931000Y-82049585D01*
X176841422Y-82499927D01*
X176768638Y-82675643D01*
X176665706Y-82924143D01*
X176410606Y-83305926D01*
X176085926Y-83630606D01*
X175704143Y-83885706D01*
X175455643Y-83988638D01*
X175279927Y-84061422D01*
X174829585Y-84151000D01*
X174370415Y-84151000D01*
X173920073Y-84061422D01*
X173744357Y-83988638D01*
X173495857Y-83885706D01*
X173114074Y-83630606D01*
X172789394Y-83305926D01*
X172534294Y-82924143D01*
X172431362Y-82675643D01*
X172358578Y-82499927D01*
X172269000Y-82049585D01*
X172269000Y-81590415D01*
X172358578Y-81140073D01*
X172441538Y-80939790D01*
X172534294Y-80715857D01*
X172789394Y-80334074D01*
X173114074Y-80009394D01*
X173495857Y-79754294D01*
X173744357Y-79651362D01*
X173920073Y-79578578D01*
X174370415Y-79489000D01*
X174829585Y-79489000D01*
X175279927Y-79578578D01*
X175279927Y-79578578D01*
G37*
G36*
X163883431Y-79981974D02*
G01*
X163983705Y-80023509D01*
X163983706Y-80023510D01*
X164073952Y-80083810D01*
X164150700Y-80160558D01*
X164150701Y-80160560D01*
X164211001Y-80250805D01*
X164252536Y-80351079D01*
X164273710Y-80457530D01*
X164273710Y-80566070D01*
X164252536Y-80672521D01*
X164211001Y-80772795D01*
X164181055Y-80817612D01*
X164150700Y-80863042D01*
X164073952Y-80939790D01*
X164028522Y-80970145D01*
X163983705Y-81000091D01*
X163883431Y-81041626D01*
X163776980Y-81062800D01*
X163668440Y-81062800D01*
X163561989Y-81041626D01*
X163461715Y-81000091D01*
X163416898Y-80970145D01*
X163371468Y-80939790D01*
X163294720Y-80863042D01*
X163264365Y-80817612D01*
X163234419Y-80772795D01*
X163192884Y-80672521D01*
X163171710Y-80566070D01*
X163171710Y-80457530D01*
X163192884Y-80351079D01*
X163234419Y-80250805D01*
X163294719Y-80160560D01*
X163294720Y-80160558D01*
X163371468Y-80083810D01*
X163461714Y-80023510D01*
X163461715Y-80023509D01*
X163561989Y-79981974D01*
X163668440Y-79960800D01*
X163776980Y-79960800D01*
X163883431Y-79981974D01*
X163883431Y-79981974D01*
G37*
G36*
X161583411Y-79981974D02*
G01*
X161683685Y-80023509D01*
X161683686Y-80023510D01*
X161773932Y-80083810D01*
X161850680Y-80160558D01*
X161850681Y-80160560D01*
X161910981Y-80250805D01*
X161952516Y-80351079D01*
X161973690Y-80457530D01*
X161973690Y-80566070D01*
X161952516Y-80672521D01*
X161910981Y-80772795D01*
X161881035Y-80817612D01*
X161850680Y-80863042D01*
X161773932Y-80939790D01*
X161728502Y-80970145D01*
X161683685Y-81000091D01*
X161583411Y-81041626D01*
X161476960Y-81062800D01*
X161368420Y-81062800D01*
X161261969Y-81041626D01*
X161161695Y-81000091D01*
X161116878Y-80970145D01*
X161071448Y-80939790D01*
X160994700Y-80863042D01*
X160964345Y-80817612D01*
X160934399Y-80772795D01*
X160892864Y-80672521D01*
X160871690Y-80566070D01*
X160871690Y-80457530D01*
X160892864Y-80351079D01*
X160934399Y-80250805D01*
X160994699Y-80160560D01*
X160994700Y-80160558D01*
X161071448Y-80083810D01*
X161161694Y-80023510D01*
X161161695Y-80023509D01*
X161261969Y-79981974D01*
X161368420Y-79960800D01*
X161476960Y-79960800D01*
X161583411Y-79981974D01*
X161583411Y-79981974D01*
G37*
G36*
X113323411Y-79981974D02*
G01*
X113423685Y-80023509D01*
X113423686Y-80023510D01*
X113513932Y-80083810D01*
X113590680Y-80160558D01*
X113590681Y-80160560D01*
X113650981Y-80250805D01*
X113692516Y-80351079D01*
X113713690Y-80457530D01*
X113713690Y-80566070D01*
X113692516Y-80672521D01*
X113650981Y-80772795D01*
X113621035Y-80817612D01*
X113590680Y-80863042D01*
X113513932Y-80939790D01*
X113468502Y-80970145D01*
X113423685Y-81000091D01*
X113323411Y-81041626D01*
X113216960Y-81062800D01*
X113108420Y-81062800D01*
X113001969Y-81041626D01*
X112901695Y-81000091D01*
X112856878Y-80970145D01*
X112811448Y-80939790D01*
X112734700Y-80863042D01*
X112704345Y-80817612D01*
X112674399Y-80772795D01*
X112632864Y-80672521D01*
X112611690Y-80566070D01*
X112611690Y-80457530D01*
X112632864Y-80351079D01*
X112674399Y-80250805D01*
X112734699Y-80160560D01*
X112734700Y-80160558D01*
X112811448Y-80083810D01*
X112901694Y-80023510D01*
X112901695Y-80023509D01*
X113001969Y-79981974D01*
X113108420Y-79960800D01*
X113216960Y-79960800D01*
X113323411Y-79981974D01*
X113323411Y-79981974D01*
G37*
G36*
X115623431Y-79981974D02*
G01*
X115723705Y-80023509D01*
X115723706Y-80023510D01*
X115813952Y-80083810D01*
X115890700Y-80160558D01*
X115890701Y-80160560D01*
X115951001Y-80250805D01*
X115992536Y-80351079D01*
X116013710Y-80457530D01*
X116013710Y-80566070D01*
X115992536Y-80672521D01*
X115951001Y-80772795D01*
X115921055Y-80817612D01*
X115890700Y-80863042D01*
X115813952Y-80939790D01*
X115768522Y-80970145D01*
X115723705Y-81000091D01*
X115623431Y-81041626D01*
X115516980Y-81062800D01*
X115408440Y-81062800D01*
X115301989Y-81041626D01*
X115201715Y-81000091D01*
X115156898Y-80970145D01*
X115111468Y-80939790D01*
X115034720Y-80863042D01*
X115004365Y-80817612D01*
X114974419Y-80772795D01*
X114932884Y-80672521D01*
X114911710Y-80566070D01*
X114911710Y-80457530D01*
X114932884Y-80351079D01*
X114974419Y-80250805D01*
X115034719Y-80160560D01*
X115034720Y-80160558D01*
X115111468Y-80083810D01*
X115201714Y-80023510D01*
X115201715Y-80023509D01*
X115301989Y-79981974D01*
X115408440Y-79960800D01*
X115516980Y-79960800D01*
X115623431Y-79981974D01*
X115623431Y-79981974D01*
G37*
M02*
