G04 #@! TF.GenerationSoftware,KiCad,Pcbnew,(5.1.4)-1*
G04 #@! TF.CreationDate,2019-12-25T11:40:05+08:00*
G04 #@! TF.ProjectId,matrix_control_main,6d617472-6978-45f6-936f-6e74726f6c5f,rev?*
G04 #@! TF.SameCoordinates,Original*
G04 #@! TF.FileFunction,Other,Fab,Top*
%FSLAX46Y46*%
G04 Gerber Fmt 4.6, Leading zero omitted, Abs format (unit mm)*
G04 Created by KiCad (PCBNEW (5.1.4)-1) date 2019-12-25 11:40:05*
%MOMM*%
%LPD*%
G04 APERTURE LIST*
%ADD10C,0.100000*%
%ADD11C,0.120000*%
%ADD12C,0.203200*%
%ADD13C,0.150000*%
G04 APERTURE END LIST*
D10*
X173490000Y-103140000D02*
X174990000Y-103140000D01*
X174990000Y-103140000D02*
X174990000Y-113140000D01*
X174990000Y-113140000D02*
X172990000Y-113140000D01*
X172990000Y-113140000D02*
X172990000Y-103640000D01*
X172990000Y-103640000D02*
X173490000Y-103140000D01*
D11*
X129160000Y-81980000D02*
X145160000Y-81980000D01*
X145160000Y-81980000D02*
X145160000Y-105980000D01*
X145160000Y-105980000D02*
X129160000Y-105980000D01*
X129160000Y-105980000D02*
X129160000Y-90980000D01*
X129160000Y-90980000D02*
X129660000Y-90480000D01*
X129660000Y-90480000D02*
X129160000Y-89980000D01*
X129160000Y-89980000D02*
X129160000Y-81980000D01*
D10*
X165993140Y-112885860D02*
G75*
G03X165993140Y-112885860I-6250000J0D01*
G01*
X123005240Y-80943500D02*
X123005240Y-81743500D01*
X123405240Y-81343500D02*
X123005240Y-81743500D01*
X123405240Y-81343500D02*
X123005240Y-80943500D01*
X123405240Y-80943500D02*
X123405240Y-81743500D01*
X123605240Y-81343500D02*
X122805240Y-81343500D01*
X123200240Y-81860500D02*
X122900240Y-82160500D01*
X123400240Y-81960500D02*
X123100240Y-82260500D01*
D12*
X121405240Y-81343500D02*
X120405240Y-81343500D01*
X120905240Y-80843500D02*
X120905240Y-81843500D01*
X125405240Y-80843500D02*
X125405240Y-81843500D01*
D10*
X149342080Y-113944900D02*
X149342080Y-116864900D01*
X150642080Y-113944900D02*
X150642080Y-116864900D01*
X150642080Y-113944900D02*
X149342080Y-113944900D01*
X150642080Y-116864900D02*
X149342080Y-116864900D01*
X150642080Y-116864900D02*
X149342080Y-116864900D01*
X150642080Y-113944900D02*
X149342080Y-113944900D01*
X150642080Y-113944900D02*
X150642080Y-116864900D01*
X149342080Y-113944900D02*
X149342080Y-116864900D01*
X150642080Y-116864900D02*
X149342080Y-116864900D01*
X150642080Y-113944900D02*
X149342080Y-113944900D01*
X150642080Y-113944900D02*
X150642080Y-116864900D01*
X149342080Y-113944900D02*
X149342080Y-116864900D01*
X174637700Y-96451420D02*
X172732700Y-96451420D01*
X172732700Y-96451420D02*
X172732700Y-86291420D01*
X172732700Y-86291420D02*
X175272700Y-86291420D01*
X175272700Y-86291420D02*
X175272700Y-95816420D01*
X175272700Y-95816420D02*
X174637700Y-96451420D01*
D13*
X96967420Y-106317920D02*
X98967420Y-106317920D01*
X98967420Y-106317920D02*
X98967420Y-109317920D01*
X98967420Y-109317920D02*
X95967420Y-109317920D01*
X95967420Y-109317920D02*
X95967420Y-107317920D01*
X95967420Y-107317920D02*
X96967420Y-106317920D01*
X90067142Y-92852380D02*
X90067142Y-91852380D01*
X90305238Y-91852380D01*
X90448095Y-91900000D01*
X90543333Y-91995238D01*
X90590952Y-92090476D01*
X90638571Y-92280952D01*
X90638571Y-92423809D01*
X90590952Y-92614285D01*
X90543333Y-92709523D01*
X90448095Y-92804761D01*
X90305238Y-92852380D01*
X90067142Y-92852380D01*
X91019523Y-92804761D02*
X91162380Y-92852380D01*
X91400476Y-92852380D01*
X91495714Y-92804761D01*
X91543333Y-92757142D01*
X91590952Y-92661904D01*
X91590952Y-92566666D01*
X91543333Y-92471428D01*
X91495714Y-92423809D01*
X91400476Y-92376190D01*
X91210000Y-92328571D01*
X91114761Y-92280952D01*
X91067142Y-92233333D01*
X91019523Y-92138095D01*
X91019523Y-92042857D01*
X91067142Y-91947619D01*
X91114761Y-91900000D01*
X91210000Y-91852380D01*
X91448095Y-91852380D01*
X91590952Y-91900000D01*
X91924285Y-91852380D02*
X92543333Y-91852380D01*
X92210000Y-92233333D01*
X92352857Y-92233333D01*
X92448095Y-92280952D01*
X92495714Y-92328571D01*
X92543333Y-92423809D01*
X92543333Y-92661904D01*
X92495714Y-92757142D01*
X92448095Y-92804761D01*
X92352857Y-92852380D01*
X92067142Y-92852380D01*
X91971904Y-92804761D01*
X91924285Y-92757142D01*
X92924285Y-91947619D02*
X92971904Y-91900000D01*
X93067142Y-91852380D01*
X93305238Y-91852380D01*
X93400476Y-91900000D01*
X93448095Y-91947619D01*
X93495714Y-92042857D01*
X93495714Y-92138095D01*
X93448095Y-92280952D01*
X92876666Y-92852380D01*
X93495714Y-92852380D01*
X93829047Y-91852380D02*
X94448095Y-91852380D01*
X94114761Y-92233333D01*
X94257619Y-92233333D01*
X94352857Y-92280952D01*
X94400476Y-92328571D01*
X94448095Y-92423809D01*
X94448095Y-92661904D01*
X94400476Y-92757142D01*
X94352857Y-92804761D01*
X94257619Y-92852380D01*
X93971904Y-92852380D01*
X93876666Y-92804761D01*
X93829047Y-92757142D01*
X95400476Y-92852380D02*
X94829047Y-92852380D01*
X95114761Y-92852380D02*
X95114761Y-91852380D01*
X95019523Y-91995238D01*
X94924285Y-92090476D01*
X94829047Y-92138095D01*
X81500000Y-120272380D02*
X81690476Y-120272380D01*
X81785714Y-120320000D01*
X81880952Y-120415238D01*
X81928571Y-120605714D01*
X81928571Y-120939047D01*
X81880952Y-121129523D01*
X81785714Y-121224761D01*
X81690476Y-121272380D01*
X81500000Y-121272380D01*
X81404761Y-121224761D01*
X81309523Y-121129523D01*
X81261904Y-120939047D01*
X81261904Y-120605714D01*
X81309523Y-120415238D01*
X81404761Y-120320000D01*
X81500000Y-120272380D01*
X82119047Y-121367619D02*
X82880952Y-121367619D01*
X83071428Y-120367619D02*
X83119047Y-120320000D01*
X83214285Y-120272380D01*
X83452380Y-120272380D01*
X83547619Y-120320000D01*
X83595238Y-120367619D01*
X83642857Y-120462857D01*
X83642857Y-120558095D01*
X83595238Y-120700952D01*
X83023809Y-121272380D01*
X83642857Y-121272380D01*
X84071428Y-121177142D02*
X84119047Y-121224761D01*
X84071428Y-121272380D01*
X84023809Y-121224761D01*
X84071428Y-121177142D01*
X84071428Y-121272380D01*
X85023809Y-120272380D02*
X84547619Y-120272380D01*
X84500000Y-120748571D01*
X84547619Y-120700952D01*
X84642857Y-120653333D01*
X84880952Y-120653333D01*
X84976190Y-120700952D01*
X85023809Y-120748571D01*
X85071428Y-120843809D01*
X85071428Y-121081904D01*
X85023809Y-121177142D01*
X84976190Y-121224761D01*
X84880952Y-121272380D01*
X84642857Y-121272380D01*
X84547619Y-121224761D01*
X84500000Y-121177142D01*
X85500000Y-121272380D02*
X85500000Y-120605714D01*
X85500000Y-120700952D02*
X85547619Y-120653333D01*
X85642857Y-120605714D01*
X85785714Y-120605714D01*
X85880952Y-120653333D01*
X85928571Y-120748571D01*
X85928571Y-121272380D01*
X85928571Y-120748571D02*
X85976190Y-120653333D01*
X86071428Y-120605714D01*
X86214285Y-120605714D01*
X86309523Y-120653333D01*
X86357142Y-120748571D01*
X86357142Y-121272380D01*
X86833333Y-121272380D02*
X86833333Y-120605714D01*
X86833333Y-120700952D02*
X86880952Y-120653333D01*
X86976190Y-120605714D01*
X87119047Y-120605714D01*
X87214285Y-120653333D01*
X87261904Y-120748571D01*
X87261904Y-121272380D01*
X87261904Y-120748571D02*
X87309523Y-120653333D01*
X87404761Y-120605714D01*
X87547619Y-120605714D01*
X87642857Y-120653333D01*
X87690476Y-120748571D01*
X87690476Y-121272380D01*
X171600000Y-120272380D02*
X171790476Y-120272380D01*
X171885714Y-120320000D01*
X171980952Y-120415238D01*
X172028571Y-120605714D01*
X172028571Y-120939047D01*
X171980952Y-121129523D01*
X171885714Y-121224761D01*
X171790476Y-121272380D01*
X171600000Y-121272380D01*
X171504761Y-121224761D01*
X171409523Y-121129523D01*
X171361904Y-120939047D01*
X171361904Y-120605714D01*
X171409523Y-120415238D01*
X171504761Y-120320000D01*
X171600000Y-120272380D01*
X172219047Y-121367619D02*
X172980952Y-121367619D01*
X173171428Y-120367619D02*
X173219047Y-120320000D01*
X173314285Y-120272380D01*
X173552380Y-120272380D01*
X173647619Y-120320000D01*
X173695238Y-120367619D01*
X173742857Y-120462857D01*
X173742857Y-120558095D01*
X173695238Y-120700952D01*
X173123809Y-121272380D01*
X173742857Y-121272380D01*
X174171428Y-121177142D02*
X174219047Y-121224761D01*
X174171428Y-121272380D01*
X174123809Y-121224761D01*
X174171428Y-121177142D01*
X174171428Y-121272380D01*
X175123809Y-120272380D02*
X174647619Y-120272380D01*
X174600000Y-120748571D01*
X174647619Y-120700952D01*
X174742857Y-120653333D01*
X174980952Y-120653333D01*
X175076190Y-120700952D01*
X175123809Y-120748571D01*
X175171428Y-120843809D01*
X175171428Y-121081904D01*
X175123809Y-121177142D01*
X175076190Y-121224761D01*
X174980952Y-121272380D01*
X174742857Y-121272380D01*
X174647619Y-121224761D01*
X174600000Y-121177142D01*
X175600000Y-121272380D02*
X175600000Y-120605714D01*
X175600000Y-120700952D02*
X175647619Y-120653333D01*
X175742857Y-120605714D01*
X175885714Y-120605714D01*
X175980952Y-120653333D01*
X176028571Y-120748571D01*
X176028571Y-121272380D01*
X176028571Y-120748571D02*
X176076190Y-120653333D01*
X176171428Y-120605714D01*
X176314285Y-120605714D01*
X176409523Y-120653333D01*
X176457142Y-120748571D01*
X176457142Y-121272380D01*
X176933333Y-121272380D02*
X176933333Y-120605714D01*
X176933333Y-120700952D02*
X176980952Y-120653333D01*
X177076190Y-120605714D01*
X177219047Y-120605714D01*
X177314285Y-120653333D01*
X177361904Y-120748571D01*
X177361904Y-121272380D01*
X177361904Y-120748571D02*
X177409523Y-120653333D01*
X177504761Y-120605714D01*
X177647619Y-120605714D01*
X177742857Y-120653333D01*
X177790476Y-120748571D01*
X177790476Y-121272380D01*
X171600000Y-80772380D02*
X171790476Y-80772380D01*
X171885714Y-80820000D01*
X171980952Y-80915238D01*
X172028571Y-81105714D01*
X172028571Y-81439047D01*
X171980952Y-81629523D01*
X171885714Y-81724761D01*
X171790476Y-81772380D01*
X171600000Y-81772380D01*
X171504761Y-81724761D01*
X171409523Y-81629523D01*
X171361904Y-81439047D01*
X171361904Y-81105714D01*
X171409523Y-80915238D01*
X171504761Y-80820000D01*
X171600000Y-80772380D01*
X172219047Y-81867619D02*
X172980952Y-81867619D01*
X173171428Y-80867619D02*
X173219047Y-80820000D01*
X173314285Y-80772380D01*
X173552380Y-80772380D01*
X173647619Y-80820000D01*
X173695238Y-80867619D01*
X173742857Y-80962857D01*
X173742857Y-81058095D01*
X173695238Y-81200952D01*
X173123809Y-81772380D01*
X173742857Y-81772380D01*
X174171428Y-81677142D02*
X174219047Y-81724761D01*
X174171428Y-81772380D01*
X174123809Y-81724761D01*
X174171428Y-81677142D01*
X174171428Y-81772380D01*
X175123809Y-80772380D02*
X174647619Y-80772380D01*
X174600000Y-81248571D01*
X174647619Y-81200952D01*
X174742857Y-81153333D01*
X174980952Y-81153333D01*
X175076190Y-81200952D01*
X175123809Y-81248571D01*
X175171428Y-81343809D01*
X175171428Y-81581904D01*
X175123809Y-81677142D01*
X175076190Y-81724761D01*
X174980952Y-81772380D01*
X174742857Y-81772380D01*
X174647619Y-81724761D01*
X174600000Y-81677142D01*
X175600000Y-81772380D02*
X175600000Y-81105714D01*
X175600000Y-81200952D02*
X175647619Y-81153333D01*
X175742857Y-81105714D01*
X175885714Y-81105714D01*
X175980952Y-81153333D01*
X176028571Y-81248571D01*
X176028571Y-81772380D01*
X176028571Y-81248571D02*
X176076190Y-81153333D01*
X176171428Y-81105714D01*
X176314285Y-81105714D01*
X176409523Y-81153333D01*
X176457142Y-81248571D01*
X176457142Y-81772380D01*
X176933333Y-81772380D02*
X176933333Y-81105714D01*
X176933333Y-81200952D02*
X176980952Y-81153333D01*
X177076190Y-81105714D01*
X177219047Y-81105714D01*
X177314285Y-81153333D01*
X177361904Y-81248571D01*
X177361904Y-81772380D01*
X177361904Y-81248571D02*
X177409523Y-81153333D01*
X177504761Y-81105714D01*
X177647619Y-81105714D01*
X177742857Y-81153333D01*
X177790476Y-81248571D01*
X177790476Y-81772380D01*
X81500000Y-80772380D02*
X81690476Y-80772380D01*
X81785714Y-80820000D01*
X81880952Y-80915238D01*
X81928571Y-81105714D01*
X81928571Y-81439047D01*
X81880952Y-81629523D01*
X81785714Y-81724761D01*
X81690476Y-81772380D01*
X81500000Y-81772380D01*
X81404761Y-81724761D01*
X81309523Y-81629523D01*
X81261904Y-81439047D01*
X81261904Y-81105714D01*
X81309523Y-80915238D01*
X81404761Y-80820000D01*
X81500000Y-80772380D01*
X82119047Y-81867619D02*
X82880952Y-81867619D01*
X83071428Y-80867619D02*
X83119047Y-80820000D01*
X83214285Y-80772380D01*
X83452380Y-80772380D01*
X83547619Y-80820000D01*
X83595238Y-80867619D01*
X83642857Y-80962857D01*
X83642857Y-81058095D01*
X83595238Y-81200952D01*
X83023809Y-81772380D01*
X83642857Y-81772380D01*
X84071428Y-81677142D02*
X84119047Y-81724761D01*
X84071428Y-81772380D01*
X84023809Y-81724761D01*
X84071428Y-81677142D01*
X84071428Y-81772380D01*
X85023809Y-80772380D02*
X84547619Y-80772380D01*
X84500000Y-81248571D01*
X84547619Y-81200952D01*
X84642857Y-81153333D01*
X84880952Y-81153333D01*
X84976190Y-81200952D01*
X85023809Y-81248571D01*
X85071428Y-81343809D01*
X85071428Y-81581904D01*
X85023809Y-81677142D01*
X84976190Y-81724761D01*
X84880952Y-81772380D01*
X84642857Y-81772380D01*
X84547619Y-81724761D01*
X84500000Y-81677142D01*
X85500000Y-81772380D02*
X85500000Y-81105714D01*
X85500000Y-81200952D02*
X85547619Y-81153333D01*
X85642857Y-81105714D01*
X85785714Y-81105714D01*
X85880952Y-81153333D01*
X85928571Y-81248571D01*
X85928571Y-81772380D01*
X85928571Y-81248571D02*
X85976190Y-81153333D01*
X86071428Y-81105714D01*
X86214285Y-81105714D01*
X86309523Y-81153333D01*
X86357142Y-81248571D01*
X86357142Y-81772380D01*
X86833333Y-81772380D02*
X86833333Y-81105714D01*
X86833333Y-81200952D02*
X86880952Y-81153333D01*
X86976190Y-81105714D01*
X87119047Y-81105714D01*
X87214285Y-81153333D01*
X87261904Y-81248571D01*
X87261904Y-81772380D01*
X87261904Y-81248571D02*
X87309523Y-81153333D01*
X87404761Y-81105714D01*
X87547619Y-81105714D01*
X87642857Y-81153333D01*
X87690476Y-81248571D01*
X87690476Y-81772380D01*
X109408720Y-89491671D02*
X109551577Y-89539290D01*
X109599196Y-89586909D01*
X109646815Y-89682147D01*
X109646815Y-89825004D01*
X109599196Y-89920242D01*
X109551577Y-89967861D01*
X109456339Y-90015480D01*
X109075386Y-90015480D01*
X109075386Y-89015480D01*
X109408720Y-89015480D01*
X109503958Y-89063100D01*
X109551577Y-89110719D01*
X109599196Y-89205957D01*
X109599196Y-89301195D01*
X109551577Y-89396433D01*
X109503958Y-89444052D01*
X109408720Y-89491671D01*
X109075386Y-89491671D01*
X110027767Y-89729766D02*
X110503958Y-89729766D01*
X109932529Y-90015480D02*
X110265862Y-89015480D01*
X110599196Y-90015480D01*
X110789672Y-89015480D02*
X111361100Y-89015480D01*
X111075386Y-90015480D02*
X111075386Y-89015480D01*
X111551577Y-89015480D02*
X112123005Y-89015480D01*
X111837291Y-90015480D02*
X111837291Y-89015480D01*
X112456339Y-89491671D02*
X112789672Y-89491671D01*
X112932529Y-90015480D02*
X112456339Y-90015480D01*
X112456339Y-89015480D01*
X112932529Y-89015480D01*
X113932529Y-90015480D02*
X113599196Y-89539290D01*
X113361100Y-90015480D02*
X113361100Y-89015480D01*
X113742053Y-89015480D01*
X113837291Y-89063100D01*
X113884910Y-89110719D01*
X113932529Y-89205957D01*
X113932529Y-89348814D01*
X113884910Y-89444052D01*
X113837291Y-89491671D01*
X113742053Y-89539290D01*
X113361100Y-89539290D01*
X114551577Y-89539290D02*
X114551577Y-90015480D01*
X114218243Y-89015480D02*
X114551577Y-89539290D01*
X114884910Y-89015480D01*
X86521563Y-98301531D02*
X86664420Y-98349150D01*
X86712040Y-98396769D01*
X86759659Y-98492007D01*
X86759659Y-98634864D01*
X86712040Y-98730102D01*
X86664420Y-98777721D01*
X86569182Y-98825340D01*
X86188230Y-98825340D01*
X86188230Y-97825340D01*
X86521563Y-97825340D01*
X86616801Y-97872960D01*
X86664420Y-97920579D01*
X86712040Y-98015817D01*
X86712040Y-98111055D01*
X86664420Y-98206293D01*
X86616801Y-98253912D01*
X86521563Y-98301531D01*
X86188230Y-98301531D01*
X87140611Y-98539626D02*
X87616801Y-98539626D01*
X87045373Y-98825340D02*
X87378706Y-97825340D01*
X87712040Y-98825340D01*
X87902516Y-97825340D02*
X88473944Y-97825340D01*
X88188230Y-98825340D02*
X88188230Y-97825340D01*
X89283468Y-97825340D02*
X88807278Y-97825340D01*
X88759659Y-98301531D01*
X88807278Y-98253912D01*
X88902516Y-98206293D01*
X89140611Y-98206293D01*
X89235849Y-98253912D01*
X89283468Y-98301531D01*
X89331087Y-98396769D01*
X89331087Y-98634864D01*
X89283468Y-98730102D01*
X89235849Y-98777721D01*
X89140611Y-98825340D01*
X88902516Y-98825340D01*
X88807278Y-98777721D01*
X88759659Y-98730102D01*
X90188230Y-98158674D02*
X90188230Y-98825340D01*
X89950135Y-97777721D02*
X89712040Y-98492007D01*
X90331087Y-98492007D01*
X91283468Y-98730102D02*
X91235849Y-98777721D01*
X91092992Y-98825340D01*
X90997754Y-98825340D01*
X90854897Y-98777721D01*
X90759659Y-98682483D01*
X90712040Y-98587245D01*
X90664420Y-98396769D01*
X90664420Y-98253912D01*
X90712040Y-98063436D01*
X90759659Y-97968198D01*
X90854897Y-97872960D01*
X90997754Y-97825340D01*
X91092992Y-97825340D01*
X91235849Y-97872960D01*
X91283468Y-97920579D01*
X168156666Y-114557142D02*
X168109047Y-114604761D01*
X167966190Y-114652380D01*
X167870952Y-114652380D01*
X167728095Y-114604761D01*
X167632857Y-114509523D01*
X167585238Y-114414285D01*
X167537619Y-114223809D01*
X167537619Y-114080952D01*
X167585238Y-113890476D01*
X167632857Y-113795238D01*
X167728095Y-113700000D01*
X167870952Y-113652380D01*
X167966190Y-113652380D01*
X168109047Y-113700000D01*
X168156666Y-113747619D01*
X168728095Y-114652380D02*
X168632857Y-114604761D01*
X168585238Y-114557142D01*
X168537619Y-114461904D01*
X168537619Y-114176190D01*
X168585238Y-114080952D01*
X168632857Y-114033333D01*
X168728095Y-113985714D01*
X168870952Y-113985714D01*
X168966190Y-114033333D01*
X169013809Y-114080952D01*
X169061428Y-114176190D01*
X169061428Y-114461904D01*
X169013809Y-114557142D01*
X168966190Y-114604761D01*
X168870952Y-114652380D01*
X168728095Y-114652380D01*
X169490000Y-113985714D02*
X169490000Y-114652380D01*
X169490000Y-114080952D02*
X169537619Y-114033333D01*
X169632857Y-113985714D01*
X169775714Y-113985714D01*
X169870952Y-114033333D01*
X169918571Y-114128571D01*
X169918571Y-114652380D01*
X170394761Y-113985714D02*
X170394761Y-114652380D01*
X170394761Y-114080952D02*
X170442380Y-114033333D01*
X170537619Y-113985714D01*
X170680476Y-113985714D01*
X170775714Y-114033333D01*
X170823333Y-114128571D01*
X170823333Y-114652380D01*
X171061428Y-114747619D02*
X171823333Y-114747619D01*
X172251904Y-113652380D02*
X172347142Y-113652380D01*
X172442380Y-113700000D01*
X172490000Y-113747619D01*
X172537619Y-113842857D01*
X172585238Y-114033333D01*
X172585238Y-114271428D01*
X172537619Y-114461904D01*
X172490000Y-114557142D01*
X172442380Y-114604761D01*
X172347142Y-114652380D01*
X172251904Y-114652380D01*
X172156666Y-114604761D01*
X172109047Y-114557142D01*
X172061428Y-114461904D01*
X172013809Y-114271428D01*
X172013809Y-114033333D01*
X172061428Y-113842857D01*
X172109047Y-113747619D01*
X172156666Y-113700000D01*
X172251904Y-113652380D01*
X173537619Y-114652380D02*
X172966190Y-114652380D01*
X173251904Y-114652380D02*
X173251904Y-113652380D01*
X173156666Y-113795238D01*
X173061428Y-113890476D01*
X172966190Y-113938095D01*
X173870952Y-114652380D02*
X174394761Y-113985714D01*
X173870952Y-113985714D02*
X174394761Y-114652380D01*
X174966190Y-113652380D02*
X175061428Y-113652380D01*
X175156666Y-113700000D01*
X175204285Y-113747619D01*
X175251904Y-113842857D01*
X175299523Y-114033333D01*
X175299523Y-114271428D01*
X175251904Y-114461904D01*
X175204285Y-114557142D01*
X175156666Y-114604761D01*
X175061428Y-114652380D01*
X174966190Y-114652380D01*
X174870952Y-114604761D01*
X174823333Y-114557142D01*
X174775714Y-114461904D01*
X174728095Y-114271428D01*
X174728095Y-114033333D01*
X174775714Y-113842857D01*
X174823333Y-113747619D01*
X174870952Y-113700000D01*
X174966190Y-113652380D01*
X176204285Y-113652380D02*
X175728095Y-113652380D01*
X175680476Y-114128571D01*
X175728095Y-114080952D01*
X175823333Y-114033333D01*
X176061428Y-114033333D01*
X176156666Y-114080952D01*
X176204285Y-114128571D01*
X176251904Y-114223809D01*
X176251904Y-114461904D01*
X176204285Y-114557142D01*
X176156666Y-114604761D01*
X176061428Y-114652380D01*
X175823333Y-114652380D01*
X175728095Y-114604761D01*
X175680476Y-114557142D01*
X176442380Y-114747619D02*
X177204285Y-114747619D01*
X177442380Y-114652380D02*
X177442380Y-113652380D01*
X177775714Y-114366666D01*
X178109047Y-113652380D01*
X178109047Y-114652380D01*
X179013809Y-114652380D02*
X179013809Y-114128571D01*
X178966190Y-114033333D01*
X178870952Y-113985714D01*
X178680476Y-113985714D01*
X178585238Y-114033333D01*
X179013809Y-114604761D02*
X178918571Y-114652380D01*
X178680476Y-114652380D01*
X178585238Y-114604761D01*
X178537619Y-114509523D01*
X178537619Y-114414285D01*
X178585238Y-114319047D01*
X178680476Y-114271428D01*
X178918571Y-114271428D01*
X179013809Y-114223809D01*
X179632857Y-114652380D02*
X179537619Y-114604761D01*
X179490000Y-114509523D01*
X179490000Y-113652380D01*
X180394761Y-114604761D02*
X180299523Y-114652380D01*
X180109047Y-114652380D01*
X180013809Y-114604761D01*
X179966190Y-114509523D01*
X179966190Y-114128571D01*
X180013809Y-114033333D01*
X180109047Y-113985714D01*
X180299523Y-113985714D01*
X180394761Y-114033333D01*
X180442380Y-114128571D01*
X180442380Y-114223809D01*
X179966190Y-114319047D01*
X173442380Y-108473333D02*
X174156666Y-108473333D01*
X174299523Y-108520952D01*
X174394761Y-108616190D01*
X174442380Y-108759047D01*
X174442380Y-108854285D01*
X174442380Y-107473333D02*
X174442380Y-108044761D01*
X174442380Y-107759047D02*
X173442380Y-107759047D01*
X173585238Y-107854285D01*
X173680476Y-107949523D01*
X173728095Y-108044761D01*
X147336973Y-92852500D02*
X146765544Y-92852500D01*
X147051259Y-92852500D02*
X147051259Y-91852500D01*
X146956020Y-91995358D01*
X146860782Y-92090596D01*
X146765544Y-92138215D01*
X147956020Y-91852500D02*
X148051259Y-91852500D01*
X148146497Y-91900120D01*
X148194116Y-91947739D01*
X148241735Y-92042977D01*
X148289354Y-92233453D01*
X148289354Y-92471548D01*
X148241735Y-92662024D01*
X148194116Y-92757262D01*
X148146497Y-92804881D01*
X148051259Y-92852500D01*
X147956020Y-92852500D01*
X147860782Y-92804881D01*
X147813163Y-92757262D01*
X147765544Y-92662024D01*
X147717925Y-92471548D01*
X147717925Y-92233453D01*
X147765544Y-92042977D01*
X147813163Y-91947739D01*
X147860782Y-91900120D01*
X147956020Y-91852500D01*
X148908401Y-91852500D02*
X149003640Y-91852500D01*
X149098878Y-91900120D01*
X149146497Y-91947739D01*
X149194116Y-92042977D01*
X149241735Y-92233453D01*
X149241735Y-92471548D01*
X149194116Y-92662024D01*
X149146497Y-92757262D01*
X149098878Y-92804881D01*
X149003640Y-92852500D01*
X148908401Y-92852500D01*
X148813163Y-92804881D01*
X148765544Y-92757262D01*
X148717925Y-92662024D01*
X148670306Y-92471548D01*
X148670306Y-92233453D01*
X148717925Y-92042977D01*
X148765544Y-91947739D01*
X148813163Y-91900120D01*
X148908401Y-91852500D01*
X150241735Y-92852500D02*
X149908401Y-92376310D01*
X149670306Y-92852500D02*
X149670306Y-91852500D01*
X150051259Y-91852500D01*
X150146497Y-91900120D01*
X150194116Y-91947739D01*
X150241735Y-92042977D01*
X150241735Y-92185834D01*
X150194116Y-92281072D01*
X150146497Y-92328691D01*
X150051259Y-92376310D01*
X149670306Y-92376310D01*
X147336973Y-90957660D02*
X146765544Y-90957660D01*
X147051259Y-90957660D02*
X147051259Y-89957660D01*
X146956020Y-90100518D01*
X146860782Y-90195756D01*
X146765544Y-90243375D01*
X147956020Y-89957660D02*
X148051259Y-89957660D01*
X148146497Y-90005280D01*
X148194116Y-90052899D01*
X148241735Y-90148137D01*
X148289354Y-90338613D01*
X148289354Y-90576708D01*
X148241735Y-90767184D01*
X148194116Y-90862422D01*
X148146497Y-90910041D01*
X148051259Y-90957660D01*
X147956020Y-90957660D01*
X147860782Y-90910041D01*
X147813163Y-90862422D01*
X147765544Y-90767184D01*
X147717925Y-90576708D01*
X147717925Y-90338613D01*
X147765544Y-90148137D01*
X147813163Y-90052899D01*
X147860782Y-90005280D01*
X147956020Y-89957660D01*
X148908401Y-89957660D02*
X149003640Y-89957660D01*
X149098878Y-90005280D01*
X149146497Y-90052899D01*
X149194116Y-90148137D01*
X149241735Y-90338613D01*
X149241735Y-90576708D01*
X149194116Y-90767184D01*
X149146497Y-90862422D01*
X149098878Y-90910041D01*
X149003640Y-90957660D01*
X148908401Y-90957660D01*
X148813163Y-90910041D01*
X148765544Y-90862422D01*
X148717925Y-90767184D01*
X148670306Y-90576708D01*
X148670306Y-90338613D01*
X148717925Y-90148137D01*
X148765544Y-90052899D01*
X148813163Y-90005280D01*
X148908401Y-89957660D01*
X150241735Y-90957660D02*
X149908401Y-90481470D01*
X149670306Y-90957660D02*
X149670306Y-89957660D01*
X150051259Y-89957660D01*
X150146497Y-90005280D01*
X150194116Y-90052899D01*
X150241735Y-90148137D01*
X150241735Y-90290994D01*
X150194116Y-90386232D01*
X150146497Y-90433851D01*
X150051259Y-90481470D01*
X149670306Y-90481470D01*
X134338095Y-81128571D02*
X134671428Y-81128571D01*
X134814285Y-81652380D02*
X134338095Y-81652380D01*
X134338095Y-80652380D01*
X134814285Y-80652380D01*
X135195238Y-81604761D02*
X135338095Y-81652380D01*
X135576190Y-81652380D01*
X135671428Y-81604761D01*
X135719047Y-81557142D01*
X135766666Y-81461904D01*
X135766666Y-81366666D01*
X135719047Y-81271428D01*
X135671428Y-81223809D01*
X135576190Y-81176190D01*
X135385714Y-81128571D01*
X135290476Y-81080952D01*
X135242857Y-81033333D01*
X135195238Y-80938095D01*
X135195238Y-80842857D01*
X135242857Y-80747619D01*
X135290476Y-80700000D01*
X135385714Y-80652380D01*
X135623809Y-80652380D01*
X135766666Y-80700000D01*
X136195238Y-81652380D02*
X136195238Y-80652380D01*
X136576190Y-80652380D01*
X136671428Y-80700000D01*
X136719047Y-80747619D01*
X136766666Y-80842857D01*
X136766666Y-80985714D01*
X136719047Y-81080952D01*
X136671428Y-81128571D01*
X136576190Y-81176190D01*
X136195238Y-81176190D01*
X137195238Y-81271428D02*
X137957142Y-81271428D01*
X138957142Y-81652380D02*
X138385714Y-81652380D01*
X138671428Y-81652380D02*
X138671428Y-80652380D01*
X138576190Y-80795238D01*
X138480952Y-80890476D01*
X138385714Y-80938095D01*
X139338095Y-80747619D02*
X139385714Y-80700000D01*
X139480952Y-80652380D01*
X139719047Y-80652380D01*
X139814285Y-80700000D01*
X139861904Y-80747619D01*
X139909523Y-80842857D01*
X139909523Y-80938095D01*
X139861904Y-81080952D01*
X139290476Y-81652380D01*
X139909523Y-81652380D01*
X136888095Y-92632380D02*
X136888095Y-93441904D01*
X136935714Y-93537142D01*
X136983333Y-93584761D01*
X137078571Y-93632380D01*
X137269047Y-93632380D01*
X137364285Y-93584761D01*
X137411904Y-93537142D01*
X137459523Y-93441904D01*
X137459523Y-92632380D01*
X138459523Y-93632380D02*
X137888095Y-93632380D01*
X138173809Y-93632380D02*
X138173809Y-92632380D01*
X138078571Y-92775238D01*
X137983333Y-92870476D01*
X137888095Y-92918095D01*
X155341949Y-120663240D02*
X155341949Y-119663240D01*
X155722901Y-119663240D01*
X155818140Y-119710860D01*
X155865759Y-119758479D01*
X155913378Y-119853717D01*
X155913378Y-119996574D01*
X155865759Y-120091812D01*
X155818140Y-120139431D01*
X155722901Y-120187050D01*
X155341949Y-120187050D01*
X156294330Y-120615621D02*
X156437187Y-120663240D01*
X156675282Y-120663240D01*
X156770520Y-120615621D01*
X156818140Y-120568002D01*
X156865759Y-120472764D01*
X156865759Y-120377526D01*
X156818140Y-120282288D01*
X156770520Y-120234669D01*
X156675282Y-120187050D01*
X156484806Y-120139431D01*
X156389568Y-120091812D01*
X156341949Y-120044193D01*
X156294330Y-119948955D01*
X156294330Y-119853717D01*
X156341949Y-119758479D01*
X156389568Y-119710860D01*
X156484806Y-119663240D01*
X156722901Y-119663240D01*
X156865759Y-119710860D01*
X157818140Y-120663240D02*
X157246711Y-120663240D01*
X157532425Y-120663240D02*
X157532425Y-119663240D01*
X157437187Y-119806098D01*
X157341949Y-119901336D01*
X157246711Y-119948955D01*
X158199092Y-119758479D02*
X158246711Y-119710860D01*
X158341949Y-119663240D01*
X158580044Y-119663240D01*
X158675282Y-119710860D01*
X158722901Y-119758479D01*
X158770520Y-119853717D01*
X158770520Y-119948955D01*
X158722901Y-120091812D01*
X158151473Y-120663240D01*
X158770520Y-120663240D01*
X159627663Y-119996574D02*
X159627663Y-120663240D01*
X159389568Y-119615621D02*
X159151473Y-120329907D01*
X159770520Y-120329907D01*
X160341949Y-119663240D02*
X160437187Y-119663240D01*
X160532425Y-119710860D01*
X160580044Y-119758479D01*
X160627663Y-119853717D01*
X160675282Y-120044193D01*
X160675282Y-120282288D01*
X160627663Y-120472764D01*
X160580044Y-120568002D01*
X160532425Y-120615621D01*
X160437187Y-120663240D01*
X160341949Y-120663240D01*
X160246711Y-120615621D01*
X160199092Y-120568002D01*
X160151473Y-120472764D01*
X160103854Y-120282288D01*
X160103854Y-120044193D01*
X160151473Y-119853717D01*
X160199092Y-119758479D01*
X160246711Y-119710860D01*
X160341949Y-119663240D01*
X161103854Y-120663240D02*
X161103854Y-119663240D01*
X161484806Y-119663240D01*
X161580044Y-119710860D01*
X161627663Y-119758479D01*
X161675282Y-119853717D01*
X161675282Y-119996574D01*
X161627663Y-120091812D01*
X161580044Y-120139431D01*
X161484806Y-120187050D01*
X161103854Y-120187050D01*
X162294330Y-119663240D02*
X162389568Y-119663240D01*
X162484806Y-119710860D01*
X162532425Y-119758479D01*
X162580044Y-119853717D01*
X162627663Y-120044193D01*
X162627663Y-120282288D01*
X162580044Y-120472764D01*
X162532425Y-120568002D01*
X162484806Y-120615621D01*
X162389568Y-120663240D01*
X162294330Y-120663240D01*
X162199092Y-120615621D01*
X162151473Y-120568002D01*
X162103854Y-120472764D01*
X162056235Y-120282288D01*
X162056235Y-120044193D01*
X162103854Y-119853717D01*
X162151473Y-119758479D01*
X162199092Y-119710860D01*
X162294330Y-119663240D01*
X163008616Y-119758479D02*
X163056235Y-119710860D01*
X163151473Y-119663240D01*
X163389568Y-119663240D01*
X163484806Y-119710860D01*
X163532425Y-119758479D01*
X163580044Y-119853717D01*
X163580044Y-119948955D01*
X163532425Y-120091812D01*
X162960997Y-120663240D01*
X163580044Y-120663240D01*
X164341949Y-120139431D02*
X164484806Y-120187050D01*
X164532425Y-120234669D01*
X164580044Y-120329907D01*
X164580044Y-120472764D01*
X164532425Y-120568002D01*
X164484806Y-120615621D01*
X164389568Y-120663240D01*
X164008616Y-120663240D01*
X164008616Y-119663240D01*
X164341949Y-119663240D01*
X164437187Y-119710860D01*
X164484806Y-119758479D01*
X164532425Y-119853717D01*
X164532425Y-119948955D01*
X164484806Y-120044193D01*
X164437187Y-120091812D01*
X164341949Y-120139431D01*
X164008616Y-120139431D01*
X164865759Y-119663240D02*
X165437187Y-119663240D01*
X165151473Y-120663240D02*
X165151473Y-119663240D01*
X158762187Y-113064431D02*
X158905044Y-113112050D01*
X158952663Y-113159669D01*
X159000282Y-113254907D01*
X159000282Y-113397764D01*
X158952663Y-113493002D01*
X158905044Y-113540621D01*
X158809806Y-113588240D01*
X158428854Y-113588240D01*
X158428854Y-112588240D01*
X158762187Y-112588240D01*
X158857425Y-112635860D01*
X158905044Y-112683479D01*
X158952663Y-112778717D01*
X158952663Y-112873955D01*
X158905044Y-112969193D01*
X158857425Y-113016812D01*
X158762187Y-113064431D01*
X158428854Y-113064431D01*
X159333616Y-112588240D02*
X160000282Y-112588240D01*
X159333616Y-113588240D01*
X160000282Y-113588240D01*
X160905044Y-113588240D02*
X160333616Y-113588240D01*
X160619330Y-113588240D02*
X160619330Y-112588240D01*
X160524092Y-112731098D01*
X160428854Y-112826336D01*
X160333616Y-112873955D01*
X119544516Y-77407156D02*
X119639754Y-77407156D01*
X119734992Y-77454776D01*
X119782611Y-77502395D01*
X119830230Y-77597633D01*
X119877849Y-77788109D01*
X119877849Y-78026204D01*
X119830230Y-78216680D01*
X119782611Y-78311918D01*
X119734992Y-78359537D01*
X119639754Y-78407156D01*
X119544516Y-78407156D01*
X119449278Y-78359537D01*
X119401659Y-78311918D01*
X119354040Y-78216680D01*
X119306421Y-78026204D01*
X119306421Y-77788109D01*
X119354040Y-77597633D01*
X119401659Y-77502395D01*
X119449278Y-77454776D01*
X119544516Y-77407156D01*
X120734992Y-77407156D02*
X120544516Y-77407156D01*
X120449278Y-77454776D01*
X120401659Y-77502395D01*
X120306421Y-77645252D01*
X120258802Y-77835728D01*
X120258802Y-78216680D01*
X120306421Y-78311918D01*
X120354040Y-78359537D01*
X120449278Y-78407156D01*
X120639754Y-78407156D01*
X120734992Y-78359537D01*
X120782611Y-78311918D01*
X120830230Y-78216680D01*
X120830230Y-77978585D01*
X120782611Y-77883347D01*
X120734992Y-77835728D01*
X120639754Y-77788109D01*
X120449278Y-77788109D01*
X120354040Y-77835728D01*
X120306421Y-77883347D01*
X120258802Y-77978585D01*
X121449278Y-77407156D02*
X121544516Y-77407156D01*
X121639754Y-77454776D01*
X121687373Y-77502395D01*
X121734992Y-77597633D01*
X121782611Y-77788109D01*
X121782611Y-78026204D01*
X121734992Y-78216680D01*
X121687373Y-78311918D01*
X121639754Y-78359537D01*
X121544516Y-78407156D01*
X121449278Y-78407156D01*
X121354040Y-78359537D01*
X121306421Y-78311918D01*
X121258802Y-78216680D01*
X121211182Y-78026204D01*
X121211182Y-77788109D01*
X121258802Y-77597633D01*
X121306421Y-77502395D01*
X121354040Y-77454776D01*
X121449278Y-77407156D01*
X122115944Y-77407156D02*
X122734992Y-77407156D01*
X122401659Y-77788109D01*
X122544516Y-77788109D01*
X122639754Y-77835728D01*
X122687373Y-77883347D01*
X122734992Y-77978585D01*
X122734992Y-78216680D01*
X122687373Y-78311918D01*
X122639754Y-78359537D01*
X122544516Y-78407156D01*
X122258802Y-78407156D01*
X122163563Y-78359537D01*
X122115944Y-78311918D01*
X122925468Y-78502395D02*
X123687373Y-78502395D01*
X124068325Y-78311918D02*
X124115944Y-78359537D01*
X124068325Y-78407156D01*
X124020706Y-78359537D01*
X124068325Y-78311918D01*
X124068325Y-78407156D01*
X123877849Y-77454776D02*
X123973087Y-77407156D01*
X124211182Y-77407156D01*
X124306421Y-77454776D01*
X124354040Y-77550014D01*
X124354040Y-77645252D01*
X124306421Y-77740490D01*
X124258802Y-77788109D01*
X124163563Y-77835728D01*
X124115944Y-77883347D01*
X124068325Y-77978585D01*
X124068325Y-78026204D01*
X124925468Y-78311918D02*
X124973087Y-78359537D01*
X124925468Y-78407156D01*
X124877849Y-78359537D01*
X124925468Y-78311918D01*
X124925468Y-78407156D01*
X124734992Y-77454776D02*
X124830230Y-77407156D01*
X125068325Y-77407156D01*
X125163563Y-77454776D01*
X125211182Y-77550014D01*
X125211182Y-77645252D01*
X125163563Y-77740490D01*
X125115944Y-77788109D01*
X125020706Y-77835728D01*
X124973087Y-77883347D01*
X124925468Y-77978585D01*
X124925468Y-78026204D01*
X139958546Y-111723937D02*
X140101403Y-111771556D01*
X140339499Y-111771556D01*
X140434737Y-111723937D01*
X140482356Y-111676318D01*
X140529975Y-111581080D01*
X140529975Y-111485842D01*
X140482356Y-111390604D01*
X140434737Y-111342985D01*
X140339499Y-111295366D01*
X140149022Y-111247747D01*
X140053784Y-111200128D01*
X140006165Y-111152509D01*
X139958546Y-111057271D01*
X139958546Y-110962033D01*
X140006165Y-110866795D01*
X140053784Y-110819176D01*
X140149022Y-110771556D01*
X140387118Y-110771556D01*
X140529975Y-110819176D01*
X141149022Y-110771556D02*
X141339499Y-110771556D01*
X141434737Y-110819176D01*
X141529975Y-110914414D01*
X141577594Y-111104890D01*
X141577594Y-111438223D01*
X141529975Y-111628699D01*
X141434737Y-111723937D01*
X141339499Y-111771556D01*
X141149022Y-111771556D01*
X141053784Y-111723937D01*
X140958546Y-111628699D01*
X140910927Y-111438223D01*
X140910927Y-111104890D01*
X140958546Y-110914414D01*
X141053784Y-110819176D01*
X141149022Y-110771556D01*
X141863308Y-110771556D02*
X142434737Y-110771556D01*
X142149022Y-111771556D02*
X142149022Y-110771556D01*
X142768070Y-111390604D02*
X143529975Y-111390604D01*
X143958546Y-110866795D02*
X144006165Y-110819176D01*
X144101403Y-110771556D01*
X144339499Y-110771556D01*
X144434737Y-110819176D01*
X144482356Y-110866795D01*
X144529975Y-110962033D01*
X144529975Y-111057271D01*
X144482356Y-111200128D01*
X143910927Y-111771556D01*
X144529975Y-111771556D01*
X144863308Y-110771556D02*
X145482356Y-110771556D01*
X145149022Y-111152509D01*
X145291880Y-111152509D01*
X145387118Y-111200128D01*
X145434737Y-111247747D01*
X145482356Y-111342985D01*
X145482356Y-111581080D01*
X145434737Y-111676318D01*
X145387118Y-111723937D01*
X145291880Y-111771556D01*
X145006165Y-111771556D01*
X144910927Y-111723937D01*
X144863308Y-111676318D01*
X145672832Y-111866795D02*
X146434737Y-111866795D01*
X146625213Y-111723937D02*
X146768070Y-111771556D01*
X147006165Y-111771556D01*
X147101403Y-111723937D01*
X147149022Y-111676318D01*
X147196641Y-111581080D01*
X147196641Y-111485842D01*
X147149022Y-111390604D01*
X147101403Y-111342985D01*
X147006165Y-111295366D01*
X146815689Y-111247747D01*
X146720451Y-111200128D01*
X146672832Y-111152509D01*
X146625213Y-111057271D01*
X146625213Y-110962033D01*
X146672832Y-110866795D01*
X146720451Y-110819176D01*
X146815689Y-110771556D01*
X147053784Y-110771556D01*
X147196641Y-110819176D01*
X147577594Y-111723937D02*
X147720451Y-111771556D01*
X147958546Y-111771556D01*
X148053784Y-111723937D01*
X148101403Y-111676318D01*
X148149022Y-111581080D01*
X148149022Y-111485842D01*
X148101403Y-111390604D01*
X148053784Y-111342985D01*
X147958546Y-111295366D01*
X147768070Y-111247747D01*
X147672832Y-111200128D01*
X147625213Y-111152509D01*
X147577594Y-111057271D01*
X147577594Y-110962033D01*
X147625213Y-110866795D01*
X147672832Y-110819176D01*
X147768070Y-110771556D01*
X148006165Y-110771556D01*
X148149022Y-110819176D01*
X148720451Y-111200128D02*
X148625213Y-111152509D01*
X148577594Y-111104890D01*
X148529975Y-111009652D01*
X148529975Y-110962033D01*
X148577594Y-110866795D01*
X148625213Y-110819176D01*
X148720451Y-110771556D01*
X148910927Y-110771556D01*
X149006165Y-110819176D01*
X149053784Y-110866795D01*
X149101403Y-110962033D01*
X149101403Y-111009652D01*
X149053784Y-111104890D01*
X149006165Y-111152509D01*
X148910927Y-111200128D01*
X148720451Y-111200128D01*
X148625213Y-111247747D01*
X148577594Y-111295366D01*
X148529975Y-111390604D01*
X148529975Y-111581080D01*
X148577594Y-111676318D01*
X148625213Y-111723937D01*
X148720451Y-111771556D01*
X148910927Y-111771556D01*
X149006165Y-111723937D01*
X149053784Y-111676318D01*
X149101403Y-111581080D01*
X149101403Y-111390604D01*
X149053784Y-111295366D01*
X149006165Y-111247747D01*
X148910927Y-111200128D01*
X149720451Y-110771556D02*
X149815689Y-110771556D01*
X149910927Y-110819176D01*
X149958546Y-110866795D01*
X150006165Y-110962033D01*
X150053784Y-111152509D01*
X150053784Y-111390604D01*
X150006165Y-111581080D01*
X149958546Y-111676318D01*
X149910927Y-111723937D01*
X149815689Y-111771556D01*
X149720451Y-111771556D01*
X149625213Y-111723937D01*
X149577594Y-111676318D01*
X149529975Y-111581080D01*
X149482356Y-111390604D01*
X149482356Y-111152509D01*
X149529975Y-110962033D01*
X149577594Y-110866795D01*
X149625213Y-110819176D01*
X149720451Y-110771556D01*
X150958546Y-110771556D02*
X150482356Y-110771556D01*
X150434737Y-111247747D01*
X150482356Y-111200128D01*
X150577594Y-111152509D01*
X150815689Y-111152509D01*
X150910927Y-111200128D01*
X150958546Y-111247747D01*
X151006165Y-111342985D01*
X151006165Y-111581080D01*
X150958546Y-111676318D01*
X150910927Y-111723937D01*
X150815689Y-111771556D01*
X150577594Y-111771556D01*
X150482356Y-111723937D01*
X150434737Y-111676318D01*
X151625213Y-110771556D02*
X151720451Y-110771556D01*
X151815689Y-110819176D01*
X151863308Y-110866795D01*
X151910927Y-110962033D01*
X151958546Y-111152509D01*
X151958546Y-111390604D01*
X151910927Y-111581080D01*
X151863308Y-111676318D01*
X151815689Y-111723937D01*
X151720451Y-111771556D01*
X151625213Y-111771556D01*
X151529975Y-111723937D01*
X151482356Y-111676318D01*
X151434737Y-111581080D01*
X151387118Y-111390604D01*
X151387118Y-111152509D01*
X151434737Y-110962033D01*
X151482356Y-110866795D01*
X151529975Y-110819176D01*
X151625213Y-110771556D01*
X152149022Y-111866795D02*
X152910927Y-111866795D01*
X153339499Y-111295366D02*
X153339499Y-111771556D01*
X153006165Y-110771556D02*
X153339499Y-111295366D01*
X153672832Y-110771556D01*
X154529975Y-111771556D02*
X153958546Y-111771556D01*
X154244261Y-111771556D02*
X154244261Y-110771556D01*
X154149022Y-110914414D01*
X154053784Y-111009652D01*
X153958546Y-111057271D01*
X168169366Y-85588562D02*
X168121747Y-85636181D01*
X167978890Y-85683800D01*
X167883652Y-85683800D01*
X167740795Y-85636181D01*
X167645557Y-85540943D01*
X167597938Y-85445705D01*
X167550319Y-85255229D01*
X167550319Y-85112372D01*
X167597938Y-84921896D01*
X167645557Y-84826658D01*
X167740795Y-84731420D01*
X167883652Y-84683800D01*
X167978890Y-84683800D01*
X168121747Y-84731420D01*
X168169366Y-84779039D01*
X168740795Y-85683800D02*
X168645557Y-85636181D01*
X168597938Y-85588562D01*
X168550319Y-85493324D01*
X168550319Y-85207610D01*
X168597938Y-85112372D01*
X168645557Y-85064753D01*
X168740795Y-85017134D01*
X168883652Y-85017134D01*
X168978890Y-85064753D01*
X169026509Y-85112372D01*
X169074128Y-85207610D01*
X169074128Y-85493324D01*
X169026509Y-85588562D01*
X168978890Y-85636181D01*
X168883652Y-85683800D01*
X168740795Y-85683800D01*
X169502700Y-85017134D02*
X169502700Y-85683800D01*
X169502700Y-85112372D02*
X169550319Y-85064753D01*
X169645557Y-85017134D01*
X169788414Y-85017134D01*
X169883652Y-85064753D01*
X169931271Y-85159991D01*
X169931271Y-85683800D01*
X170407461Y-85017134D02*
X170407461Y-85683800D01*
X170407461Y-85112372D02*
X170455080Y-85064753D01*
X170550319Y-85017134D01*
X170693176Y-85017134D01*
X170788414Y-85064753D01*
X170836033Y-85159991D01*
X170836033Y-85683800D01*
X171074128Y-85779039D02*
X171836033Y-85779039D01*
X172264604Y-84683800D02*
X172359842Y-84683800D01*
X172455080Y-84731420D01*
X172502700Y-84779039D01*
X172550319Y-84874277D01*
X172597938Y-85064753D01*
X172597938Y-85302848D01*
X172550319Y-85493324D01*
X172502700Y-85588562D01*
X172455080Y-85636181D01*
X172359842Y-85683800D01*
X172264604Y-85683800D01*
X172169366Y-85636181D01*
X172121747Y-85588562D01*
X172074128Y-85493324D01*
X172026509Y-85302848D01*
X172026509Y-85064753D01*
X172074128Y-84874277D01*
X172121747Y-84779039D01*
X172169366Y-84731420D01*
X172264604Y-84683800D01*
X173550319Y-85683800D02*
X172978890Y-85683800D01*
X173264604Y-85683800D02*
X173264604Y-84683800D01*
X173169366Y-84826658D01*
X173074128Y-84921896D01*
X172978890Y-84969515D01*
X173883652Y-85683800D02*
X174407461Y-85017134D01*
X173883652Y-85017134D02*
X174407461Y-85683800D01*
X174978890Y-84683800D02*
X175074128Y-84683800D01*
X175169366Y-84731420D01*
X175216985Y-84779039D01*
X175264604Y-84874277D01*
X175312223Y-85064753D01*
X175312223Y-85302848D01*
X175264604Y-85493324D01*
X175216985Y-85588562D01*
X175169366Y-85636181D01*
X175074128Y-85683800D01*
X174978890Y-85683800D01*
X174883652Y-85636181D01*
X174836033Y-85588562D01*
X174788414Y-85493324D01*
X174740795Y-85302848D01*
X174740795Y-85064753D01*
X174788414Y-84874277D01*
X174836033Y-84779039D01*
X174883652Y-84731420D01*
X174978890Y-84683800D01*
X176169366Y-85017134D02*
X176169366Y-85683800D01*
X175931271Y-84636181D02*
X175693176Y-85350467D01*
X176312223Y-85350467D01*
X176455080Y-85779039D02*
X177216985Y-85779039D01*
X177455080Y-85683800D02*
X177455080Y-84683800D01*
X177788414Y-85398086D01*
X178121747Y-84683800D01*
X178121747Y-85683800D01*
X179026509Y-85683800D02*
X179026509Y-85159991D01*
X178978890Y-85064753D01*
X178883652Y-85017134D01*
X178693176Y-85017134D01*
X178597938Y-85064753D01*
X179026509Y-85636181D02*
X178931271Y-85683800D01*
X178693176Y-85683800D01*
X178597938Y-85636181D01*
X178550319Y-85540943D01*
X178550319Y-85445705D01*
X178597938Y-85350467D01*
X178693176Y-85302848D01*
X178931271Y-85302848D01*
X179026509Y-85255229D01*
X179645557Y-85683800D02*
X179550319Y-85636181D01*
X179502700Y-85540943D01*
X179502700Y-84683800D01*
X180407461Y-85636181D02*
X180312223Y-85683800D01*
X180121747Y-85683800D01*
X180026509Y-85636181D01*
X179978890Y-85540943D01*
X179978890Y-85159991D01*
X180026509Y-85064753D01*
X180121747Y-85017134D01*
X180312223Y-85017134D01*
X180407461Y-85064753D01*
X180455080Y-85159991D01*
X180455080Y-85255229D01*
X179978890Y-85350467D01*
X173455080Y-91704753D02*
X174169366Y-91704753D01*
X174312223Y-91752372D01*
X174407461Y-91847610D01*
X174455080Y-91990467D01*
X174455080Y-92085705D01*
X173550319Y-91276181D02*
X173502700Y-91228562D01*
X173455080Y-91133324D01*
X173455080Y-90895229D01*
X173502700Y-90799991D01*
X173550319Y-90752372D01*
X173645557Y-90704753D01*
X173740795Y-90704753D01*
X173883652Y-90752372D01*
X174455080Y-91323800D01*
X174455080Y-90704753D01*
X98544114Y-118660160D02*
X99210780Y-119660160D01*
X99210780Y-118660160D02*
X98544114Y-119660160D01*
X100163161Y-119564922D02*
X100115542Y-119612541D01*
X99972685Y-119660160D01*
X99877447Y-119660160D01*
X99734590Y-119612541D01*
X99639352Y-119517303D01*
X99591733Y-119422065D01*
X99544114Y-119231589D01*
X99544114Y-119088732D01*
X99591733Y-118898256D01*
X99639352Y-118803018D01*
X99734590Y-118707780D01*
X99877447Y-118660160D01*
X99972685Y-118660160D01*
X100115542Y-118707780D01*
X100163161Y-118755399D01*
X101020304Y-118660160D02*
X100829828Y-118660160D01*
X100734590Y-118707780D01*
X100686971Y-118755399D01*
X100591733Y-118898256D01*
X100544114Y-119088732D01*
X100544114Y-119469684D01*
X100591733Y-119564922D01*
X100639352Y-119612541D01*
X100734590Y-119660160D01*
X100925066Y-119660160D01*
X101020304Y-119612541D01*
X101067923Y-119564922D01*
X101115542Y-119469684D01*
X101115542Y-119231589D01*
X101067923Y-119136351D01*
X101020304Y-119088732D01*
X100925066Y-119041113D01*
X100734590Y-119041113D01*
X100639352Y-119088732D01*
X100591733Y-119136351D01*
X100544114Y-119231589D01*
X101496495Y-118755399D02*
X101544114Y-118707780D01*
X101639352Y-118660160D01*
X101877447Y-118660160D01*
X101972685Y-118707780D01*
X102020304Y-118755399D01*
X102067923Y-118850637D01*
X102067923Y-118945875D01*
X102020304Y-119088732D01*
X101448876Y-119660160D01*
X102067923Y-119660160D01*
X102448876Y-118755399D02*
X102496495Y-118707780D01*
X102591733Y-118660160D01*
X102829828Y-118660160D01*
X102925066Y-118707780D01*
X102972685Y-118755399D01*
X103020304Y-118850637D01*
X103020304Y-118945875D01*
X102972685Y-119088732D01*
X102401257Y-119660160D01*
X103020304Y-119660160D01*
X103591733Y-119088732D02*
X103496495Y-119041113D01*
X103448876Y-118993494D01*
X103401257Y-118898256D01*
X103401257Y-118850637D01*
X103448876Y-118755399D01*
X103496495Y-118707780D01*
X103591733Y-118660160D01*
X103782209Y-118660160D01*
X103877447Y-118707780D01*
X103925066Y-118755399D01*
X103972685Y-118850637D01*
X103972685Y-118898256D01*
X103925066Y-118993494D01*
X103877447Y-119041113D01*
X103782209Y-119088732D01*
X103591733Y-119088732D01*
X103496495Y-119136351D01*
X103448876Y-119183970D01*
X103401257Y-119279208D01*
X103401257Y-119469684D01*
X103448876Y-119564922D01*
X103496495Y-119612541D01*
X103591733Y-119660160D01*
X103782209Y-119660160D01*
X103877447Y-119612541D01*
X103925066Y-119564922D01*
X103972685Y-119469684D01*
X103972685Y-119279208D01*
X103925066Y-119183970D01*
X103877447Y-119136351D01*
X103782209Y-119088732D01*
X104401257Y-119660160D02*
X104401257Y-118660160D01*
X104639352Y-118660160D01*
X104782209Y-118707780D01*
X104877447Y-118803018D01*
X104925066Y-118898256D01*
X104972685Y-119088732D01*
X104972685Y-119231589D01*
X104925066Y-119422065D01*
X104877447Y-119517303D01*
X104782209Y-119612541D01*
X104639352Y-119660160D01*
X104401257Y-119660160D01*
X105306019Y-118660160D02*
X105925066Y-118660160D01*
X105591733Y-119041113D01*
X105734590Y-119041113D01*
X105829828Y-119088732D01*
X105877447Y-119136351D01*
X105925066Y-119231589D01*
X105925066Y-119469684D01*
X105877447Y-119564922D01*
X105829828Y-119612541D01*
X105734590Y-119660160D01*
X105448876Y-119660160D01*
X105353638Y-119612541D01*
X105306019Y-119564922D01*
X106258400Y-118660160D02*
X106877447Y-118660160D01*
X106544114Y-119041113D01*
X106686971Y-119041113D01*
X106782209Y-119088732D01*
X106829828Y-119136351D01*
X106877447Y-119231589D01*
X106877447Y-119469684D01*
X106829828Y-119564922D01*
X106782209Y-119612541D01*
X106686971Y-119660160D01*
X106401257Y-119660160D01*
X106306019Y-119612541D01*
X106258400Y-119564922D01*
X107258400Y-118755399D02*
X107306019Y-118707780D01*
X107401257Y-118660160D01*
X107639352Y-118660160D01*
X107734590Y-118707780D01*
X107782209Y-118755399D01*
X107829828Y-118850637D01*
X107829828Y-118945875D01*
X107782209Y-119088732D01*
X107210780Y-119660160D01*
X107829828Y-119660160D01*
X108115542Y-118660160D02*
X108448876Y-119660160D01*
X108782209Y-118660160D01*
X109686971Y-119660160D02*
X109353638Y-119183970D01*
X109115542Y-119660160D02*
X109115542Y-118660160D01*
X109496495Y-118660160D01*
X109591733Y-118707780D01*
X109639352Y-118755399D01*
X109686971Y-118850637D01*
X109686971Y-118993494D01*
X109639352Y-119088732D01*
X109591733Y-119136351D01*
X109496495Y-119183970D01*
X109115542Y-119183970D01*
X110115542Y-119279208D02*
X110877447Y-119279208D01*
X111877447Y-118707780D02*
X111782209Y-118660160D01*
X111639352Y-118660160D01*
X111496495Y-118707780D01*
X111401257Y-118803018D01*
X111353638Y-118898256D01*
X111306019Y-119088732D01*
X111306019Y-119231589D01*
X111353638Y-119422065D01*
X111401257Y-119517303D01*
X111496495Y-119612541D01*
X111639352Y-119660160D01*
X111734590Y-119660160D01*
X111877447Y-119612541D01*
X111925066Y-119564922D01*
X111925066Y-119231589D01*
X111734590Y-119231589D01*
M02*
