M48
; DRILL file {KiCad (5.1.4)-1} date 2019/12/25 11:39:10
; FORMAT={-:-/ absolute / inch / decimal}
; #@! TF.CreationDate,2019-12-25T11:39:10+08:00
; #@! TF.GenerationSoftware,Kicad,Pcbnew,(5.1.4)-1
; #@! TF.FileFunction,Plated,1,2,PTH
FMAT,2
INCH
T1C0.0138
T2C0.0157
T3C0.0236
T4C0.0315
T5C0.0335
T6C0.0394
T7C0.0512
T8C0.1008
%
G90
G05
T1
X6.8039Y-4.7764
X6.8244Y-4.7268
X6.8244Y-4.826
X6.874Y-4.7063
X6.874Y-4.8465
X6.9236Y-4.7268
X6.9236Y-4.826
X6.9441Y-4.7764
X6.8039Y-3.2213
X6.8244Y-3.1717
X6.8244Y-3.2709
X6.874Y-3.1512
X6.874Y-3.2913
X6.9236Y-3.1717
X6.9236Y-3.2709
X6.9441Y-3.2213
X3.2567Y-3.2213
X3.2772Y-3.1717
X3.2772Y-3.2709
X3.3268Y-3.1512
X3.3268Y-3.2913
X3.3764Y-3.1717
X3.3764Y-3.2709
X3.3969Y-3.2213
X3.2567Y-4.7764
X3.2772Y-4.7268
X3.2772Y-4.826
X3.3268Y-4.7063
X3.3268Y-4.8465
X3.3764Y-4.7268
X3.3764Y-4.826
X3.3969Y-4.7764
T2
X3.5827Y-4.1845
X3.5973Y-4.2862
X3.6233Y-4.1466
X3.7037Y-3.8697
X3.7666Y-4.0874
X3.7859Y-3.633
X3.8381Y-3.4798
X3.839Y-3.4249
X3.9955Y-4.5634
X4.0381Y-4.2535
X4.0583Y-3.388
X4.0696Y-4.2237
X4.1295Y-4.7394
X4.1604Y-4.1641
X4.2989Y-4.7422
X4.5315Y-4.7595
X4.6009Y-3.5802
X4.675Y-4.3547
X4.7106Y-4.1641
X4.7303Y-3.269
X4.8287Y-4.3207
X4.8789Y-4.6016
X4.8899Y-4.2954
X4.9047Y-4.7078
X4.9322Y-3.4534
X4.9587Y-4.2718
X5.0741Y-4.659
X5.166Y-4.5011
X5.2636Y-4.5901
X5.3465Y-4.5669
X5.4628Y-4.6007
X5.494Y-4.5052
X5.6031Y-4.6543
X5.8184Y-3.6391
X5.8376Y-3.7738
X5.863Y-3.6828
X5.958Y-4.1261
X5.9618Y-3.3308
X6.0032Y-3.9102
X6.0376Y-3.2446
X6.0495Y-3.6838
X6.0777Y-3.7158
X6.1019Y-3.8115
X6.1065Y-3.3962
X6.1106Y-4.6418
X6.1306Y-3.2929
X6.2271Y-3.503
X6.3238Y-3.8115
X6.4235Y-3.4376
X6.5721Y-4.8083
X6.6199Y-3.4927
X6.6866Y-3.6189
X6.7Y-3.7536
X6.7273Y-4.2583
X6.7323Y-4.817
T3
X3.4527Y-4.1019
X3.4527Y-4.3976
T4
X4.4552Y-3.1698
X4.5458Y-3.1698
X6.85Y-4.1
X6.85Y-4.1787
X6.85Y-4.2575
X6.85Y-4.3362
X6.85Y-4.415
X6.3552Y-3.1698
X6.4458Y-3.1698
T5
X6.2891Y-4.3459
X6.2891Y-4.5428
T6
X6.8505Y-3.4473
X6.8505Y-3.5473
X6.8505Y-3.6473
X6.8505Y-3.7473
X4.4944Y-3.8765
T7
X4.1992Y-3.8765
T8
X6.874Y-4.7764
X6.874Y-3.2213
X3.3268Y-3.2213
X3.3268Y-4.7764
T3
G00X3.2921Y-4.0305
M15
G01X3.2449Y-4.0305
M16
G05
G00X3.2921Y-4.4695
M15
G01X3.2449Y-4.4695
M16
G05
G00X3.4732Y-4.0305
M15
G01X3.426Y-4.0305
M16
G05
G00X3.4732Y-4.4695
M15
G01X3.426Y-4.4695
M16
G05
T0
M30
